<?xml version="1.0" encoding="utf-8"?>
<!-- Generator: Adobe Illustrator 21.1.0, SVG Export Plug-In . SVG Version: 6.00 Build 0)  -->
<svg version="1.1" id="Layer_1" xmlns="http://www.w3.org/2000/svg" xmlns:xlink="http://www.w3.org/1999/xlink" x="0px" y="0px"
	 viewBox="0 0 2000 2000" style="enable-background:new 0 0 2000 2000;" xml:space="preserve">
<g>
	<path d="M494.8,973.7L494.8,973.7c8.6-10.7,11.5-20,8.6-28.3c-5.7-16.9-33.7-23.7-63.2-30.8l-2.9-0.7c-9.5-2.3-19.4-4.7-28.4-7.5
		c-47.7-14.9-76.3-39.8-95.5-83l-7-15.9c-19.9-45.3-50-113.7-85.8-164.5c-39.2-55.8-130.3-36.8-174.1-27.6l-0.1,0
		c-1.6,0.3-3.1,0.6-4.6,0.9c-1.3,0.3-2.6,0.5-3.7,0.8c-12.2,2.5-21.1,8.2-26.4,17.1c-8.8,14.7-4.6,33-3.6,36.5
		c0.3,15.9,1.6,95.5,3,196.3c1.2,89.2,53.7,116.7,76.2,124.4l0,0c3.9,1.9,16.5,6.7,28.8,10.7c-26.6,61.7-87.9,206.6-113.8,290.2
		l-1.3,4.1l3.6,2.3l0.1,0.1c2.3,1.4,14.5,8,26.5-0.2l1.4-1l0.6-1.5c0.8-1.9,91.1-225.9,111.5-286.2c8.2,1.8,15.7,3.1,23,3.9l0.5,0.1
		c15.1,2.3,32.6,4,51.9,5v8.4c-3.4,3-5.3,7.4-5.6,12.7l-0.1,0.8c-0.1,1.9-0.4,5.5-0.7,10.8c-14.8,201.7-16.7,294.8-15.7,337.3v3.1
		l2.7,1.6l0.1,0.1c1.4,0.8,5.4,2.5,12.2,2.5c4.1,0,8.6-0.7,13.5-2l3.9-1.1l0.2-4c0.2-2.5,18.7-264.8,15.4-356.9v-1.7l-1.1-1.5
		l-0.2-0.3c-0.2-0.3-0.7-0.8-1.3-1.4v-7.7c1.3,0,2.6,0,4,0c1.4,0,2.7,0,4.1,0c0.5,27.6,3.4,173.6,8.1,215.5l0.2,3l2.7,1.4
		c2,1,12.4,5.7,25,0.2l3.4-1.5v-3.7c0-1.5-0.4-155.6-7.1-215.3c22.1-0.6,44.3-2.1,66.1-4.4l114.4,303.7l0.8,2.3l2.2,1l0.1,0.1
		c1.3,0.5,13,4.9,26.2-2.2l4.2-2.3l-1.5-4.5c-0.8-2.4-79-233.4-115.3-302C442.1,1002.2,482.4,989,494.8,973.7z M486.1,966.3
		c-10.6,13.4-54.6,26.7-114.6,34.7l-8.6,1.1l4.5,7.3c30.7,51.2,104.5,266,116.8,302.1c-4.1,1.2-7.6,0.9-10.1,0.4l-114.9-305.2
		l-1.5-4.1l-4.3,0.4c-25,2.7-50.5,4.4-75.8,5l-6.3,0.2l0.9,6.2c6.3,46.3,7.5,174.4,7.8,216c-3.8,0.9-7,0.5-9.3,0
		c-3.8-39.3-6.6-154-7.7-216.7l-0.2-5.5h-5.5c-6.4,0-12.9-0.1-19.1-0.2l-5.8-0.2v25l2.5,1.7l0.2,0.1c0,0,0,0,0,0
		c2.8,89.4-13.4,323.8-15.2,349.3c-4.7,0.9-8.2,0.8-10.4,0.4c-0.9-43,1.3-135.3,15.7-332.3c0.6-7,0.8-10.4,0.8-11.8
		c0.2-3.6,1.6-4.9,2.9-5.6l2.7-1.7v-25.3l-5.4-0.2c-20.5-0.9-39.1-2.6-55.4-5l-1.1-0.1c-8.3-0.9-17.5-2.5-27.3-4.9l-5.1-1.3l-1.7,5
		c-9.5,29.6-48.6,130.4-110.2,283.8l-1.9,4.8c-3.2,1.7-6.5,1.4-8.8,0.7c28.6-90.2,94.6-244.6,114.3-290.1l2.6-5.8l-6-1.9
		c-17.9-5.4-31.8-11.3-33.7-12.1l-0.2-0.1l-0.4-0.1c-20.3-6.9-67.7-31.8-68.9-114c-1.5-109.6-3-196.2-3-197.1l-0.2-1.6l-0.1-0.2
		c-0.5-1.6-4.3-16.9,2.4-28c3.6-6,10-10,18.9-11.8c1-0.2,2-0.4,3-0.6c1.7-0.3,3.5-0.7,5.4-1.1c41.5-8.7,127.8-26.7,162.7,23.1
		c35.6,50.8,65.5,118.9,85.3,164l6.4,14.5c20.4,45.9,51.9,73.5,102.3,89.2c10.3,3.3,22,6.1,32,8.5c22.9,5.5,51.5,12.4,55.2,23.4
		C494.2,953.2,492,958.9,486.1,966.3z"/>
	<path d="M1998.7,1292.6l-0.1-0.4c-27-87.2-92.3-240.4-113.8-290.3c8.2-2.6,15.1-5.2,19.6-6.9c3-1.2,5.3-2.1,6.7-2.6
		c0.9-0.4,1.6-0.7,2.2-1l0,0c22.6-7.7,75.3-35.3,76.4-124.5c0.8-63.2,1.9-131.9,2.9-193.6l0-2.7c0.9-3.5,5.2-21.8-3.6-36.5
		c-5.4-8.9-14.2-14.6-26.4-17.1c-1.2-0.2-2.4-0.5-3.8-0.8c-1.5-0.3-3-0.6-4.5-0.9l-0.1,0c-43.8-9.1-134.9-28.1-174.1,27.6
		c-36.1,51.5-66.4,120.3-86.4,165.9l-6.4,14.4c-19.1,43.3-47.6,68.1-95.4,83c-10.3,3.2-21.6,6-31.3,8.3l-0.5,0.1
		c-29.3,7.1-57,13.9-62.7,30.7c-2.8,8.3,0,17.5,8.6,28.3c12.4,15.3,52.7,28.5,113.7,37.4c-30.6,57.4-89.8,226.9-114.2,298.4
		c-0.6,1.8-1,3-1.2,3.6l-1.5,4.5l4.2,2.3c13.2,7,25,2.6,26.2,2.1l0,0l2.2-1l115.2-306c21.9,2.3,44.1,3.8,66.1,4.4
		c-6.7,59.7-7.1,213.7-7.1,215.3v3.7l3.4,1.5c12.7,5.5,23.1,0.8,25-0.2l2.7-1.4l0.2-3c3-26.8,5.7-101.2,8.1-215.5
		c2.7,0,5.4-0.1,8.1-0.1v7.7c-0.6,0.6-1.1,1.1-1.3,1.4l-1.3,1.8v1.7c-3.3,92.5,15.2,354.4,15.4,356.8l0.2,4.1l3.9,1.1
		c4.9,1.3,9.4,2,13.5,2c3.2,0,7.7-0.4,11.9-2.4l3.1-1.8l0-3c1.1-41.7-0.7-134.2-15.7-337.9c-0.4-4.2-0.6-7.5-0.7-9.4
		c0-0.8-0.1-1.3-0.1-1.6c-0.3-5.3-2.2-9.6-5.6-12.7v-8.5c19.3-1,36.7-2.7,51.7-5l0.2,0c7.6-0.9,15.5-2.2,23.5-4
		c20.1,59.5,110.8,284.7,111.5,286.2l0.6,1.4l1.2,1l0.2,0.2c11.9,8.3,24.1,1.6,26.4,0.2l3.4-2.2L1998.7,1292.6z M1977.5,1290
		l-1.9-4.8c-61.6-153.4-100.7-254.2-110.2-283.8l-1.5-5l-5.1,1.3c-9.8,2.4-19,4-27.3,4.9l-0.7,0.1c-16.1,2.4-34.8,4.1-55.7,5.1
		l-5.4,0.2v25.3l2.7,1.7l0.1,0.1c1.1,0.6,2.6,1.9,2.8,5.7l0,0.1c0.1,1.4,0.4,5.2,0.8,11.1c14.5,197,16.6,289.6,15.7,332.8
		c-2.2,0.4-5.7,0.6-10.5-0.4c-1.8-25.5-18-259.8-15.2-349.3c0,0,0,0,0,0l2.7-1.8v-25l-5.8,0.2c-6.3,0.2-12.5,0.2-19.1,0.2h-5.6v5.5
		c0,1.7-2.9,166.7-7.7,216.6c-2.3,0.6-5.5,1-9.3,0c0.3-51,1.6-171.1,7.8-216l0.9-6.2l-6.4-0.2c-25.2-0.6-50.7-2.3-75.8-5l-4.3-0.4
		L1527,1312.3c-2.2,0.5-5.9,0.8-10.1-0.4c12.3-36.1,86.1-250.9,116.8-302.1l4.6-7.4l-8.6-1.1c-59.1-8-104.1-21.5-114.7-34.4
		c-6-7.4-8.2-13.2-6.7-17.6c3.7-11,32.2-17.9,55.2-23.4c11.7-2.8,22.2-5.4,32-8.5c50.5-15.8,82.1-43.3,102.3-89.3l6.8-15.4
		c19.8-45,49.6-112.9,84.9-163.1c34.8-49.5,120.8-31.8,162.1-23.2l0.7,0.1c1.2,0.2,2.4,0.5,3.6,0.7c1.7,0.3,3.3,0.7,4.8,1
		c8.9,1.8,15.3,5.8,18.9,11.8c6.7,11.2,2.8,26.4,2.4,28l-0.1,0.2l-0.2,1.2l0,0.4c0,0.9-1.5,87.5-3,197.1
		c-1.1,82.4-48.6,107.2-69.1,114l-0.7,0.2l-0.1,0.1c-2.7,1.2-16.4,6.8-33.3,11.9l-6,1.9l2.5,5.7c25.4,58.8,86.9,203.6,114.3,289.9
		C1983.9,1291.4,1980.7,1291.7,1977.5,1290z"/>
	<path d="M1659.6,810.9l-200.7-65.6l-943.4-0.1h-0.6l-171.4,65.7V864h197.8l10.4,505.5l0.1,2.9h59.2L621.4,864h758.3l10.3,502.9
		l0.2,5.5h59.2L1460,864h194.5L1659.6,810.9z M1401.1,1361.2l-10.3-502.9l-0.2-5.5H610.4l-10.5,508.4h-37.1l-10.3-502.9l-0.2-5.5
		H354.7v-34l161.8-62.3h940.2l190.9,62.3l-3.3,34h-195.3l-10.5,508.4H1401.1z"/>
</g>
</svg>
