<?xml version="1.0" encoding="utf-8"?>
<!-- Generator: Adobe Illustrator 21.1.0, SVG Export Plug-In . SVG Version: 6.00 Build 0)  -->
<svg version="1.1" id="Layer_1" xmlns="http://www.w3.org/2000/svg" xmlns:xlink="http://www.w3.org/1999/xlink" x="0px" y="0px"
	 viewBox="0 0 2000 2000" style="enable-background:new 0 0 2000 2000;" xml:space="preserve">
<path d="M1306.3,1029.3c72.4-10.2,136.3-23.8,185.2-39.2c51-16.1,84.5-33.7,99.4-52.1c20-24.7,26.7-45.7,20.3-64.3
	c-13-38.7-80.5-55-151.8-72.4c-28.4-6.8-53.8-13.1-77.5-20.5c-119.3-37.3-190.7-99.5-238.7-207.8l-15.5-35.3
	c-49.2-112.3-123.6-282-212.5-408.5c-94.5-134.8-317-88.1-424-65.7c-7.3,1.6-14.2,3-20.4,4.2c-28.3,5.7-48.9,19-61.3,39.5
	c-21,35.1-10,79.6-8.2,86.3c0,2.7,0.2,10,0.4,21.6c1,60.3,4,243.8,7,463.1c1.3,93.6,25.8,169.3,72.9,225
	c39.9,47.2,86.8,68.2,111.4,76.5l0.4,0.2c8.4,3.5,38.1,15.8,76.3,27.9c-51,118.1-215.4,503.2-282.7,720.9l-1.9,6.1l5.3,3.4l0.2,0.1
	c5.2,3.1,32.6,17.9,58.9-0.3l2-1.4l0.9-2.3c2.2-5.5,230.2-571.1,276.3-710.1c22.4,5.1,43.2,8.8,61.7,10.8l0.8,0.1
	c39.7,5.9,84.3,10.1,132.9,12.4v28.4c-6,4.8-12.9,13.6-13.9,29.3c-0.2,2.9-0.8,11-2,28c-36.8,500.9-41.3,728.7-38.6,831.7l0.2,4.5
	l3.8,2.4c1.6,1,10.4,5.7,27.3,5.7c9.8,0,20.5-1.6,31.8-4.8l5.7-1.6l0.3-5.8c0.5-6.2,46.1-652.3,37.9-879.3l-0.2-2.5l-1.5-2
	c-0.5-0.8-2.2-2.8-4.8-5.1V1049c9.8,0.2,20.5,0.3,31,0.3c1.9,104.8,8.9,437.9,19.9,536.3l0.5,4.4l3.8,2.1v0
	c1.9,1,26.4,13.8,57.1,0.3l5-2.2v-5.5c0-3.9-1.1-393.5-18.1-536.2c57.8-1.5,115.9-5.4,172.8-11.5l284.4,755.1l0.5,1.2l3.4,1.4v0
	c1.9,0.8,29.1,11.4,59.6-5l6.3-3.3l-2.3-6.7C1590.7,1769.9,1392.6,1185.8,1306.3,1029.3z M1050.6,1032.5l1.3,9.2
	c15.8,117.1,18.7,438.4,19.2,537.5c-15.3,5-27.8,2.1-33.8,0c-11.3-109.8-18.1-467.3-19.4-538.2l-0.2-8.1h-8.1
	c-14.1,0-30.8-0.1-47.2-0.6l-8.6-0.2v52.8l3.8,2.5c1.2,0.8,2.1,1.5,2.7,2.1c7,208-29.7,755.8-37.5,868.5
	c-18.8,4.4-30.9,2.5-36.6,0.9c-2.3-105.3,2.7-333.6,38.7-824.6c1.1-15.8,1.8-24.9,2-28.1c0.5-9,3.8-15.3,9.7-18.7l4.2-2.4v-53.6
	l-8-0.3c-51-2.3-97.3-6.4-137.5-12.4l-2-0.3l-0.1,0c-20.4-2.3-43.3-6.4-68-12.3l-7.5-1.9l-2.4,7.4
	c-36.9,115.2-247.1,639.2-277.4,713.8c-12.4,7.4-25.3,4.5-33.1,1.4c69.5-221.6,234.6-607.6,283.7-720.9l3.8-8.6l-8.9-2.7
	c-39.9-12.1-71.8-25.1-83.6-30.1c-0.5-0.2-0.8-0.3-1-0.4C445,911.9,426.2,746.6,425.3,678c-3.6-263.6-7.3-483.3-7.4-485.9l-0.2-1.8
	l-0.1-0.5c-1.2-4.4-11.6-44.2,6.2-74.1c9.8-16.3,26.8-27,50.3-31.7c3.4-0.7,7-1.4,10.7-2.2c3.1-0.7,6.4-1.3,9.8-2
	c49.1-10.4,131.2-27.8,209.8-25.9c42.8,1,80.2,7.6,111.4,19.6c36.5,14.1,65.3,36,85.7,65.1c87.7,124.8,161.7,293.5,210.7,405.1
	l15.8,35.9c49.5,111.7,126.3,178.7,248.9,217c24.7,7.7,51.7,14.3,77.7,20.6l0.8,0.2c66.7,16.2,129.8,31.5,140,61.4
	c4.3,12.8-1.4,28.7-17.5,48.6c-27.6,34.1-134.6,66.6-286.2,86.9l-12.5,1.7l6.6,10.8c74.7,124.9,252.8,641.4,290.2,751.2
	c-16.1,6.3-30.3,3.9-36.1,2.4l-285.9-759.1l-0.8-2.2l-6.4,0.8c-60.7,6.7-123.6,10.9-187,12.3L1050.6,1032.5z"/>
</svg>
