<?xml version="1.0" encoding="utf-8"?>
<!-- Generator: Adobe Illustrator 21.1.0, SVG Export Plug-In . SVG Version: 6.00 Build 0)  -->
<svg version="1.1" id="Layer_1" xmlns="http://www.w3.org/2000/svg" xmlns:xlink="http://www.w3.org/1999/xlink" x="0px" y="0px"
	 viewBox="0 0 2000 2000" style="enable-background:new 0 0 2000 2000;" xml:space="preserve">
<g>
	<path d="M1791.4,956.4c-12.1,0-22,9.2-22,20.4c0,11.2,9.9,20.4,22,20.4s22-9.2,22-20.4C1813.4,965.6,1803.5,956.4,1791.4,956.4z
		 M1791.4,985.7c-5.8,0-10.5-4-10.5-8.9c0-4.9,4.7-8.9,10.5-8.9s10.5,4,10.5,8.9C1801.9,981.7,1797.2,985.7,1791.4,985.7z"/>
	<path d="M1599.3,898.3v303.4h12.8l11.6,113.3l0.4,5.3h66l12.2-118.5h181.6l11.7,113.3l0.4,5.3h66l12.2-118.5h9.4V898.3H1599.3z
		 M1610.8,1038V909.8h361.3V1038H1610.8z M1906.5,1308.7l-11.7-113.3l-0.4-5.3h-202.5l-12.2,118.5h-45.1l-11.6-113.3l-0.4-5.3h-11.8
		v-123.5h361.3v123.7h-8.3l-12.2,118.5H1906.5z M1610.8,1055.3v-5.8h361.3v5.8H1610.8z"/>
	<path d="M1791.4,1108.8c-12.1,0-22,9.2-22,20.4c0,11.2,9.9,20.4,22,20.4s22-9.2,22-20.4C1813.4,1118,1803.5,1108.8,1791.4,1108.8z
		 M1791.4,1138.1c-5.8,0-10.5-4-10.5-8.9s4.7-8.9,10.5-8.9s10.5,4,10.5,8.9S1797.2,1138.1,1791.4,1138.1z"/>
	<path d="M716.4,851.4H223c-36.7,0-54.6,16.3-54.6,49.9v6.5H771v-6.5C771,867.7,753.1,851.4,716.4,851.4z M180,896.3
		c1.5-23.7,14.1-33.4,43-33.4h493.3c28.7,0,41.4,9.7,43,33.4H180z"/>
	<path d="M1331.8,851.4H838.4c-36.7,0-54.6,16.3-54.6,49.9v6.5h602.6v-6.5C1386.4,867.7,1368.5,851.4,1331.8,851.4z M795.4,896.3
		c1.5-23.7,14.1-33.4,43-33.4h493.3c28.8,0,41.5,9.7,43,33.4H795.4z"/>
	<path d="M1417.8,926.7H136.9c-65.8,0-119.4,48.7-119.4,108.5v194.9h62.6l10.8,144.3l0.4,5.3h90.5L193,1230h1168.5l11.2,149.7h90.5
		l11.2-149.7h62.6v-194.9c0.1-26.9-10.8-52.7-30.8-72.7C1483.6,939.7,1451.4,926.7,1417.8,926.7z M1383.6,1368.4l-11.2-149.7h-1190
		l-11.2,149.6H102L91.2,1224l-0.4-5.3H29v-183.4c0-53.5,48.4-97,107.9-97h1280.9c59.5,0,107.9,43.5,107.9,97v183.4h-61.8
		l-11.2,149.7H1383.6z"/>
	<path d="M223,840.9h493.3c26.3,0,45.3,7.6,56.4,22.5l4.6,6.3l4.6-6.3c11.1-14.9,30.1-22.5,56.4-22.5h493.3
		c26.3,0,45.3,7.6,56.4,22.5l10.4,13.9V735.9c0-38.2-10.9-67.5-32.3-86.9c-21.4-19.4-53.5-29.2-95.5-29.2H284
		c-42,0-74.1,9.8-95.5,29.2c-21.5,19.4-32.3,48.7-32.3,86.9v141.4l10.4-14C177.6,848.5,196.5,840.9,223,840.9z M196.7,657.6
		c19.3-17.4,48.7-26.3,87.3-26.3h986.7c38.6,0,68,8.8,87.3,26.3c19.2,17.3,29,43.7,29,78.3v110c-13.5-10.8-32.4-16.5-55.3-16.5
		H838.4c-26.5,0-47.5,7.5-61,21.7c-13.6-14.2-34.6-21.7-61-21.7H223c-22.9,0-41.9,5.7-55.3,16.4V735.9
		C167.7,701.2,177.4,674.9,196.7,657.6z"/>
</g>
</svg>
