<?xml version="1.0" encoding="utf-8"?>
<!-- Generator: Adobe Illustrator 21.1.0, SVG Export Plug-In . SVG Version: 6.00 Build 0)  -->
<svg version="1.1" id="Layer_1" xmlns="http://www.w3.org/2000/svg" xmlns:xlink="http://www.w3.org/1999/xlink" x="0px" y="0px"
	 viewBox="0 0 2000 2000" style="enable-background:new 0 0 2000 2000;" xml:space="preserve">
<g>
	<path d="M1982.2,1083.7h-2.9v-3h-74.1l-330.6-228L1854,591.6l4.6-4.2l-55.3-59.2l-13.5,12.6c-19.8-19-45.8-29.8-73.6-30.3
		c-28.7-0.5-56.1,10-76.9,29.8L1177.5,978H165.9c-43,0-78,35-78,78v24.8H18.8v133.5h236.9l-93.3,205.6h79.5l131.5-205.6h1118.9
		l97,82.3c-9,18.3-13.8,38.7-13.8,59.1c0,74.2,60.3,134.5,134.4,134.5c74.2,0,134.5-60.3,134.5-134.5c0-74.1-60.3-134.4-134.5-134.4
		c-11.3,0-22.8,1.5-34.2,4.5l-8.3-11.5h314.7V1083.7z M1602.6,1297.7l2.3-4.4l-106.2-90.1l-1.8-1.6H366.7l-131.5,205.6h-53.5
		l93.3-205.6H31.2v-108.7h69.1V1056c0-36.2,29.4-65.6,65.6-65.6h1016.6l465.6-441c18.6-17.6,43.1-27,69.1-26.4
		c25.8,0.7,49.9,11.5,67.8,30.6l4.2,5.1l13.8-12.8l38.3,41l-280.6,262.2l-5.6,5.2l344.8,237.8l1.5,1.2h68.6v108.5h-326.7l27.6,38.2
		l4.2-1.3c11.5-3.4,23.2-5.2,34.9-5.2c67.3,0,122,54.7,122,122c0,67.3-54.7,122-122,122c-67.3,0-122-54.7-122-122
		C1588,1335.5,1593,1315.5,1602.6,1297.7z"/>
	<path d="M1544.6,866.9l-2-1.4l-243.4,227.5h573.3L1544.6,866.9z M1832.7,1080.7h-502.1l213.2-199.2L1832.7,1080.7z"/>
</g>
</svg>
