<?xml version="1.0" encoding="utf-8"?>
<!-- Generator: Adobe Illustrator 21.1.0, SVG Export Plug-In . SVG Version: 6.00 Build 0)  -->
<svg version="1.1" id="Layer_1" xmlns="http://www.w3.org/2000/svg" xmlns:xlink="http://www.w3.org/1999/xlink" x="0px" y="0px"
	 viewBox="0 0 2000 2000" style="enable-background:new 0 0 2000 2000;" xml:space="preserve">
<style type="text/css">
	.st0{fill:#231F20;}
</style>
<g>
	<path class="st0" d="M1051.7,1121.3l-5.6,0.8c-10.3,1.6-22.5,3.1-37.3,4.6l-7,0.6l5.7,23.7c3.6,15.1,8.5,35.8,14.5,60.6
		c16.6,69.1,44.8,156.1,77.4,238.5c13.1,33.3,26.3,64,37.2,86.5c16.9,35.2,21.2,36.8,23.1,37.5c5.1,1.9,9.7,2.9,13.7,2.9
		c3.6,0,6.7-0.7,9.3-2.2c5.9-3.2,7.3-8.4,7.5-9.4l0.4-1.6l-120.7-364.9L1051.7,1121.3z M1017,1138.1c8-0.9,16.9-1.9,25.4-3.1
		l15.7,67.1l0,0.1l119.5,361.3c-0.2,0.2-0.5,0.4-0.9,0.7c-0.9,0.5-4.3,1.7-12.2-1.2c-4.4-4.1-25.5-45.8-53.9-117.2
		c-18.8-47.4-53.8-141.3-76.8-237.1c-5.6-23.4-11.2-46.6-16.5-69.2L1017,1138.1z"/>
	<path class="st0" d="M774.9,1118.5l-5.8-1.2l-19,81.5l-120.2,363.4l-0.6,1.6l0.4,1.7c0.2,0.9,1.6,6.2,7.5,9.4
		c2.8,1.4,5.8,2.1,9.3,2.1c4.1,0,8.6-0.9,13.8-2.9c1.8-0.7,6.1-2.3,23-37.5c10.8-22.6,24-53.3,37.2-86.5
		c32.6-82.4,60.8-169.4,77.4-238.5c8.9-36.8,15.8-66.1,19.1-79.9l1.6-6.7l-6.7-0.8C798.1,1122.5,786,1120.6,774.9,1118.5z
		 M642.3,1563.7l119.5-361.3l16.5-71c7.8,1.4,16.1,2.7,25.2,3.9c-1,4.2-2.2,9.4-3.7,15.4c-3.5,14.7-8.2,34.4-13.8,58
		c-23,95.6-58,189.6-76.8,237.1c-28.3,71.4-49.4,113-53.7,117.2c-7.9,2.9-11.3,1.9-12.4,1.3C642.8,1564.2,642.6,1564,642.3,1563.7z"
		/>
	<path class="st0" d="M694.3,707.6L694.3,707.6c0-0.1,0-0.2,0.1-0.3c2-6.9,9.2-31.2,20-54.7l3.9-8.6H612.8l9.3-26.8h20.1v-73h-8.9
		c7.7-5.8,14.4-13,19.7-21c1.6-2.4,1.7-5.5,0.4-7.9l4.6-0.9l-5.6-0.5c-0.3-0.3-0.6-0.6-0.9-0.9c-0.8-0.7-1.6-1.2-2.6-1.5
		c-1-1.8-2.7-3.2-4.7-3.9c-2.2-0.7-4.4-1.2-6.7-1.4c0.4-6.2,0.2-14.3-3.3-22.6c0.3-2.1-0.4-4.3-1.8-6.1c-2.3-3-6.2-4-9.4-2.7
		c-0.1-1.8-0.3-3.8-0.5-6c-0.3-3.2-2.3-6.1-5-7.4c-2.7-1.3-6-1.2-8.5,0.3c-1.1,0.6-2.2,1.4-3.4,2.2c-0.4-5.3-1.2-10.6-2-15.7
		l-0.9-6.3c-0.5-2.9-2.5-5.3-5.3-6.2c-3.1-1.1-6.5-0.4-8.8,1.7c-3.9,3.7-7.3,8-10.1,13c-0.9-2.8-1.8-5.5-2.6-8.1
		c-0.3-1.3-0.9-2.4-1.7-3.3l9.3-14.6L571,436.4c-0.3-0.1-0.7-0.3-1-0.4c-2.9-0.9-6.3-0.3-8.7,1.6c-0.6,0.5-1.2,1-1.7,1.4
		c-2.2-4-5.1-7.4-8.2-9.7c-5-3.5-11.6-2.9-16.1,1.5c-1.4,1.3-2.5,2.9-3.5,4.7c-1.6-3.2-3.3-6.4-5.3-9.8c-1.1-2-3.1-3.3-5.4-3.6
		c-2.2-0.4-4.6,0.2-6.4,1.8c-6.2,5.2-11.4,11.5-15.5,19c-3.1-4.7-6.9-9.6-11.2-14.4c-1.7-2-4.5-3.1-7.1-2.7
		c-2.8,0.3-5.3,1.8-6.7,4.1c-2.2,3.5-4,6.9-5.4,10.3c-1.1-2-2.4-4.2-3.8-6.6c-1.3-2.1-3.3-3.5-5.7-3.8c-2.4-0.4-4.9,0.3-6.9,2
		c-5.8,4.9-10.1,12.2-12.8,22.2c-3.7-5.4-8.1-11-13.6-17.2c-1.6-1.9-3.9-2.9-6.4-2.8c-2.7,0-5.3,1.4-6.9,3.6l-0.3,0.4
		c-2.7,3.5-6.2,7.9-8.4,13.1c-1-1.1-2.1-2.1-3.2-3.2c-1.6-1.6-3.9-2.5-6.3-2.5l-0.2,0c-2.3,0.2-4.3,1.1-5.8,2.8l-0.1,0.1
		c-6.1,7.4-9.8,17-10.6,27.7c-2.6-3.5-5.2-6.9-7.7-10.2c-2.3-2.9-6.2-4.1-9.7-2.9c-3.4,1.1-5.6,4.2-5.6,7.7v2.2
		c-0.1,24.8-0.2,52.6,17,71.6h-16.6v73h22.4l10.9,26.8H278.5L26.2,772.9v74.5H134V1481h313.6V847.3h206.3L694.3,707.6z M398.1,501.7
		l0-0.1c-3.3-9.6-5.2-22.8-1.6-33.7c4.1,5.4,6.8,11,7.3,19.2c-2.1,6.6-3.5,13.9-4,21.5c-0.5-0.9-1-1.8-1.5-2.6
		C398.6,504.6,398.5,503.1,398.1,501.7z M372.2,497.3c10.5,15.9,18.3,30.9,24,46.4C383.5,536.6,374.4,525.6,372.2,497.3z
		 M611.9,536.5c-0.8,0.4-1.6,0.8-2.5,1.2c4.1-2.8,7.8-5.1,11.5-7C618.1,532.8,615.1,534.8,611.9,536.5L611.9,536.5z M595.6,522.2
		c-2,1.6-4.1,3.2-5.7,4.6c0,0-0.1,0-0.1,0c2.2-12.3,6.6-27,15.4-38.2C604.8,504.4,601.6,515.7,595.6,522.2z M585.3,471.8
		c1.2-0.6,2.2-1.4,3.1-2.3c0.2,3.6,0.3,7.3,0.3,11.4c-0.4,0.6-0.8,1.2-1.2,1.8C587.1,479.4,586.4,475.8,585.3,471.8z M547.9,544.1
		h-1.8c0.4-8,2.1-15.1,5.2-21.5C552.4,531,552.5,537.9,547.9,544.1z M545.2,448.3c0-0.1,0-0.1,0.1-0.2c0,0.1,0.1,0.2,0.1,0.3
		C545.3,448.4,545.2,448.4,545.2,448.3z M562.5,479.1c0.2,1.2,0.3,2.4,0.5,3.6c-0.4,0.8-0.9,1.7-1.3,2.5c-0.3-1.4-0.7-2.9-1.1-4.4
		c0.1-0.4,0.2-0.8,0.3-1.1c0.9-4.6,2.1-8.8,3.9-13c0.5,1.6,1,3.1,1.5,4.7C563.7,473,562.1,476,562.5,479.1z M482,457.2
		c0.2-2.2,0.7-4.4,1.4-6.7c0.5,0.6,0.9,1.3,1.4,1.9C483.9,453.9,482.9,455.5,482,457.2z M490.4,534.4c-4.9-14.8-3.1-30.6-0.1-45.7
		C495,512.1,492.9,526.6,490.4,534.4z M456.4,491.5c5.9,17.3,10,34.9,4,50.1C452.4,525.9,451,507.5,456.4,491.5z M459.9,462.3
		c-0.7-0.2-1.4-0.3-2.2-0.3c-0.9,0-1.8,0.1-2.6,0.4c1.1-3.2,2.2-6.1,3.4-9c1.8,3.2,3.3,6.7,4.7,10.5
		C462.3,463.2,461.2,462.6,459.9,462.3z M420.5,490.5c1,11.8,1.5,21.9,0.1,31.8c-0.9,2.2-1.8,4.4-2.5,6.6
		C416.7,515.5,416.3,502.2,420.5,490.5z M432.8,544.2c1.6-3.6,2.8-7.3,3.8-11.3c1.6,3.7,3,7.4,4,11.3H432.8z M421.9,459.5
		c-1.5,1.3-3,2.7-4.5,4.3c0.8-2.9,1.8-5.3,3-7.6c0.7,0.9,1.4,1.9,2.1,2.8C422.3,459.2,422.1,459.3,421.9,459.5z M520.9,451.6
		c-1.1-1.9-2.9-3.4-5-4c1-1.3,2-2.6,2.9-3.8c2.6,5.1,4.7,10.4,6.2,15.7C523.7,456.9,522.4,454.3,520.9,451.6z M510.5,477.3l0.1-0.1
		c0.5-1.1,1-2.1,1.4-3c0.9,2.1,1.8,4.2,2.6,6.3C513.6,479,512.1,477.9,510.5,477.3z M505.1,456.3L505.1,456.3L505.1,456.3
		L505.1,456.3z M406.5,656.2l-20.7-51.1h-18.4v-48.6h91l3.4,4.3l-1.8-4.3h22.1l-2.3,12.9l11.1-12.9h24.2l9.6,13.4l-1.6-13.4h44.3
		l0.2,0.4l-0.8,0.8l1-0.5l2.2,5l2.8-5.7H630v48.6h-16.5l-17.8,51.1h103.7c-8.3,19.5-14,37.9-16.7,47.5c0,0.2-0.1,0.3-0.1,0.4
		L647.2,826l-2.5,9.1H435.5v633.7H146.2V835.1H38.3v-54.9l242.3-124H406.5z"/>
	<path class="st0" d="M1213.8,947.3l-50-175.3c-4.9-19.9-27.1-106.1-49.9-140.2c-25.1-37.6-64.7-39.4-93.7-40.7l-7.5-0.3
		c-28.3-1.5-91-2-91.6-2c-0.6,0-63.2,0.4-91.4,2l-7.6,0.3c-28.9,1.3-68.5,3.1-93.6,40.7c-25.5,38.1-49.2,137.5-50.1,141.3l-49,172
		c0,0.1-0.3,1.2-0.9,3.1c-10.3,36.8-18,64.3-22.6,81.9l-3.3,12.6l11.9-5.5c1.3-0.7,2.5-1.1,3.9-1.3l0.1,0
		c7.8-1.2,17.4,4.6,28.5,17.4c44.4,51.2,127.5,75,261.6,75l10.7-0.1l2.3,0.3l0.8-0.3l11.6,0.1c134.2,0,217.3-23.8,261.6-75
		c10.5-12,20.7-18.2,28.7-17.4c1.2,0.1,2.4,0.6,3.9,1.3l11.8,5.5l-3.4-12.5C1232.2,1013.6,1225,987.3,1213.8,947.3z M1104,638.7
		c24.2,36.1,48.2,136.5,48.5,137.5l49.6,174.4c6.9,24.8,13.8,49.3,20.3,73c-11.4,0.1-23.2,7.2-35.9,21.6
		c-41.9,48.3-122.1,70.8-252.4,70.8l-25.3,0.1c-130.3,0-210.6-22.5-252.4-70.8c-12.7-14.6-24.3-21.7-35.5-21.7c-0.1,0-0.2,0-0.3,0
		c8.3-30.4,19.8-71.6,20.8-74.8l0,0l49.2-172.5l0-0.2c0.2-1,24.2-101.2,48.5-137.5c21.8-32.6,57.9-34.2,84.2-35.4l7.4-0.3
		c27.9-1.5,90.3-2,90.8-2c0.6,0,63,0.4,90.9,2l7.4,0.3C1046.1,604.5,1082.2,606.1,1104,638.7z"/>
	<path class="st0" d="M1680.1,644.5l-0.6-0.2l-555.1-0.3l3.9,8.7c7.2,15.5,13.8,33.6,19.7,53.7c0.2,0.7,0.3,1.2,0.4,1.4l35.3,121.4
		l4.9,18.1h163.8V1481H1902V847.3h65.7l7.3-74.6L1680.1,644.5z M1956.8,835.1h-66.9v633.7h-525.2V835.1h-166.6l-37.8-130.6l-0.1-0.3
		c-2.2-7.8-8.1-27.4-16.8-48h533l285.8,124.1L1956.8,835.1z"/>
</g>
</svg>
