<?xml version="1.0" encoding="utf-8"?>
<!-- Generator: Adobe Illustrator 21.1.0, SVG Export Plug-In . SVG Version: 6.00 Build 0)  -->
<svg version="1.1" id="Layer_1" xmlns="http://www.w3.org/2000/svg" xmlns:xlink="http://www.w3.org/1999/xlink" x="0px" y="0px"
	 viewBox="0 0 2000 2000" style="enable-background:new 0 0 2000 2000;" xml:space="preserve">
<style type="text/css">
	.st0{fill:#231F20;}
</style>
<g>
	<path class="st0" d="M1222.7,733.6c-95.2,0-150,40.3-209.7,154.1l-12.6,24.2l-12.7-24.2C928.1,773.9,873.3,733.6,778,733.6
		c-114.7,0-208,91.1-208,203c0,102.6,47.3,209,153.4,344.8c37.2,48.6,70.2,87.7,103.7,123c4.2,4.5,7.8,8.3,11.1,11.6
		c3.4,3.4,6.6,6.5,9.9,9.6l2.8,2.7c8.5,8.3,16.9,16,24.9,22.9l3.8,3.1c11.7,9.7,21.2,16.9,31,23.2c10.7,7.1,20.2,12.5,29,16.6
		c1.5,0.8,2.9,1.3,4.9,2c7,3.1,16.2,6.9,25.4,9.1c6,1.5,11.6,2.1,17,2.6l4.1,0.5c2.7,0.5,5.8,1,10,1c2.9,0,5.8-0.4,7.9-0.7l4.9-0.7
		c5.5-0.5,11.3-1,17.1-2.6c9.6-2.4,18.7-6.1,26.4-9.4l3.7-1.5l0.1-0.1c8.9-4.2,18.8-9.8,30.9-17.7c10-6.7,19.8-14.1,30-22.7l3.3-2.8
		c7.2-6.1,15-13.3,24.8-22.6l3.8-3.7c3.4-3.2,6.4-6.1,9-8.8c3.8-3.8,8.1-8.3,12.9-13.6c31-32.6,64.3-72.2,101.8-120.9
		c106.1-135.9,153.4-242.3,153.4-344.9C1430.8,824.7,1337.4,733.6,1222.7,733.6z M778,748.5c88.6,0,140,38.3,196.3,146.4l25.9,49.4
		l25.9-49.4c56.5-107.9,107.9-146.2,196.4-146.2c106.5,0,193.2,84.4,193.2,188.1c0,99-46.4,202.6-150.4,335.9
		c-36.9,48-69.9,87.2-100.8,119.8c-4.8,5.3-8.9,9.6-12.6,13.3l-0.1,0.1c-1.9,2.1-4,4.1-6.1,6c-0.8,0.8-1.7,1.6-2.5,2.4l-3.8,3.7
		c-9,8.8-16.8,16-23.9,21.9l-3.3,2.7c-10.5,8.8-19.9,15.9-28.6,21.7c-11.6,7.5-20.7,12.8-28.6,16.5l-3.5,1.4l-0.1,0
		c-7.7,3.3-15.8,6.7-24.3,8.8c-4.6,1.2-9.1,1.7-15,2.2l-4.7,0.6l-0.2,0c-4.4,0.8-9,0.8-13.8-0.1l-4.6-0.6l-0.2,0
		c-4.8-0.4-9.9-0.8-15-2.1c-8.1-2-16.4-5.4-23.4-8.5l-0.3-0.1c-1.9-0.6-2.8-0.9-3.9-1.5c-8.1-3.7-17-8.8-27.2-15.6
		c-9.5-6.2-18.7-13-29.6-22.2l-3.7-3.1c-7.7-6.5-15.8-14-24.2-22.2l-2.8-2.7c-0.8-0.8-1.6-1.5-2.4-2.3c-2.4-2.3-4.8-4.6-7.3-7.1
		c-3.2-3.2-6.8-6.9-10.7-11.2c-33.5-35.3-66.2-74.1-102.8-122c-103.9-133-150.3-236.5-150.3-335.8
		C584.9,832.9,671.5,748.5,778,748.5z"/>
	<path class="st0" d="M1611.2,806.8V210.5h-284.4v307.3l-264-304.8l-2.4-2.5H938L21.4,1170.1l-2,2.2v82.7l52.5,32.1l106.4-56.7
		l9.8,552.3l0.2,7.3h1639.6v-557.2l105.1,52.5l4.2,2.2l44.2-35.4v-79.8L1611.2,806.8z M1812.9,1208.5V1775H202.8l-9.9-557.2
		l-0.2-12.1l-120.3,64.2l-38.2-23.3v-68.4l910.1-952.8h109.3l288,332.4V225.3h254.7v587.8l370.3,365.3v66.3l-31.3,25L1812.9,1208.5z
		"/>
</g>
</svg>
