<?xml version="1.0" encoding="utf-8"?>
<!-- Generator: Adobe Illustrator 21.1.0, SVG Export Plug-In . SVG Version: 6.00 Build 0)  -->
<svg version="1.1" id="Layer_1" xmlns="http://www.w3.org/2000/svg" xmlns:xlink="http://www.w3.org/1999/xlink" x="0px" y="0px"
	 viewBox="0 0 2000 2000" style="enable-background:new 0 0 2000 2000;" xml:space="preserve">
<style type="text/css">
	.st0{fill:#231F20;}
</style>
<g>
	<path class="st0" d="M1383.7,812.6L1383.7,812.6c56.1-69.1,111.1-134.7,163.4-194.8c54.4-62.5,101.4-117,136.3-157.5
		c38.8-45.1,70.8-84.4,95-116.8c24.9-33.3,37-57.6,37-74.2c0-35.5-9.7-67.7-28.7-95.7c-18.6-27.3-40.8-51.1-65.9-71
		c-25.3-19.9-51.8-35.8-78.9-47.2c-28.2-11.9-49.7-17.6-65.9-17.6h-7.8l-0.8,7.8c-2,22.7-22,62.9-59.5,119.6
		c-38.3,57.9-91,130.2-156.8,215.1c-66.9,86.4-145.6,186.2-234.1,296.7c-93,116.3-192.3,241.4-295.1,371.9
		c-58.3,73.9-117.6,147.7-176.3,219.2c-56.7,68.9-108.5,134.6-154.2,195.3c-45,59.9-81.9,114-109.6,160.7
		c-28.5,48-42.9,88.6-42.9,120.6c0,34,9.1,64.5,27.1,90.8c17.5,25.7,38.1,47.6,61.3,65c22.8,17.3,47.2,31.5,72.3,42.3
		c25.1,10.7,47,17.1,65.1,18.8l8.3,0.8l0.9-8.3c6.2-51.7,35-120.3,85.4-203.8c51.1-84.3,115.6-178.6,191.9-280.4
		c76.2-101.6,162.5-210.3,256.3-323.1C1199.1,1037.4,1291.9,924.9,1383.7,812.6z M1635.1,71.2c25.8,10.9,51,26,75,44.9
		c23.9,18.9,44.8,41.5,62.3,67.1c17.1,25,25.8,54,25.8,86c0,7.1-4.4,24.9-33.6,63.9c-23.3,31.2-55,70.2-94.3,115.8
		c-42.7,49.6-88.5,102.6-136.3,157.5c-53.4,61.5-108.5,127.2-163.7,195.3c-85.7,105.1-178.4,217.6-275.7,334.4
		c-92.5,111-178.9,219.9-256.9,323.8l0,0c-77.1,102.9-142,197.7-192.9,281.7c-49,80.9-78.1,148.9-86.5,202
		c-14.9-2.6-32.4-8.1-51.9-16.5c-23.6-10.1-46.8-23.6-68.8-40.1c-21.6-16.2-40.9-36.7-57.4-61c-16-23.4-24.2-50.7-24.2-81.2
		c0-28.9,13.6-66.6,40.5-112c27.1-45.7,63.6-99.2,108.5-159.1c44.6-59.3,96.3-124.9,153.7-194.8c56.2-68.4,115.6-142.2,176.5-219.3
		c112.3-142.5,208.8-264.1,295.1-371.8c89-111.3,167.8-211.2,234.2-296.9c65.7-84.8,118.7-157.5,157.5-216.2
		c35.8-54.1,55.8-93.2,61-119.3C1596.4,56.9,1613.8,62.2,1635.1,71.2z"/>
	<path class="st0" d="M1911.4,1277.9c-4.9-23.8-21.8-41.8-50.1-53.4c-37.1-15.3-78.6-20.1-120-13.9c-12.3,1.9-22.4,7.4-30,16.4
		c-13,8-15.7,18.5-15.7,26l0.2,1.8l0.1,0.3c7.9,30.3,0.6,69.9-21.9,117.7c-23.2,49.3-57.4,103.4-101.5,160.7
		c-117.6,148.9-219,224.5-301.2,224.5c-9.2,0-18.2-2.8-27.7-8.5c-8.6-5.1-16.1-18.3-21.7-38.1c-4-19.4-1.9-42.4,6.2-68.3
		c8.3-26.6,21-55.5,37.8-85.6c16.7-29.9,36.4-60.1,58.7-89.9c22.4-29.8,45.4-57.7,68.4-82.9c96.3-104.4,184.8-159.7,263.2-164.4h9.5
		c5.6,0,13.7-2.1,25.5-6.6c14.3-5.4,21.5-20.7,21.5-45.6c0-5.2-1-13.8-3.3-28.1c-2.5-14.7-10.9-28.7-24.4-40.4
		c-23-29.3-57.6-44.2-102.8-44.2c-26.6,0-60.1,8.4-99.6,24.9c-38.8,16.3-79.8,39.4-121.9,68.7c-41.9,29.3-84.3,64.2-126,103.8
		c-42.2,40.1-80.9,84.1-114.9,130.8c-80.1,112.9-114,209.6-100.9,287.6c4.5,23.6,15.7,48.8,33.5,74.7c17.4,25.5,40.1,49.8,67.4,72
		c27.3,22.3,60,40.7,97,54.7c37.1,14.1,79.1,21.2,124.9,21.2c45.9,0,95.7-12.5,148-37.2c51.6-24.3,104.1-59,156-103.1l0.1-0.1
		c40.6-37.1,79.2-77.3,114.7-119.5c35.3-41.9,65.3-84.8,89.1-127.3c23.6-42.1,41.6-83.4,53.7-122.9
		C1915.3,1344,1918.1,1308.3,1911.4,1277.9z M1205.2,1715.3l0.1,0.2c7,24.9,16.6,40.9,29.5,48.7c12.2,7.2,24.5,10.9,36.5,10.9
		c87.8,0,193.7-77.7,314.7-231.1c45.1-58.5,80-113.6,103.6-164c23.9-51.1,31.8-94.2,23.3-128.1c0.2-2.8,1.4-6.9,8.5-11.1l2.2-1.8
		l0.2-0.3c5.1-6.4,11.7-10.1,20.2-11.4c37.7-5.9,76.1-1.5,110.9,12.7c22.9,9.4,35.9,22.8,39.7,40.8l0.1,0.4
		c6.1,27.5,3.5,60.3-7.7,97.5c-11.7,38.2-29.2,78.4-52.2,119.4c-23.2,41.5-52.6,83.4-87.3,124.7c-34.2,40.8-72.2,80.4-112.9,117.7
		c-50.4,42.9-101.5,76.8-152,100.5c-49.9,23.6-97.2,35.5-140.7,35.5c-43.8,0-83.8-6.8-118.8-20.1c-35-13.1-66-30.6-92.3-51.9
		c-26.2-21.4-47.7-44.4-64-68.5c-16.5-24.2-26.8-47.1-30.7-68.1c-12.4-73.3,20.6-165.7,97.9-274.6c33.7-46.1,71.7-89.3,112.8-128.4
		c41.1-39,82.9-73.4,124-102.2c41.1-28.7,81.1-51.2,118.7-67c37.3-15.6,68.6-23.6,92.9-23.6c39.8,0,70.2,13,90.1,38.6l0.2,0.2
		l0.2,0.2c11.2,10,17.9,20.5,19.7,31.2c2.1,13.2,3.1,21.3,3.1,25.3c0,11.7-1.8,26.3-10.5,29.6c-13.4,5.1-18.3,5.5-19.4,5.5h-10
		l-0.2,0c-83.1,4.9-175.7,62.1-275.2,170c-23.6,26-47,54.3-69.5,84.2c-22.7,30.2-42.9,61.1-60,91.8c-17.3,31.1-30.5,61-39.1,88.8
		C1202.8,1666.7,1200.6,1692.7,1205.2,1715.3z"/>
	<path class="st0" d="M558,989.4L558,989.4c53-24.5,106-60,157.5-105.4c43-35.6,82.2-75.6,116.6-118.7c34.4-43,64.3-86.1,88.9-128.3
		c24.8-42.3,42.9-83.3,53.8-121.9c11-39.2,13.2-74.4,6.6-104.5c-4.9-25.5-21.7-44.3-50-56c-37.5-15.3-79-20-120-13.8
		c-12.1,1.8-21.7,5.4-28.5,10.6c-24,12.2-19.4,28.5-17.1,33.8c6,30.3-2,70.1-23.6,118.1c-22,49.2-54.5,103.2-96.6,160.5
		c-121.8,149-223.1,224.5-301.3,224.5c-13.6,0-25.2-2.5-34.5-7.6c-8-4.2-14.4-18.9-18-41.3l0-0.2c-3.9-17.6-1.8-40.2,6.2-67.2
		c8.4-27.9,21.1-56.6,37.7-85.5c16.6-29.1,36.4-59,58.8-88.8c22.3-29.7,45.3-56.7,68.3-80.3c102-105.2,189-161.3,258.8-166.7
		c4.6,1.6,9.3,2.4,14,2.4c5.5,0,13.8-2.6,25.9-8.1c14.2-6.4,21.1-22.4,21.1-48.9c0-5.5-1.1-14.3-3.3-26.9
		c-2.4-13.5-9.6-27.6-21.5-42l-0.2-0.3c-27.2-25.7-61.6-38.7-102.1-38.7c-26.6,0-60.1,8.4-99.6,24.9c-39,16.4-80.5,39.5-123.3,68.7
		c-42.9,29.1-85.9,64.1-127.8,103.8c-41.9,39.8-80.6,83-114.8,128.3C149,567.5,120,620,103.6,670.1C87.3,720.5,82.4,765.5,89,804
		c4.5,23.6,15.1,48.7,31.7,74.6c16.5,25.7,38.7,50,65.9,72.2c27.5,22.4,60.1,40.8,97,54.7c37.1,14,79.1,21.1,124.9,21.1
		C454.3,1026.5,504.6,1014,558,989.4z M274.9,842.9c4.8,28.9,13.6,46.3,26.8,53.3c11.7,6.3,26,9.5,42.5,9.5
		c83.6,0,189.5-77.8,314.7-231.1l0.1-0.1c43-58.6,76.2-113.7,98.7-163.9c23.1-51.6,31.2-95.3,24.2-129.9l-0.1-0.3l-0.1-0.3
		c-1.2-2.6-3.2-7.1,9.7-13.6l0.4-0.3c5.2-3.9,12.5-6.6,21.7-8c38.3-5.7,76.7-1.2,110.9,12.8c23,9.5,36,23.7,39.8,43.6
		c6.1,27.6,4,60-6.3,96.3c-10.6,37.2-28.1,76.9-52.1,117.9c-24.1,41.2-53.6,83.7-87.6,126.1C784.7,797,746.2,836.1,704.2,871
		l-0.2,0.2c-50.5,44.5-102.2,79-153.4,102.8c-50.9,23.6-98.8,35.5-142.3,35.5c-43.7,0-83.7-6.7-118.8-20c-35.3-13.5-66.2-31-92-52
		l0,0c-25.9-21.1-46.9-44-62.4-68.2c-15.4-24-25.2-47-29.3-68.3c-6.1-35.5-1.4-77.8,14.1-125.6c15.7-48.2,43.9-99.1,83.7-151.3
		c33.8-44.6,71.7-87,112.9-126.1c41.2-39.1,83.4-73.4,125.6-102.1c41.7-28.4,82.2-51,120.4-67c37.3-15.6,68.6-23.6,92.9-23.6
		c35.9,0,66.1,11.2,89.8,33.4c9.6,11.7,15.4,23,17.2,33.5c2,11.7,3.1,19.8,3.1,24c0,18.6-3.8,30.2-11,33.5
		c-13.1,5.9-17.6,6.5-19,6.5c-3.3,0-6.4-0.6-9.9-1.9l-1.7-0.6l-1.8,0.2c-74.6,5-166.1,62.9-271.8,172.2
		c-23.8,24.5-47.2,52.1-69.6,82c-22.8,30.4-43,60.9-59.9,90.5c-17.4,30.3-30.6,60.2-39.3,89C272.6,796.9,270.3,822.3,274.9,842.9z"
		/>
</g>
</svg>
