<?xml version="1.0" encoding="utf-8"?>
<!-- Generator: Adobe Illustrator 18.1.1, SVG Export Plug-In . SVG Version: 6.00 Build 0)  -->
<svg version="1.1" id="Layer_1" xmlns="http://www.w3.org/2000/svg" xmlns:xlink="http://www.w3.org/1999/xlink" x="0px" y="0px"
	 viewBox="0 0 2000 2000" enable-background="new 0 0 2000 2000" xml:space="preserve">
<path fill="#010101" d="M1807.6,36.2H192.4v132.7h36.2v1794.9h1542.9V168.9h36.2L1807.6,36.2L1807.6,36.2z M297.2,1927.5h-32.3
	V168.9h32.3V1927.5z M1666.5,1927.5h-1333v-159.3h1333V1927.5z M1666.5,1731.9h-1333v-496h399.4c68.3,75.9,165.1,119.2,267.1,119.2
	c102,0,198.8-43.4,267.1-119.2h399.4V1731.9z M783.2,1234.7h433.6c-59.2,53.7-136.2,84.1-216.8,84.1
	C919.3,1318.8,842.4,1288.4,783.2,1234.7z M1666.5,1198.4h-1333v-496h399.4C801.1,778.3,898,821.6,1000,821.6
	c102,0,198.8-43.4,267.1-119.2h399.4V1198.4z M783.2,701.2h433.6c-59.2,53.7-136.2,84.1-216.8,84.1
	C919.3,785.3,842.4,754.9,783.2,701.2z M1666.5,664.9h-1333v-496h399.4C801.1,244.8,898,288.1,1000,288.1
	c101.9,0,198.8-43.4,267.1-119.2h399.4V664.9z M784.6,168.9h430.7c-59,52.9-135.4,82.9-215.4,82.9
	C920,251.8,843.6,221.8,784.6,168.9z M1735.1,1927.5h-32.3V168.9h32.3V1927.5z M1771.3,132.6H228.7V72.5h1542.6V132.6z"/>
</svg>
