<?xml version="1.0" encoding="utf-8"?>
<!-- Generator: Adobe Illustrator 18.1.1, SVG Export Plug-In . SVG Version: 6.00 Build 0)  -->
<svg version="1.1" id="Layer_1" xmlns="http://www.w3.org/2000/svg" xmlns:xlink="http://www.w3.org/1999/xlink" x="0px" y="0px"
	 viewBox="0 0 2000 2000" enable-background="new 0 0 2000 2000" xml:space="preserve">
<g>
	<path fill="#010101" d="M1961.8,1633.2h-224.4V751.5h128.2c0,0,0.1,0,0.1,0c8.8,0,16-7.2,16-16c0-2-0.4-3.9-1-5.7l-47.6-190.6
		c-1.8-7.1-8.2-12.1-15.6-12.1h-192.4c-7.4,0-13.8,5-15.6,12.1l-48.1,192.4c-1.2,4.8-0.1,9.9,3,13.7c3,3.9,7.7,6.2,12.6,6.2h128.2
		v881.6H1545V1569h32.1c8.8,0,16-7.2,16-16v-288.5c0-8.8-7.2-16-16-16h-80.1v-80.1c0-35.4-28.8-64.1-64.1-64.1h-288.5
		c-19.2,0-36.3,8.5-48.1,21.8c-11.8-13.4-28.9-21.8-48.1-21.8H759.6c-35.4,0-64.1,28.8-64.1,64.1v80.1h-80.1c-8.8,0-16,7.2-16,16
		V1553c0,8.8,7.2,16,16,16h32.1v64.1H477.7l-134.9-134.9v-121.6h53H471c8.8,0,16-7.2,16-16s-7.2-16-16-16h-55.9l23.2-125.3
		c0.9-4.7-0.4-9.5-3.4-13.1c-3-3.7-7.6-5.8-12.3-5.8H371l17.2-156c4.6,1.1,9.4,1.8,14.1,1.8c21.7,0,41.8-11.7,52.6-30.4
		c36.4-63,19.5-128.4,18.7-131.2c-2.3-8.5-11.1-13.6-19.6-11.3c-2.8,0.7-67.8,18.8-104.2,81.9c-13.6,23.6-9.5,52.6,8.1,71.6
		l-19.2,173.7h-24.4l-19.4-220.2c14.3-10.4,24.5-25.3,29.2-42.6c5.4-20.1,2.6-41.1-7.8-59.1c-49.1-85-136.9-109.4-140.6-110.4
		c-4.1-1.1-8.5-0.5-12.2,1.6c-3.7,2.1-6.4,5.6-7.5,9.7c-1,3.7-23.8,91.8,25.3,176.9c13.8,24,39.7,38.9,67.5,38.9
		c5,0,10.1-0.5,15-1.5l18.2,206.5h-52c-4.8,0-9.3,2.2-12.3,5.8c-3.1,3.7-4.3,8.5-3.4,13.1l23.2,125.3h-55.2c-8.8,0-16,7.2-16,16
		s7.2,16.1,16,16.1h74.4h53.8v121.6l-134.9,134.9H38.2c-8.8,0-16,7.2-16,16s7.2,16,16,16h1923.6c8.8,0,16-7.2,16-16
		S1970.6,1633.2,1961.8,1633.2z M377.5,971.1c19.3-33.4,49.2-51.6,67.8-60.3c1.8,20.5,1,55.5-18.3,88.9
		c-5.1,8.8-14.6,14.3-24.8,14.3c-5,0-9.9-1.3-14.3-3.8C374.3,1002.3,369.6,984.7,377.5,971.1z M310.7,1633.2h-89.5l89.5-89.5V1633.2
		z M271.8,957.1c-7,4-14.9,6.1-22.8,6.1c-16.3,0-31.5-8.8-39.7-23c-30.3-52.6-28.7-107.9-25.2-135.2c25.4,10.7,74.2,36.9,104.5,89.4
		c6.1,10.6,7.7,23,4.6,34.8C289.9,941.2,282.4,951,271.8,957.1z M270.3,1344.6l-20.8-112.2h153.8l-20.8,112.2H270.3z M342.8,1633.2
		v-89.5l89.5,89.5H342.8z M1112.2,1168.3c0-17.7,14.4-32.1,32.1-32.1h288.5c17.7,0,32.1,14.4,32.1,32.1v176.3h-352.7V1168.3z
		 M1112.2,1376.7h352.7v64.1h-352.7V1376.7z M727.5,1168.3c0-17.7,14.4-32.1,32.1-32.1h288.5c17.7,0,32.1,14.4,32.1,32.1v176.3
		H727.5V1168.3z M727.5,1376.7h352.7v64.1H727.5V1376.7z M631.3,1537v-256.5h64.1v176.3c0,8.8,7.2,16,16,16h384.7h384.7
		c8.8,0,16-7.2,16-16v-176.3h64.1V1537H631.3z M1513,1633.2H679.4V1569H1513V1633.2z M1597.6,719.5l40.1-160.3H1805l40.1,160.3
		H1597.6z"/>
	<path fill="#010101" d="M422.9,703.4h288.5c8.8,0,16-7.2,16-16V350.8c0-8.8-7.2-16-16-16H578.5H422.9c-8.8,0-16,7.2-16,16V583
		v104.4C406.9,696.2,414.1,703.4,422.9,703.4z M439,366.8h132.2c18.2,22.7,28.1,50.9,28.1,80.1c0,70.7-57.5,128.2-128.2,128.2
		c-10.9,0-21.6-1.4-32.1-4V366.8z M439,603.9c10.5,2.1,21.2,3.4,32.1,3.4c88.4,0,160.3-71.9,160.3-160.3c0-28.4-7.5-56-21.5-80.1
		h85.6v304.6H439V603.9z"/>
	<path fill="#010101" d="M807.6,895.8h577.1c8.8,0,16-7.2,16-16V447c0-8.8-7.2-16-16-16H807.6c-8.8,0-16,7.2-16,16v432.8
		C791.6,888.6,798.8,895.8,807.6,895.8z M823.7,863.7V742.1l80.1-80.1l201.7,201.7H823.7z M823.7,463h545v400.7h-217.8L915.1,628
		c-6.3-6.3-16.4-6.3-22.7,0l-68.8,68.8V463z"/>
	<path fill="#010101" d="M1192.4,751.5c61.9,0,112.2-50.3,112.2-112.2s-50.3-112.2-112.2-112.2c-61.9,0-112.2,50.3-112.2,112.2
		S1130.5,751.5,1192.4,751.5z M1192.4,559.2c44.2,0,80.1,35.9,80.1,80.1s-35.9,80.1-80.1,80.1c-44.2,0-80.1-35.9-80.1-80.1
		S1148.2,559.2,1192.4,559.2z"/>
</g>
</svg>
