<?xml version="1.0" encoding="utf-8"?>
<!-- Generator: Adobe Illustrator 18.1.1, SVG Export Plug-In . SVG Version: 6.00 Build 0)  -->
<svg version="1.1" id="Layer_1" xmlns="http://www.w3.org/2000/svg" xmlns:xlink="http://www.w3.org/1999/xlink" x="0px" y="0px"
	 viewBox="0 0 2000 2000" enable-background="new 0 0 2000 2000" xml:space="preserve">
<g>
	<path fill="#010101" d="M999.9,1973.4c-206.9,0-375.4-167.6-376.9-374.1V309.2c0-155.8,126.8-282.6,282.7-282.6
		c155.9,0,282.7,126.8,282.7,282.7v967.5c0,103.9-84.6,188.4-188.5,188.4c-103.9,0-188.4-84.5-188.4-188.4l0.2-483.8h108.8v489.7
		c3,41.1,37.5,73.6,79.3,73.6c43.8,0,79.6-35.6,79.6-79.5V309.2c0-95.8-78-173.7-173.7-173.7c-95.8,0-173.8,77.9-173.8,173.8v1287.1
		c0,147.8,120.3,268,268,268c147.8,0,268-120.2,268-268V524.2h108.9v1075C1375.4,1805.8,1206.9,1973.4,999.9,1973.4z"/>
</g>
</svg>
