<?xml version="1.0" encoding="utf-8"?>
<!-- Generator: Adobe Illustrator 18.1.1, SVG Export Plug-In . SVG Version: 6.00 Build 0)  -->
<svg version="1.1" id="Layer_1" xmlns="http://www.w3.org/2000/svg" xmlns:xlink="http://www.w3.org/1999/xlink" x="0px" y="0px"
	 viewBox="0 0 2000 2000" enable-background="new 0 0 2000 2000" xml:space="preserve">
<path fill="#010101" d="M1901.2,1417.8c-64.7,37.4-134.8,70-208.9,97.7V567.8c58.6-18.1,102.4-73.5,102.4-137.2
	c0-77.8-65.5-143.4-143.4-143.4c-77.8,0-143.4,65.5-143.4,143.4c0,63.7,43.9,119.1,102.4,137.2v170.1H389.6V567.8
	c58.6-18.1,102.4-73.5,102.4-137.2c0-77.8-65.5-143.4-143.4-143.4s-143.4,65.5-143.4,143.4c0,63.7,43.9,119.1,102.4,137.2v170.1
	v647.2v130.4c-74.1-27.7-144.2-60.2-208.9-97.7l-41,69.6C315.9,1639,660,1712.8,1000,1712.8s684.1-73.7,942.2-225.3L1901.2,1417.8z
	 M287.2,430.6c0-32.8,28.7-61.4,61.4-61.4c32.8,0,61.4,28.7,61.4,61.4c0,32.8-28.7,61.4-61.4,61.4S287.2,463.4,287.2,430.6z
	 M1589.9,430.6c0-32.8,28.7-61.4,61.4-61.4c32.8,0,61.4,28.7,61.4,61.4c0,32.8-28.7,61.4-61.4,61.4
	C1618.5,492.1,1589.9,463.4,1589.9,430.6z M1610.4,1303.1h-241.7v-125.9c46.7-16.7,81.9-61.2,81.9-115.8c0-55.2-33.4-100-81.9-116.3
	V819.8h241.7V1303.1z M672.3,1020.5c24.6,0,41,16.4,41,41s-16.4,41-41,41s-41-16.4-41-41S647.7,1020.5,672.3,1020.5z M713.3,1177.8
	c48.5-16.3,81.9-61.1,81.9-116.3c0-55.2-33.4-100-81.9-116.3V819.8H959v125.4c-48.5,16.3-81.9,61.1-81.9,116.3s33.4,100,81.9,116.3
	v125.4H713.3V1177.8z M1000,1102.4c-24.6,0-41-16.4-41-41s16.4-41,41-41c24.6,0,41,16.4,41,41S1024.6,1102.4,1000,1102.4z
	 M1041,1177.8c48.5-16.3,81.9-61.1,81.9-116.3c0-55.2-33.4-100-81.9-116.3V819.8h245.8v125.4c-48.5,16.3-81.9,61.1-81.9,116.3
	c0,55.2,33.4,100,81.9,116.3v125.4H1041V1177.8z M1327.7,1102.4c-24.6,0-41-16.4-41-41s16.4-41,41-41c24.6,0,41,16.4,41,41
	S1352.3,1102.4,1327.7,1102.4z M631.3,819.8v125.4c-48.5,16.3-81.9,61.1-81.9,116.3c0,55.2,33.4,100,81.9,116.3v125.4H389.6V819.8
	H631.3z M389.6,1543.6v-158.5h1220.7v158.5C1231.6,1662.6,768.4,1662.6,389.6,1543.6z"/>
</svg>
