<?xml version="1.0" encoding="utf-8"?>
<!-- Generator: Adobe Illustrator 21.1.0, SVG Export Plug-In . SVG Version: 6.00 Build 0)  -->
<svg version="1.1" id="Layer_1" xmlns="http://www.w3.org/2000/svg" xmlns:xlink="http://www.w3.org/1999/xlink" x="0px" y="0px"
	 viewBox="0 0 2000 2000" style="enable-background:new 0 0 2000 2000;" xml:space="preserve">
<g>
	<path d="M1680.8,914H318.6V680.8H167.9v1138.6h150.8v-151.7h1362.2v151.7h150.8V680.8h-150.8V914z M360.9,1463.4h-42.3V997h42.3
		V1463.4z M530.8,1463.4h-86.9V997h86.9V1463.4z M700.6,1463.4h-86.9V997h86.9V1463.4z M870.5,1463.4h-86.9V997h86.9V1463.4z
		 M1040.3,1463.4h-86.9V997h86.9V1463.4z M1210.2,1463.4h-86.9V997h86.9V1463.4z M1380,1463.4h-86.9V997h86.9V1463.4z
		 M1549.9,1463.4H1463V997h86.9V1463.4z M1680.8,1463.4h-47.9V997h47.9V1463.4z"/>
	<path d="M1864.8,210.4c29.4-6,58.7-12.2,88-18.9l-2.6-11.3C1014.9,395.3,58.5,205.3,49,203.4l-2.3,11.4c1.7,0.3,33.5,6.7,89.8,15.6
		l-18.2,153.5l82.3,87.3l100.4-65.6l17.8-150.1c44,5.2,92.6,10.4,145.1,15.2l-18-1.1L436.1,428l87.1,82.5l96.5-71.2l9.6-155.9
		c40.8,2.5,83.3,4.7,127.1,6.5l-3.6,153.3l90.2,79.1l93.8-74.8l3.6-153.4c11.5,0.1,23,0.2,34.6,0.2c30,0,60.6-0.3,91.5-0.9
		l4.5,150.3l94.2,74.2l89.7-79.7l-4.5-151.3c41.2-2.2,83-5,125.1-8.4l15.8,150.1l99.5,66.9l83.4-86.2L1558.4,260
		c42.3-5.2,84.8-11,127.5-17.6l23.4,152.5l102.6,62.1l79.2-90L1867,210.1L1864.8,210.4z"/>
</g>
</svg>
