<?xml version="1.0" encoding="utf-8"?>
<!-- Generator: Adobe Illustrator 21.1.0, SVG Export Plug-In . SVG Version: 6.00 Build 0)  -->
<svg version="1.1" id="Layer_1" xmlns="http://www.w3.org/2000/svg" xmlns:xlink="http://www.w3.org/1999/xlink" x="0px" y="0px"
	 viewBox="0 0 2000 2000" style="enable-background:new 0 0 2000 2000;" xml:space="preserve">
<style type="text/css">
	.st0{fill:#48B2E8;}
</style>
<g>
	<path class="st0" d="M1542.5,990.4h-99.3v468.7h99.3V990.4z M1527.7,1444.4H1458v-439.2h69.8V1444.4z"/>
	<path class="st0" d="M1377.2,990.4h-99.3v468.7h99.3V990.4z M1362.4,1444.4h-69.8v-439.2h69.8V1444.4z"/>
	<path class="st0" d="M1211.9,990.4h-99.3v468.7h99.3V990.4z M1197.1,1444.4h-69.8v-439.2h69.8V1444.4z"/>
	<path class="st0" d="M1669.9,990.4h-61.4v468.7h61.4V990.4z M1655.2,1444.4h-31.9v-439.2h31.9V1444.4z"/>
	<path class="st0" d="M1046.5,990.4h-99.3v468.7h99.3V990.4z M1031.8,1444.4H962v-439.2h69.8V1444.4z"/>
	<path class="st0" d="M1655.2,909.6H344.1v-227H182.6v1123h161.5V1658h1311.1v147.7h161.5v-1123h-161.5V909.6z M1669.9,697.4h132
		v1093.5h-132v-147.7H329.3v147.7h-132V697.4h132v227h1340.6V697.4z"/>
	<path class="st0" d="M550.6,990.4h-99.3v468.7h99.3V990.4z M535.8,1444.4H466v-439.2h69.8V1444.4z"/>
	<path class="st0" d="M329.3,1459.2h55.9V990.4h-55.9V1459.2z M344.1,1005.2h26.4v439.2h-26.4V1005.2z"/>
	<path class="st0" d="M715.9,990.4h-99.3v468.7h99.3V990.4z M701.1,1444.4h-69.8v-439.2h69.8V1444.4z"/>
	<path class="st0" d="M881.2,990.4h-99.3v468.7h99.3V990.4z M866.5,1444.4h-69.8v-439.2h69.8V1444.4z"/>
	<path class="st0" d="M1936.2,219.3l-5.9-25.4l-7.2,1.7C1012.2,405,85,219.9,75.7,218.1l-7.2-1.5l-5.2,25.5l7.2,1.5
		c0.2,0,28.6,5.7,80.7,14.1l-17.3,145.8l86.7,91.9l105.8-69.1l16.8-142.2c36.3,4.3,73,8.2,109.5,11.7l-9.3,151.1l91.7,86.9l101.7-75
		L646,311c36,2.2,72.7,4.1,109.2,5.6L751.8,462l95,83.4l98.8-78.8l3.4-145.5c35.5,0.3,71.7,0,108.4-0.6l4.2,142.4l99.3,78.2l94.5-84
		l-4.3-143.5c36-2,72.1-4.4,107.6-7.2l15,142.4l104.9,70.5l87.9-90.8l-14.9-141.6c36.7-4.6,73.5-9.7,109.8-15.2l22.2,144.5
		l108.1,65.5l83.5-94.9l-22.9-149.3c25.6-5.2,51.2-10.7,76.8-16.6L1936.2,219.3z M312.6,417.8l-89.7,58.6l-73.5-78l17.7-149.5
		c42,6.6,97,14.6,162.8,22.5L312.6,417.8z M622.6,451.1l-86.2,63.6L458.6,441l8.8-143.4l10.1,0.6l0.8-11
		c47.9,4.4,99.2,8.5,153.5,11.9L622.6,451.1z M931,459.3l-83.7,66.8l-80.5-70.7l3.5-149.3c52.8,2,107.6,3.4,164.3,3.8L931,459.3z
		 M1160.3,521.9l-84.1-66.3l-4.4-146.4c53.6-1,108.5-2.9,164.2-5.9l4.4,147.4L1160.3,521.9z M1476.5,500.1l-88.9-59.8l-15.4-146.2
		c53.9-4.4,108.5-9.9,163.5-16.6l15.3,145.6L1476.5,500.1z M1859.4,382.3l-70.8,80.4l-91.6-55.5l-22.9-148.8
		c55.3-8.7,111-18.6,166.6-29.9l0.7,3.7l-4.9,0.7L1859.4,382.3z"/>
</g>
</svg>
