<?xml version="1.0" encoding="utf-8"?>
<!-- Generator: Adobe Illustrator 18.1.1, SVG Export Plug-In . SVG Version: 6.00 Build 0)  -->
<svg version="1.1" id="Layer_1" xmlns="http://www.w3.org/2000/svg" xmlns:xlink="http://www.w3.org/1999/xlink" x="0px" y="0px"
	 viewBox="0 0 2000 2000" enable-background="new 0 0 2000 2000" xml:space="preserve">
<g>
	<path d="M1942.6,1333.4c-9.6-15.3-19-30-28.2-44.5c-22.3-35-43.3-68.1-63.2-102l-1-1.7c-11.1-18.9-23.6-40.2-23.7-59.9
		c-0.3-174.7-42.1-337-124.2-482.3c-49.6-87.8-93.4-175.3-84.1-280c1.2-13.9-2-25.5-9.4-33.5c-8.7-9.5-22.3-12.7-37.1-8.6
		c-36,9.9-71.6,23.1-106.1,35.9c-16,5.9-32,11.8-48.1,17.5c-7.5,2.6-15.1,5.9-22.5,9.1c-16.6,7.2-33.7,14.6-50,14.6l-0.9,0
		c-17.3-0.3-34.6-0.4-51.9-0.4c-318,0-600.1,48.2-862.4,147.4c-26.9,10.2-56.7,14.7-85.6,19.1c-12.1,1.8-24.5,3.7-36.6,6
		c-56.1,10.6-112.2,20.9-171,31.8l-82.7,15.3l126,194.6l21.1-12.3L116,642.7c4.8-1.3,9.3-2.6,13.7-3.8c11.6-3.3,21.6-6.1,32-8.1
		c30.9-6.1,62.8-11.1,93.6-16c65.6-10.3,133.5-21,196.2-43.2c266.6-94.4,542.2-140.3,842.5-140.3c20.1,0,40.6,0.2,60.9,0.6l1.4,0
		c20.7,0,41.7-9.7,61.9-19.1c4.1-1.9,8.2-3.8,12.2-5.6c13.5-6,26.8-13.2,39.6-20.3c19.3-10.6,39.2-21.5,60-27.9
		c16.4-5,26.5-7.2,33.7-7.2c15.8,0,19.3,10.5,23.5,49.1c1.3,11.4,2.2,23.3,3.1,34.9c3.3,42.6,6.7,86.7,26.9,120.3
		c121.1,200.8,178.4,392.9,175.2,587.3c-0.3,19.3,13.4,40.4,23.4,55.7c19.1,29.3,39.7,58.3,59.6,86.3c7.7,10.8,15.4,21.7,23,32.6
		l-7.8,16.7c-17.7,2.4-35.3,4.7-53,7c-44.3,5.8-90,11.8-134.9,18.7c-3.7,0.6-7.4,1.1-11.1,1.6c-24.9,3.6-50.6,7.4-72.4,18.5
		c-328.6,166.9-617.7,244.6-909.7,244.6c-23.2,0-46.7-0.5-69.9-1.5c-16.7-0.7-33.8,7.3-50.3,15.1c-2.8,1.3-5.6,2.6-8.3,3.9
		c-24.4,11.1-48.9,22.8-72.7,34.2c-31.9,15.2-64.8,31-97.7,45.4c-7.3,3.2-13.6,4.8-18.9,4.8c-5,0-20.3,0-22-34.8
		c-5.5-109.3-28.2-204.9-69.4-292.2c-21.5-45.7-37.5-100-46.3-157.3c-13.8-90.9-24.3-180.3-35.3-274.9
		c-4.4-37.8-8.8-75.7-13.5-113.9l-2.2-17.8l-4.7,17.3c-1.1,4.1-2.3,7.9-3.4,11.4c-2.2,7.1-4.2,13.2-4.7,19.6
		c-10.5,119.8,1.2,248.1,35.6,392.3c12.6,52.8,31.3,104.8,49.3,155.1c33.4,93.2,68,189.5,65,293.6c-0.3,11.9,3,21.8,9.5,28.5
		c6.1,6.2,14.4,9.5,24.3,9.5c5.9,0,12-1.2,18.2-3.6c43.1-16.6,86.3-35.1,128.1-53c23.9-10.3,47.9-20.5,71.9-30.5
		c4.2-1.8,8.5-3.7,12.9-5.7c13.8-6.3,28.1-12.9,41.5-12.9l1.6,0c21.3,0.9,42.8,1.3,64.1,1.3c287.5,0,575.4-76,906-239.1
		c28.8-14.2,64-22.9,99.2-24.5c83.7-3.9,152.7-21.5,223.6-57.2l3.4-1.7L1942.6,1333.4z"/>
	<path d="M496.5,1505.2l8.5-16.4c59.5-114.8-30-469.1-140.8-557.5l-11.2-8.9l15.7,35.6c73.5,165.8,149.5,337.3,129.6,528.9
		L496.5,1505.2z"/>
	<path d="M1435.4,505.8c19.7,45.4,39.3,90.7,61,140.7C1524.6,607.5,1492.7,523.2,1435.4,505.8z"/>
	<path d="M1565.7,789.5c10.2,48.7,18.7,89.3,28,133.7C1638.6,886.4,1626.3,820.5,1565.7,789.5z"/>
	<path d="M1640,1119.5c4.7,54.1,8.4,97.8,12.5,145.1C1699.8,1231.8,1696.3,1164.7,1640,1119.5z"/>
</g>
</svg>
