<?xml version="1.0" encoding="utf-8"?>
<!-- Generator: Adobe Illustrator 18.1.1, SVG Export Plug-In . SVG Version: 6.00 Build 0)  -->
<svg version="1.1" id="Layer_1" xmlns="http://www.w3.org/2000/svg" xmlns:xlink="http://www.w3.org/1999/xlink" x="0px" y="0px"
	 viewBox="0 0 2000 2000" enable-background="new 0 0 2000 2000" xml:space="preserve">
<g>
	<path d="M1950.2,1330.6l-0.7-1.2l-0.1-0.1l-0.1-0.1c-6.9-10.9-13.7-21.7-20.3-32c-2.7-4.2-5.3-8.4-7.9-12.5
		c-23.9-37.5-43.7-68.8-63.1-101.8l-1-1.7c-10.5-18-22.5-38.3-22.6-55.9c-0.3-176.1-42.4-339.7-125.2-486.2
		c-49-86.7-92.2-173-83.1-275.4c1.4-16.3-2.6-30-11.5-39.6c-7.6-8.3-18.5-12.9-30.6-12.9c-4.7,0-9.6,0.7-14.5,2
		c-36.4,10-72.2,23.3-106.7,36.1c-15.7,5.8-31.9,11.8-48,17.4c-7.6,2.6-15.2,5.9-22.6,9.1l-0.4,0.2c-15.8,6.9-32.1,13.9-46.8,13.9
		h-0.8c-15.5-0.3-32.5-0.4-52-0.4c-319,0-602,48.4-865.2,147.9c-26,9.8-55.2,14.3-83.5,18.6l-0.5,0.1c-11.3,1.7-24.3,3.7-36.9,6
		c-42,7.9-83.4,15.6-127.1,23.7c-14.5,2.7-29.1,5.4-43.8,8.1l-79.6,14.7c-3.3,0.6-6.1,2.8-7.4,5.9c-1.3,3.1-1,6.6,0.8,9.5
		l123.2,190.3c1.9,2.9,5,4.6,8.5,4.6c1.8,0,3.5-0.5,5.1-1.4l17.6-10.3c4.7-2.8,6.4-8.7,3.8-13.5l-79.2-146.2c1.3-0.4,2.7-0.7,4-1.1
		l0,0l0,0c12.2-3.5,21.5-6.1,31.3-7.9c29.1-5.7,59.1-10.5,88.1-15.1l5.2-0.8c65.9-10.3,134-21,197.6-43.6
		C719.9,485,994.6,439.3,1294,439.3c20.2,0,40.6,0.2,60.7,0.6l0.1,0h0.1h1.4c22.6,0,45.3-10.5,65.3-19.8c4-1.9,8.1-3.8,12.1-5.6
		c14.2-6.3,28.2-13.9,40.2-20.6c18.8-10.3,38.3-21.1,58.5-27.2c15.7-4.8,25.1-6.8,31.3-6.8c7.3,0,11,0,15.5,42
		c1.2,10.7,2.1,22,2.9,32.9l0.1,1.8l0,0.1c3.4,43.5,6.9,88.5,28,123.7c120.3,199.5,177.2,390.2,174.1,583
		c-0.3,21.9,14.1,44,24.7,60.2c19.3,29.6,39.9,58.6,59.8,86.6c7.1,10,13.9,19.6,20.3,28.8l-4,8.6c-17,2.3-33.9,4.5-48.6,6.4
		c-41.9,5.5-89.4,11.7-135.1,18.7l0,0l0,0c-3.6,0.6-7.3,1.1-10.9,1.6l0,0l0,0c-24.2,3.5-51.7,7.5-74.9,19.3
		c-327.4,166.3-615.3,243.7-906.1,243.7c-23.2,0-46.6-0.5-69.6-1.5c-0.8,0-1.6-0.1-2.4-0.1c-18,0-35.9,8.4-51.6,15.9
		c-2.7,1.3-5.6,2.6-8.3,3.9c-23.9,10.9-48.1,22.4-72.8,34.2l-7.7,3.7c-29.3,14-59.6,28.4-89.7,41.6c-6.3,2.7-11.5,4.1-15.7,4.1
		c-2,0-4.4,0-6.8-2.2c-2.4-2.2-6.4-8.4-7.2-25c-5.6-110.4-28.5-207-70.2-295.2c-21.2-45-37-98.7-45.6-155.1
		c-14.2-93.7-25.4-189.8-35.3-274.6l-0.5-4.7c-4.1-34.9-8.3-70.9-12.6-106.7c-0.6-5.1-4.9-8.9-10-8.9c-0.2,0-0.5,0-0.7,0
		c-1-0.3-2-0.5-3-0.5c-4.5,0-8.5,3-9.7,7.3c-0.9,3-1.7,5.8-2.6,8.6l-0.1,0.3l-0.4,1.4c-2.1,6.7-4.1,13.1-4.6,19.9
		c-10.6,120.5,1.2,249.6,35.8,394.8c12.5,52.5,31,104,48.8,153.8l0.8,2.1l0.2,0.6c33.1,92.3,67.3,187.7,64.3,290.1
		c-0.4,14.2,3.7,26,11.8,34.3l0,0l0,0c7.7,7.8,18,11.9,30,11.9c6.9,0,14-1.4,21.1-4.1c43.2-16.6,86.5-35.2,128.3-53.1l0,0l0,0
		c25.5-11,49-20.9,71.8-30.5l0,0l0,0c4.2-1.8,8.6-3.8,13.1-5.8l0.5-0.2c12.9-5.9,26.2-12,37.7-12h1.4c20.5,0.9,42.1,1.3,64.3,1.3
		c288.7,0,577.7-76.2,909.5-239.9c27.8-13.7,61.9-22.1,96-23.7c85-4,155-21.9,226.8-58l1.4-0.7c2.5-1.2,4.4-3.5,5.2-6.1
		C1951.9,1335.9,1951.6,1333,1950.2,1330.6z M55.6,619.8C55.6,619.8,55.6,619.8,55.6,619.8l22.1,34.1L55.6,619.8z M180.6,811.1
		C180.6,811.1,180.5,811.1,180.6,811.1C180.6,811.1,180.6,811.1,180.6,811.1C180.6,811.1,180.6,811.1,180.6,811.1z M200,797.7
		L117.3,645c-0.2-0.3-0.2-0.6-0.3-0.9c0,0.3,0.1,0.6,0.3,0.9L200,797.7z M129.7,638.9c-3.6,1-7.3,2-11.2,3.1
		c-0.3,0.1-0.6,0.2-0.8,0.5c0.2-0.2,0.5-0.4,0.8-0.5C122.4,640.9,126.1,639.9,129.7,638.9c5.4-1.5,10.5-3,15.4-4.3
		C140.2,635.9,135.1,637.4,129.7,638.9z M681.4,502.8c12-2.9,24-5.8,36.1-8.6C705.5,497,693.4,499.8,681.4,502.8z M899.5,459.8
		c12.6-1.9,25.2-3.7,37.9-5.4C924.7,456.1,912.1,457.9,899.5,459.8z M1530,359c-20.8,6.4-40.7,17.3-60,27.9
		c-12.8,7.1-26.1,14.3-39.6,20.3c-4,1.8-8.1,3.7-12.2,5.6c-20.2,9.4-41.2,19.1-61.9,19.1h-1.4c-10.1-0.2-20.3-0.4-30.5-0.5
		c10.2,0.1,20.4,0.2,30.5,0.4h1.4c20.7,0,41.7-9.7,61.9-19.1c4.1-1.9,8.2-3.8,12.2-5.6c13.5-6,26.8-13.2,39.6-20.3
		C1489.3,376.3,1509.2,365.4,1530,359c2.3-0.7,4.5-1.4,6.6-1.9C1534.5,357.6,1532.3,358.3,1530,359z M1583.4,319.2
		c0.2,0,0.4,0,0.6,0c0.2,0,0.5,0,0.7,0C1584.3,319.2,1583.8,319.2,1583.4,319.2z M1587.2,400.9c-0.2-2.2-0.5-4.3-0.7-6.3
		C1586.7,396.6,1587,398.7,1587.2,400.9c1.3,11.4,2.2,23.3,3.1,34.9C1589.4,424.2,1588.5,412.3,1587.2,400.9z M1614.4,551.2
		c0.9,1.7,1.8,3.3,2.8,4.9C1616.2,554.5,1615.3,552.8,1614.4,551.2z M1618.2,363c-0.4,4.9-0.8,9.8-1,14.6
		C1617.4,372.8,1617.8,367.9,1618.2,363c0.1-1.7,0.2-3.4,0.2-5.1C1618.4,359.6,1618.4,361.3,1618.2,363z M1782.7,993
		c1,6.6,1.9,13.2,2.7,19.8C1784.6,1006.2,1783.7,999.6,1782.7,993z M205.5,856.5c3.9,31.6,7.6,63,11.2,94.3
		C213.1,919.5,209.4,888.1,205.5,856.5c0-0.2-0.1-0.3-0.1-0.4C205.5,856.2,205.5,856.3,205.5,856.5z M203.4,854.6c0.1,0,0.1,0,0.2,0
		c-0.1,0-0.2,0-0.3,0C203.4,854.6,203.4,854.6,203.4,854.6z M199.7,854.2c0.1,0,0.2,0,0.3,0C199.8,854.2,199.7,854.2,199.7,854.2
		C199.7,854.2,199.7,854.2,199.7,854.2z M340.1,1725.4c3-104.1-31.6-200.4-65-293.6c-18-50.3-36.7-102.3-49.3-155.1
		c-34.4-144.2-46.1-272.5-35.6-392.3c0.5-6.4,2.5-12.5,4.7-19.6c0.9-2.8,1.8-5.9,2.8-9.1c0,0,0,0,0,0c0,0,0,0,0,0
		c-0.9,3.2-1.9,6.3-2.8,9.1c-2.2,7.1-4.2,13.2-4.7,19.6c-10.5,119.8,1.2,248.1,35.6,392.3c12.6,52.8,31.3,104.8,49.3,155.1
		C308.5,1525,343.1,1621.3,340.1,1725.4c-0.2,8.8,1.5,16.5,5.1,22.6C341.6,1741.9,339.9,1734.2,340.1,1725.4z M349.6,1753.9
		C349.6,1753.9,349.5,1753.8,349.6,1753.9C349.5,1753.8,349.6,1753.9,349.6,1753.9L349.6,1753.9z M352.3,1756.4
		c0.9,0.7,1.8,1.4,2.8,2C354.2,1757.7,353.2,1757.1,352.3,1756.4z M410.6,1722.2c-7.3,3.2-13.6,4.8-18.9,4.8c-1.9,0-5.2,0-8.7-1.8
		c3.5,1.8,6.8,1.8,8.7,1.8C397,1727,403.3,1725.4,410.6,1722.2c8.8-3.8,17.6-7.8,26.4-11.8C428.2,1714.4,419.4,1718.4,410.6,1722.2z
		 M589.3,1638.7c-1.4,0.7-2.8,1.3-4.2,2c-1.4,0.6-2.8,1.3-4.1,1.9c-21.2,9.7-42.5,19.8-63.3,29.7c20.8-10,42.1-20.1,63.3-29.7
		c1.4-0.7,2.7-1.3,4.1-1.9C586.5,1640,587.9,1639.3,589.3,1638.7c1-0.5,2-1,3-1.4C591.3,1637.7,590.3,1638.2,589.3,1638.7z
		 M605,1670.6c-3.6,1.6-7.1,3.2-10.5,4.7C597.9,1673.8,601.4,1672.2,605,1670.6c3.8-1.7,7.7-3.5,11.5-5.1
		C612.7,1667.1,608.8,1668.9,605,1670.6z M637,1623.6c0.2,0,0.4,0,0.6,0c0.7,0,1.4,0,2.1,0C638.7,1623.6,637.8,1623.6,637,1623.6z
		 M1702.7,1360.4c3.9-0.6,7.8-1.2,11.8-1.8C1710.5,1359.2,1706.6,1359.8,1702.7,1360.4c-1.5,0.2-3,0.5-4.6,0.7
		C1699.7,1360.9,1701.2,1360.6,1702.7,1360.4z M911.1,1612.6c-6.7,0.8-13.5,1.6-20.2,2.4C897.6,1614.2,904.4,1613.5,911.1,1612.6z
		 M734.7,1624.9c-8.4,0.1-16.8,0.2-25.2,0.2h0C717.9,1625.1,726.3,1625,734.7,1624.9z M1717.4,1395.4c-35.2,1.6-70.4,10.3-99.2,24.5
		C1287.6,1583,999.7,1659,712.2,1659c-5.9,0-11.7,0-17.6-0.1c5.9,0.1,11.8,0.1,17.6,0.1c287.5,0,575.4-76,906-239.1
		C1647,1405.7,1682.2,1397,1717.4,1395.4c10.9-0.5,21.6-1.2,32-2.2C1739,1394.2,1728.3,1394.9,1717.4,1395.4z M1837.6,1341.7
		c-5.1,0.7-10.3,1.4-15.5,2C1827.3,1343.1,1832.5,1342.4,1837.6,1341.7c8.7-1.1,17.3-2.3,25.9-3.4
		C1854.9,1339.4,1846.3,1340.6,1837.6,1341.7z M1851.2,1186.9l-1-1.7c-11.1-18.9-23.6-40.2-23.7-59.9
		c-0.1-57.2-4.7-113.1-13.6-167.4c9,54.4,13.5,110.2,13.6,167.4c0.1,19.7,12.6,41,23.7,59.9L1851.2,1186.9
		c5.9,10.1,12,20.2,18.1,30.2C1863.2,1207.1,1857.1,1197,1851.2,1186.9z M1891.1,1333.7c-0.1,0.2-0.3,0.4-0.5,0.6
		C1890.8,1334.1,1891,1333.9,1891.1,1333.7l3.9-8.3L1891.1,1333.7z M1897.7,1317c-3.7-5.3-7.4-10.6-11.1-15.8
		c-3.7-5.3-7.5-10.5-11.2-15.8c-1.8-2.5-3.5-5-5.3-7.5c1.8,2.5,3.6,5,5.3,7.5c3.7,5.2,7.5,10.5,11.2,15.8
		C1890.3,1306.4,1894,1311.7,1897.7,1317c0.1,0.1,0.1,0.2,0.1,0.2C1897.8,1317.2,1897.8,1317.1,1897.7,1317z"/>
	<path d="M488.5,1504.4l-4.1,41.4l19.1-36.9l8.5-16.4c7.6-14.7,13.1-33.5,16.4-55.8c3-20.8,4.1-44.8,3.2-71.2
		c-1.7-50.3-10.5-108.2-25.5-167.2c-14.9-59-34.9-115.1-57.7-162.1c-24.8-51-52.2-89.4-79.3-111l-11.2-8.9L332.6,896l13.1,29.7
		l15.7,35.6c73.1,164.9,148.6,335.3,129,524.8L488.5,1504.4z M501.3,1409.4c0.1,5.1,0.2,10.2,0.2,15.3c0,6.6-0.1,13.2-0.3,19.8
		c0.2-6.6,0.3-13.2,0.3-19.8C501.5,1419.6,501.5,1414.5,501.3,1409.4z M498.3,1486.9c0.5-4.5,0.9-9,1.2-13.4
		C499.2,1477.9,498.8,1482.4,498.3,1486.9l-1.8,18.3L498.3,1486.9z"/>
	<path d="M1489.1,649.7l5.6,12.9l8.2-11.4c13.6-18.8,15.7-47.9,5.6-77.8c-12.4-36.9-39.5-65.7-70.8-75.2l-16.5-5l6.9,15.9
		c9.3,21.4,18.6,42.8,28.1,64.7C1466.7,598.2,1477.6,623.3,1489.1,649.7z M1503.3,584.1c-0.5-1.8-1-3.6-1.5-5.4
		C1502.4,580.5,1502.9,582.3,1503.3,584.1z M1435.4,505.8L1435.4,505.8c2.5,5.7,4.9,11.3,7.4,17
		C1440.3,517.1,1437.9,511.5,1435.4,505.8z"/>
	<path d="M1585.9,924.8l2.7,12.9l10.2-8.4c21.6-17.7,32.3-43,29.5-69.4c-1.6-15.2-7.7-30.2-17.6-43.5
		c-10.3-13.9-24.2-25.4-41.4-34.1l-14.9-7.6l3.4,16.4l13.4,64.1L1585.9,924.8z"/>
	<path d="M1644.5,1265.3l1.2,13.7l11.3-7.9c22.4-15.6,35.3-38.7,36.2-65.3c1.2-33.3-16.4-67.1-48.3-92.6l-14.6-11.7l1.6,18.7
		c2.5,29.3,4.8,55.6,7,81C1640.9,1222.7,1642.7,1243.6,1644.5,1265.3z"/>
</g>
</svg>
