<?xml version="1.0" encoding="utf-8"?>
<!-- Generator: Adobe Illustrator 18.1.1, SVG Export Plug-In . SVG Version: 6.00 Build 0)  -->
<svg version="1.1" id="Layer_1" xmlns="http://www.w3.org/2000/svg" xmlns:xlink="http://www.w3.org/1999/xlink" x="0px" y="0px"
	 viewBox="0 0 2000 2000" enable-background="new 0 0 2000 2000" xml:space="preserve">
<path fill="#010101" d="M579.9,1294.5h0.1h1138c17.1,0,32.2-11.7,36.5-28.3L1944,514.2c0.4-1.5,1.1-7.2,1.1-9c0-3.5-6-18.2-9.2-21.9
	c-3.1-4.1-15.8-13.5-19.3-14.3c-1.8-0.3-7.4-1.1-9-1.1h-327c-20.9,0-37.7,16.8-37.7,37.3c0,20.7,16.9,37.3,37.7,37.3h278.7
	l-170.9,677.5H609.4L438.6,542.4h278.8c20.7,0,37.6-16.6,37.6-37.3c0-20.5-17-37.3-37.6-37.3H419.8l-56.2-222.6
	c-4.1-16.6-19.3-28.3-36.5-28.3H74.8C54,217,37,234,37,254.3c0,20.7,17,37.3,37.7,37.3h223L354,514.2l180.1,714.8
	c-26,7.5-50.7,19.2-70.4,38.7c-31,31-47.8,71.6-47.7,114.8c0,51.7,25.8,95.7,63.6,125.6c-5.2,4-11.5,6.1-15.9,10.5
	c-31,30.8-47.8,71.6-47.7,114.8c0,89.9,73.6,162.7,163.8,162.7c43.9,0,85.4-16.8,116.4-47.8c30.8-31,47.7-71.6,47.6-114.9
	c0-33.2-12.4-62.1-29.8-88h880.9c-17.5,26.5-29.8,56-29.6,88c0,89.9,73.6,162.7,164,162.7c44,0,85.2-16.8,116.1-47.8
	c31.1-30.6,48.1-71.4,48-114.9c0-89.6-73.6-162.3-163.8-162.7h-0.1H579.8c-48.8,0-88.6-39.3-88.6-88.1c-0.1-23.2,9.2-45.4,25.8-62.1
	C533.9,1303.9,556.3,1294.5,579.9,1294.5z M1666.4,1571.3c16.9-16.6,39.1-25.9,62.8-25.9c49,0,88.8,39.7,88.8,88.4
	c0,23.4-9.2,45.1-25.9,61.8c-16.9,16.8-39.2,25.9-62.9,25.9c-48.8,0-88.7-39.4-88.7-88.1C1640.5,1609.8,1649.7,1587.9,1666.4,1571.3
	z M517.1,1571.3c16.9-16.6,39.2-25.9,62.8-25.9c48.9,0,88.8,39.7,88.8,88.4c0.1,23.4-9,45.1-25.8,61.8
	c-16.9,16.8-39.3,25.9-63.1,25.9c-48.8,0-88.6-39.4-88.6-88.1C491.2,1610,500.3,1587.9,517.1,1571.3z"/>
</svg>
