<?xml version="1.0" encoding="utf-8"?>
<!-- Generator: Adobe Illustrator 18.1.1, SVG Export Plug-In . SVG Version: 6.00 Build 0)  -->
<svg version="1.1" id="Layer_1" xmlns="http://www.w3.org/2000/svg" xmlns:xlink="http://www.w3.org/1999/xlink" x="0px" y="0px"
	 viewBox="0 0 2000 2000" enable-background="new 0 0 2000 2000" xml:space="preserve">
<g>
	<path fill="#1D1C1A" d="M811.4,1435.1H855v58c0,16,13,29,29,29s29-13,29-29v-58h42.4c87.3,0,158.5-69.9,160.6-156.7
		c0-0.6,0.1-1.1,0.1-1.7c0-0.4,0-0.8,0-1.1c0-0.4,0-0.8,0-1.1c0-0.6,0-1.1-0.1-1.7c-2.1-86.8-73.3-156.7-160.6-156.7H913V913h63.5
		c30,0,58,16.2,73.3,42.4c4.1,7.1,7.1,14.6,9.1,22.5c3.2,13.3,15.1,22.2,28.2,22.2c2.3,0,4.6-0.3,6.9-0.8
		c15.6-3.8,25.1-19.5,21.3-35c-3.2-13.3-8.4-26-15.3-37.9c-25.6-43.9-72.9-71.2-123.4-71.2H913v-58c0-16-13-29-29-29s-29,13-29,29
		v58h-44.4c-87.4,0-158.4,71.1-158.4,158.4c0,87.1,72.6,160.7,158.4,160.7H855v203.1h-43.5c-54.4,0-101.9-38.7-112.9-92.1
		c-3.2-15.7-18.6-25.9-34.3-22.6c-15.7,3.2-25.8,18.6-22.6,34.3C658.2,1376.9,729.6,1435.1,811.4,1435.1z M913,1174.1h42.4
		c56.2,0,102,45.4,102.7,101.5c-0.6,56.1-46.4,101.5-102.7,101.5H913V1174.1z M810.5,1116c-54.4,0-100.4-47-100.4-102.7
		c0-55.4,45-100.4,100.4-100.4H855V1116H810.5z"/>
	<path fill="#1D1C1A" d="M1928.3,361.8H361.8c-16,0-29,13-29,29v116h-116c-16,0-29,13-29,29v116h-116c-16,0-29,13-29,29v928.3
		c0,16,13,29,29,29h1566.5c16,0,29-13,29-29v-116h116c16,0,29-13,29-29v-116h116c16,0,29-13,29-29V390.8
		C1957.3,374.8,1944.3,361.8,1928.3,361.8z M1609.2,1580.2H100.7V709.9h1508.5V1580.2z M1754.2,1435.1h-87V680.9c0-16-13-29-29-29
		H245.8v-87h1508.5V1435.1z M1899.3,1290.1h-87V535.8c0-16-13-29-29-29H390.8v-87h1508.5V1290.1z"/>
	<path fill="#1D1C1A" d="M245.8,1436.3h116c16,0,29-13,29-29c0-16-13-29-29-29h-116c-16,0-29,13-29,29
		C216.7,1423.3,229.7,1436.3,245.8,1436.3z"/>
	<path fill="#1D1C1A" d="M1348.1,913h116c16,0,29-13,29-29c0-16-13-29-29-29h-116c-16,0-29,13-29,29
		C1319.1,900,1332.1,913,1348.1,913z"/>
</g>
</svg>
