<?xml version="1.0" encoding="utf-8"?>
<!-- Generator: Adobe Illustrator 18.1.1, SVG Export Plug-In . SVG Version: 6.00 Build 0)  -->
<svg version="1.1" id="Layer_1" xmlns="http://www.w3.org/2000/svg" xmlns:xlink="http://www.w3.org/1999/xlink" x="0px" y="0px"
	 viewBox="0 0 2000 2000" enable-background="new 0 0 2000 2000" xml:space="preserve">
<g>
	<path fill="#010101" d="M978.7,1285.7h-54.2c-23.5,0-42.4,18.8-42.4,42.4c0,23.5,18.8,42.4,42.4,42.4h54.2
		c23.5,0,42.4-18.8,42.4-42.4C1021.1,1304.6,1002.3,1283.4,978.7,1285.7z"/>
	<path fill="#010101" d="M978.7,1467h-54.2c-23.5,0-42.4,18.8-42.4,42.4s18.8,42.4,42.4,42.4h54.2c23.5,0,42.4-18.8,42.4-42.4
		S1002.3,1467,978.7,1467z"/>
	<path fill="#010101" d="M1397.8,1467h-268.4c-23.5,0-42.4,18.8-42.4,42.4s18.8,42.4,42.4,42.4h268.4c23.5,0,42.4-18.8,42.4-42.4
		S1421.4,1467,1397.8,1467z"/>
	<path fill="#010101" d="M1633.2,473.5h-261.3V78c0-23.5-18.8-42.4-42.4-42.4H244.2c-23.5,0-42.4,18.8-42.4,42.4V1281
		c-7.1,87.1,58.9,157.7,138.9,169.5c7.1,4.7,14.1,7.1,23.5,7.1h214.2c23.5,0,42.4-18.8,42.4-42.4s-18.8-42.4-42.4-42.4h-70.6
		c16.5-25.9,25.9-56.5,25.9-87.1V989.1v-49.4V643c0-44.7,37.7-82.4,82.4-82.4c44.7,0,82.4,37.7,82.4,82.4v1203.1c0,2.4,0,4.7,0,9.4
		c0,2.4,0,2.4,2.4,4.7v2.4c0,2.4,2.4,4.7,2.4,4.7v2.4c2.4,2.4,2.4,4.7,4.7,7.1l73,73c16.5,16.5,44.7,16.5,61.2,0l115.4-115.4
		l115.4,115.4c7.1,7.1,18.8,11.8,30.6,11.8s21.2-4.7,30.6-11.8l115.4-115.4l115.4,115.4c7.1,7.1,18.8,11.8,30.6,11.8
		s21.2-4.7,30.6-11.8l115.4-115.4l115.4,115.4c9.4,9.4,18.8,11.8,30.6,11.8s21.2-4.7,30.6-11.8l73-73c7.1-7.1,11.8-18.8,11.8-30.6
		V643C1802.8,548.8,1727.4,473.5,1633.2,473.5z M616.2,468.8c-94.2,0-169.5,75.3-169.5,169.5v296.6v49.4V1281
		c0,44.7-37.7,82.4-82.4,82.4s-82.4-37.7-82.4-82.4V122.7h1000.6v346.1H616.2z M1713.3,1824.9l-28.3,28.3l-115.4-115.4
		c-16.5-16.5-44.7-16.5-61.2,0l-115.4,115.4l-115.4-115.4c-16.5-16.5-44.7-16.5-61.2,0l-115.4,115.4l-115.4-115.4
		c-16.5-16.5-44.7-16.5-61.2,0l-115.4,115.4l-28.3-28.3V638.3c0-30.6-7.1-58.9-21.2-82.4h866.4c49.4-2.4,87.1,35.3,87.1,82.4V1824.9
		z"/>
	<path fill="#010101" d="M1569.7,1285.7h-440.3c-23.5,0-42.4,18.8-42.4,42.4c0,23.5,18.8,42.4,42.4,42.4h440.3
		c23.5,0,42.4-18.8,42.4-42.4C1612.1,1304.6,1593.2,1283.4,1569.7,1285.7z"/>
	<path fill="#010101" d="M1569.7,737.2H924.6c-23.5,0-42.4,18.8-42.4,42.4c0,23.5,18.8,42.4,42.4,42.4h645.1
		c23.5,0,42.4-18.8,42.4-42.4C1612.1,756,1593.2,734.8,1569.7,737.2z"/>
	<path fill="#010101" d="M924.6,1003.2h473.2c23.5,0,42.4-18.8,42.4-42.4c0-23.5-18.8-42.4-42.4-42.4H924.6
		c-23.5,0-42.4,18.8-42.4,42.4C882.2,984.4,901,1005.6,924.6,1003.2z"/>
	<path fill="#010101" d="M1569.7,1102.1H924.6c-23.5,0-42.4,18.8-42.4,42.4s18.8,42.4,42.4,42.4h645.1c23.5,0,42.4-18.8,42.4-42.4
		S1593.2,1102.1,1569.7,1102.1z"/>
</g>
</svg>
