<?xml version="1.0" encoding="utf-8"?>
<!-- Generator: Adobe Illustrator 18.1.1, SVG Export Plug-In . SVG Version: 6.00 Build 0)  -->
<svg version="1.1" id="Layer_1" xmlns="http://www.w3.org/2000/svg" xmlns:xlink="http://www.w3.org/1999/xlink" x="0px" y="0px"
	 viewBox="0 0 2000 2000" enable-background="new 0 0 2000 2000" xml:space="preserve">
<g>
	<path fill="#010101" d="M1646.8,353.2c-173.3-173.3-401.6-267.1-646.3-267.1s-473,93.8-646.3,267.1S87.1,754.9,87.1,999.5
		s95.8,473,267.1,646.3c173.3,173.3,401.6,267.1,646.3,267.1s473-95.8,646.3-267.1c173.3-173.3,267.1-401.6,267.1-646.3
		S1818,526.5,1646.8,353.2z M1595.8,1594.8c-159,159-371,246.7-595.3,246.7s-436.3-87.7-595.3-246.7C77,1266.6,77,732.4,405.2,404.2
		c159-159,371-246.7,595.3-246.7s436.3,87.7,595.3,246.7C1924,732.4,1924,1266.6,1595.8,1594.8z"/>
	<path fill="#010101" d="M1392,597.7c-16.7-14.6-42.1-12.8-56.7,3.9l-500,573.6l-178.8-97.7c-14.2-7.7-32.2-6.7-45.6,3.9
		c-17.9,14.2-20.9,40.3-6.7,58.2l189.9,239c5.6,7.1,12.7,13.6,20.8,18.8c39.9,25.8,93.2,14.3,119-25.7l6.2-9.7l459.3-712.2
		C1410.1,633.3,1407.3,611,1392,597.7z"/>
</g>
</svg>
