<?xml version="1.0" encoding="utf-8"?>
<!-- Generator: Adobe Illustrator 18.1.1, SVG Export Plug-In . SVG Version: 6.00 Build 0)  -->
<svg version="1.1" id="Layer_1" xmlns="http://www.w3.org/2000/svg" xmlns:xlink="http://www.w3.org/1999/xlink" x="0px" y="0px"
	 viewBox="0 0 2000 2000" enable-background="new 0 0 2000 2000" xml:space="preserve">
<path fill="#231F20" d="M1654.4,1014.5c-49,0-95.5,11.1-137.2,30.9l0.3-0.6l-278.2-161.6c53.6-57.4,86.5-134.4,86.5-218.8
	c0-176.8-144.3-321-321-321s-321,144.3-321,321c0,81.8,30.9,156.6,81.6,213.4l-263,178.4c-46.7-26.5-100.5-41.7-157.9-41.7
	c-176.8,0-321,144.3-321,321s144.3,321,321,321c168.3,0,307.2-130.8,320-295.9h669.7c12.9,165.1,151.7,295.9,320,295.9
	c176.8,0,321-144.3,321-321S1831.2,1014.5,1654.4,1014.5z M1004.9,362.5c166.2,0,301.9,135.7,301.9,301.9
	c0,70.7-24.8,135.7-65.9,187.3c-1.9-20.1-11.5-45.9-49.7-55.4c-106.1-26.8-124.2-62.1-127.1-72.6c7.6-4.8,14.3-10.5,21-18.2
	c43-48.7,35.4-132.8,34.4-139.5c-4.8-109.9-93.6-115.6-110.8-115.6c-1,0-1.9,0-2.9,0s-1.9,0-2.9,0c-17.2,0-106.1,5.7-110.8,115.6
	c-1,6.7-8.6,90.8,34.4,139.5c6.7,7.6,15.3,14.3,23.9,20.1c-4.8,12.4-26.8,44.9-127.1,70.7c-28.7,7.6-45.9,29.6-48.7,64
	C730.7,807.8,703,739,703,664.4C703,498.2,838.7,362.5,1004.9,362.5z M1070.8,693.1c-15.3,17.2-37.3,26.8-64,26.8
	c-27.7-1-49.7-9.6-65-26.8c-38.2-43-30.6-124.2-29.6-125.2c0,0,0,0,0-1c3.8-90.8,71.7-97.5,91.7-97.5c1,0,1.9,0,1.9,0h1
	c0,0,1,0,1.9,0c20.1,0,87.9,6.7,91.7,97.5c0,0,0,0,0,1S1109.1,650.1,1070.8,693.1z M971.5,734.2c8.6,2.9,20.1,4.8,33.4,4.8
	c1,0,1.9,0,1.9,0h1h1c14.3,0,26.8-2.9,39.2-6.7c2.9,8.6,10.5,21,27.7,34.4c-13.4,25.8-39.2,42-67.8,42c-27.7,0-53.5-15.3-66.9-39.2
	C960,756.2,967.6,742.8,971.5,734.2z M1005.9,826.9c35.4,0,67.8-19.1,84.1-49.7c21,12.4,51.6,25.8,96.5,37.3
	c34.4,8.6,37.3,33.4,35.4,56.4c0,1,0,1.9,1,1.9c-54.5,57.3-131.9,92.7-217.8,92.7c-81.2,0-155.7-32.5-210.2-85
	c-2.9-37.3,9.6-59.2,34.4-65.9c42-10.5,72.6-22.9,93.6-35.4C939.9,808.7,971.5,826.9,1005.9,826.9z M344.6,1636.5
	c-81.2,0-155.7-32.5-210.2-85c-2.9-37.3,9.6-59.2,34.4-65.9c42-10.5,72.6-22.9,93.6-35.4c17.2,29.6,48.7,47.8,83.1,47.8
	c35.4,0,67.8-19.1,84.1-49.7c21,12.4,51.6,25.8,96.5,37.3c34.4,8.6,37.3,33.4,35.4,56.4c0,1,0,1.9,1,1.9
	C508,1601.2,430.6,1636.5,344.6,1636.5z M410.5,1364.2c-15.3,17.2-37.3,26.8-64,26.8c-27.7-1-49.7-9.6-65-26.8
	c-38.2-43-30.6-124.2-29.6-125.2c0,0,0,0,0-1c3.8-90.8,71.7-97.5,91.7-97.5c1,0,1.9,0,1.9,0h1c0,0,1,0,1.9,0
	c20.1,0,87.9,6.7,91.7,97.5c0,0,0,0,0,1C440.1,1240,448.7,1321.2,410.5,1364.2z M311.2,1405.3c8.6,2.9,20.1,4.8,33.4,4.8
	c1,0,1.9,0,1.9,0h1h1c14.3,0,26.8-2.9,39.2-6.7c2.9,8.6,10.5,21,27.7,34.4c-13.4,25.8-39.2,42-67.8,42c-27.7,0-53.5-15.3-66.9-39.2
	C299.7,1427.3,307.3,1413.9,311.2,1405.3z M580.6,1522.8c-1.9-20.1-11.5-45.9-49.7-55.4c-106.1-26.8-124.2-62.1-127.1-72.6
	c7.6-4.8,14.3-10.5,21-18.2c43-48.7,35.4-132.8,34.4-139.5c-4.8-109.9-93.6-115.6-110.8-115.6c-1,0-1.9,0-2.9,0s-1.9,0-2.9,0
	c-17.2,0-106.1,5.7-110.8,115.6c-1,6.7-8.6,90.8,34.4,139.5c6.7,7.6,15.3,14.3,23.9,20.1c-4.8,12.4-26.8,44.9-127.1,70.7
	c-28.7,7.6-45.9,29.6-48.7,64c-44-52.5-71.7-121.3-71.7-195.9c0-166.2,135.7-301.9,301.9-301.9s301.9,135.7,301.9,301.9
	C646.5,1406.3,621.7,1471.2,580.6,1522.8z M665.3,1350.7c0.2-5,0.4-10,0.4-15.1c0-115.5-61.6-217.1-153.7-273.7l260.4-176.6
	c58.6,61.6,141.2,100.2,232.6,100.2c88.7,0,169.1-36.3,227.3-94.8l275,159.7c-103.1,53.5-173.9,161.4-173.9,285.1
	c0,5.1,0.1,10.1,0.4,15.1H665.3z M1654.4,1636.5c-81.2,0-155.7-32.5-210.2-85c-2.9-37.3,9.6-59.2,34.4-65.9
	c42-10.5,72.6-22.9,93.6-35.4c17.2,29.6,48.7,47.8,83.1,47.8c35.4,0,67.8-19.1,84.1-49.7c21,12.4,51.6,25.8,96.5,37.3
	c34.4,8.6,37.3,33.4,35.4,56.4c0,1,0,1.9,1,1.9C1817.8,1601.2,1740.4,1636.5,1654.4,1636.5z M1720.3,1364.2
	c-15.3,17.2-37.3,26.8-64,26.8c-27.7-1-49.7-9.6-65-26.8c-38.2-43-30.6-124.2-29.6-125.2c0,0,0,0,0-1c3.8-90.8,71.7-97.5,91.7-97.5
	c1,0,1.9,0,1.9,0h1c0,0,1,0,1.9,0c20.1,0,87.9,6.7,91.7,97.5c0,0,0,0,0,1C1749.9,1240,1758.5,1321.2,1720.3,1364.2z M1621,1405.3
	c8.6,2.9,20.1,4.8,33.4,4.8c1,0,1.9,0,1.9,0h1h1c14.3,0,26.8-2.9,39.2-6.7c2.9,8.6,10.5,21,27.7,34.4c-13.4,25.8-39.2,42-67.8,42
	c-27.7,0-53.5-15.3-66.9-39.2C1609.5,1427.3,1617.1,1413.9,1621,1405.3z M1840.7,1467.4c-106.1-26.8-124.2-62.1-127.1-72.6
	c7.6-4.8,14.3-10.5,21-18.2c43-48.7,35.4-132.8,34.4-139.5c-4.8-109.9-93.6-115.6-110.8-115.6c-1,0-1.9,0-2.9,0c-1,0-1.9,0-2.9,0
	c-17.2,0-106.1,5.7-110.8,115.6c-1,6.7-8.6,90.8,34.4,139.5c6.7,7.6,15.3,14.3,23.9,20.1c-4.8,12.4-26.8,44.9-127.1,70.7
	c-28.7,7.6-45.9,29.6-48.7,64c-44-52.5-71.7-121.3-71.7-195.9c0-166.2,135.7-301.9,301.9-301.9s301.9,135.7,301.9,301.9
	c0,70.7-24.8,135.7-65.9,187.3C1888.5,1502.8,1878.9,1477,1840.7,1467.4z"/>
</svg>
