<?xml version="1.0" encoding="utf-8"?>
<!-- Generator: Adobe Illustrator 18.1.1, SVG Export Plug-In . SVG Version: 6.00 Build 0)  -->
<svg version="1.1" id="Layer_1" xmlns="http://www.w3.org/2000/svg" xmlns:xlink="http://www.w3.org/1999/xlink" x="0px" y="0px"
	 viewBox="0 0 2000 2000" enable-background="new 0 0 2000 2000" xml:space="preserve">
<path d="M1925.8,847.9c-6.3-2.7-13.4-5.7-21-9.5C1880,826,1684,750.9,1494.5,678.3c-136.4-52.2-265.2-101.6-303.9-117.6
	c-51.9-21.5-97.9-26-127.3-26c-16.3,0-25.9,1.4-25.9,1.4c-8.3,0.6-830.2,60-919.8,68.4c-31.6,3-79.2,7.5-79.2,50.6
	c0,11.7,0.3,34.2,0.6,59.1c0.4,30.9,0.8,65.4,0.8,87.7c0,9.5,3.4,18.9,7.6,27c-1.7,1.1-2.9,2.9-3,5c-1.1,18.3,3,120.3,3.2,124.9
	c0.1,1.3,2.5,32,19.3,56.6c21.9,32.1,347,407.1,360.6,422.7c0.8,1,18.8,24.2,50.8,56.2c2.9,2.9,5.7,5.8,8.4,8.6
	c20.9,21.6,36.4,37.6,77.9,37.6c12.8,0,28-1.5,46.6-4.9c82.4-14.8,1242.5-197,1254.4-198.9c41.7-7.3,66.8-11.7,70.5-58.2
	c3.2-40.6,11.8-147.6,11.8-148.1c0-12-9.2-20.9-15.2-25.6c21.1-15.2,26.5-35.9,26.8-37l0.2-0.9c0.1-0.8,8.6-82.2,11.5-143.6
	C1973.9,868.4,1955.8,860.7,1925.8,847.9z M118.8,617.4c89.4-8.4,911.2-67.8,920-68.5c0.1,0,9.2-1.3,24.5-1.3
	c28.3,0,72.5,4.3,122.4,25c38.8,16,167.7,65.4,304.2,117.7c180.5,69.1,385,147.5,409.2,159.6c7.9,4,15.2,7.1,21.7,9.8
	c6.2,2.6,11.5,4.9,16.1,7.4c-154.2,15.4-1384.7,138.2-1401.9,139c-16.9,0.5-31.8-4-44.3-13.6C477.3,982.1,112,669.6,65.3,629.6
	C77.5,622.1,96.6,619.5,118.8,617.4z M1935.1,1130.2c0,0-8.6,106.9-11.8,147.6c-2.8,35-15.7,38.8-59.8,46.6
	c-11.7,1.8-1172,184.1-1254.5,198.9c-72.3,13-87.7-2.8-113.1-29.1c-2.7-2.8-5.5-5.7-8.5-8.7c-31.4-31.4-49.5-54.8-50-55.3
	c-3.4-3.9-338.5-390.3-359.9-421.8c-14.8-21.7-17.1-50-17.1-50.1c0-0.9-3.3-83-3.4-114.1c3.9,5.1,6.9,8.3,7.3,8.6
	c16.4,17.5,402.7,427.9,414.8,438.2c14.1,11.9,32.9,17.7,57.6,17.7c9.6,0,20.3-0.8,33.6-2.6c12.6-1.7,1292.9-177.2,1335.4-188.4
	c6.1-1.6,11.4-3.7,16.2-6.1l-0.7,1.2C1924.9,1114.8,1935.1,1122.4,1935.1,1130.2z M1958.4,923c-2.8,58.5-10.7,135.3-11.4,142.4
	c-1,3.5-10.1,30.9-44.5,39.9c-39.4,10.4-1277.6,180.6-1333.8,188.1c-12.7,1.7-22.9,2.5-31.9,2.5c-21.8,0-37.5-4.7-49.3-14.6
	c-9.7-8.3-274.9-289.6-413.8-437.2c-0.2-0.2-21-22-21-41.9c0-22.3-0.4-57-0.8-87.9c-0.3-24.9-0.6-47.3-0.6-59
	c0-6.8,1.7-12.3,4.6-16.8c44.2,37.9,413,353.5,427,364.3c14.1,10.8,30.6,16.3,49.1,16.3c1.1,0,2.3,0,3.4-0.1
	c16.8-0.6,1327-131.4,1415.6-140.3C1957.2,887.1,1959.5,899.9,1958.4,923z"/>
</svg>
