<?xml version="1.0" encoding="utf-8"?>
<!-- Generator: Adobe Illustrator 18.1.1, SVG Export Plug-In . SVG Version: 6.00 Build 0)  -->
<svg version="1.1" id="Layer_1" xmlns="http://www.w3.org/2000/svg" xmlns:xlink="http://www.w3.org/1999/xlink" x="0px" y="0px"
	 viewBox="0 0 2000 2000" enable-background="new 0 0 2000 2000" xml:space="preserve">
<path d="M1965.5,866.2c-8.9-11.6-22.1-17.3-37.4-23.8l-1.3-0.6c-5.8-2.5-12.5-5.3-19.4-8.8c-25.1-12.6-221.2-87.7-410.8-160.3
	c-132.4-50.7-264.9-101.5-303.8-117.5c-52.8-21.9-99.6-26.5-129.6-26.5c-15.4,0-24.9,1.2-26.5,1.4c-34.1,2.5-831.5,60.1-919.7,68.4
	c-16.3,1.5-36.6,3.5-53.3,10.7c-20.8,9-31.3,24.5-31.3,45.8c0,10,0.2,27.7,0.5,48.3l0.1,10.9c0.4,28.8,0.8,64.7,0.8,87.6
	c0,8.1,2.2,16.8,6.4,26c-1.1,1.7-1.7,3.7-1.8,5.7c-1.1,19.3,3.2,124.5,3.2,125.5l0,0.1l0,0.1c0.3,3.4,3.1,34.3,20.3,59.5
	c22.3,32.7,353.7,414.8,360.9,423.1l0.1,0.1c4.7,6,22.4,27.8,51.1,56.5c3,3,5.9,6,8.3,8.5c21.3,22,38.2,39.4,82.2,39.4
	c13.7,0,29.3-1.6,47.7-5c33.4-6,270.6-44.2,1210.9-192.1c27.1-4.3,42-6.6,43.3-6.8l0,0l0,0c21.7-3.8,38.8-6.8,51.8-15.3
	c14.3-9.4,21.8-24.7,23.7-48.3c1.7-21.1,4.8-61,7.4-93c4.4-55.1,4.4-55.2,4.4-55.6c0-8.9-4.1-17.6-11.9-25.4
	c16.9-14.7,22.3-32,23.2-35.6l0-0.1l0-0.2l0.2-0.9l0.1-0.3l0-0.3c0.1-0.6,8.6-82.8,11.5-144.1
	C1978.5,896.2,1974.9,878.5,1965.5,866.2z M1936.9,867.1C1936.9,867.1,1936.9,867.1,1936.9,867.1
	c-154.2,15.4-1384.7,138.2-1401.9,139c0,0,0,0,0,0c0,0,0,0,0,0C552.2,1005.3,1782.7,882.5,1936.9,867.1z M1481.7,673.4
	c4.2,1.6,8.5,3.3,12.8,4.9c8.9,3.4,17.8,6.8,26.7,10.2c-8.9-3.4-17.8-6.8-26.7-10.2C1490.2,676.7,1486,675,1481.7,673.4
	c-11.1-4.3-22.2-8.5-33.2-12.7C1459.5,664.9,1470.6,669.2,1481.7,673.4z M1052.3,534.9c-1.5,0.1-2.9,0.1-4.2,0.2
	C1049.4,535.1,1050.8,535,1052.3,534.9z M1037.4,536.1c0,0,2.2-0.3,6.3-0.7C1039.6,535.8,1037.4,536.1,1037.4,536.1
	c-0.1,0-0.5,0-1.1,0.1C1036.9,536.1,1037.3,536.1,1037.4,536.1z M939.1,543.2c-7.4,0.5-15.1,1.1-23.1,1.7
	C924,544.3,931.7,543.8,939.1,543.2z M836.1,550.7c-6.4,0.5-12.9,0.9-19.5,1.4C823.2,551.7,829.7,551.2,836.1,550.7z M119.4,623.4
	c75.8-7.1,670.2-50.3,865.5-64.5c32.8-2.4,52.7-3.8,54.4-4c0.2,0,0.3,0,0.5-0.1c2.9-0.4,11.1-1.2,23.6-1.2
	c27.8,0,71.2,4.3,120.1,24.5c39.3,16.2,174,67.8,304.4,117.8c162,62,383.8,146.9,408.7,159.4c6.3,3.2,12.2,5.8,17.6,8.1
	C1537.2,901,551.4,999.2,534.8,1000.1c-0.8,0-1.5,0-2.3,0c-14.6,0-27.4-4.2-38.1-12.4C481.9,978.1,151.1,695.2,76.2,631
	C87.8,626.7,103.8,624.8,119.4,623.4z M490.7,992.5C490.7,992.5,490.7,992.5,490.7,992.5c-0.2-0.2-0.5-0.4-0.9-0.8
	C490.2,992.1,490.5,992.3,490.7,992.5C490.7,992.5,490.7,992.5,490.7,992.5z M452,959.9c-1.4-1.2-2.9-2.5-4.4-3.8
	c-2.5-2.1-5.1-4.3-7.7-6.6c2.7,2.3,5.2,4.5,7.7,6.6C449.1,957.4,450.5,958.6,452,959.9z M58.1,648.3
	c65.1,55.8,407.3,348.6,421.1,359.3c15.2,11.6,33,17.5,52.8,17.5c1.2,0,2.5,0,3.8-0.1c25.1-1.4,1314.2-130.1,1412.1-139.9
	c4,7.5,5.4,19.1,4.5,37.7c-1.7,35.4-5.7,85.1-11.2,140.1l-0.1,1.4c-0.6,1.9-2.9,8.3-8.5,15.3c-7.8,9.8-18.4,16.5-31.6,19.9
	c-38.3,10.1-1276.8,180.4-1333.1,188c-12.5,1.7-22.4,2.4-31.1,2.4c-20.3,0-34.7-4.2-45.4-13.2c-8.5-7.4-220.2-231.5-413.3-436.7
	l-0.1-0.1l0,0c-5.4-5.6-19.3-23.3-19.3-37.7c0-23.2-0.4-59.2-0.8-88L57.8,703c-0.2-20.3-0.5-37.8-0.5-47.7
	C57.3,652.8,57.6,650.5,58.1,648.3z M487.5,1281.3c-0.2-0.2-0.5-0.5-1-0.9C487,1280.8,487.3,1281.1,487.5,1281.3
	c11.8,9.9,27.5,14.6,49.3,14.6c1.2,0,2.5,0,3.8,0c-1.3,0-2.5,0-3.8,0C515,1295.9,499.3,1291.2,487.5,1281.3z M536.7,1308.7
	L536.7,1308.7c-1.5,0-3.1,0-4.6-0.1C533.6,1308.7,535.2,1308.7,536.7,1308.7z M189.5,967c-42.3-44.9-82.6-87.7-115.8-122.9
	c0,0-0.1-0.1-0.3-0.3c0.2,0.2,0.3,0.3,0.3,0.3C106.8,879.3,147.1,922.1,189.5,967z M51.3,657.2c0-0.7,0-1.3,0-1.9
	c0-0.8,0-1.6,0.1-2.4c0,0.8-0.1,1.6-0.1,2.4C51.3,655.9,51.3,656.6,51.3,657.2z M51.9,714.3c0-2.3-0.1-4.6-0.1-6.9
	C51.8,709.7,51.9,712,51.9,714.3c0.1,9.7,0.2,19.7,0.4,29.6C52.1,734,52,724,51.9,714.3z M51.4,652.6c0.2-2.3,0.5-4.5,1.1-6.5
	C51.9,648.1,51.6,650.2,51.4,652.6z M52.7,797.9c0,1.5,0,2.9,0,4.3C52.7,800.8,52.7,799.4,52.7,797.9z M495.9,1494.2
	c-2.7-2.8-5.5-5.7-8.5-8.7c-31.4-31.4-49.5-54.8-50-55.3c-3.4-3.9-338.5-390.3-359.9-421.8c-14.8-21.7-17.1-50-17.1-50.1
	c0-0.9-3.3-83-3.4-114.1l0,0c0.1,31.1,3.4,113.2,3.4,114.1c0,0.1,2.3,28.4,17.1,50.1c21.4,31.5,356.5,417.9,359.9,421.8
	c0.5,0.5,18.6,23.9,50,55.3C490.4,1488.5,493.2,1491.4,495.9,1494.2c0.5,0.5,1,1.1,1.5,1.6C496.9,1495.3,496.4,1494.7,495.9,1494.2z
	 M611.2,1535.6c-0.2,0-0.4,0.1-0.6,0.1C610.8,1535.7,611,1535.6,611.2,1535.6c0.3-0.1,0.6-0.1,0.9-0.2
	C611.8,1535.5,611.5,1535.5,611.2,1535.6z M1377.1,1413.6c13.8-2.2,27.6-4.3,41.2-6.5C1404.6,1409.3,1390.9,1411.4,1377.1,1413.6z
	 M1835.7,1341.4c2.5-0.4,4.9-0.8,7.1-1.1C1840.6,1340.6,1838.2,1341,1835.7,1341.4z M1865.6,1336.7c-0.6,0.1-4.4,0.7-11.1,1.7
	C1861.2,1337.4,1865,1336.8,1865.6,1336.7c3.6-0.6,7-1.2,10.4-1.8C1872.6,1335.5,1869.2,1336.1,1865.6,1336.7z M1917.3,1277.3
	c-1.5,18.3-5.8,24.8-11.8,29c-8.1,5.6-22.3,8.5-42.9,12.1c-14.3,2.2-1172.1,184.1-1254.6,198.9c-17,3.1-31,4.5-42.8,4.5
	c-34.1,0-46.4-12.7-64.9-31.9c-2.4-2.5-5.4-5.6-8.6-8.8c-18.1-18.1-34.9-36.7-48.7-53.8c-0.6-0.8-0.9-1.1-1-1.3
	c-6.5-7.5-338.4-390.3-359.4-421.1c-13.4-19.6-15.9-45.2-16.1-47.1c0-0.5-0.1-1.7-0.2-5.4c-1.6-41.1-2.6-72-3-92.2
	c38.6,41,399.6,424.6,412,435.2c15.3,12.9,35.4,19.1,61.5,19.1c10.1,0,21-0.8,34.4-2.7c12.7-1.7,1292.8-177.1,1336.1-188.5
	c4.4-1.2,8.6-2.6,12.8-4.4c4,2.7,8.9,7.6,9.1,10.9C1928.6,1136.3,1920.4,1238.1,1917.3,1277.3z M1927.7,1117.6c-2.5-2.3-5-4-6.5-4.8
	l0.7-1.2c0,0,0,0,0,0l-0.7,1.2C1922.7,1113.6,1925.2,1115.3,1927.7,1117.6z M1929,1118.7c1,0.9,1.9,2,2.7,3
	C1930.8,1120.7,1929.9,1119.7,1929,1118.7z M1936.1,1278.5c-0.5,6.8-1.5,12.7-3,17.9C1934.6,1291.2,1935.6,1285.3,1936.1,1278.5
	c0.1-0.8,0.1-1.6,0.2-2.5C1936.2,1276.9,1936.2,1277.7,1936.1,1278.5z M1958.4,923c-2.8,58.5-10.7,135.3-11.4,142.4
	c-1,3.5-10.1,30.9-44.5,39.9c-39.4,10.4-1277.6,180.6-1333.8,188.1c-3.1,0.4-6,0.8-8.8,1.1c2.8-0.3,5.7-0.7,8.8-1.1
	c56.2-7.5,1294.4-177.7,1333.8-188.1c34.4-9,43.5-36.4,44.5-39.9C1947.7,1058.3,1955.6,981.5,1958.4,923c0.4-7.9,0.4-14.7-0.1-20.4
	C1958.8,908.3,1958.8,915.1,1958.4,923z"/>
</svg>
