<?xml version="1.0" encoding="utf-8"?>
<!-- Generator: Adobe Illustrator 21.1.0, SVG Export Plug-In . SVG Version: 6.00 Build 0)  -->
<svg version="1.1" id="Layer_1" xmlns="http://www.w3.org/2000/svg" xmlns:xlink="http://www.w3.org/1999/xlink" x="0px" y="0px"
	 viewBox="0 0 2000 2000" style="enable-background:new 0 0 2000 2000;" xml:space="preserve">
<path d="M1311,610.7h-134.3V302.2c0-84.6-69.7-154.2-154.2-154.2h-42.3c-84.6,0-154.2,69.7-154.2,154.2v308.5H691.5
	c-52.2,0-97,42.3-97,97v22.4c0,52.2,42.3,97,97,97h74.6V1372c0,59.7,27.4,116.9,72.1,156.7c29.9,24.9,44.8,59.7,44.8,99.5v109.5
	c0,62.2,52.2,114.4,114.4,114.4s114.4-52.2,114.4-114.4v-109.5c0-37.3,17.4-74.6,44.8-99.5c44.8-39.8,72.1-94.5,72.1-156.7V822.2
	h79.6c52.2,0,97-42.3,97-97v-22.4C1405.5,653,1363.2,610.7,1311,610.7z M895.5,302.2h2.5c0-44.8,37.3-79.6,79.6-79.6h42.3
	c44.8,0,79.6,37.3,79.6,79.6v308.5h-204V302.2z M1159.2,911.7h-2.5h-99.5c-19.9,0-37.3,17.4-37.3,37.3s17.4,37.3,37.3,37.3h99.5
	v89.6h-99.5c-19.9,0-37.3,17.4-37.3,37.3s17.4,37.3,37.3,37.3h99.5v89.6h-99.5c-19.9,0-37.3,17.4-37.3,37.3s17.4,37.3,37.3,37.3
	h99.5v57.2c0,37.3-17.4,74.6-44.8,99.5c-44.8,39.8-72.1,94.5-72.1,156.7v109.5c0,22.4-17.4,39.8-39.8,39.8s-39.8-17.4-39.8-39.8
	v-109.5c0-59.7-27.4-116.9-72.1-156.7c-29.9-24.9-44.8-59.7-44.8-99.5V822.2h315.9V911.7z M1335.8,727.6h-5
	c0,12.4-10,22.4-22.4,22.4h-79.6H766.2h-74.6c-12.4,0-22.4-10-22.4-22.4v-22.4c0-12.4,10-22.4,22.4-22.4h134.3h353.3h134.3
	c12.4,0,22.4,10,22.4,22.4V727.6z"/>
</svg>
