<?xml version="1.0" encoding="utf-8"?>
<!-- Generator: Adobe Illustrator 21.1.0, SVG Export Plug-In . SVG Version: 6.00 Build 0)  -->
<svg version="1.1" id="Layer_1" xmlns="http://www.w3.org/2000/svg" xmlns:xlink="http://www.w3.org/1999/xlink" x="0px" y="0px"
	 viewBox="0 0 2000 2000" style="enable-background:new 0 0 2000 2000;" xml:space="preserve">
<g>
	<path d="M499.8,970.6c31.6-39-34.6-42.7-81.6-57.4c-47.1-14.7-77.2-39.7-97.1-84.6c-19.9-44.9-51.5-120.6-90.5-176.1
		C191.7,597,93.9,622,57.1,629.4c-36.8,7.3-25,46.3-25,46.3s1.5,84.6,2.9,193.4c1.1,83.6,49.1,109.5,71.3,117
		c0,0,14.3,6.2,33.8,12.2c-20,46.2-86.6,201.8-113.9,290c0,0,10.3,6.6,19.9,0c0,0,94.7-234.9,110.9-285.4c8.9,2.2,18.2,4,27.5,5
		c0,0,0,0,0,0c17.4,2.6,36.3,4.2,55.7,5.1v16.3c-2.6,1.5-5.2,4.3-5.5,10c-0.7,12.1-18.8,240.9-16.2,342c0,0,6.6,4.1,21,0
		c0,0,18.4-258.1,15.1-349.7c0,0-0.9-1.2-2.6-2.3v-15.8c6.2,0.2,12.6,0.2,18.9,0.2c0.6,34.7,3.4,176.2,8,216.5c0,0,8.8,4.8,19.8,0
		c0,0-0.3-162.7-7.7-216.7c25.4-0.6,50.8-2.3,74.8-4.9l113.8,302.2c0,0,9.9,4,21-1.8c0,0-83.4-246.7-116.8-302.5
		C441.2,998.7,487.6,985.7,499.8,970.6z"/>
	<path d="M1860.9,998.3c19.5-5.9,33.8-12.2,33.8-12.2c22.2-7.5,70.2-33.4,71.3-117c1.5-108.8,2.9-193.4,2.9-193.4s11.8-39-25-46.3
		c-36.8-7.4-134.6-32.4-173.6,23.2c-39,55.5-70.6,131.3-90.5,176.1c-19.9,44.9-50,69.9-97.1,84.6c-47.1,14.7-113.3,18.4-81.6,57.4
		c12.2,15.1,58.6,28.1,116.1,35.8c-33.4,55.8-116.8,302.5-116.8,302.5c11,5.9,21,1.8,21,1.8l113.8-302.2c24,2.7,49.4,4.4,74.8,4.9
		c-7.3,54-7.7,216.7-7.7,216.7c11,4.8,19.8,0,19.8,0c4.5-40.2,7.3-181.8,8-216.5c6.3,0,12.6-0.1,18.9-0.2v15.8
		c-1.7,1.1-2.6,2.3-2.6,2.3c-3.3,91.6,15.1,349.7,15.1,349.7c14.3,4.1,21,0,21,0c2.6-101.1-15.4-329.8-16.2-342
		c-0.3-5.7-2.9-8.5-5.5-10V1013c19.5-0.9,38.4-2.5,55.7-5.1c0,0,0,0,0,0c9.3-1,18.6-2.8,27.5-5c16.2,50.4,110.9,285.4,110.9,285.4
		c9.6,6.6,19.9,0,19.9,0C1947.5,1200.1,1881,1044.6,1860.9,998.3z"/>
	<polygon points="1641.5,818.2 1449.1,755.4 524.4,755.4 361.1,818.2 361.1,861 555.1,861 565.4,1360 612.7,1360 623,861 
		1378.1,861 1388.4,1360 1435.7,1360 1446,861 1637.3,861 	"/>
</g>
</svg>
