<?xml version="1.0" encoding="utf-8"?>
<!-- Generator: Adobe Illustrator 22.0.1, SVG Export Plug-In . SVG Version: 6.00 Build 0)  -->
<svg version="1.1" id="Layer_1" xmlns="http://www.w3.org/2000/svg" xmlns:xlink="http://www.w3.org/1999/xlink" x="0px" y="0px"
	 viewBox="0 0 2000 2000" style="enable-background:new 0 0 2000 2000;" xml:space="preserve">
<style type="text/css">
	.st0{fill:#020203;}
</style>
<g>
	<path class="st0" d="M543.7,1008.9c-24.2-16.6-54.6-22.7-83.4-16.7l-234.1,47.5l-122.5-390c-9.9-31.6-41.9-50.7-74.6-44.3
		C9.6,609.7-3.3,628.6,0,648.7l111.2,544l0,6.8l-7.1,157.1c-0.4,9.8,3.5,19.4,10.1,25.8c7,8.2,17.2,13,27.7,12.2h2.8
		c0.1,0,0.1,0,0.2,0c18,0,33-13.5,34.7-31l26.9-160.3c1.1-3.2,1.5-6.5,1.4-9.9l240-48.8l36,216.8c0.9,19.5,16.9,34.7,36.3,34.7
		c0,0,0,0,0.1,0h2.8c0.2,0,0.4,0,0.5,0c10.1,0,19.5-4.5,25.5-11.8c7-6.8,10.8-16.4,10.5-26.2l-8.6-231v-1.7l12.1-2
		c19.6-4.3,32-23.7,27.8-43C585.7,1051,568.6,1025,543.7,1008.9z M493.1,1138.9l16.6-4.2l6.6,178.3L488.8,1139L493.1,1138.9z
		 M548.9,1083.4l-385.4,78.7l-15.2,3L42.7,648.1c10.1,0.4,18.8,7.1,21.7,16.9l124.1,393.8c5.1,18.2,23,29.3,41.7,26l238.4-48.5
		c17.9-3.8,37,0,52.2,10.5C534.2,1055.6,544,1068.4,548.9,1083.4z M165.5,1204.7L147.6,1312l4.7-104.2L165.5,1204.7z"/>
	<path class="st0" d="M1970.1,605.4c-32.5-6.5-64.5,12.7-74.4,44.3l-122.6,390.2l-234-47.7c-28.9-6.1-59.2,0-83.3,16.6
		c-24.9,16.1-42.1,42.1-47.1,71.3c-4.2,19.5,8.2,38.8,28.1,43.2l11.8,2l-8.6,232.7c-0.4,9.8,3.5,19.4,10,25.7
		c6.4,7.9,15.8,12.3,25.9,12.3c0.2,0,0.3,0,0.5,0h2.9c0,0,0,0,0.1,0c19.5,0,35.4-15.2,36.3-33.9l36-217.6l240,48.8
		c-0.2,3.2,0.2,6.3,1.1,8.9l27,160.9c1.8,18,16.8,31.4,34.8,31.4c0.1,0,0.1,0,0.2,0h2.6c10.7,0.7,21-4,27.6-11.8
		c7-6.8,10.8-16.4,10.5-26.3l-7.1-156.7l-0.1-5.9l111.4-545.5C2002.7,628.6,1989.9,609.7,1970.1,605.4z M1851.9,1312.2l-18-107.6
		l13.2,3.1L1851.9,1312.2z M1956.8,648.1l-105.6,517.1l-339.1-68.7l-61.5-13.1c4.9-15,14.7-27.8,28.1-36.7
		c15.1-10.4,34.2-14.2,52.2-10.4l238.5,48.5c18.9,3.3,36.5-7.8,41.5-25.8l124.2-394.1C1938,655.1,1946.7,648.4,1956.8,648.1z
		 M1510.6,1139.1l-27.5,173.8l6.6-178.2l18.2,4.4H1510.6z"/>
	<path class="st0" d="M1516.5,910.9v-29.6c0-30-24.7-54.3-55.1-54.3H558.8c-30.4,0-55.1,24.4-55.1,54.3v29.6
		c0,29.1,25.2,53.7,55.1,53.7h178.4v379.1c0,28.9,23.5,52.4,52.4,52.4c28.8,0,53.1-24,53.1-52.4v-207h334.1v207
		c0,28.9,23.5,52.4,52.4,52.4c28.8,0,53.1-24,53.1-52.4V964.6h179C1491.2,964.6,1516.5,940,1516.5,910.9z M1231.5,964.6v379.1
		c0,2.8-1.6,2.8-2.3,2.8c-1.3,0-1.6-1.8-1.6-2.8V964.6H1231.5z M1176.8,1048.7v37.8H842.8v-37.8H1176.8z M1176.8,964.6v33.8H842.8
		v-33.8H1176.8z M792.6,964.6v379.1c0,1.7-1.1,2.8-2.9,2.8c-1.1,0-2.3-1.1-2.3-2.8l0-379.1H792.6z M553.9,881.4c0-1.1,0-4.1,4.9-4.1
		h902.5c2.8,0,4.3,1.4,4.3,4.1v29.6c0,2.4-1.8,4.1-4.3,4.1H558.8c-3,0-4.9-1.6-4.9-4.1V881.4z"/>
</g>
</svg>
