<?xml version="1.0" encoding="utf-8"?>
<!-- Generator: Adobe Illustrator 18.1.1, SVG Export Plug-In . SVG Version: 6.00 Build 0)  -->
<svg version="1.1" id="Layer_1" xmlns="http://www.w3.org/2000/svg" xmlns:xlink="http://www.w3.org/1999/xlink" x="0px" y="0px"
	 viewBox="0 0 2000 2000" enable-background="new 0 0 2000 2000" xml:space="preserve">
<g>
	<path d="M1852.5,625.3c-45.2-106.9-109.9-202.9-192.4-285.3c-82.4-82.4-178.4-147.2-285.3-192.4c-110.7-46.8-228.2-70.5-349.4-70.5
		c-121.2,0-238.7,23.7-349.4,70.5C569,192.8,473,257.5,390.6,340c-82.4,82.4-147.2,178.4-192.4,285.3
		c-46.8,110.7-70.5,228.2-70.5,349.4s23.7,238.7,70.5,349.4c45.2,106.9,109.9,202.9,192.4,285.3c82.4,82.4,178.4,147.2,285.3,192.4
		c110.7,46.8,228.2,70.5,349.4,70.5c121.2,0,238.7-23.7,349.4-70.5c106.9-45.2,202.9-109.9,285.3-192.4
		c82.4-82.4,147.2-178.4,192.4-285.3c46.8-110.7,70.5-228.2,70.5-349.4S1899.3,736,1852.5,625.3z M1833.9,1316.3
		c-44.2,104.5-107.5,198.3-188.1,278.9c-80.6,80.6-174.4,143.9-278.9,188.1c-108.2,45.8-223.1,69-341.6,69s-233.4-23.2-341.6-69
		c-104.5-44.2-198.3-107.5-278.9-188.1c-80.6-80.6-143.9-174.4-188.1-278.9c-45.8-108.2-69-223.1-69-341.6
		c0-118.5,23.2-233.4,69-341.6C261,528.7,324.3,434.8,404.8,354.2c80.6-80.6,174.4-143.9,278.9-188.1c108.2-45.8,223.1-69,341.6-69
		s233.4,23.2,341.6,69c104.5,44.2,198.3,107.5,278.9,188.1c80.6,80.6,143.9,174.4,188.1,278.9c45.8,108.2,69,223.1,69,341.6
		C1902.9,1093.2,1879.7,1208.1,1833.9,1316.3z"/>
	<path d="M1280.4,1009.4c-31.3-22.2-67-39.5-106.9-52c-40-12.5-80.7-23.1-122.1-31.8V509.4c63.6,0,115.1,21.5,154.6,64.3
		c39.5,42.9,59.7,100.4,60.7,172.7h91c0.9-47.2-6.5-90.1-22.4-128.6c-15.9-38.5-38.1-71.5-66.5-99c-28.4-27.5-61.2-48.6-98.3-63.6
		c-37.1-14.9-76.8-22.4-119.2-22.4V320.1H995v112.7c-41.4,0-80.7,6.5-117.8,19.5c-37.1,13-69.4,31.8-96.8,56.4
		c-27.5,24.6-49.1,54.2-65,88.9c-15.9,34.7-23.8,73.7-23.8,117.1c0,50.1,8.2,91.8,24.6,125c16.4,33.2,38.3,60.7,65.8,82.4
		c27.5,21.7,59.7,38.5,96.8,50.6c37.1,12.1,75.9,22.4,116.3,31.1v427.8c-76.1-8.7-134.6-35.4-175.6-80.2
		c-41-44.8-61.9-109.6-62.9-194.4h-91c3.8,109.8,31.5,192.7,83.1,248.6c51.5,55.9,133.7,89.1,246.4,99.7v124.3h56.4v-122.8
		c42.4,0,83.6-6,123.6-18.1c40-12,75.6-30.1,106.9-54.2c31.3-24.1,56.4-54.2,75.1-90.3c18.8-36.1,28.2-77.8,28.2-125
		c0-51.1-9.6-93.2-28.9-126.4C1337,1059.3,1311.7,1031.6,1280.4,1009.4z M995,912.6c-27-6.7-53.2-14-78.8-21.7
		c-25.5-7.7-48.2-18.3-67.9-31.8c-19.8-13.5-35.7-30.8-47.7-52c-12.1-21.2-18.1-48.6-18.1-82.4c0-37.6,5.5-70.1,16.6-97.5
		c11.1-27.5,26.5-49.9,46.2-67.2c19.7-17.3,42.4-30.1,67.9-38.3c25.5-8.2,52.7-12.3,81.6-12.3V912.6z M1273.2,1316.5
		c-14,26.5-32.3,48.4-54.9,65.8c-22.6,17.3-48.4,29.9-77.3,37.6c-28.9,7.7-58.8,11.6-89.6,11.6v-416.2c27.9,6.8,56.4,14.9,85.3,24.6
		c28.9,9.6,54.9,21.9,78,36.9c23.1,14.9,42.1,34,57.1,57.1c14.9,23.1,22.4,52,22.4,86.7C1294.1,1258,1287.1,1290,1273.2,1316.5z"/>
</g>
</svg>
