<?xml version="1.0" encoding="utf-8"?>
<!-- Generator: Adobe Illustrator 21.1.0, SVG Export Plug-In . SVG Version: 6.00 Build 0)  -->
<svg version="1.1" id="Layer_1" xmlns="http://www.w3.org/2000/svg" xmlns:xlink="http://www.w3.org/1999/xlink" x="0px" y="0px"
	 viewBox="0 0 100 125" style="enable-background:new 0 0 100 125;" xml:space="preserve">
<g>
	<path d="M95.7,11.6c-0.2-0.2-0.4-0.3-0.6-0.3H4.9c-0.2,0-0.5,0.1-0.6,0.3S4,12,4,12.2v85c0,0.2,0.1,0.5,0.3,0.6
		c0.2,0.2,0.4,0.3,0.6,0.3h18.6L22,110c-0.1,0.5,0.3,0.9,0.8,1c0.5,0.1,0.9-0.3,1-0.8l1.5-12.1h49.3l1.5,12.1c0.1,0.5,0.5,0.8,1,0.8
		c0.5-0.1,0.8-0.5,0.8-1l-1.5-11.9h18.6c0.2,0,0.5-0.1,0.6-0.3c0.2-0.2,0.3-0.4,0.3-0.6v-85C96,12,95.9,11.7,95.7,11.6z M94.2,96.3
		H5.8V69.8h88.4V96.3z M94.2,68H5.8V41.4h88.4V68z M94.2,39.6H5.8V13.1h88.4V39.6z"/>
	<path d="M50,31.1c2.6,0,4.8-2.1,4.8-4.8c0-2.6-2.1-4.8-4.8-4.8c-2.6,0-4.8,2.1-4.8,4.8C45.2,29,47.4,31.1,50,31.1z M50,23.4
		c1.6,0,3,1.3,3,3c0,1.6-1.3,3-3,3c-1.6,0-3-1.3-3-3C47,24.7,48.3,23.4,50,23.4z"/>
	<path d="M50,59.5c2.6,0,4.8-2.1,4.8-4.8c0-2.6-2.1-4.8-4.8-4.8c-2.6,0-4.8,2.1-4.8,4.8C45.2,57.3,47.4,59.5,50,59.5z M50,51.8
		c1.6,0,3,1.3,3,3c0,1.6-1.3,3-3,3c-1.6,0-3-1.3-3-3C47,53.1,48.3,51.8,50,51.8z"/>
	<path d="M50,87.8c2.6,0,4.8-2.1,4.8-4.8c0-2.6-2.1-4.8-4.8-4.8c-2.6,0-4.8,2.1-4.8,4.8C45.2,85.7,47.4,87.8,50,87.8z M50,80.1
		c1.6,0,3,1.3,3,3c0,1.6-1.3,3-3,3c-1.6,0-3-1.3-3-3C47,81.4,48.3,80.1,50,80.1z"/>
</g>
</svg>
