<?xml version="1.0" encoding="utf-8"?>
<!-- Generator: Adobe Illustrator 21.1.0, SVG Export Plug-In . SVG Version: 6.00 Build 0)  -->
<svg version="1.1" id="Layer_1" xmlns="http://www.w3.org/2000/svg" xmlns:xlink="http://www.w3.org/1999/xlink" x="0px" y="0px"
	 viewBox="0 0 2000 2000" style="enable-background:new 0 0 2000 2000;" xml:space="preserve">
<g>
	<path d="M549.3,980.9c53-24.5,105.4-59.6,157.3-105.4c43.2-35.9,82.2-75.6,116.8-118.8c34.6-43.3,64.3-86.2,89.2-128.7
		c24.8-42.5,42.7-82.9,53.5-121.3c10.8-38.4,13-72.3,6.5-101.7c-4.4-22.9-19.5-39.6-45.4-50.2c-25.9-10.6-54.1-15.9-84.3-15.9
		c-10.8,0-21.6,0.8-32.4,2.4c-10.8,1.7-19.5,4.9-25.9,9.8c-13,6.6-17.4,14.7-13,24.5c6.5,32.7-1.6,74.4-24.3,125
		c-22.7,50.7-55.7,105.4-98.9,164.2C522.8,818.4,419,895.2,336.8,895.2c-15.2,0-28.1-2.8-38.9-8.6c-10.8-5.7-18.4-21.6-22.7-47.8
		c-4.4-19.6-2.2-43.7,6.5-72.3c8.6-28.6,21.6-58,38.9-88.2c17.3-30.2,37.3-60.4,60-90.7c22.7-30.2,45.9-57.6,69.7-82.1
		C556.3,396.1,646,338.9,719.6,334c4.3,1.6,8.6,2.4,13,2.4c4.3,0,11.9-2.4,22.7-7.3c10.8-4.9,16.2-18.8,16.2-41.7
		c0-4.9-1.1-13.5-3.2-25.7c-2.2-12.2-8.7-24.9-19.5-38c-26-24.5-58.4-36.8-97.3-36.8c-25.9,0-58.4,8.2-97.3,24.5
		c-38.9,16.4-80,39.2-123.3,68.6c-43.3,29.4-86,64.1-128.1,104.1c-42.2,40.1-80.6,82.9-115.2,128.7c-41.1,53.9-69.7,105.8-86,155.6
		C85.4,718.4,80.5,762,87,799.6c4.3,22.9,14.6,47,30.8,72.3c16.2,25.3,37.8,49,64.9,71.1c27,22,58.9,40,95.7,53.9
		c36.7,13.9,77.8,20.8,123.3,20.8S496.3,1005.4,549.3,980.9z"/>
	<path d="M1381.4,804.5c58.4-71.9,113.5-137.6,165.4-197.3c51.9-59.6,97.8-112.7,137.9-159.3s71.9-85.8,95.7-117.6
		s35.7-55.1,35.7-69.8c0-34.3-9.2-64.9-27.6-91.9c-18.4-27-40-50.2-64.9-69.8c-24.9-19.6-50.8-35.1-77.9-46.6
		c-27.1-11.4-48.2-17.2-63.3-17.2c-2.1,24.5-22.7,66.2-61.6,125c-38.9,58.8-91.9,131.5-159,218.1c-67,86.6-146,186.7-236.8,300.2
		c-90.8,113.6-190.3,238.9-298.5,376.1c-60.6,76.8-120,150.7-178.4,221.8c-58.4,71.1-110.3,136.8-155.7,197.3
		c-45.4,60.5-82.2,114.4-110.3,161.7c-28.1,47.4-42.2,86.6-42.2,117.6c0,32.7,8.6,61.7,26,87c17.3,25.4,37.3,46.6,60,63.7
		c22.7,17.1,46.5,31,71.4,41.7c24.8,10.6,45.9,16.7,63.3,18.4c6.5-53.9,35.7-123.8,87.6-209.5s116.8-180.5,194.6-284.3
		c77.8-103.7,164.3-212.8,259.5-327.1C1197.5,1028.3,1290.6,915.6,1381.4,804.5z"/>
	<path d="M1913.4,1282.4c-4.4-21.2-19.5-37.1-45.4-47.8c-25.9-10.6-54.1-15.9-84.4-15.9c-10.8,0-21.6,0.8-32.4,2.4
		c-10.8,1.6-19.5,6.5-25.9,14.7c-8.7,4.9-13,11.5-13,19.6c8.6,32.7,1.1,74.4-22.7,125c-23.8,50.6-58.4,105.4-103.8,164.2
		c-121.2,153.6-225,230.3-311.4,230.3c-10.9,0-21.6-3.3-32.5-9.8c-10.8-6.5-19.5-21.2-25.9-44.1c-4.4-21.2-2.2-45.7,6.5-73.5
		c8.6-27.8,21.6-57.2,38.9-88.2c17.3-31,37.3-61.6,60-91.9c22.7-30.2,45.9-58.4,69.8-84.5c99.4-107.8,190.3-164.2,272.5-169.1h9.7
		c4.3,0,11.9-2,22.7-6.1c10.8-4.1,16.2-16.7,16.2-38c0-4.9-1.1-13.9-3.2-26.9c-2.2-13.1-9.7-25.3-22.7-36.8
		c-21.6-27.8-54.1-41.7-97.3-41.7c-26,0-58.4,8.2-97.3,24.5c-39,16.4-79.5,39.2-121.7,68.6c-42.2,29.4-84.3,64.1-126.5,104.2
		c-42.2,40.1-80.6,83.7-115.2,131.1c-80,112.7-113.5,207.5-100.6,284.3c4.3,22.9,15.1,47,32.5,72.3c17.3,25.4,39.4,49,66.5,71.1
		c27,22,58.9,40.1,95.7,53.9c36.8,13.9,77.9,20.8,123.3,20.8c45.4,0,94.1-12.3,146-36.8c51.9-24.5,103.8-58.8,155.7-102.9
		c41.1-37.6,79.5-77.6,115.2-120.1c35.7-42.5,65.4-84.9,89.2-127.4c23.8-42.5,41.6-83.3,53.5-122.5
		C1917.1,1346.1,1919.9,1311.8,1913.4,1282.4z"/>
</g>
</svg>
