<?xml version="1.0" encoding="utf-8"?>
<!-- Generator: Adobe Illustrator 22.0.1, SVG Export Plug-In . SVG Version: 6.00 Build 0)  -->
<svg version="1.1" id="Layer_1" xmlns="http://www.w3.org/2000/svg" xmlns:xlink="http://www.w3.org/1999/xlink" x="0px" y="0px"
	 viewBox="0 0 2000 2000" style="enable-background:new 0 0 2000 2000;" xml:space="preserve">
<style type="text/css">
	.st0{fill:#020203;}
</style>
<g transform="translate(0,-952.36218)">
	<path class="st0" d="M691.5,968.7c-24.7-0.3-44.9,19.4-45.3,44.1c-0.3,24.7,19.4,44.9,44.1,45.3c0.4,0,0.7,0,1.1,0h263.8V1930
		H782.1c-15.1,0-29.1,7.6-37.4,20.2l-273.3,416.6c-13.5,20.6-7.8,48.4,12.9,61.9c7.3,4.8,15.8,7.3,24.5,7.3h189.9
		c157.3,178.4,444.9,178.7,602.2,0h190.2c24.7,0,44.7-20,44.7-44.7c0-8.7-2.5-17.2-7.3-24.5l-273.3-416.6
		c-8.3-12.6-22.3-20.2-37.4-20.2h-173.2v-871.9h263.8c24.7,0.3,44.9-19.4,45.3-44.1c0.3-24.7-19.4-44.9-44.1-45.3
		c-0.4,0-0.7,0-1.1,0L691.5,968.7L691.5,968.7z M806.2,2019.4h387.5l214.6,327.2H591.6L806.2,2019.4z M836.8,2436H1163
		C1063.9,2495.5,935.9,2495.5,836.8,2436z"/>
	<path class="st0" d="M997.3,2657.7c-24.7,0.4-44.4,20.7-44,45.3v187.8c-0.3,24.7,19.5,44.9,44.1,45.3s44.9-19.5,45.3-44.1
		c0-0.4,0-0.7,0-1.1V2703c0.3-24.7-19.4-45-44.1-45.3C998.2,2657.7,997.8,2657.7,997.3,2657.7z"/>
	<path class="st0" d="M806,2618.1c-11.6,0.1-22.7,4.7-31,12.8l-136.2,129.9c-18.1,16.8-19.1,45.1-2.3,63.2
		c16.8,18.1,45.1,19.1,63.2,2.3c0.3-0.3,0.5-0.5,0.8-0.8l136.2-129.9c18.1-16.8,19.2-45.1,2.4-63.2
		C830.5,2623.2,818.5,2618,806,2618.1z"/>
	<path class="st0" d="M1168.8,2629.7c-24.7,0.6-44.2,21.1-43.6,45.8c0.3,12.1,5.4,23.5,14.3,31.7l140,133.5
		c17.6,17.3,45.9,17,63.2-0.6c17.3-17.6,17-45.9-0.6-63.2c-0.3-0.3-0.6-0.6-0.9-0.9l-140-133.5
		C1192.6,2634,1180.9,2629.4,1168.8,2629.7z"/>
</g>
</svg>
