<?xml version="1.0" encoding="utf-8"?>
<!-- Generator: Adobe Illustrator 21.1.0, SVG Export Plug-In . SVG Version: 6.00 Build 0)  -->
<svg version="1.1" id="Layer_1" xmlns="http://www.w3.org/2000/svg" xmlns:xlink="http://www.w3.org/1999/xlink" x="0px" y="0px"
	 viewBox="0 0 2000 2000" style="enable-background:new 0 0 2000 2000;" xml:space="preserve">
<path d="M1099.4,1991.5H900.7v-81.9c-81.6-66.9-162.7-220.3-162.7-416.4c0-160.4,59.2-489.2,138.8-694.5H345V8.5h1310.8v790.3
	h-531.9c79.6,205.2,138.8,534,138.8,694.5c0,196.6-81.6,350.3-163.4,416.9V1991.5z M910.8,1981.4h178.5v-67.9h-9.5l10.5-9
	c80.8-63.8,162.4-215.8,162.4-411.3c0-161.4-60.2-494-140.8-697.7l-2.7-6.9h536.6V18.6H355v770.1h536.5l-2.7,6.9
	c-80.6,203.7-140.8,536.4-140.8,697.7c0,195.5,81.5,347.4,162.4,411.3l11.4,9h-11.1V1981.4z"/>
</svg>
