<?xml version="1.0" encoding="utf-8"?>
<!-- Generator: Adobe Illustrator 21.1.0, SVG Export Plug-In . SVG Version: 6.00 Build 0)  -->
<svg version="1.1" id="Layer_1" xmlns="http://www.w3.org/2000/svg" xmlns:xlink="http://www.w3.org/1999/xlink" x="0px" y="0px"
	 viewBox="0 0 2000 2000" style="enable-background:new 0 0 2000 2000;" xml:space="preserve">
<style type="text/css">
	.st0{fill:#231F20;}
</style>
<g>
	<path class="st0" d="M17.9,305.6v1388.8H1982V305.6H17.9z M1966.7,1679H33.3V321h1933.4L1966.7,1679L1966.7,1679z"/>
	<path class="st0" d="M1914,373.7H86v1252.7h1828V373.7z M1898.6,1611H101.3V389h1797.3L1898.6,1611L1898.6,1611z"/>
	<polygon class="st0" points="558.5,1273.1 551.5,1270 559.2,1271.2 552,1268.5 544.2,1267.6 	"/>
	<polygon class="st0" points="562.9,1261.6 548.7,1255.7 547.6,1258.4 561.9,1264.1 	"/>
	<polygon class="st0" points="556.3,1280.1 549,1277.9 541.3,1276.7 	"/>
	<polygon class="st0" points="538.8,1287.5 554.2,1288.7 539,1286.3 	"/>
	<polygon class="st0" points="544.6,1298.9 552.5,1298.3 544.9,1297.1 537.1,1297 	"/>
	<path class="st0" d="M1083.7,987.4l32.9,11.1l2.8-6.5c85-193.6,115.9-324.6,89.5-378.7c-8-16.3-19.2-22.1-27.3-24.2
		c-12.9-3.2-24.9-1.4-35.8,5.4c-24.3,15.4-42.5,56-55.6,124c-22.5,116.7-7.3,262.4-7.1,263.9L1083.7,987.4z M1105.4,721.5
		c15.1-78.2,34.8-105.1,48.7-113.9c7.2-4.6,15-5.7,23.8-3.5c4.9,1.2,11.9,5,17.2,16.1c13.8,28.3,20.6,112.5-86.9,359.3L1098,976
		C1095.6,949.9,1085.6,824.1,1105.4,721.5z"/>
	<path class="st0" d="M754.6,1239c0,18.4,15,33.4,33.4,33.4s33.4-15,33.4-33.4c0-16.4-11.9-30.1-27.6-32.9c0.3-3.4-1.1-6.6-3.7-8.6
		c-2.9-2.2-6.9-2.7-10.4-1.2c-1.6,0.7-3,1.7-4.1,3c-0.4-0.1-0.8-0.2-1.1-0.2c-3.5-0.5-6.7,0.8-9,3.1c-1.4-0.4-2.9-0.6-4.6-0.4
		c-5.5,0.7-9.2,5.6-8.6,11.1c0.7,4.9,2.3,9.5,4.7,13.7C755.4,1230.4,754.6,1234.7,754.6,1239z M772.4,1229.8l1-1.7l1.2-1.3
		c0.7-0.7,1.4-1.4,2.2-2l3.2-2c0.9-0.5,1.9-0.8,2.9-1.1l5-0.8c9.9,0,18,8.1,18,18s-8.1,18-18,18s-18-8.1-18-18
		C769.9,1235.7,770.8,1232.6,772.4,1229.8z"/>
	<path class="st0" d="M563.7,1227.7L563.7,1227.7l-0.3,0.5l-14.1,21.8l3.1-1.5l13.5,6.5l1.3-2.6l-11.2-5.6l7.8-3.7l6.4,3.5l1.7-2.9
		l-4.2-2.5l5.9-2.8c0.5-0.2,1-0.3,1.4-0.5l0.2,0.1l0.2-0.3c7.2-3.1,14.8-4.9,22.5-4.9c31.5,0,57.2,25.7,57.2,57.2
		s-25.7,57.2-57.2,57.2c-18.5,0-35.7-8.9-46.5-23.9c-0.1-2-0.2-4-0.2-6h-15.4v0.1c0.1,144.5,208.6,262,464.9,262
		s464.9-117.6,464.9-262.1h-15.4c0,1.8-0.1,3.5-0.2,5.3c-10.7,15.5-28.2,24.6-47,24.6c-31.5,0-57.2-25.7-57.2-57.2
		s25.7-57.2,57.2-57.2c8.6,0,17,1.9,24.9,5.7l6.4,3.1l-4.4,2.5l0.7,1.3l4.7-3.3l10.4,5l-4.3,2.1l-6.5,4.3l7.4-2.4l5.8-2.8l4.5,2.2
		l-14.6-22.7l0,0l0,0l-0.2-0.3c-12.9-20.1-30.1-39.2-51.3-56.9c-5.4-76.5-66.2-147.5-164.1-191.4c99.9-265.3,124-424.8,75.8-501.6
		c-28.2-45-77.8-54.3-113.9-57.4c-48.4,3.7-88.1,24.8-117.8,62.5c-92.5,117.6-64.9,365-51.5,452c-11.5-0.3-23.2-0.2-34.7,0.2
		c11.6-278.5-15.2-435.1-84.3-492.6c-40.8-33.9-90.7-27.3-126-19.1c-45.7,18.9-77.2,52.1-93.4,98.6C622,678.1,752.5,935,776.8,980.6
		c-96.6,43.9-156.6,114.3-161.9,190.4c-21,17.6-38.2,36.6-51.1,56.5L563.7,1227.7z M627.2,1180.7l2.6-2.2l0.2-3.4
		c3.6-74,64.5-143.1,163.1-184.9l47.4-20.1c4.9,11.8,8,18.7,8.1,19l2,4.5l34.8,0.3l0.7-7c20.5-210.4,9.2-344.5-32.7-387.7
		c-12.6-13.1-25.4-15.3-33.4-14.6c-13.3,0.9-24.2,6.4-32.3,16.3c-18.3,22.2-23,66.4-14.3,135.1c11.4,90.4,49.2,190.1,66.5,232.3
		l-48.5,6.8c-20-37.8-152.9-297.7-100.4-447.8c14.7-42.1,43.2-72.2,83.6-89.1c49.7-11.4,84.1-6.4,111.5,16.3
		c64.9,53.9,90.5,213.7,78.4,488.4l-0.4,8.4l8.4-0.4c16.8-0.8,34.2-0.9,51.1-0.2l9.4,0.4l-1.5-9.3c-8.8-53.9-47.6-329.1,46.9-449.3
		c26.9-34.2,62.9-53.3,105.6-56.7c50.8,4.5,82,20,100.9,50.2c45.2,72.1,19.1,233.9-79.7,494.8l-2.6,6.9l6.8,2.9
		c97.7,41.9,158.2,110.8,161.7,184.3l0.2,3.4l2.6,2.2c14.6,11.9,27.3,24.6,37.8,37.6c-2.9-0.4-5.9-0.5-8.9-0.5
		c-40,0-72.6,32.6-72.6,72.6s32.6,72.6,72.6,72.6c16.1,0,31.3-5.3,43.7-14.7c-27.6,121.6-217.1,216.1-446.1,216.1
		c-228.7,0-418.1-94.2-446-215.7c12.3,9.2,27.4,14.3,43.2,14.3c40,0,72.6-32.6,72.6-72.6s-32.6-72.6-72.6-72.6
		c-2.8,0-5.6,0.2-8.4,0.5C600,1205.2,612.7,1192.6,627.2,1180.7z M788.6,734.2c-10-79,0.4-110.7,10.9-123.5
		c5.5-6.6,12.5-10.1,21.5-10.7c5-0.1,12.8,1.1,21.4,9.9c21.9,22.6,54.6,100.5,29.1,368.6l-10.8-0.1
		C850.3,954.3,801.7,837.8,788.6,734.2z"/>
	<path class="st0" d="M969.9,1353.5l4.5,25.5c1.7,6.3,9.2,17,26.7,17l30.9-0.2c6.3-1.3,17.5-7.3,19.2-21.3c0.8-6.4,1.7-14.6,2.5-21
		c26.1,0.1,40.2-16.7,44-26.8l2.7-7.3l-21.4-7.5l-2.7,7c-0.6,1.4-6.1,14-26.5,11.6c-20.6-2.5-25.5-8.7-27-18.4
		c15.2-4.8,29.7-16.4,42.3-33.8c4.7-6.5,4.7-11.9,3.8-15.2c-1.4-5.5-5.6-8.2-5.9-8.2c0,0,0,0,0.1,0.1c-20.9-17.3-41.8-25-62.6-22.9
		c-25.6,2.8-41.8,19.9-45.5,24.3c-4.6,3.5-6.2,9.5-6.7,11.6c-0.7,6.5,2,13.3,7.8,20.1c9.5,11,27.9,21.6,42.4,25.2
		c-2.1,9.8-8.1,14.9-26.8,17.1c-20.5,2.2-26-10.2-26.6-11.6l-2.6-7.1l-20.6,7.4l1.7,6.8C925.2,1331.6,937.6,1354.2,969.9,1353.5z
		 M967.9,1278.2c-2.9-3.3-4.4-6.4-4.4-7.4c0.2-0.8,0.7-1.9,0.8-2l2.2-1.9c0.1-0.2,13.5-17,35.8-19.4c1.7-0.2,3.5-0.3,5.3-0.3
		c14.8,0,30.3,6.6,46.5,19.4c0,0-0.1,0.9-1.4,2.7c-12.1,16.8-25.7,27-39.4,29.4l-3.7,0.7l-2.1-0.1
		C997.5,1298.9,977.3,1289.1,967.9,1278.2z M1010.9,1325.1c4.8,10.1,13.9,16.2,28.5,19.3l0,0c-0.7,5.7-2.2,19-3.3,28.3
		c-0.8,6.3-6.2,7.9-5.6,8h-29.4c-9.5,0-11.6-4.9-11.7-5l-5.6-31.6C997.6,1340.9,1006.3,1334.9,1010.9,1325.1z"/>
	<path class="st0" d="M1232,1283.4c18.4,0,33.4-15,33.4-33.4c0-0.5,0-1.1,0-1.6c3.8-4.8,6.2-10.6,6.9-16.7c0.6-5.6-3.3-10.4-8.8-11
		c-0.7,0-1.3-0.1-2,0c0-0.2,0-0.4-0.1-0.6c-0.6-5.3-5.2-9.3-10.5-9.3c-0.4,0-0.5-0.4-1.4,0.1c-1.6-4.2-5.7-7-10.6-6.5
		c-5.6,0.5-9.6,5.2-9.2,10.8c0,0.5,0,1,0,1.5c-17.3,1.2-31.1,15.7-31.1,33.3C1198.6,1268.4,1213.6,1283.4,1232,1283.4z M1232,1232
		c0.8,0,1.5,0,2.2,0.1l3.7,0.8c1.7,0.6,3.3,1.4,4.7,2.5l2.8,2.5c1.4,1.6,2.5,3.3,3.3,5.1l1.1,4c0.2,1,0.3,1.9,0.3,2.9
		c0,9.9-8.1,18-18,18s-18-8.1-18-18C1214,1240,1222.1,1232,1232,1232z"/>
	<polygon class="st0" points="1438.8,1262.9 1439.3,1264 1453.4,1257.9 1452.6,1256 	"/>
	<polygon class="st0" points="1459.8,1276.3 1444.9,1280 1445.3,1281.6 	"/>
	<polygon class="st0" points="1456.5,1298.9 1463.9,1295.9 1448.8,1299.1 1449,1300.1 	"/>
	<polygon class="st0" points="1462.1,1286 1447,1288.7 1447.4,1290.7 	"/>
	<polygon class="st0" points="1465.1,1306.8 1449.9,1309.2 1465.1,1307.5 	"/>
	<polygon class="st0" points="1457.1,1268 1456.5,1266.1 1442.4,1272.2 1442.5,1272.5 	"/>
	<polygon class="st0" points="539,1308.1 551.4,1307.8 543.8,1307.3 536.1,1307.7 	"/>
	<path class="st0" d="M250.8,1099.3c44.1,18.7,80.6,23.1,105.4,23.1c2.7,0,5.3-0.1,7.8-0.2c3.9-0.2,7.2-0.4,10.1-0.7l-1.6,4.5
		l6.5-2.8c2.2,6.8,4.3,13.9,6.6,21.3c-39.1-14-111.6-30.8-140.8-35c-3.4-0.5-6.7-0.6-9.6-0.6c-16.8,0.7-23.7,10.5-24.5,18.8
		c-1.3,13.9,12.1,32,53.2,41.3c25.5,6.7,50.5,10.1,74.5,10.1c3.3,0,6.5-0.1,9.8-0.2c22.1-0.9,37.3-4.5,45.5-6.8
		c4.2,14.9,8.5,30.8,12.7,47.4c-37.2-13.4-105.9-29.5-133.6-33.6c-3.4-0.5-6.6-0.6-9.5-0.6c-16.1,0.7-22.7,10.1-23.4,18
		c-1.2,13.3,11.6,30.7,50.9,39.7c24.7,6.6,48.9,9.9,72.1,9.9c3.2,0,6.3-0.1,9.4-0.2c19-0.8,32.5-3.6,40.7-5.8
		c8,33.9,15.6,70.6,22,109.4l1.3,7.6l20.5-3.3l-1.2-7.6c-6.6-40.2-14.5-78-22.8-113l5.6-2.2c20.3-5.5,57.3-19.8,98.6-57.2
		c35.3-29.8,31.2-50,29.1-55.5l0,0c-2.1-5.3-6.2-9.1-11.6-10.7c-8-2.3-17.9,0.2-27.3,6.9c-22.3,16-74.1,60.2-101.6,89.1
		c-4.1-15.9-8.2-31.1-12.2-45.5l3.1-1.2c20.5-5,61.6-19.4,107.2-60.4c29.4-24.6,35-46,30.5-57.8c-2.1-5.5-6.4-9.5-12-11.1
		c-8.3-2.5-18.6,0.1-28.4,7c-23.7,16.9-79.9,64.1-108.7,94.9c-2.1-6.8-4.1-13.3-6.1-19.6l10.6-2.5l-4.8-3.2
		c18-10.6,56.2-38.1,90.2-97c16.5-26.5,21.6-50.5,13.7-64.3l0,0c-3.9-6.6-10.2-9.9-17.8-10c-8.7,0.3-17.6,6.1-25.1,16.2
		c-18.2,24.5-58.2,89.3-77.1,129.1c-1.4-4.1-2.8-8.2-4.1-12l5.5,0.1l-8.9-9.7c-0.5-1.3-0.9-2.6-1.4-3.8
		c10.8-10.3,48.6-50.8,62.8-125.1c5.6-25.2,3.3-45.5-6.6-57.3c-5.1-6.2-11.9-9.3-19.3-9.2c-11.8,0.5-21.9,10.1-26.4,25.1
		c-7.2,23.7-19.4,78.2-26,120c-4.1-42.7-24.9-133.3-35-165.7c-5.1-16.3-14-25.5-24.6-25.5c-0.2,0-0.5,0-0.7,0
		c-5.5,0.2-10.5,3.1-14.3,8c-9.1,12-10.3,36.1-3.3,65.7c17.6,85.7,52.9,126.3,59.6,133.4c0.3,0.7,0.6,1.5,1,2.4
		c-31.2-25.3-76.3-56.7-96.9-68.8c-10-5.9-20-7.6-27.8-4.4c-5.3,2.1-9,6.2-10.6,11.6c-1.7,5.6-4.1,26.1,34,52.6
		c53.5,40.1,98,48.1,113.7,49.7l-0.1,4.9l3.5-3c1.6,4.7,3.4,9.7,5.1,14.9c-37.9-19.1-100.6-43.4-127.3-51.4c-11-3.2-21-2.6-28,1.7
		c-4.7,2.9-7.7,7.4-8.6,12.8C201.7,1065.4,212.9,1084.8,250.8,1099.3z M347.5,1163.6c-25.2,1-52.3-2.1-80-9.5
		c-32.4-7.3-42-20-41.5-24.9c0.2-2.7,4.1-4.6,9.8-4.8c0.4,0,0.8,0,1.2,0c1.8,0,3.7,0.2,5.7,0.4c29.1,4.2,101.7,20.9,139,34.6
		C373.6,1161.2,362.1,1163.1,347.5,1163.6z M371.6,1237.5c-24.5,1-50.4-2.1-77.2-9.3c-30.7-7-39.7-18.7-39.3-23.3
		c0.2-2.3,3.7-3.9,8.7-4.1c0.3,0,0.7,0,1,0c1.8,0,3.7,0.2,5.7,0.5c26.5,3.9,95.1,20,130.7,32.9C394,1235.5,384,1237,371.6,1237.5z
		 M535.9,1133.9c5.1-3.7,9.4-4.9,12.2-4.9c0.7,0,1.3,0.1,1.8,0.2c0.9,0.3,1.4,0.7,1.7,1.5c1.4,3.7-0.3,17.6-24.9,38.4
		c-38.7,34.9-73.6,48.7-92.1,53.8C460.5,1195.1,513.6,1149.9,535.9,1133.9z M522.4,1054c5.4-3.8,10-5.1,13-5.1
		c0.8,0,1.5,0.1,2.1,0.3c1.1,0.3,1.7,0.9,2.1,2c1.5,4-0.2,18.9-26.2,40.7c-42.3,38-79.8,51.8-99,56.8
		C441.3,1119.4,498.4,1071.1,522.4,1054z M477.9,965.1c4.5-6.1,9.5-9.9,13.3-10c0.1,0,0.2,0,0.2,0c1.1,0,2.5,0.3,3.7,2.4
		c3,5.2,3.5,21.3-13.6,48.7c-30.1,52.1-63.8,78.4-81.3,89.6C417.5,1058,459.8,989.5,477.9,965.1z M404.8,897.6
		c2.5-8.4,7.4-14,12.3-14.2c0.1,0,0.2,0,0.2,0c3,0,5.2,2,6.6,3.6l0,0c6.5,7.8,7.8,24.3,3.3,44.4c-11.2,58.9-37.6,94.7-51.6,110.2
		C379.6,1001.8,396.1,926.4,404.8,897.6z M301.8,839.2c0.5-0.7,1.6-1.9,2.7-1.9c0,0,0,0,0.1,0c2.1,0,6.6,3.9,10,14.7
		c9.4,30.1,28.3,111.7,33.7,155.6c-12.7-17.5-34.5-54.6-47-115.2C294.3,862.9,297.2,845.3,301.8,839.2z M254.5,1010
		c-23.4-16.3-29.8-30.7-28.2-35.8c0.2-0.9,0.7-1.3,1.5-1.7c0.7-0.3,1.6-0.4,2.7-0.4c2.8,0,6.8,1,11.6,3.8
		c23.9,14,81.3,54.4,109.7,79.8C333,1052.3,297.1,1041.9,254.5,1010z M220.6,1052.4c1.3-0.8,3.5-1.4,6.5-1.4c2.5,0,5.5,0.4,9,1.4
		c28.2,8.3,97.8,35.4,132.7,54.2c-1.7,0.1-3.5,0.2-5.4,0.3c-23.3,0.9-60.3-2.1-106.8-21.9c-30.3-11.6-38.4-25.5-37.6-30.4
		C219.1,1054,219.4,1053.2,220.6,1052.4z"/>
	<path class="st0" d="M1544,1237.1c17.1,9,30.3,13.2,38.2,15.3c-10,33.3-21.8,68.8-35.6,105.8l-2.7,7.2l19.4,7.4l2.7-7.2
		c14.3-38.2,26.4-74.9,36.7-109.3l5.3,0.8c11.7,3.1,29.8,6.5,53.8,6.5c17.3,0,37.7-1.8,60.7-6.7c45.5-8.1,52-27.7,52.9-33.5l0,0
		c0.8-5.6-0.8-11-4.7-15.1c-5.7-6-15.4-8.7-27.1-7.7c-27.1,2.7-93.8,14.8-132.5,26.4c4.4-15.8,8.5-31,12.1-45.5l2.5,0.4
		c12.3,3.6,33.3,8.2,61.7,8.2c17.9,0,38.7-1.8,62.1-6.8c37.8-6.6,53.3-22.3,55.3-34.8c0.9-5.8-0.8-11.3-4.9-15.6
		c-5.9-6.3-16.2-9.2-28.1-8.1c-29.2,2.8-101.7,15.9-141.6,27.9c1.6-6.9,3.2-13.6,4.6-20.1l10.3,3.1l-2.5-5.1
		c20.8-0.2,67.9-5,126.7-39c27.5-14.6,44-32.9,44-48.9v-0.1c-0.1-7.7-3.8-14.1-10.4-17.6c-7.7-4-18.3-3.5-29.8,1.6
		c-28.1,12.2-95,48.2-131.2,73.2c0.9-4.3,1.7-8.4,2.4-12.4l4.7,2.8l-2.8-12.6c0.3-1.5,0.5-2.8,0.8-4.2c14.6-3.6,67.6-19.9,116.9-77
		c17.4-19,25.6-37.8,22.9-52.9c-1.4-7.9-5.7-14.2-12.1-17.6c-10.4-5.4-23.9-2.2-35.4,8.6c-18,17-55.9,58.1-82.5,91
		c17.7-39,45-127.8,52.5-161c3.8-17,0.5-29.6-9.3-34.8c-4.9-2.5-10.7-2.6-16.3-0.2c-13.9,5.9-27,26.1-35.7,55.3
		c-27.5,82.7-17.5,135-15,145.5c-0.1,0.8-0.2,1.6-0.4,2.5c-14.4-37.5-37.8-87.3-49.6-108.1c-5.7-10.1-13.7-16.5-21.8-17.7
		c-5.5-0.9-10.9,0.9-14.9,4.7c-4.3,4.1-16.6,20.6,3.2,62.6c26.3,61.4,60.9,90.6,73.7,99.9l-2.5,4.2l4.6-0.8
		c-0.9,4.9-1.9,10.1-3,15.5c-23.3-35.4-65.5-88-84.7-108.2c-8-8.4-16.8-12.5-25.2-12.5c-5.5,0.2-10.4,2.6-13.8,6.8
		c-8.5,10.4-8.4,32.8,17.1,64.3c32.1,42.5,64.8,65,86.6,76.4c3.5,1.8,6.4,3.3,9.1,4.5l-3.6,3.1l7.1,0.8c-1.6,7-3.2,14.2-5,21.8
		c-27.1-32.1-81.5-82.5-104.6-100.7c-2.7-2.1-5.4-3.9-8-5.3c-14.9-7.8-25.8-2.7-30.6,4.1c-8,11.4-5.5,33.8,25.5,62.3
		c21.2,21,44.1,38.1,68.1,50.7c19.5,10.2,34.5,14.8,42.9,16.8c-3.8,15-8,30.9-12.7,47.4c-25.5-30.1-77-78.5-98.9-95.8
		c-2.6-2.1-5.3-3.9-8-5.3c-14.2-7.4-24.6-2.6-29.3,3.9c-7.7,10.9-5.3,32.3,24.3,59.8C1498.8,1208.4,1520.9,1225,1544,1237.1z
		 M1745.3,1215.8c7.6-0.8,12.6,1.1,14.4,2.9c0.7,0.7,0.9,1.3,0.7,2.2c-0.6,3.9-9.1,15.1-40.7,20.8c-51.2,10.9-88.2,5.4-106.7,0.6
		C1649.2,1231.2,1717.8,1218.6,1745.3,1215.8z M1773.5,1140c8.4-0.8,13.6,1.3,15.5,3.3c0.8,0.8,1.1,1.6,0.9,2.8
		c-0.7,4.2-9.6,16.3-43,22.1c-55.5,11.8-95,5-114.1-0.3C1670.6,1156,1744.2,1142.7,1773.5,1140z M1779.3,1040.7c4.5-2,8.7-3,12-3
		c1.8,0,3.3,0.3,4.5,0.9c1,0.5,2.2,1.5,2.2,4c0,6.1-7.6,20.3-36,35.4c-52,30-94.5,36-115.2,36.9
		C1680.6,1090.8,1750.7,1053.1,1779.3,1040.7z M1749.8,945.7c4.8-4.5,9.9-7,14-7c1.4,0,2.6,0.3,3.7,0.9c2.7,1.4,3.8,4.4,4.1,6.6
		c1.7,10-5.4,24.9-19.3,40.1c-39,45.2-79.8,63.1-99.7,69.7C1675.9,1023.3,1727.9,966.3,1749.8,945.7z M1662.6,889.4
		c8.7-29,20-42.8,27-45.7c0.9-0.4,1.6-0.6,2.3-0.6c0.4,0,0.7,0.1,1,0.2c1.9,1,3.9,6.7,1.4,17.8c-6.9,30.8-31.3,111-48.5,151.7
		C1643.5,991.3,1643.1,948.3,1662.6,889.4z M1563.4,968c-12.2-25.8-10.4-41.4-6.5-45.2c0.5-0.5,1-0.7,1.6-0.7c0.2,0,0.3,0,0.5,0
		c2.5,0.4,6.8,3.2,10.7,10.1c13.7,24.1,43.2,87.7,55.1,123.9C1610.2,1043.7,1584.3,1016.7,1563.4,968z M1527.6,1034
		c-20.4-25.2-20.5-41.3-17.3-45.1c0.5-0.6,1.4-1,2.7-1.1c2.9,0,7.8,2,13.2,7.7c20.3,21.3,67,79.5,87.8,113.3
		c-1.5-0.7-3.1-1.5-4.8-2.5C1588.9,1095.6,1558.2,1074.5,1527.6,1034z M1502.6,1099.4c-24.5-22.5-26.4-38.3-23.5-42.4
		c0.7-1,2-1.5,3.6-1.5c2,0,4.5,0.7,7.3,2.2c1.9,1,3.8,2.3,5.7,3.8c23.1,18.2,77.8,69.1,103.2,99.5c-7.9-2.5-18.8-6.6-31.7-13.4
		C1544.6,1135.7,1523,1119.5,1502.6,1099.4z M1466.6,1137.1c0.5-0.7,1.6-1.2,3-1.2c1.7,0,3.9,0.5,6.5,2c1.8,1,3.7,2.2,5.6,3.7
		c21,16.6,72.4,64.9,96.9,93.8c-7-2.3-16.4-6-27.4-11.9c-21.7-11.4-42.6-27-62.2-46.6C1465.9,1155.5,1463.9,1140.8,1466.6,1137.1z"
		/>
</g>
</svg>
