<?xml version="1.0" encoding="utf-8"?>
<!-- Generator: Adobe Illustrator 18.1.1, SVG Export Plug-In . SVG Version: 6.00 Build 0)  -->
<svg version="1.1" id="Layer_1" xmlns="http://www.w3.org/2000/svg" xmlns:xlink="http://www.w3.org/1999/xlink" x="0px" y="0px"
	 viewBox="0 0 2000 2000" enable-background="new 0 0 2000 2000" xml:space="preserve">
<g>
	<rect x="219.8" y="1931.6" fill="#010101" width="879.8" height="33.2"/>
	<path fill="#010101" d="M1841.8,283.6L1201.6,48.8l-54.5,85.4l-116.2-90.1l-151.8,230l99.6,66.4L452.2,980.7
		c-73.5,4.7-132.8,66.4-132.8,139.9c0,73.5,56.9,132.8,128.1,139.9l189.7,585.7H423.8v33.2h479v-33.2H853v-109.1h-33.2v109.1h-147
		l-189.7-585.7c11.9-2.4,21.3-4.7,33.2-9.5c52.2-21.3,85.4-73.5,85.4-130.4c0-66.4-47.4-123.3-109.1-137.5l495.6-599.9L957.3,433
		l483.8,514.6l132.8-218.2c19,7.1,42.7,14.2,68.8,14.2c37.9,0,75.9-11.9,106.7-52.2c56.9-78.3-7.1-168.4-33.2-199.2L1841.8,283.6z
		 M570.8,1120.6c0,42.7-26.1,83-66.4,99.6c-14.2,4.7-28.5,9.5-42.7,9.5c-59.3,0-106.7-47.4-106.7-106.7
		c0-59.3,47.4-106.7,106.7-106.7S570.8,1061.4,570.8,1120.6z M926.5,264.6l113.8-170.7l90.1,68.8l-106.7,166L926.5,264.6z M1434,893
		L997.6,428.2l218.2-339.1l576.2,211L1434,893z M1720.9,672.5c-40.3,54.5-102,40.3-130.4,28.5l106.7-177.8
		C1720.9,553.9,1758.8,617.9,1720.9,672.5z"/>
</g>
</svg>
