<?xml version="1.0" encoding="utf-8"?>
<!-- Generator: Adobe Illustrator 21.1.0, SVG Export Plug-In . SVG Version: 6.00 Build 0)  -->
<svg version="1.1" id="Layer_1" xmlns="http://www.w3.org/2000/svg" xmlns:xlink="http://www.w3.org/1999/xlink" x="0px" y="0px"
	 viewBox="0 0 2000 2000" style="enable-background:new 0 0 2000 2000;" xml:space="preserve">
<g>
	<path d="M23.1,311.5v1377h1953.8v-1377H23.1z M1908.7,1620.3H91.3V379.7h1817.4V1620.3z"/>
	<path d="M1459,1318.5c0,2.8-0.6,5.6-0.8,8.4c0.1-0.2,0.3-0.3,0.4-0.5C1458.8,1323.8,1459,1321.2,1459,1318.5z"/>
	<path d="M542.6,1327.2c0.1,0.2,0.3,0.3,0.4,0.5c-0.2-3.1-0.8-6.1-0.8-9.2C542.2,1321.4,542.4,1324.3,542.6,1327.2z"/>
	<path d="M661.8,1291.1c0,35.9-29.1,65.1-65.1,65.1c-22.4,0-42-11.3-53.7-28.5c8.8,136.6,210,245.9,457.6,245.9
		c248.1,0,449.7-109.7,457.7-246.7c-11.6,17.6-31.5,29.3-54.2,29.3c-35.9,0-65.1-29.1-65.1-65.1c0-35.9,29.1-65.1,65.1-65.1
		c10.1,0,19.7,2.4,28.3,6.5c-13.2-20.5-30.9-39.7-52.5-57.4c-3.9-79.7-69.1-149.6-166.8-191.5c178.9-472.4,91.6-546.3-27.8-556.9
		C954.9,444.5,1010.3,858.6,1024,943c-7.7-0.3-15.5-0.5-23.4-0.5c-9.6,0-19.1,0.2-28.5,0.7c22-498.2-83.5-540.8-199.8-513.9
		c-237.6,98.5,14.3,554.2,14.3,554.2s1-0.1,3-0.4c-98.5,41.8-164.3,112-168.2,192.1c-21.5,17.6-39.1,36.7-52.3,57.1
		c8.4-3.9,17.8-6.2,27.7-6.2C632.7,1226.1,661.8,1255.2,661.8,1291.1z M1232.6,1224.8c1,0,2.1,0.1,3.1,0.2c1.7-2.9,2.6-6.3,2.3-9.9
		c-0.3-3.3,4.9-3.3,5.2,0c0.3,3.9-0.5,7.7-2.2,11.1c2.5,0.8,4.7,2,6.8,3.5c1.2-2.5,1.7-5.3,1.4-8.2c-0.4-3.3,4.9-3.3,5.2,0
		c0.4,4.2-0.6,8.3-2.6,11.8c1.9,2.1,3.5,4.5,4.6,7.2c2-2.6,3.3-5.7,3.7-9.1c0.4-3.3,5.6-3.3,5.2,0c-0.6,5.8-3.3,11.1-7.3,15
		c0.2,1.3,0.4,2.7,0.4,4.1c0,14.2-11.5,25.8-25.8,25.8c-14.2,0-25.8-11.5-25.8-25.8C1206.8,1236.4,1218.4,1224.8,1232.6,1224.8z
		 M1098.1,719.3c22.6-117.3,56.7-130.3,82.1-123.8c25.5,6.5,78.9,59.8-67.5,393.4l-21.7-7.3C1091.1,981.6,1075.5,836.6,1098.1,719.3
		z M938,1322.4c0.3,0.8,7.6,19.8,34.8,16.6c25.8-3.1,33-12.4,34.5-30.2c0-0.3,0-0.7-0.1-1.1c-16.9-0.7-52.9-21.3-51.2-38.1
		c0,0,1.2-4.9,4.3-6.8c0,0,39.3-50.3,98.2-1.2c0,0,7.4,3.5,0.6,12.9c-6.8,9.4-22.4,28.6-44.4,32.5c0,0.6-0.1,1.2-0.1,1.8
		c1.5,17.7,8.7,27.1,34.5,30.2c27.2,3.2,34.5-15.8,34.8-16.6l6.9,2.5c-0.1,0.2-8,21.9-35.7,21.9c-2.2,0-4.5-0.1-6.9-0.4
		c-0.4,0-0.7-0.1-1.1-0.2c-0.7,5.8-2.2,19.1-3.4,28.4c-1.5,12.3-13.2,14.7-13.2,14.7s-13.2,0-29.5,0c-16.3,0-19.3-11.3-19.3-11.3
		l-5.6-32c-0.9,0.1-1.6,0.3-2.5,0.4c-2.4,0.3-4.7,0.4-6.9,0.4c-27.6,0-35.6-21.6-35.6-21.9L938,1322.4z M780.4,734.5
		C765.5,616,793.8,593,820,591.3c26.2-1.8,93.5,32.4,58.1,394.9l-22.9-0.2C855.3,985.9,795.4,852.9,780.4,734.5z M764.5,1212.3
		c0.5,3.7,1.9,7,3.9,9.8c1-1,2-2,3.1-2.9c-1.6-2.9-2.4-6.3-2-9.7c0.4-3.3,5.6-3.3,5.2,0c-0.3,2.5,0.2,4.9,1.2,6.9
		c1.3-0.7,2.7-1.2,4.2-1.6c-0.3-2.9-0.3-5.8,0.1-8.8c0.4-3.3,5.6-3.3,5.2,0c-0.3,2.6-0.3,5.3-0.1,7.8c0.7,0,1.3-0.1,2-0.1
		c14.3,0,25.8,11.5,25.8,25.8c0,14.2-11.5,25.8-25.8,25.8c-14.2,0-25.8-11.5-25.8-25.8c0-4.8,1.3-9.3,3.6-13.1
		c-3.1-4-5.2-8.9-5.9-14.2C758.9,1209,764.1,1209,764.5,1212.3z"/>
	<path d="M251.9,1092.5c47.8,20.3,86.3,23.4,110.1,22.4c11.7-0.5,18.4-1.8,20-2.2c4.4,13.6,9,28.7,13.7,44.8l-0.2,0.3
		c-31.1-14.5-120.5-35.5-153.8-40.3c-2.9-0.4-5.7-0.6-8.3-0.5c-11.9,0.5-16.7,6.4-17.2,11.8c-1,11,13.4,25.5,47.6,33.2
		c28.3,7.4,56,10.7,82.2,9.6c31.6-1.2,49.4-8.2,50.2-8.5l1-0.4c6.1,21.3,12.3,44.6,18.4,69.5l-0.3,0.4
		c-29.7-13.7-114.2-34-145.7-38.6c-2.9-0.4-5.6-0.6-8.1-0.5c-11.2,0.4-15.6,6-16.1,11.1c-1,10.4,12.7,24.2,45.3,31.6
		c27.4,7.3,54.1,10.5,79.4,9.5c29-1.1,45.3-7.4,46-7.7l0.7-0.3c8.8,36.4,17.1,76,24.1,118.2l5.4-0.9c-7-42.6-15.5-82.6-24.3-119.3
		l0,0l0,0c-0.2-0.6-0.3-1.3-0.5-1.9c7.8-1.1,54.4-9.3,109-58.7c25.1-21.2,30.2-38.5,26.9-47c-3.3-8.6-15.1-9.1-27.4-0.3
		C505,1146,441.7,1200.4,420,1227c-6-24.4-12.1-47.1-18.2-68c8.1-1,57.7-9.3,115.5-61.3c26.4-22.1,31.7-40.3,28.3-49.3
		c-3.5-9.1-15.9-9.8-28.9-0.6c-26.9,19.1-94.4,76.7-116.9,104.5c-4.3-14.6-8.5-28.4-12.5-40.9l1.4-0.3l-0.9-0.6l1.9-0.8
		c2.2-0.9,53.4-23.9,97.2-99.7c17.7-28.3,18.6-47.8,13.6-56.5c-2.4-4.2-6.3-6.4-10.9-6.2c-6.3,0.2-13.1,4.9-19.2,13.2
		c-21.3,28.7-72.6,112.5-84.3,145.9l-0.2,0.6c-6.2-19.3-12-36.1-16.9-49.5l1.1-0.9c1.9-1.6,47.5-41,63.3-123.9c5-22.5,3.2-41-5-50.8
		c-3.6-4.3-8.3-6.6-13.1-6.4c-8.4,0.3-15.8,7.9-19.4,19.7c-9.5,31.4-27.9,117-29.9,154.2c-4.9-13.1-8.5-22.3-10.4-27
		c-1.7-37.4-24.8-138.4-35.5-172.9c-4-12.9-10.6-20.4-17.7-20.1c-2.2,0.1-5.5,1-8.5,5c-7.6,10.1-8.3,32.4-1.9,59.7
		c18.3,89.4,56.4,128.7,58.9,131.2c2.3,5.7,6.7,16.9,12.6,33c-24.2-24.5-92.4-73-119.3-88.7c-13-7.6-24.6-6.1-27.2,2.7
		c-2.5,8.7,4.2,25.5,31.3,44.4c63.6,47.6,113.8,48.8,115.9,48.9l1.9,0c4.1,11.4,8.7,24.9,13.7,40.1c-31.1-19.1-112.1-51-143.3-60.2
		c-14.4-4.3-25.5-0.6-27,8.4C207.6,1064.1,220.1,1080.3,251.9,1092.5z"/>
	<path d="M1549,1230.9c25.7,13.5,42.9,16.2,43.7,16.4l0.8,0.1c-10.6,35.9-23.2,74.4-38.2,114.4l5.1,1.9
		c15.2-40.5,27.9-79.3,38.5-115.5l0,0l0,0c0.2-0.6,0.4-1.3,0.6-1.9c7.3,3,51.8,19.1,123.8,3.6c32.3-5.8,45.4-18.3,46.8-27.2
		c1.4-9.1-8.5-15.5-23.5-14c-30.9,3.1-113,18.6-145,30.7c7-24.1,13-46.9,18.2-68c7.5,3.2,54.6,20.8,130.7,4.6
		c33.9-6,47.6-19.1,49.1-28.5c1.5-9.6-8.9-16.4-24.7-14.9c-32.8,3.1-120.2,19.3-153.4,32.1c3.6-14.8,6.8-28.8,9.6-41.7l1.4,0.4
		l-0.5-1l2,0.2c2.3,0.3,58.2,6,134-37.8c29.5-15.7,40-32.1,40-42.2c0-4.9-2.3-8.7-6.4-10.8c-5.6-2.9-13.8-2.3-23.3,1.8
		c-32.7,14.2-119.1,61.2-145.9,84.3l-0.5,0.4c4.2-19.8,7.6-37.3,10.1-51.3l1.4-0.3c2.5-0.5,61.6-11.8,116.7-75.7
		c15.6-17,23.3-33.9,21.1-46.5c-1-5.5-3.9-9.8-8.2-12.1c-7.4-3.9-17.6-1.1-26.6,7.4c-23.9,22.5-82.6,87.4-103,118.6
		c2.4-13.8,3.8-23.5,4.5-28.6c17.2-33.3,47.7-132.3,55.6-167.5c3-13.2,1-23-5.3-26.3c-2-1-5.3-1.9-9.8,0
		c-11.7,4.9-23.4,23.9-31.5,50.8c-28.8,86.6-15.4,139.7-14.5,143c-0.9,6.1-2.6,17.9-5.6,34.8c-8.7-33.4-43.6-109.4-59-136.5
		c-7.4-13.1-18.3-17.6-24.9-11.3c-6.5,6.3-9.2,24.2,4.9,54.1c31.3,73,74.2,99.2,76,100.3l1.6,1c-2.2,11.9-4.9,25.9-8.2,41.6
		c-17.4-32-71.6-100.2-94.1-123.8c-10.3-10.9-21.8-13.2-27.5-6.2c-6.8,8.3-4,28.5,17.4,54.9c31.2,41.4,63,63.4,84.2,74.5
		c10.3,5.4,16.9,7.6,18.4,8.1c-3,14-6.5,29.3-10.5,45.6l-0.3,0.1c-19.8-28.1-86.7-91-113.1-111.7c-2.3-1.8-4.6-3.4-6.9-4.5
		c-10.6-5.5-17.7-2.8-20.8,1.7c-6.3,9-1.2,28.8,24.6,52.6c20.8,20.6,43.1,37.2,66.4,49.4c28,14.7,46.9,17.6,47.7,17.7l1,0.2
		c-5.3,21.5-11.6,44.8-18.8,69.4l-0.4,0.2c-18.9-26.7-82-86.5-106.9-106.2c-2.3-1.8-4.5-3.3-6.7-4.5c-9.9-5.2-16.6-2.6-19.5,1.5
		c-6,8.5-1.1,27.3,23.5,50.1C1505,1203,1526.6,1219.1,1549,1230.9z"/>
</g>
</svg>
