<?xml version="1.0" encoding="utf-8"?>
<!-- Generator: Adobe Illustrator 21.0.0, SVG Export Plug-In . SVG Version: 6.00 Build 0)  -->
<svg version="1.1" id="Layer_1" xmlns="http://www.w3.org/2000/svg" xmlns:xlink="http://www.w3.org/1999/xlink" x="0px" y="0px"
	 viewBox="0 0 512 640" style="enable-background:new 0 0 512 640;" xml:space="preserve">
<g>
	<path d="M181.3,341.3c-5.9,0-10.7,4.8-10.7,10.7s4.8,10.7,10.7,10.7S192,357.9,192,352S187.2,341.3,181.3,341.3z"/>
	<path d="M512,256l-85.6-85.3l-63.1-0.1h-0.6V128c0-11.8-9.5-21.3-21.3-21.3H106.7c-11.8,0-21.3,9.6-21.3,21.3H10.7
		C4.8,128,0,132.8,0,138.7s4.8,10.7,10.7,10.7h74.7l0,42.7H32c-5.9,0-10.7,4.8-10.7,10.7s4.8,10.7,10.7,10.7h53.3V256h-32
		c-5.9,0-10.7,4.8-10.7,10.7s4.8,10.7,10.7,10.7h32V320H74.7c-5.9,0-10.7,4.8-10.7,10.7s4.8,10.7,10.7,10.7h10.7
		c0,11.8,9.5,21.3,21.3,21.3h22.4c4.9,24.3,26.5,42.7,52.2,42.7c25.8,0,47.3-18.3,52.3-42.7h107.7h33.1
		c4.9,24.3,26.5,42.7,52.2,42.7c25.8,0,47.3-18.3,52.3-42.7h32.9L512,256z M181.3,384c-17.6,0-32-14.3-32-32c0-17.6,14.3-32,32-32
		c17.7,0,32,14.4,32,32C213.3,369.6,199,384,181.3,384z M341.3,341.3H233.6c-4.9-24.3-26.5-42.7-52.3-42.7
		c-25.8,0-47.3,18.3-52.2,42.7h-22.4l0-213.3h234.6v0L341.3,341.3z M426.7,384c-17.6,0-32-14.3-32-32c0-17.6,14.4-32,32-32
		c17.7,0,32,14.4,32,32C458.7,369.6,444.3,384,426.7,384z M490.5,341.3h-11.6c-4.9-24.3-26.5-42.7-52.3-42.7
		c-25.8,0-47.3,18.3-52.2,42.7h-11.8l0-149.3h0.6l54.3,0l73.1,72.8L490.5,341.3z"/>
	<path d="M426.7,341.3c-5.9,0-10.7,4.8-10.7,10.7s4.8,10.7,10.7,10.7s10.7-4.8,10.7-10.7S432.5,341.3,426.7,341.3z"/>
</g>
</svg>
