<?xml version="1.0" encoding="utf-8"?>
<!-- Generator: Adobe Illustrator 21.1.0, SVG Export Plug-In . SVG Version: 6.00 Build 0)  -->
<svg version="1.1" id="Layer_1" xmlns="http://www.w3.org/2000/svg" xmlns:xlink="http://www.w3.org/1999/xlink" x="0px" y="0px"
	 viewBox="0 0 2000 2000" style="enable-background:new 0 0 2000 2000;" xml:space="preserve">
<style type="text/css">
	.st0{fill:#48B2E8;}
</style>
<g>
	<path class="st0" d="M555.7,990.7C609.1,966,662.8,930.1,715,884.1c43.4-36.1,83-76.4,117.8-119.9c34.6-43.3,64.9-86.9,89.8-129.5
		c25.1-42.9,43.4-84.5,54.4-123.4c11.3-39.8,13.5-75.7,6.7-106.4c-5.1-26.6-22.6-46.2-52-58.3c-36.7-15-79-20.6-122.2-14.1
		c-12.5,1.9-22.9,5.8-29.2,10.8c-26.1,13.2-21.4,31.6-18.9,36.6c6,30.1-1.9,69.7-23.5,117.7c-22.2,49.5-54.9,103.8-97,161
		C518.8,808.1,417.4,883.9,339.4,883.9c-13.3,0-24.5-2.4-33.5-7.2c-4.2-2.2-12-10.3-16.9-40.2c-3.9-17.5-1.8-39.8,6.2-66.3
		c8.3-27.6,21-56.3,37.8-85.5c17.1-29.7,36.9-59.8,59.1-89.1c22.3-29.7,45.3-56.9,68.5-80.7c102-105.3,189-161.6,258.7-167.3
		c10.8,3.5,19,4.3,41.6-6c15.1-6.8,22.7-24.2,22.7-51.6c0-5.6-1.1-14.4-3.4-27.6c-2.4-14.1-9.8-28.5-22.7-44
		c-27.8-26.3-63.1-39.6-104.6-39.6c-27.2,0-61.3,8.5-101.3,25.3c-39.3,16.5-81.3,39.8-124.7,69.4c-43.3,29.4-86.7,64.7-129,104.8
		s-81.3,83.7-115.9,129.5C140.4,562,111,615.2,94.6,665.9C77.9,717,72.9,762.8,79.6,802c4.5,24,15.4,49.6,32.3,76
		c16.7,26.1,39.3,50.8,67,73.4c27.8,22.7,60.9,41.4,98.4,55.5c37.5,14.3,80.2,21.5,126.7,21.5
		C450.7,1028.3,501.7,1015.7,555.7,990.7z M193,934c-25.9-21.1-46.9-44-62.3-68.1c-15.4-24-25.1-46.9-29.1-67.9
		c-6.1-35.4-1.4-77.5,14.1-125.2c15.7-48.2,44-99.2,83.9-151.7c33.9-44.9,72.1-87.5,113.5-126.8c41.4-39.3,83.9-73.8,126.2-102.6
		c42.2-28.7,82.9-51.4,120.8-67.3c37.2-15.6,68.4-23.5,92.6-23.5c36.2,0,65.4,11,88.3,32.5c9.5,11.5,15.2,22.5,17,32.6
		c2.5,14.5,3.1,20.9,3.1,23.7c0,17.4-3.4,28.5-9.6,31.3c-13.6,6.2-17.6,6.3-18,6.3c-2.9,0-5.9-0.6-9-1.7l-2.3-0.9L720,325
		c-76.8,5.1-166.9,62.1-275.5,174.2c-23.8,24.5-47.4,52.4-70.4,82.8c-22.7,30.2-43,60.9-60.5,91.5c-17.6,30.6-31,61-39.8,90.2
		c-9.2,30.3-11.4,56.4-6.8,77c4.9,30,14.2,48.2,28.4,55.7c12.2,6.5,27,9.8,44,9.8c86.2,0,190.5-76.4,319.2-234
		c43.4-58.9,76.9-114.6,99.8-165.5c23.4-52.3,31.9-96.5,24.2-133.6c-0.9-2.1-2.2-4.9,9.5-11c5-3.8,12-6.3,20.8-7.6
		c39.4-5.8,77.5-0.7,110.4,12.7c22.3,9.1,34.9,22.8,38.5,42.1c6,27.4,3.9,59.6-6.3,95.8c-10.5,37.2-28.1,76.9-52.2,118.2
		c-24.4,41.6-54,84.3-87.9,126.8c-33.9,42.4-72.5,81.7-114.7,116.8l-0.2,0.2c-50.7,44.7-102.5,79.4-154,103.2
		c-51.1,23.6-98.9,35.5-142.3,35.5c-43.9,0-83.8-6.7-118.8-20C249.9,972.7,218.9,955.2,193,934z"/>
	<path class="st0" d="M1920.7,1278.4c-5.2-24.9-22.6-43.6-51.9-55.6c-36.8-15-80.2-20.5-122.3-14.1c-12.8,2-23.4,7.7-31.5,17.1
		c-13.7,8.6-16.7,19.9-16.7,28.1l0.3,2.8c7.9,29.9,0.5,69.2-21.9,116.9c-23.3,49.6-57.7,103.9-102,161.4
		c-117.9,149.4-219.3,225.2-301.4,225.2c-8.8,0-17.5-2.7-26.6-8.2c-5.6-3.4-13.8-12.6-20.6-36.6c-4-19.1-1.9-41.8,6.2-67.6
		c8.3-26.8,21.1-55.6,37.9-85.7c16.8-30.2,36.7-60.6,59-90.3c22.3-29.8,45.5-57.9,68.7-83.4c96.5-104.7,185.3-160.1,263.2-164.9h9.7
		c5.9,0,14.1-2.1,26.6-6.8c15.5-5.8,23.4-22.1,23.4-48.3c0-5.3-1-13.9-3.4-28.7c-2.6-15.6-11.4-30.2-24.8-41.6
		c-23.7-30.4-59.2-45.8-105.7-45.8c-27.5,0-60.7,8.2-101.3,25.3c-39.3,16.5-80.7,39.8-123.3,69.5c-42.1,29.3-84.9,64.6-127.3,104.8
		c-42.5,40.4-81.5,84.8-116.1,132.2c-81.1,114.2-115.4,212.3-102,291.6c4.5,24.2,16,49.8,34.1,76.2c17.7,26,40.7,50.6,68.4,73.2
		c27.9,22.7,61,41.4,98.5,55.5c37.7,14.3,80.3,21.5,126.7,21.5c46.7,0,97.2-12.7,150.2-37.7c52.4-24.7,105.4-59.8,157.9-104.4
		c41.3-37.8,80.2-78.4,115.7-120.6c35.7-42.4,65.9-85.7,90-128.7c24-42.7,42.2-84.5,54.3-124.3
		C1924.7,1345.7,1927.5,1309.3,1920.7,1278.4z M1891,1380.1c-11.6,38.1-29.2,78.5-52.4,119.8c-23.4,41.7-52.9,83.8-87.7,125.2
		c-34.9,41.6-73.1,81.4-113.4,118.3c-50.6,43.1-102,77-152.6,100.9c-50,23.6-97.3,35.6-140.7,35.6c-43.7,0-83.7-6.7-118.8-20
		c-35.2-13.2-66.2-30.7-92.2-51.9c-26-21.2-47.5-44.3-64.1-68.5c-16.3-23.8-26.6-46.6-30.6-67.6c-12.4-73.2,20.7-165.6,98.2-274.7
		c33.7-46.2,71.9-89.6,113.3-129.1c41.6-39.5,83.5-74,124.7-102.7c41.2-28.7,81.3-51.3,119.2-67.2c37.3-15.6,68.4-23.5,92.6-23.5
		c39.8,0,68.6,12.2,89.5,38.7c10.9,9.6,17.3,19.7,19,30c0.8,4.8,3.1,19.2,3.1,25.1c0,8.9-1.2,24.4-8.9,27.4
		c-13.2,5-17.7,5.4-18.7,5.4h-10.3c-84.5,5.1-178.4,63-279,172.1c-23.8,26.1-47.4,54.7-70.2,85c-22.9,30.5-43.3,61.7-60.6,92.8
		c-17.5,31.4-30.9,61.7-39.6,90c-9.2,29.4-11.5,56-6.5,79.6c7.3,25.9,17.4,42.4,30.8,50.5c12.5,7.6,25.3,11.4,38.1,11.4
		c90.6,0,194.9-76.4,319.1-233.8c45.4-58.8,80.6-114.5,104.7-165.6c24.3-51.8,32.3-95.6,23.7-130.4c0.3-2.5,1.7-5.5,7.2-8.6l3.2-2.8
		c4.7-5.9,10.9-9.3,18.8-10.6c37.9-5.6,77.3-0.8,110.4,12.7c22.3,9.2,35,22.1,38.5,39.5l0,0.1
		C1904.9,1310.3,1902.3,1342.9,1891,1380.1z"/>
	<path class="st0" d="M1388.6,811.8c57-70.2,112.3-136.2,164.5-196.2c51.7-59.4,97.5-112.3,137.4-158.7
		c39.8-46.2,72-85.9,95.8-117.8c25.8-34.5,37.8-58.7,37.8-76.2c0-36.2-9.9-69.1-29.4-97.8c-18.8-27.6-41.3-51.8-67-72.1
		c-25.4-20-52.4-36.1-80.1-47.9c-28.7-12.1-50.7-18-67.4-18h-10.3l-0.9,10.2c-2,22.3-22,62.5-59.5,119.3
		c-38.3,57.8-91.4,130.7-157.9,216.5c-66.5,85.9-145.9,186.5-235.8,298.8c-90.5,113.2-189.6,238-297.3,374.7
		c-60.1,76.2-119.8,150.4-177.6,220.7c-58,70.7-110.3,136.9-155.4,196.8c-45.5,60.6-82.7,115.1-110.5,162.1
		c-29.3,49.5-43.6,89.6-43.6,122.9c0,34.7,9.4,66,27.8,92.9c17.8,26.1,38.8,48.4,62.3,66.1c23.2,17.5,47.9,31.9,73.5,42.9
		c25.6,11,47.9,17.4,66.3,19.2l10.9,1l1.3-10.8c6.2-51.8,35.1-120.6,85.7-204.2c51.3-84.8,116.3-179.8,193.3-282.3
		c77.5-103.3,164.4-212.7,258.2-325.4C1205.9,1034.3,1299.4,920.9,1388.6,811.8z M834.5,1460.8c-77.3,103.1-142.8,198.7-194.5,284.1
		c-48.8,80.7-78,148.5-87.1,201.8c-14.1-2.6-30.6-7.9-49.1-15.9c-23.9-10.2-47-23.7-68.8-40.2c-21.6-16.3-40.8-36.8-57.3-60.9
		c-16.1-23.5-23.9-49.8-23.9-80.3c0-28.7,13.6-66.3,40.5-111.5c27.4-46.3,64.1-100.1,109.2-160.1c44.8-59.7,96.9-125.7,154.8-196.1
		c57.9-70.4,117.7-144.9,177.9-221.2c107.7-136.6,206.8-261.5,297.2-374.6c90-112.5,169.4-213.1,236-299.1
		c66.9-86.3,120.3-159.7,158.9-217.9c35-53,55.3-92.1,61.4-118.8c12.7,1.8,29.2,7,49.3,15.5c25.9,10.9,51.1,26,75,44.8
		c23.8,18.8,44.8,41.4,62.3,67.1c17,24.9,25.6,53.6,25.6,85.2c0,6.8-4.3,24-33.3,62.9c-23.5,31.5-55.4,70.7-94.8,116.5
		c-39.8,46.4-85.5,99.3-137.3,158.6c-52.3,60.2-107.8,126.4-165,196.8c-89.1,109-182.6,222.3-277.9,336.8
		C999.4,1247.5,912.3,1357.2,834.5,1460.8z"/>
</g>
</svg>
