<?xml version="1.0" encoding="utf-8"?>
<!-- Generator: Adobe Illustrator 21.1.0, SVG Export Plug-In . SVG Version: 6.00 Build 0)  -->
<svg version="1.1" id="Layer_1" xmlns="http://www.w3.org/2000/svg" xmlns:xlink="http://www.w3.org/1999/xlink" x="0px" y="0px"
	 viewBox="0 0 2000 2000" style="enable-background:new 0 0 2000 2000;" xml:space="preserve">
<path d="M1293.3,943.7l-235.6-147.8c-9.4-5.9-20.4-9.7-32-12V336c0-57.6-46.8-104.4-104.4-104.4c-57.6,0-104.4,46.9-104.4,104.4
	v317.6c0,32.6-26.5,59.1-59.1,59.1c-32.6,0-59.1-26.5-59.1-59.1v-461c0-12.5-10.1-22.7-22.6-22.7s-22.6,10.1-22.6,22.7v461
	c0,57.6,46.8,104.4,104.4,104.4c57.6,0,104.4-46.9,104.4-104.4V336c0-32.6,26.5-59.1,59.1-59.1c32.6,0,59.1,26.5,59.1,59.1v447.9
	c-11.6,2.3-22.7,6.1-32,12L713,943.7c-29.9,18.7-53.2,61-53.2,96.2V1757c0,40.2,32.7,73,73,73h540.9c40.2,0,73-32.7,73-73V1040
	C1346.6,1004.7,1323.2,962.4,1293.3,943.7z M1003.1,1056.3c12.5,0,22.6-10.1,22.6-22.7v-54.6c21.4,8.9,36.5,30,36.5,54.6
	c0,32.6-26.5,59.1-59.1,59.1c-32.6,0-59.1-26.5-59.1-59.1c0-24.6,15.1-45.7,36.5-54.6v54.6C980.5,1046.2,990.6,1056.3,1003.1,1056.3
	z M1301.3,1757L1301.3,1757c0,15.3-12.4,27.7-27.7,27.7H732.7c-15.3,0-27.7-12.4-27.7-27.7V1040c0-19.8,15.3-47.4,32-57.9
	l235.5-147.8c2.4-1.5,5.1-2.7,8-3.7v101.3c-46.7,10.4-81.8,52-81.8,101.8c0,57.6,46.8,104.4,104.4,104.4
	c57.6,0,104.4-46.9,104.4-104.4c0-49.8-35.1-91.4-81.8-101.8V830.6c2.9,1.1,5.6,2.2,7.9,3.7l235.6,147.8c16.8,10.5,32,38.1,32,57.9
	V1757z"/>
</svg>
