<?xml version="1.0" encoding="utf-8"?>
<!-- Generator: Adobe Illustrator 21.1.0, SVG Export Plug-In . SVG Version: 6.00 Build 0)  -->
<svg version="1.1" id="Layer_1" xmlns="http://www.w3.org/2000/svg" xmlns:xlink="http://www.w3.org/1999/xlink" x="0px" y="0px"
	 viewBox="0 0 2000 2000" style="enable-background:new 0 0 2000 2000;" xml:space="preserve">
<g>
	<path d="M1708.6,961.7l0.2-0.2l-10.1-10.1c-1.6-1.6-3.3-3.3-4.9-4.9l-10.1-10.1l-0.2,0.2c-94.4-88.3-221.1-142.4-360.4-142.4
		c-46.2,0-91,6-133.7,17.1c58.6-223.6-35.5-461.3-234.5-583.5c-78-47.9-164.5-73.4-251.4-77.4v0c-144.7-6.7-290.2,46.1-398,154.1
		c-172.6,172.7-204.2,441.5-76.4,649.5C351.3,1153,589,1247,812.5,1188.4c-11.2,42.7-17.1,87.5-17.1,133.7
		c0,139.3,54.1,266.1,142.4,360.4l-0.2,0.2l10,10c1.7,1.7,3.3,3.3,5,5l10,10l0.2-0.2c94.4,88.3,221.1,142.4,360.4,142.4
		c291.3,0,527.8-236.5,527.8-527.8C1851,1182.9,1796.9,1056.1,1708.6,961.7z M259.2,935.6c-119.3-194.2-89.8-444.7,71.3-605.9
		c161.1-161.2,411.6-190.8,605.9-71.6c192.2,118,279.4,350.9,212.7,565.7c-151.3,52.9-271.3,172.9-324.3,324.3
		C610.1,1214.7,377.2,1127.6,259.2,935.6z M830.7,1322.2c0-272.2,220.3-492.4,492.4-492.4c129.7,0,247.6,50,335.5,131.9
		l-696.1,696.1C880.8,1569.8,830.7,1451.9,830.7,1322.2z M1323.2,1814.6c-129.7,0-247.6-50-335.5-131.9l696.1-696.1
		c81.8,87.9,131.9,205.8,131.9,335.5C1815.6,1594.3,1595.3,1814.6,1323.2,1814.6z"/>
	<path d="M448.6,599.6V908h17.7H757l152-152V447.6H600.7L448.6,599.6z M484.1,624.7H732v247.9H484.1V624.7z M767.4,847.6V614.3
		l106.2-106.2v233.3L767.4,847.6z M848.6,483L742.3,589.3H509.1L615.3,483H848.6z"/>
</g>
</svg>
