<?xml version="1.0" encoding="utf-8"?>
<!-- Generator: Adobe Illustrator 18.1.1, SVG Export Plug-In . SVG Version: 6.00 Build 0)  -->
<svg version="1.1" id="Layer_1" xmlns="http://www.w3.org/2000/svg" xmlns:xlink="http://www.w3.org/1999/xlink" x="0px" y="0px"
	 viewBox="0 0 2000 2000" enable-background="new 0 0 2000 2000" xml:space="preserve">
<g>
	<path fill="none" d="M875.2,755.8c0-219.8-179.1-398.9-398.9-398.9S77.4,536,77.4,755.8s179.1,398.9,398.9,398.9
		C696.1,1152,875.2,972.9,875.2,755.8z M302.6,896.9l122.1-122.1c0-5.4-2.7-8.1-2.7-13.6c0-24.4,13.6-43.4,35.3-51.6V457.3h54.3
		v263.2c10.9,10.9,19,24.4,19,40.7c0,29.9-24.4,54.3-54.3,54.3c-5.4,0-8.1,0-13.6-2.7L340.6,934.9L302.6,896.9z"/>
	<path fill="none" d="M525.1,1385.3c-70.6,0-130.3,57-130.3,130.3s57,130.3,130.3,130.3s130.3-57,130.3-130.3
		S595.7,1385.3,525.1,1385.3z"/>
	<path fill="none" d="M907.7,620.1c8.1,27.1,13.6,54.3,16.3,81.4h293.1v54.3H929.4c0,46.1-8.1,92.3-21.7,135.7h309.4v54.3H886
		c-24.4,51.6-57,97.7-97.7,135.7h428.8v54.3H728.6v-5.4c-73.3,48.8-160.1,76-252.4,76c-76,0-146.5-19-209-51.6v333.8h76
		c13.6-89.6,89.6-157.4,181.8-157.4s168.2,67.8,181.8,157.4h618.7V728.6V620.1H907.7z M1217.1,1325.6H375.9v-54.3h841.2V1325.6z"/>
	<polygon fill="none" points="1542.7,1027.1 1822.2,1027.1 1719.1,891.5 1542.7,891.5 	"/>
	<path fill="none" d="M1841.2,1325.6c0-48.8,38-92.3,81.4-103.1v-62.4l-57-78.7h-377.2V837.2h190l-40.7-54.3h-257.8v705.5h48.8
		c13.6-89.6,89.6-157.4,181.8-157.4c92.3,0,168.2,67.8,181.8,157.4h130.3v-59.7C1879.2,1415.2,1841.2,1374.5,1841.2,1325.6z"/>
	<path fill="none" d="M1922.6,1371.8v-92.3c-16.3,10.9-27.1,27.1-27.1,46.1C1895.5,1344.6,1906.4,1360.9,1922.6,1371.8z"/>
	<path fill="none" d="M1610.6,1385.3c-70.6,0-130.3,57-130.3,130.3s57,130.3,130.3,130.3c73.3,0,130.3-57,130.3-130.3
		S1681.1,1385.3,1610.6,1385.3z"/>
	<path fill="#010101" d="M1664.8,728.6h-284.9V565.8H886c-70.6-154.7-227.9-263.2-409.8-263.2c-249.7,0-453.2,203.5-453.2,453.2
		c0,152,76,284.9,190,366.3v420.6h130.3c13.6,86.8,89.6,154.7,181.8,154.7s168.2-67.8,181.8-154.7h618.7h54.3h48.8
		c13.6,86.8,89.6,154.7,181.8,154.7c92.3,0,168.2-67.8,181.8-154.7h184.5v-404.3L1664.8,728.6z M1822.2,1027.1h-279.5V891.5h176.4
		L1822.2,1027.1z M77.4,755.8c0-219.8,179.1-398.9,398.9-398.9S875.2,536,875.2,755.8s-179.1,398.9-398.9,398.9
		C256.5,1152,77.4,972.9,77.4,755.8z M525.1,1643.1c-70.6,0-130.3-57-130.3-130.3s57-130.3,130.3-130.3s130.3,57,130.3,130.3
		S595.7,1643.1,525.1,1643.1z M1325.6,1488.5H704.2c-13.6-89.6-89.6-157.4-181.8-157.4s-168.2,67.8-181.8,157.4h-73.3v-333.8
		c62.4,32.6,133,51.6,209,51.6c92.3,0,179.1-27.1,252.4-76v5.4h488.5v-54.3H788.3c40.7-38,73.3-84.1,97.7-135.7h331.1v-54.3H907.7
		c13.6-43.4,21.7-89.6,21.7-135.7h287.6v-54.3H924c-2.7-27.1-8.1-54.3-16.3-81.4h417.9v108.5V1488.5z M1610.6,1643.1
		c-70.6,0-130.3-57-130.3-130.3s57-130.3,130.3-130.3c73.3,0,130.3,57,130.3,130.3S1681.1,1643.1,1610.6,1643.1z M1789.7,1488.5
		c-13.6-89.6-89.6-157.4-181.8-157.4s-168.2,67.8-181.8,157.4h-46.1V782.9h257.8l40.7,54.3h-190v244.2h377.2l57,76v62.4
		c-43.4,13.6-81.4,54.3-81.4,103.1c0,48.8,38,92.3,81.4,103.1v62.4H1789.7z M1922.6,1279.5v92.3c-16.3-10.9-27.1-27.1-27.1-46.1
		C1895.5,1306.6,1906.4,1287.6,1922.6,1279.5z"/>
	<path fill="#010101" d="M476.3,815.5c29.9,0,54.3-24.4,54.3-54.3c0-16.3-8.1-29.9-19-40.7V457.3h-54.3v252.4
		c-21.7,8.1-35.3,27.1-35.3,51.6c0,5.4,0,8.1,2.7,13.6L302.6,896.9l38,38l122.1-122.1C468.1,815.5,470.8,815.5,476.3,815.5z"/>
	<rect x="375.9" y="1271.4" fill="#010101" width="841.2" height="54.3"/>
</g>
</svg>
