<?xml version="1.0" encoding="utf-8"?>
<!-- Generator: Adobe Illustrator 21.1.0, SVG Export Plug-In . SVG Version: 6.00 Build 0)  -->
<svg version="1.1" id="Layer_1" xmlns="http://www.w3.org/2000/svg" xmlns:xlink="http://www.w3.org/1999/xlink" x="0px" y="0px"
	 viewBox="0 0 2000 2000" style="enable-background:new 0 0 2000 2000;" xml:space="preserve">
<path d="M1560.5,936.3c1.4-1.8,1-0.8,63.2-721c0.9-10.2-6-19.5-16-21.7c-14.7-3.2-14.7-3.2-469.9-102.1c-12-2.6-23.6,5.9-24.7,18.2
	c-1.9,21.7-1.9,21.7-59.9,679.1c-30,5.5-60.2,9.3-658.8,119.8c-7.4,2.7-5.4,0.7-15,12.1c-3.4,4-3.1,10.9,4.5,22.7l669.1,649.4
	c-31.5,8.8-16.3,4.6-476.5,133.4c-19.2,5.4-20.1,32.4-1.2,39c12.8,4.5,408.6,143,408.6,143s7.3,1.5,10.9,0.7
	c18.5-3.8,18.5-3.8,592.4-122.6c7.3-2.8,15.6-9.8,15.6-20s1-3.7-5.3-14.5c-21.1-21-21.1-21-650.1-648.5
	c21.8-5.6,43.7-11.3,599.9-154.8C1555.7,944.6,1556.8,945.6,1560.5,936.3z M991.9,1867.6c-19.5-6.8-39-13.7-341.9-119.7l442.2-123.8
	c23.6,7.8,47.1,15.7,412.3,137.4L991.9,1867.6z M1507.1,1719.4c-54.3-18.1-108.5-36.2-403.6-134.5c-35.1-34-70.1-68.1-628.3-609.9
	c67.9,21.9,135.8,43.9,422.6,136.5C931.8,1145.4,965.7,1179.3,1507.1,1719.4z M909.4,1070.8c-24.7-7.9-49.5-15.8-425.3-136.1
	l-1.9-0.6l589.3-107.2c23,6,46,12,389.3,101.6L909.4,1070.8z M1094.1,790.6l57.7-654.3c16.9,3.7,33.8,7.4,429.7,93.4
	c-2.7,31.3-5.4,62.6-57.7,673C1507.1,898.4,1490.5,894,1094.1,790.6z"/>
</svg>
