<?xml version="1.0" encoding="utf-8"?>
<!-- Generator: Adobe Illustrator 22.0.1, SVG Export Plug-In . SVG Version: 6.00 Build 0)  -->
<svg version="1.1" id="Layer_1" xmlns="http://www.w3.org/2000/svg" xmlns:xlink="http://www.w3.org/1999/xlink" x="0px" y="0px"
	 viewBox="0 0 2000 2000" style="enable-background:new 0 0 2000 2000;" xml:space="preserve">
<style type="text/css">
	.st0{fill:#020203;}
</style>
<g>
	<path class="st0" d="M1938.6,1445h-70.8l-109.4-246.2l78.3-72.1c8.2-7.6,12.9-18.4,13-29.6c0-10.9-4.1-21.3-11.8-29.4l-97.2-97.2
		c-15.8-15.3-40.5-15.2-56.1-0.1L1178,1445H619.7V662.9c25-20.7,56.5-32.2,89-32.2c0,0,0,0,0.1,0c37.6,0,74.2,15.3,100.7,41.9
		c7.6,7.7,17.7,11.9,28.6,12c0.1,0,0.1,0,0.2,0c10.7,0,20.9-4.2,28.7-12c26.8-26.9,62.4-41.8,100.4-41.9
		c38.3-0.5,73.7,14.6,101.2,41.9c7.5,7.5,17.9,11.7,28.2,11.7c0.1,0,0.2,0,0.2,0c6-0.1,11.1-1,15.6-3.2c15.2-6.2,25-20.8,25.1-37.3
		v-64.7c0-307.9-250.5-558.3-558.3-558.3S20.9,271.4,20.9,579.2V644c0.1,16.4,9.9,31,25,37.2c15.1,6.3,32.4,3,44.2-8.5
		c26.8-26.9,62.4-41.8,100.4-41.9c0.1,0,0.3,0,0.4,0c37.8,0,73.4,14.7,100.7,41.9c7.6,7.7,17.7,11.9,28.6,12c0.1,0,0.1,0,0.2,0
		c10.7,0,20.9-4.2,28.7-12c26.4-26.7,63.1-42,100.7-42c0,0,0,0,0.1,0c32.6,0.1,64,11.5,89,32.2V1445H61.4
		c-22.3,0-40.5,18.1-40.5,40.5v453.1c0,22.3,18.1,40.5,40.5,40.5h129.5c22.3,0,40.5-18.1,40.5-40.5v-283.2h307.5v323.7h80.9v-323.7
		h1149v283.2c0,22.3,18.1,40.5,40.5,40.5h129.5c22.3,0,40.5-18.1,40.5-40.5v-453.1C1979.1,1463.2,1960.9,1445,1938.6,1445z
		 M1898.2,1655.4v242.7h-48.6v-242.7H1898.2z M150.4,1655.4v242.7h-48.5v-242.7H150.4z M579.2,101.8c259,0,470.5,207.3,477.2,466.5
		c-72-31.3-154-22.9-218.3,22.9c-77.1-54.4-181.8-54.4-258.9,0c-38.5-27.4-84-41-129.5-41s-90.9,13.7-129.5,41
		C256,545.5,174,537,102,568.4C107.7,310.1,319.6,101.8,579.2,101.8z M1296.6,1445l415.2-388.7l39.2,40.4L1371,1445H1296.6z
		 M1695,1257l84.2,188.1h-287.3L1695,1257z M1898.2,1526v48.5H101.8V1526H1898.2z"/>
	<path class="st0" d="M1615,587.3c111.5,0,202.3-90.7,202.3-202.3s-90.7-202.3-202.3-202.3s-202.3,90.7-202.3,202.3
		S1503.4,587.3,1615,587.3z M1615,263.7c66.9,0,121.4,54.4,121.4,121.4s-54.5,121.4-121.4,121.4S1493.6,452,1493.6,385
		S1548.1,263.7,1615,263.7z"/>
	<rect x="1574.5" y="20.9" class="st0" width="80.9" height="113.3"/>
	<rect x="1865.8" y="344.6" class="st0" width="113.3" height="80.9"/>
	<rect x="1250.8" y="344.6" class="st0" width="113.3" height="80.9"/>
	<polygon class="st0" points="1901,156 1843.7,98.8 1763.7,178.9 1820.9,236.1 	"/>
	<polygon class="st0" points="1328.9,614.1 1386.2,671.3 1466.3,591.2 1409.1,534 	"/>
	<polygon class="st0" points="1843.9,671.2 1901.1,614 1821,533.9 1763.7,591.1 	"/>
	<polygon class="st0" points="1466.2,179 1386.1,98.9 1328.9,156.1 1408.9,236.2 	"/>
	<rect x="1574.5" y="635.9" class="st0" width="80.9" height="113.3"/>
</g>
</svg>
