<?xml version="1.0" encoding="utf-8"?>
<!-- Generator: Adobe Illustrator 21.1.0, SVG Export Plug-In . SVG Version: 6.00 Build 0)  -->
<svg version="1.1" id="Layer_1" xmlns="http://www.w3.org/2000/svg" xmlns:xlink="http://www.w3.org/1999/xlink" x="0px" y="0px"
	 viewBox="0 0 2000 2000" style="enable-background:new 0 0 2000 2000;" xml:space="preserve">
<g>
	<path d="M1984,1083.9h-2.9v-3h-74.2l-331.2-228.4l279.9-261.6l4.6-4.2l-55.4-59.3l-13.5,12.6c-19.8-19-45.9-29.9-73.7-30.4
		c-28.8-0.5-56.2,10-77,29.9L1177.8,978H164.4c-43.1,0-78.1,35.1-78.1,78.1v24.8H17v133.7h237.3l-93.5,206h79.6l131.7-206h1121
		l97.2,82.5c-9,18.3-13.8,38.8-13.8,59.2c0,74.3,60.4,134.7,134.6,134.7c74.3,0,134.7-60.4,134.7-134.7
		c0-74.2-60.4-134.6-134.7-134.6c-11.3,0-22.8,1.5-34.3,4.5l-8.3-11.5h315.3L1984,1083.9L1984,1083.9z M1603.7,1298.2l2.3-4.4
		l-106.4-90.3l-1.8-1.6H365.5l-131.7,206h-53.6l93.5-206H29.4v-108.9h69.2v-37c0-36.3,29.5-65.7,65.7-65.7h1018.5l466.5-441.8
		c18.6-17.6,43.2-27,69.2-26.4c25.8,0.7,50,11.5,67.9,30.7l4.2,5.1l13.8-12.8l38.4,41.1l-281.1,262.7l-5.6,5.2l345.4,238.2l1.5,1.2
		h68.7v108.7h-327.3l27.7,38.3l4.2-1.3c11.5-3.4,23.2-5.2,35-5.2c67.4,0,122.2,54.8,122.2,122.2s-54.8,122.2-122.2,122.2
		s-122.2-54.8-122.2-122.2C1589.1,1336.1,1594.1,1316.1,1603.7,1298.2z"/>
	<path d="M1545.6,866.7l-2-1.4l-243.8,227.9h574.4L1545.6,866.7z M1834.2,1080.8h-503l213.6-199.6L1834.2,1080.8z"/>
</g>
</svg>
