<?xml version="1.0" encoding="utf-8"?>
<!-- Generator: Adobe Illustrator 18.1.1, SVG Export Plug-In . SVG Version: 6.00 Build 0)  -->
<svg version="1.1" id="Layer_1" xmlns="http://www.w3.org/2000/svg" xmlns:xlink="http://www.w3.org/1999/xlink" x="0px" y="0px"
	 viewBox="0 0 2000 2000" enable-background="new 0 0 2000 2000" xml:space="preserve">
<g>
	<path fill="#010101" d="M774.5,1000l68.8-68.8v-97.3L774.5,765h-97.4l-68.8,68.8v97.3l68.8,68.8H774.5z M686.7,866.3l22.9-22.9
		h32.5l22.9,22.9v32.4l-22.9,22.9h-32.5l-22.9-22.9V866.3z"/>
	<path fill="#010101" d="M958.1,1317.7l-153.9-239.4l-352.5,548.3h509.2h587.5L1156.7,1000L958.1,1317.7z M1406.6,1548.3H959.7
		H596.2L804.5,1223l154.6,241.7l197.8-317.2L1406.6,1548.3z"/>
	<path fill="#010101" d="M1313.3,60H295v1880h1410V451.7L1313.3,60z M1313.3,169.7l282,282h-282V169.7z M1626.7,1861.7H373.3V138.3
		H1235V530h391.7V1861.7z"/>
</g>
</svg>
