<?xml version="1.0" encoding="utf-8"?>
<!-- Generator: Adobe Illustrator 21.1.0, SVG Export Plug-In . SVG Version: 6.00 Build 0)  -->
<svg version="1.1" id="Layer_1" xmlns="http://www.w3.org/2000/svg" xmlns:xlink="http://www.w3.org/1999/xlink" x="0px" y="0px"
	 viewBox="0 0 2000 2000" style="enable-background:new 0 0 2000 2000;" xml:space="preserve">
<g>
	<path d="M1837.1,483.9l-733.5-376.8c-6.1-3.1-13-3.7-19.5-1.6L172.6,401.8c-10.4,3.4-17.6,13.1-17.6,24.1l-6,1067.3
		c-0.1,9.6,5.3,18.4,13.8,22.8l733.5,376.8c3.7,1.9,7.6,2.8,11.6,2.8c2.7,0,5.3-0.4,7.9-1.2l911.5-296.2
		c10.4-3.4,17.6-13.1,17.6-24.1l6-1067.3C1851,497.2,1845.7,488.3,1837.1,483.9z M1794.1,1555.4l-870.7,282.9l0.4-70.1
		c0-8.4-6.8-15.3-15.2-15.4c0,0-0.1,0-0.1,0c-8.4,0-15.3,6.8-15.3,15.2l-0.4,65.6l-692.8-355.9l5.7-1021.6l58.4,30
		c0.5,0.3,1,0.5,1.6,0.7c0.2,0.1,0.4,0.1,0.5,0.2c0.4,0.1,0.7,0.2,1.1,0.3c0.2,0.1,0.4,0.1,0.6,0.1c0.4,0.1,0.7,0.1,1.1,0.2
		c0.2,0,0.4,0,0.6,0.1c0.4,0,0.8,0.1,1.1,0.1c0.1,0,0.3,0,0.4,0c0,0,0.1,0,0.1,0c0.6,0,1.2,0,1.9-0.1c0.1,0,0.2,0,0.3-0.1
		c0.5-0.1,1-0.2,1.5-0.3c0.2,0,0.3-0.1,0.5-0.1c0.6-0.2,1.2-0.4,1.7-0.6c0,0,0,0,0.1,0c0.6-0.2,1.1-0.5,1.7-0.8
		c0.1-0.1,0.3-0.2,0.4-0.3c0.4-0.3,0.8-0.5,1.2-0.8c0.1-0.1,0.2-0.2,0.3-0.3c0.5-0.4,0.9-0.8,1.4-1.3c0.1-0.1,0.2-0.2,0.3-0.3
		c0.4-0.4,0.7-0.8,1-1.2c0.1-0.1,0.2-0.3,0.3-0.4c0.4-0.5,0.7-1.1,1-1.7c3.9-7.5,0.9-16.7-6.6-20.6L233,435.8l856.8-278.4
		l682.3,350.5l-48.3,15.7c-8,2.6-12.4,11.2-9.8,19.3c0.2,0.7,0.5,1.4,0.8,2.1c0.1,0.1,0.2,0.3,0.2,0.4c0.4,0.6,0.7,1.2,1.1,1.8
		c0.1,0.1,0.2,0.2,0.2,0.3c0.4,0.5,0.8,1,1.3,1.4c0.1,0.1,0.1,0.2,0.2,0.2c0.5,0.5,1,0.9,1.6,1.3c0.1,0.1,0.3,0.2,0.4,0.3
		c0.6,0.4,1.2,0.8,1.8,1.1c0.1,0,0.1,0,0.2,0.1c0.6,0.3,1.2,0.5,1.8,0.8c0.2,0,0.3,0.1,0.4,0.1c0.7,0.2,1.3,0.4,2,0.5
		c0.1,0,0.3,0,0.4,0.1c0.6,0.1,1.3,0.1,1.9,0.1c0.1,0,0.2,0,0.2,0c0,0,0,0,0.1,0c0.7,0,1.3-0.1,2.1-0.2c0.2,0,0.3-0.1,0.5-0.1
		c0.7-0.1,1.4-0.3,2.1-0.5l66.6-21.6L1794.1,1555.4z"/>
	<path d="M646.2,648.1l-184-94.5c-7.5-3.9-16.7-0.9-20.6,6.6c-3.4,6.6-1.5,14.5,4,18.9c0.8,0.6,1.7,1.2,2.6,1.7l184,94.5
		c2.2,1.2,4.6,1.7,7,1.7c5.6,0,10.9-3,13.6-8.3c3.1-6.1,1.8-13.3-2.9-17.9C648.9,649.7,647.7,648.8,646.2,648.1z"/>
	<path d="M1489.2,600.6c-1.5,0-3.1,0.3-4.6,0.8L1245.4,679c-8,2.6-12.4,11.2-9.8,19.3c2.1,6.5,8.1,10.6,14.5,10.6
		c1.6,0,3.1-0.2,4.7-0.8l239.2-77.7c8-2.6,12.4-11.2,9.8-19.3C1501.8,604.6,1495.7,600.5,1489.2,600.6z"/>
	<path d="M920.3,1411c-2.7-2.2-6-3.5-9.7-3.6c0,0-0.1,0-0.1,0c-8.4,0-15.2,6.8-15.3,15.2l-1,172.7c0,8.5,6.8,15.3,15.2,15.4
		c0,0,0.1,0,0.1,0c8.4,0,15.2-6.8,15.3-15.2l1-172.7C925.8,1418.1,923.7,1413.9,920.3,1411z"/>
	<path d="M912.5,1062.1C912.5,1062.1,912.5,1062.1,912.5,1062.1c-8.5,0-15.3,6.8-15.4,15.2l-1,172.7c0,4.7,2.1,9,5.5,11.8
		c2.6,2.2,6,3.5,9.7,3.5c0,0,0.1,0,0.1,0c8.4,0,15.3-6.8,15.3-15.2l1-172.7C927.8,1069.1,921,1062.2,912.5,1062.1z"/>
	<path d="M1006.3,756.7l-90.9,29.5l-85-43.7c-7.5-3.9-16.7-0.9-20.6,6.6c-3.9,7.5-0.9,16.7,6.6,20.6l82.3,42.3l-0.5,92.6
		c-0.1,8.5,6.8,15.3,15.2,15.4c0,0,0.1,0,0.1,0c8.4,0,15.2-6.8,15.3-15.2l0.5-90.9l86.5-28.1c8-2.6,12.4-11.2,9.8-19.3
		C1022.9,758.5,1014.3,754.1,1006.3,756.7z"/>
</g>
</svg>
