<?xml version="1.0" encoding="utf-8"?>
<!-- Generator: Adobe Illustrator 18.1.1, SVG Export Plug-In . SVG Version: 6.00 Build 0)  -->
<svg version="1.1" id="Layer_1" xmlns="http://www.w3.org/2000/svg" xmlns:xlink="http://www.w3.org/1999/xlink" x="0px" y="0px"
	 viewBox="0 0 2000 2000" enable-background="new 0 0 2000 2000" xml:space="preserve">
<path fill="#010101" d="M1951.1,907.2L1023.3,39.9c-16.1-16.1-40.3-16.1-56.5,0L39.1,907.2c-16.1,16.1-16.1,40.3,0,56.5
	c16.1,16.1,40.3,16.1,56.5,0l201.7-188.1v1148.2c0,24.2,16.1,40.3,40.3,40.3h359c2.1,0,4.1-0.1,6.1-0.4c2,0.2,4,0.4,6.1,0.4
	c24.2,0,40.3-16.1,40.3-40.3v-572.8h492.1v572.8c0,24.2,16.1,40.3,40.3,40.3c2.8,0,5.5-0.2,8.1-0.6c2.6,0.4,5.3,0.6,8.1,0.6h355
	c24.2,0,40.3-16.1,40.3-40.3V775.5l201.7,188.1c8.1,8.1,20.2,12.1,28.2,12.1c12.1,0,20.2-4,28.2-12.1
	C1967.2,947.5,1967.2,923.3,1951.1,907.2z M1612.3,1883.4h-290.4v-572.8c0-24.2-16.1-40.3-40.3-40.3H708.7
	c-24.2,0-40.3,16.1-40.3,40.3v572.8H377.9V700.3l617.2-575.7l617.2,575.7V1883.4z"/>
</svg>
