<?xml version="1.0" encoding="utf-8"?>
<!-- Generator: Adobe Illustrator 18.1.1, SVG Export Plug-In . SVG Version: 6.00 Build 0)  -->
<svg version="1.1" id="Layer_1" xmlns="http://www.w3.org/2000/svg" xmlns:xlink="http://www.w3.org/1999/xlink" x="0px" y="0px"
	 viewBox="0 0 2000 2000" enable-background="new 0 0 2000 2000" xml:space="preserve">
<path fill="#010101" d="M1951.7,1293.4l-201.1-201.1c-15.7-15.7-41.2-15.7-56.9,0l-234.2,234.2c-1.3-0.7-2.7-1.3-4.1-1.9
	c-97.5-38.6-278.7-168.7-368.3-358.6c118.1-118.3,192.6-310.3,192.6-489c0-268.8-173.6-442.5-442.5-442.5S394.6,208.2,394.6,477
	c0,178.7,74.5,370.7,192.5,488.9c-89.3,187.1-271.7,300.8-369.1,339.4c-112.6,44.8-185.5,149.6-185.5,267v151.7
	c0,22.2,18,40.2,40.2,40.2h1050.1l-42.8,149.9c-4,14.1-0.1,29.2,10.3,39.5c7.6,7.6,17.9,11.8,28.4,11.8c3.7,0,7.5-0.6,11-1.6l280-80
	c5.4-1.3,10.5-3.7,15.1-7.2c0.1-0.1,0.2-0.1,0.3-0.2c0.5-0.4,1.1-0.8,1.6-1.3c0.1-0.1,0.3-0.2,0.4-0.3c0.6-0.5,1.2-1.1,1.7-1.6
	c0,0,0,0,0,0l523-523C1967.5,1334.6,1967.5,1309.1,1951.7,1293.4z M1400.3,1787.9L1256,1643.7l305.1-305.1l144.3,144.3
	L1400.3,1787.9z M475,477c0-267,187-362.1,362.1-362.1S1199.1,210,1199.1,477c0,236.9-161.6,523-362.1,523
	C636.6,1000,475,713.9,475,477z M112.9,1683.9v-111.5c0-84.3,52.9-159.7,134.9-192.2c130-51.6,306.8-175.3,402.7-361
	c56.1,38.6,119,61.3,186.6,61.3c67.5,0,130.4-22.6,186.5-61.2c94.6,185.9,262.9,315,374.9,368.2l-227.7,227.7c0,0,0,0,0,0
	c-0.6,0.6-1.1,1.2-1.6,1.8c-0.1,0.1-0.2,0.2-0.3,0.4c-0.5,0.5-0.9,1.1-1.3,1.6c-0.1,0.1-0.1,0.2-0.2,0.2c-2.1,2.7-3.8,5.6-5.1,8.6
	c0,0,0,0.1,0,0.1c-0.3,0.7-0.6,1.5-0.9,2.2c0,0.1,0,0.1-0.1,0.2c-0.2,0.7-0.5,1.4-0.7,2.1c0,0.1-0.1,0.2-0.1,0.3l-14.7,51.3H112.9z
	 M1219.1,1720.5l104.4,104.4l-146.2,41.8L1219.1,1720.5z M1762.3,1426L1618,1281.7l104.1-104.1l144.3,144.3L1762.3,1426z"/>
</svg>
