<?xml version="1.0" encoding="utf-8"?>
<!-- Generator: Adobe Illustrator 18.1.1, SVG Export Plug-In . SVG Version: 6.00 Build 0)  -->
<svg version="1.1" id="Layer_1" xmlns="http://www.w3.org/2000/svg" xmlns:xlink="http://www.w3.org/1999/xlink" x="0px" y="0px"
	 viewBox="0 0 2000 2000" enable-background="new 0 0 2000 2000" xml:space="preserve">
<path fill="#010101" d="M1884.1,416.5c-44.8-75.1-101.5-141.6-168.7-197.5c-67.3-56-142.8-99.7-224.4-129.8
	c-84-31-172-46.8-261.7-46.8c-364,0-679.1,260.8-749.5,620.3c-1.2,8.6,1.3,18.8,6.1,24.8l0.3,0.4l0.3,0.4
	c4.2,6.4,12.1,10.2,20.9,10.2c10.7,0,20.4-6,25.3-15.6v-0.1v-0.1c16.3-30.7,40.1-56.6,69-74.4c28.7-17.9,61.3-27.3,94.3-27.3
	c53.8,0,106.4,25.6,140.7,68.5c5,6.2,13,9.7,21.6,9.7c8.6,0,16.6-3.6,21.6-9.8l0,0l0,0c36.4-43.4,87.7-68.3,140.5-68.3
	c25.7,0,50.6,5.4,73.9,16l6.2,2.8v6.8v1013.1v10.6h-10.6H330.1c-3,0-6.9,1.2-10.9,2.5L33.5,1773.1c-11.4,5.7-15.8,19.1-10.2,30.5
	l0.1,0.3l0.1,0.3c3.3,7.7,12.8,11.8,20,11.8c2,0,4.4-0.4,7.4-3.6l1.3-1.3l1.6-0.8l279.9-135.5l2.3-1.1h2.4h70.1h17.9l-8.5,15.6
	l-119.6,220c-5.7,11.5-2.4,24.2,7.7,29.8c0.9,0.3,1.9,0.5,2.8,0.8c4.1,1.1,7.4,2,9.9,2c7.7,0,15.6-4.5,18.7-10.7l0.1-0.1l0.1-0.1
	l136.8-251.7l3-5.6h6.4h606.2h10.6v10.6v250.1c0,12.5,10.1,22.5,22.5,22.5h182.1c13,0,22.9-11,24.2-21.5v-251.1v-10.6h10.6h227.4
	h6.4l3,5.6l136.6,251.3c4.8,6.9,13,11.5,20.8,11.5c3,0,6.8-1.2,10.7-2.5c10.3-5.6,13.8-18.3,7.9-30.1L1622.2,1669l-3.7-6.8l5.3-5.6
	l266.4-279.2c7.9-9.3,7.7-23.8-0.8-31.3c-4.4-3.8-9.8-5.8-15.4-5.8c-6.1,0-11.9,2.5-16.4,7l-266.5,279.7l-3.2,3.3h-4.5h-243.3h-10.6
	v-10.6V600.8v-7.5l7.2-2.5c18.7-6.5,38.1-9.8,58.1-9.8c32.1,0,63.8,9.4,92.2,27c27.8,17.5,51.3,42.4,67.5,72.2
	c7.3,9.9,15.9,15,25.8,15c6.9,0,19.2-1.9,25.3-14l0.1-0.3l0.1-0.3c17.1-30.9,40.8-56.2,68.6-73.4c27.9-17.2,60-26.4,92.8-26.4
	c68.5,0,131.8,40.3,165,105l0,0l0,0c4.8,9.7,14.6,15.6,25.3,15.6c4.2,0,7.9-0.8,10.3-2.4c2.1-1.3,2.3-2.4,2.3-3.6v-4.4l3-3
	c4.9-4.9,6.6-12.3,5.3-22.3C1961.7,577.6,1929.9,493.6,1884.1,416.5z M1282.8,1684.2v216.9v10.6h-10.6h-115.9h-1.6h-10.6v-10.6
	v-216.9v-10.6h10.6h117.5h10.6V1684.2z M1282.8,649.4v970.2v10.6h-10.6h-117.5h-10.6v-10.6V657.7V627l18.9,24.2
	c7.2,9,13.4,18.8,18.9,29c1.7,2.3,3.6,4.4,5.4,6.2l0.1,0.1l0.1,0.1c6.4,6.6,13.6,9.9,21.6,9.9c6.9,0,19.2-1.9,25.3-14l0.3-0.4
	l0.3-0.4c8.2-13.1,18.3-26.8,29.1-39.3l18.7-21.7v28.6H1282.8z M1893.6,577.1c-36.6-25.4-81.5-39.5-126.4-39.5
	c-68.3,0-132.8,31.8-177.2,87l-8.2,10.2l-8.3-10.1c-22-26.8-49.7-48.9-80-63.8c-30.7-15.2-64.4-23.3-97.3-23.3
	c-33.6,0-67.8,8.3-98.7,24.2l-0.4,0.3l-0.4,0.1c-0.7,0.3-1.1,0.4-1.5,0.7c-13.1,6.9-26,15.4-38,25.2c-1.1,0.8-2.1,1.7-3,2.5
	l-0.3,0.3l-0.4,0.3c-12.6,10.5-24.1,22.4-34.3,35.1l-9.5,11.9l-7.5-12.6c-21.1-27.2-48.1-49.4-78.1-64.6
	c-30.6-15.4-64.6-23.4-98.5-23.4c-57,0-112.1,22-155.1,61.7l-7.3,6.8l-7.2-6.9c-42.4-40.8-97.3-63.3-155-63.3
	c-43.8,0-88.1,14-124.8,39.5l-27.5,19.1l11.7-31.3c25.3-69.3,60.9-134,105.8-192.4c44.2-57.5,96.6-107.8,155.8-149.7
	c59.5-42.1,124.8-74.8,193.9-97.1c71-22.9,145.2-34.6,220.1-34.6c74.7,0,148.6,11.7,219.5,34.6c69.1,22.4,134.3,55.1,193.8,97.3
	c59.2,42,111.7,92.6,155.6,150.2c44.9,58.8,80.3,123.8,105,193.4l11.1,31.1L1893.6,577.1z"/>
<path fill="#010101" d="M1619.3,328.5c-35.8-28.9-74.7-53.6-115.9-73.6c-41.2-20.1-84.6-35.5-129.3-45.8
	c-45.2-10.5-91.8-15.8-138.4-15.8c-4.1,0-6,1.9-6,6s1.9,6,6,6c45.4,0,91,5.2,135.1,15.5c43.7,10.2,86.4,25.3,126.8,45
	c40.4,19.7,78.7,44.1,113.8,72.4c35.5,28.7,67.9,61.7,96.3,97.9l0.3,0.3l0.3,0.4c0.5,0.7,1.3,1.9,4.4,1.9c0.1,0,1.1-0.4,2.5-1.9
	l0.9-0.9l1.1-0.7c0.3-0.1,1.1-0.7,1.5-2.3c0.4-1.7-0.1-4-1.1-5.3C1688.3,390.7,1655.3,357.5,1619.3,328.5z"/>
</svg>
