<?xml version="1.0" encoding="utf-8"?>
<!-- Generator: Adobe Illustrator 21.1.0, SVG Export Plug-In . SVG Version: 6.00 Build 0)  -->
<svg version="1.1" id="Layer_1" xmlns="http://www.w3.org/2000/svg" xmlns:xlink="http://www.w3.org/1999/xlink" x="0px" y="0px"
	 viewBox="0 0 2000 2000" style="enable-background:new 0 0 2000 2000;" xml:space="preserve">
<style type="text/css">
	.st0{fill:#48B2E8;}
</style>
<g>
	<path class="st0" d="M350,1248.4h589.1V558.2L350,1248.4z M918.2,1227.6H395.1l523.1-612.9V1227.6z"/>
	<path class="st0" d="M1123.4,1248.4h564.7l-564.7-919.2V1248.4z M1144.2,402.9l506.6,824.7h-506.6V402.9z"/>
	<path class="st0" d="M1081.1,1388.9V220c38.6-18.9,63.1-58,63.1-101.4c0-62.3-50.7-113-113-113c-62.3,0-113,50.7-113,113
		c0,43.4,24.6,82.4,63.1,101.4v1168.8h-954l96.5,178.7h1751.5l96.5-178.7H1081.1z M1862.9,1546.7H136.4l-74.1-137h939.9V206.3
		l-6.4-2.6c-34.5-14.4-56.7-47.8-56.7-85.1c0-50.8,41.4-92.2,92.2-92.2s92.1,41.4,92.1,92.2c0,37.3-22.3,70.7-56.7,85.1l-6.4,2.6
		v1203.3H1937L1862.9,1546.7z"/>
	<path class="st0" d="M354.3,1993.6h1290.8l198.9-368H155.4L354.3,1993.6z M1632.6,1972.8H366.8l-176.5-326.4H1809L1632.6,1972.8z"
		/>
</g>
</svg>
