<?xml version="1.0" encoding="utf-8"?>
<!-- Generator: Adobe Illustrator 18.1.1, SVG Export Plug-In . SVG Version: 6.00 Build 0)  -->
<svg version="1.1" id="Layer_1" xmlns="http://www.w3.org/2000/svg" xmlns:xlink="http://www.w3.org/1999/xlink" x="0px" y="0px"
	 viewBox="0 0 2000 2000" enable-background="new 0 0 2000 2000" xml:space="preserve">
<path fill="#010101" d="M1000.9,82.7c-505.3,0-917.8,412.5-917.8,917.8s412.5,917.8,917.8,917.8s917.8-412.5,917.8-917.8
	S1506.2,82.7,1000.9,82.7z M1623.6,1595.9c-155.7,163.9-376.9,265-622.8,265c-232.2,0-445.2-92.9-600.9-243.1
	c-8.2-106.5,27.3-169.4,98.3-188.5c120.2-30,207.6-65.6,267.7-101.1c49.2,84.7,139.3,136.6,237.6,136.6
	c101.1,0,193.9-54.6,240.4-142c60.1,35.5,147.5,73.7,275.9,106.5c98.3,24.6,106.5,95.6,101.1,161.2
	C1620.9,1593.2,1620.9,1595.9,1623.6,1595.9z M1000.9,1213.5L1000.9,1213.5c2.7,0,5.5,0,5.5,0h2.7h2.7c41,0,76.5-8.2,112-19.1
	c8.2,24.6,30,60.1,79.2,98.3c-38.2,73.7-112,120.2-193.9,120.2c-79.2,0-153-43.7-191.2-112c54.6-38.2,76.5-76.5,87.4-101.1
	C929.8,1208.1,962.6,1213.5,1000.9,1213.5z M820.6,1082.4c-109.3-122.9-87.4-355.1-84.7-357.8c0,0,0,0,0-2.7
	c10.9-259.5,204.9-278.6,262.2-278.6c2.7,0,5.5,0,5.5,0h2.7c0,0,2.7,0,5.5,0c57.4,0,251.3,19.1,262.2,278.6c0,0,0,0,0,2.7
	s24.6,234.9-84.7,357.8c-43.7,49.2-106.5,76.5-183,76.5l0,0l0,0l0,0l0,0C927.1,1156.2,864.3,1131.6,820.6,1082.4z M1675.5,1535.8
	c-5.5-57.4-32.8-131.1-142-158.4c-303.2-76.5-355.1-177.5-363.3-207.6c21.9-13.7,41-30,60.1-51.9
	c122.9-139.3,101.1-379.7,98.3-398.8C1315,405,1061,388.6,1011.8,388.6c-2.7,0-5.5,0-8.2,0c-2.7,0-5.5,0-8.2,0
	c-49.2,0-303.2,16.4-316.8,330.5c-2.7,19.1-24.6,259.5,98.3,398.8c19.1,21.9,43.7,41,68.3,57.4c-13.7,35.5-76.5,128.4-363.3,202.1
	c-81.9,21.9-131.1,84.7-139.3,183c-125.6-150.2-204.9-346.9-204.9-560c0-475.3,387.9-863.1,863.1-863.1S1864,525.2,1864,1000.5
	C1864,1202.6,1793,1388.4,1675.5,1535.8z"/>
</svg>
