<?xml version="1.0" encoding="utf-8"?>
<!-- Generator: Adobe Illustrator 21.1.0, SVG Export Plug-In . SVG Version: 6.00 Build 0)  -->
<svg version="1.1" id="Layer_1" xmlns="http://www.w3.org/2000/svg" xmlns:xlink="http://www.w3.org/1999/xlink" x="0px" y="0px"
	 viewBox="0 0 2000 2000" style="enable-background:new 0 0 2000 2000;" xml:space="preserve">
<path d="M1599.6,811.2V223.3h-267.7V541l-275.2-317.7H941.6L33.5,1173.9v75l45,27.5l112.6-60l10,560.5h1613.5v-558l115.1,57.5
	l37.5-30v-72.5L1599.6,811.2z M1269.6,1275c-36.7,47.8-69.7,87-100.6,119.5c-4.1,4.4-8.5,9.1-12.7,13.4c-2.9,3-5.8,5.8-8.7,8.5
	l-3.8,3.7c-8.1,7.9-16.3,15.5-24.2,22.2l-3.3,2.7c-10.3,8.6-19.8,15.9-29.1,22.1c-11.4,7.5-20.9,12.9-29.7,17l-3.4,1.4
	c-8.1,3.5-16.6,6.9-25.2,9c-5.3,1.4-10.6,1.9-15.9,2.3l-4.3,0.6c-2.5,0.5-5.1,0.9-7.6,0.9c-3.5,0-6.1-0.4-8.6-0.9l-4.3-0.6
	c-5.3-0.4-10.6-1-16.1-2.3c-8.7-2.1-17.5-5.8-24.2-8.7c-2-0.7-3.2-1.2-4.5-1.8c-8.6-4-17.8-9.2-28-16c-10.8-7.1-20.4-14.4-30.1-22.5
	l-3.8-3.1c-8-6.8-16.1-14.4-24.3-22.3l-2.8-2.7c-3.2-3.1-6.4-6.1-9.7-9.5c-3.5-3.5-7.2-7.4-10.8-11.3
	c-33.2-35-66.2-74.2-102.5-121.7C626.9,1141.5,580.4,1037.2,580.4,937c0-107.1,89.3-194.2,199.1-194.2c91.3,0,144,39,201.7,149.1
	l19.2,36.5l19.1-36.5c57.7-110.1,110.4-149.1,201.7-149.1c109.9,0,199.2,87.1,199.2,194.2C1420.4,1037.1,1373.9,1141.4,1269.6,1275z
	"/>
</svg>
