<?xml version="1.0" encoding="utf-8"?>
<!-- Generator: Adobe Illustrator 18.1.1, SVG Export Plug-In . SVG Version: 6.00 Build 0)  -->
<svg version="1.1" id="Layer_1" xmlns="http://www.w3.org/2000/svg" xmlns:xlink="http://www.w3.org/1999/xlink" x="0px" y="0px"
	 viewBox="0 0 2000 2000" enable-background="new 0 0 2000 2000" xml:space="preserve">
<path fill="#010101" d="M1857.8,391.7H142.2c-57.9,0-104.9,47.1-104.9,104.9v1088.7c0,57.9,47.1,104.9,104.9,104.9h1715.6
	c57.9,0,104.9-47.1,104.9-104.9V496.6C1962.7,438.8,1915.6,391.7,1857.8,391.7z M1007.1,1291.6c-19.8,19.7-32.5,19.8-51.7,0.6
	L172.1,472.8h1652.3L1007.1,1291.6z M664.3,1105l-545.9,468.8V533.9L664.3,1105z M720.4,1163.7l177,185.2
	c25.8,25.7,54.6,38.5,83.5,38.5c28.9,0,57.8-12.9,83.5-38.6L1273,1140c2.2,3.8,4.6,7.6,8.1,10.6l521.6,458.5H201.7L720.4,1163.7z
	 M1871,1561.3l-536.4-471.6c-2.2-1.9-4.8-2.8-7.3-4.2l554.3-555.2v1047.1C1879.4,1571.5,1876.1,1565.8,1871,1561.3z"/>
</svg>
