<?xml version="1.0" encoding="utf-8"?>
<!-- Generator: Adobe Illustrator 21.1.0, SVG Export Plug-In . SVG Version: 6.00 Build 0)  -->
<svg version="1.1" id="Layer_1" xmlns="http://www.w3.org/2000/svg" xmlns:xlink="http://www.w3.org/1999/xlink" x="0px" y="0px"
	 viewBox="0 0 2000 2000" style="enable-background:new 0 0 2000 2000;" xml:space="preserve">
<path d="M1910.3,1282.8c131.1-269.3-39-276.4-216.2-230.3c0,0-460.7,127.6-744.1-124c-135.9-120.6-241-219.7-271.1-404
	c-9.1-55.6,93.9-209.1-19.5-340.2C555.9,64.5,379.5,74.5,312.2,74.5S138.6,78,138.6,78S7.5,70.9,50,262.3s211.4,793.5,272.9,960.3
	c55,149.2,102.3,271.2,248.9,324.9l-94.2,170.3c-49.2-19.1-98.5-41.3-147.6-67.3l-49.7,94c260.8,137.9,526.2,180.5,754.8,180.5
	c119.9,0,229.6-11.7,323.3-27.6c294.1-49.9,492.9-148.2,501.2-152.4l-47.5-95.1c-1.4,0.7-101.4,49.9-260.8,95l-18.8-166.8
	C1594.7,1553.4,1828.2,1451.6,1910.3,1282.8z M1337.3,1793c-189.6,31.8-449.2,45.5-721.8-29.7L750,1576.6c6.4,0.1,12.7,0.3,19.3,0.3
	c191.6,0,430,2.7,585.4,4.7l54.2,198C1385.8,1784.4,1361.9,1788.9,1337.3,1793z"/>
</svg>
