<?xml version="1.0" encoding="utf-8"?>
<!-- Generator: Adobe Illustrator 21.1.0, SVG Export Plug-In . SVG Version: 6.00 Build 0)  -->
<svg version="1.1" id="Layer_1" xmlns="http://www.w3.org/2000/svg" xmlns:xlink="http://www.w3.org/1999/xlink" x="0px" y="0px"
	 viewBox="0 0 2000 2000" style="enable-background:new 0 0 2000 2000;" xml:space="preserve">
<style type="text/css">
	.st0{fill:#48B2E8;}
</style>
<g>
	<path class="st0" d="M1916.2,1285.9c52.9-108.7,61.5-182.5,26.2-225.6c-37.2-45.5-122.2-51.2-252.7-17.3
		c-4.5,1.3-457,122.9-732.2-121.4C814.8,794.9,719.1,698.9,690.6,524.9c-2.3-13.9,4.3-37.6,11.9-65.1c20-72.3,50.2-181.6-33.5-278.4
		C569.7,66.5,407.9,67.6,330.2,68.6l-14.3,0.1c-66.5,0-172.2,3.5-172.4,3.5c-2,0-47.9-2.1-79.3,34.9
		c-28.6,33.8-34.9,87.7-18.8,160.3c43.3,195,210.5,790.5,272.1,957.7c50.6,137.3,98.4,267.1,243.2,325.2l-84.4,152.5
		c-47.7-18.9-94.2-40.2-138.2-63.5l-8.5-4.5l-58.5,110.6l8.5,4.5c227.1,120,481.6,180.9,756.3,180.9c106.8,0,215.7-9.3,323.7-27.7
		c295.6-50.1,493.6-148.5,501.9-152.6l8.5-4.3l-55.9-111.8l-8.5,4.2c-4.1,2-98.9,48-247.2,90.9l-16.7-147.6
		C1617.5,1551.1,1836.1,1450.4,1916.2,1285.9z M1527.8,1566.8l-6.8,2.7l20.8,184.6l10.9-3.1c133.4-37.7,224.3-77.8,252.8-91.2
		l38.8,77.6c-41.5,19.7-225.7,102.2-487.9,146.7c-106.9,18.1-214.8,27.4-320.5,27.4c-268.1,0-516.6-58.6-738.8-174.2l40.5-76.7
		c44.5,23.2,91.4,44.3,139.5,63l7.8,3l103.3-186.7l-10.5-3.8c-144.6-52.9-189.8-175.7-242.2-317.9
		c-59.9-162.6-229.2-765.5-271.4-955.2c-14.7-66.3-9.8-114.6,14.6-143.5c25.1-29.7,63.5-28.2,64.6-28.3c1,0,106.5-3.5,172.6-3.5
		l14.5-0.1c75-0.9,230.6-2,324.1,106.1c77.1,89.1,49.6,188.3,29.6,260.8c-8.5,30.9-15.3,55.3-12.3,73.3
		c29.4,180.3,127.2,278.6,273.1,408c283,251.2,745.4,126.9,749.9,125.7c120.8-31.4,201.3-27.7,232.8,10.9
		c29.6,36.2,20,105.2-28.6,205.1C1819.3,1441.1,1594.7,1540.3,1527.8,1566.8z"/>
	<path class="st0" d="M1354.3,1569.7c-161.7-2.1-394.2-4.7-583.2-4.7c-6.5,0-12.7-0.1-19-0.3l-5.1-0.1l-144.9,201.3l13.3,3.7
		c148.3,40.9,292.6,55.1,421.4,55.1c115.8,0,219.1-11.5,301.6-25.3c24.6-4.1,48.5-8.7,71.7-13.4l10-2.1l-58.6-214L1354.3,1569.7z
		 M1335.3,1780.4c-169.7,28.4-428.1,46.8-701.4-25.8L756.7,1584c4.7,0.1,9.5,0.2,14.4,0.2c186,0,414.4,2.5,575.7,4.6l49.4,180.4
		C1376.4,1773.1,1356.1,1776.9,1335.3,1780.4z"/>
</g>
</svg>
