<?xml version="1.0" encoding="utf-8"?>
<!-- Generator: Adobe Illustrator 21.1.0, SVG Export Plug-In . SVG Version: 6.00 Build 0)  -->
<svg version="1.1" id="Layer_1" xmlns="http://www.w3.org/2000/svg" xmlns:xlink="http://www.w3.org/1999/xlink" x="0px" y="0px"
	 viewBox="0 0 2000 2000" style="enable-background:new 0 0 2000 2000;" xml:space="preserve">
<g>
	<path d="M1172,676C1172,676,1172,676,1172,676c0.1,0,0.2,0,0.2,0H1172z"/>
	<path d="M1870.4,1090.4l-26.5-37.7c-22-30.5-22-71.7,0-102.2l26.9-36.3c46.6-64.5,32.1-154.5-32.3-201.1c-4.8-3.5-9.9-6.7-15.1-9.6
		l-39.9-21.8c-33-18.1-50.7-55.2-44.1-92.2l8.1-44.8c1.5-8.5,2.3-17,2.3-25.6c0-76.6-60-139.7-136.5-143.6l-45.6-2.4
		c-37.6-2-69.6-27.8-79.6-64l-12.2-43.1c-21.5-76.6-101-121.2-177.6-99.7c-5.5,1.5-10.9,3.4-16.1,5.6l-42,17.5
		c-34.7,14.5-74.8,5.3-99.6-23l-30.1-34.3c-27.3-31-66.6-48.9-107.9-48.9c-41.2,0-80.4,17.6-107.7,48.4l-31.1,33.7
		c-24.9,28.1-65,37.1-99.6,22.4l-42-17.7c-73.2-31.1-157.8,3-188.9,76.2c-2.3,5.5-4.3,11.2-6,17L515,306.8
		c-10.3,36.1-42.5,61.5-80,63.3l-45.6,2.3c-76.8,3.4-137.3,66.7-137.2,143.6c0,8.3,0.7,16.6,2.1,24.8l7.9,45
		c6.4,37-11.6,74-44.6,91.9l-39.9,21.1c-70,37.7-96.2,125.1-58.4,195.1c2.9,5.5,6.2,10.7,9.8,15.7l26.5,37.7
		c22,30.5,22,71.7,0,102.2l-26.7,37.7c-46.1,64.8-30.8,154.8,34,200.8c4.3,3,8.7,5.8,13.2,8.3l39.9,21.8c33,18,50.8,55.2,44.1,92.2
		l-8.1,44.8c-1.5,8.5-2.3,17-2.3,25.6c0,76.6,60,139.7,136.5,143.6l45.6,2.4c37.5,1.9,69.6,27.6,79.6,63.8l12.2,43.5
		c21.5,76.6,101,121.2,177.6,99.7c5.5-1.5,10.9-3.4,16.1-5.6l42-17.5c34.7-14.5,74.8-5.3,99.6,23l30.1,34.3
		c27.3,31,66.6,48.9,107.9,48.9c41.2,0,80.4-17.6,107.7-48.4l30.3-34.1c24.9-28.1,65-37.1,99.6-22.4l42,17.7
		c73.2,31.1,157.8-3,188.9-76.2c2.3-5.5,4.3-11.2,6-16.9l12.4-43.9c10.6-36.2,43.1-61.5,80.8-62.9l45.6-2.1
		c76.8-3.5,137.2-66.8,137.2-143.6c0-8.3-0.7-16.6-2.1-24.8l-8.1-45.2c-6.4-37,11.6-74,44.6-91.9l40.1-21.1
		c70-37.7,96.2-125.1,58.4-195.1C1877.3,1100.6,1874,1095.4,1870.4,1090.4z M1795.3,1252.3l-40.1,21.6
		c-54.2,29.3-83.7,89.9-73.4,150.6l7.7,44.8c0.9,5,1.3,10.1,1.3,15.2c-0.1,46.7-36.8,85.1-83.4,87.2l-45.6,2.1
		c-61.8,2.9-114.9,45-131.8,104.5l-12.4,43.9c-13.3,46.5-61.8,73.4-108.2,60.1c-3.5-1-6.9-2.2-10.2-3.6l-42-17.7
		c-57.1-24.1-123.1-8.9-164,37.7l-30.3,34.1c-16.6,18.7-40.5,29.4-65.5,29.4c-25.1-0.1-48.9-10.9-65.5-29.7l-30.1-34.3
		c-40.9-46.4-106.8-61.6-163.8-37.7l-42,17.5c-44.6,18.7-95.9-2.2-114.6-46.8c-1.3-3.2-2.5-6.4-3.4-9.7l-12.2-43.9
		c-16.7-59.8-69.8-102.1-131.8-105l-45.6-2.4c-46.5-2.3-83-40.6-83-87.2c0-5.2,0.4-10.5,1.3-15.6l8.1-44.8
		c10.9-60.8-18.3-121.9-72.5-151.5l-39.2-24.1c-42.4-23.3-57.9-76.5-34.6-118.9c1.7-3.2,3.7-6.2,5.8-9.1l26.7-37.7
		c36.1-50.2,36.1-117.9,0-168.1l-26.5-37.7c-28.1-39.4-19-94,20.4-122.1c2.9-2.1,6-4,9.2-5.7l40.1-21.6
		c54.2-29.3,83.7-89.9,73.4-150.6l-7.7-44.8c-0.9-5-1.3-10.1-1.3-15.2c0.1-46.7,36.8-85.1,83.4-87.2l45.6-2.3
		c61.8-2.8,114.9-44.9,131.8-104.5l12.4-43.9c13.3-46.5,61.8-73.4,108.2-60.1c3.5,1,6.9,2.2,10.2,3.6l42,17.7
		c57.1,24.1,123.1,8.9,164-37.7l30.3-34.1c16.6-18.9,40.6-29.6,65.7-29.4c25.3,0.5,49.1,11.9,65.3,31.3l30.1,34.3
		c40.8,46.5,106.8,61.6,163.8,37.7l42-17.5c44.6-18.7,95.9,2.2,114.6,46.8c1.3,3.2,2.5,6.4,3.4,9.7l12.2,43.9
		c16.6,59.9,69.7,102.3,131.8,105.2l45.6,2.4c46.5,2.3,83,40.6,83,87.2c0,5.2-0.4,10.5-1.3,15.6l-8.1,44.8
		c-10.9,60.9,18.3,121.9,72.5,151.7l39.9,21.8c28.2,15.8,45.4,45.8,44.8,78.1c-0.1,18.2-6,35.9-16.8,50.6l0-0.2l-26.7,37.7
		c-36.1,50.2-36.1,117.9,0,168.1l26.5,37.7c10.6,14.7,16.4,32.5,16.4,50.6C1841.3,1207.3,1823.6,1237,1795.3,1252.3z"/>
	<path d="M1172.1,676c-63.9-0.2-125.4,23.8-172.3,67.2c-104-94.3-264.7-86.4-359,17.6c-90.4,99.7-87.4,252.7,6.9,348.7l308,308
		c11.7,11.9,27.7,18.7,44.4,18.8c16.7-0.1,32.7-6.8,44.4-18.8l307-307.4c99.4-99.1,99.6-260,0.5-359.4
		C1304.4,702.9,1239.6,676,1172.1,676z M1311.7,1070.2l-307.2,307.4c-2.5,2.4-6.4,2.4-8.8,0l-307.8-307.8
		c-79-75.3-82.1-200.4-6.8-279.5c75.3-79,200.4-82.1,279.5-6.8c2.3,2.2,4.5,4.4,6.7,6.7l12.6,12.6c11.2,10.5,28.7,10.5,39.9,0
		l12.4-12.4c77.3-77.2,202.5-77.2,279.7,0.1C1389,867.8,1388.9,993,1311.7,1070.2z"/>
</g>
</svg>
