<?xml version="1.0" encoding="utf-8"?>
<!-- Generator: Adobe Illustrator 21.1.0, SVG Export Plug-In . SVG Version: 6.00 Build 0)  -->
<svg version="1.1" id="Layer_1" xmlns="http://www.w3.org/2000/svg" xmlns:xlink="http://www.w3.org/1999/xlink" x="0px" y="0px"
	 viewBox="0 0 2000 2000" style="enable-background:new 0 0 2000 2000;" xml:space="preserve">
<g>
	<path d="M522.5,1237.2c29.5-28.8,57.9-58.7,86.4-88.5c3.6-3.7,5.3-9.2,8-13.8c-1-1.5-2-3-3-4.5c-5.9,2-13.4,2.4-17.5,6.4
		c-37.6,35.7-74.3,72.2-111.8,108c-26.3,25.1-47.3,55.8-79.2,74.9c-2.6,1.6-4.8,3.9-7,6.1c-16.1,16.7-32.1,33.5-48.3,50.1
		c-18.6,19-37.2,38.1-56.3,56.6c-25.3,24.5-51.6,47.9-76.5,72.8c-16.7,16.7-31.8,35-47.6,52.6c1.3,2.2,2.7,4.3,4,6.5
		c7.4-3.3,16.3-4.9,21.8-10.2c30.2-28.9,59.4-58.7,89.2-88.1c44.2-43.6,88.4-87.3,133.1-130.4
		C452.3,1302.5,488.1,1270.6,522.5,1237.2z"/>
	<path d="M1205.7,895c-19.4,18.5-40.3,35.4-59.1,54.4c-27.8,28.3-54,58-81.3,86.7c-10.4,11-22,20.9-32.7,31.6
		c-1.8,1.8-3.3,5.7-2.6,7.8c0.7,2.1,4.4,3.2,8.7,5.9c7.5-5.1,15.8-9.3,22.2-15.5c26.4-25.6,52-51.9,78.2-77.6
		c17.5-17.1,35.9-33.4,53.4-50.6c10-9.8,18.4-21.2,28.3-31.1c22.7-22.7,46.4-44.6,68.6-67.8c3.8-4,2.6-12.8,3.7-19.4
		c-6,2.4-13.3,3.4-17.7,7.5C1251.8,849.2,1229.2,872.5,1205.7,895z"/>
	<path d="M610.5,662.6c2.3-2.5,3.6-5.8,5.6-9.1c-2.3-3.1-4-7.5-5.7-7.4c-4,0.1-9,1.2-11.8,3.9c-22.8,21.6-45.2,43.6-67.7,65.5
		C489.3,756,447.6,796.7,406,837.3c-8.3,8.1-16.6,16.4-24.7,24.7c-23.3,23.9-46.4,48.1-69.9,71.7c-30.4,30.5-61.5,60.2-91.7,90.9
		c-3.2,3.2-2.1,10.7-2.9,16.1c4.7-1.9,10.4-2.7,13.8-6c48.7-46.9,97.3-94,145.4-141.5c37.5-37,74-74.9,111.5-111.8
		c32.1-31.5,65.1-61.9,97.6-93C593.9,680.3,602.2,671.4,610.5,662.6z"/>
	<path d="M1259.1,608.3c-32.5,32.3-65.2,64.6-97.4,97.3c-9.6,9.7-17.1,21.6-27,30.9c-35.9,33.9-72.8,66.7-108.5,100.8
		c-27.1,25.9-52.8,53.3-79.4,79.7c-15.9,15.7-32.7,30.5-48.7,46.1c-23.1,22.6-45.9,45.5-68.7,68.3c-14.5,14.6-28.3,29.9-43.3,43.9
		c-29.4,27.5-60,53.9-89.1,81.7c-25.4,24.3-49.8,49.8-74.2,75.2c-19.5,20.2-37.5,42-57.8,61.5c-36.1,34.8-73.8,68-110,102.7
		c-24.3,23.3-47.2,48-70.4,72.3c-4.9,5-8.2,11.6-13.3,16.4c-20.5,19.6-41.5,38.7-62,58.3c-1.7,1.6-2.1,5.7-1.5,8.3
		c0.4,1.6,3.7,2.6,6.2,4.1c4.9-2.6,10.2-4.1,13.7-7.5c10.9-10.6,20.8-22.1,31.6-32.8c39.6-39.5,79.1-79.1,119.3-118
		c30.5-29.6,62.2-58,92.8-87.5c31.2-30,61.9-60.6,92.5-91.1c17.3-17.2,34.2-34.9,51.3-52.3c15.3-15.5,30.9-30.7,46-46.4
		c13.1-13.5,25.8-27.5,38.7-41.3c1.7-1.9,3.4-3.7,5.4-5.3c17-13.9,35.1-26.7,50.9-41.9c19.3-18.6,35.8-40,54.9-58.7
		c31.7-30.8,65-59.9,96.9-90.5c22.2-21.3,42.8-44.1,64.6-65.7c42.3-41.9,85-83.2,127.3-125c35.3-34.9,70-70.3,105.2-105.2
		c7.5-7.4,16.8-13.3,23.5-21.2c3.1-3.7,2.1-10.8,2.9-16.3c-5.9,1.9-13.4,2.1-17.5,5.9C1295.2,572.1,1277.3,590.3,1259.1,608.3z"/>
	<path d="M1861.3,155.2c-15.6-14-33-15.8-50.9-14.1c-29.1,2.7-59.4-11.7-87.3,5.9c-1.1,0.7-3.7,1.1-4.3,0.5
		c-15.6-15.1-33.8-8.9-52.1-8.2c-29.3,1.2-58.8-0.4-88.2-0.9c-7.2-0.1-14.4-0.7-21.5-0.7c-24.6-0.1-49.2,0.3-73.7,0
		c-19.2-0.2-38.4-2.1-57.5-1.8c-37.8,0.5-75.6,2.6-113.5,2.8c-27.2,0.1-54.5-2.6-81.8-2.7c-61.7-0.1-123.5,2.4-185.1,0.5
		c-39.5-1.2-78.8-6.2-118.1,1.6c-2.8,0.6-6-1.1-9.1-1.4c-21.2-1.9-42.3-4.7-63.4-5.3c-26.7-0.7-53.4,0.8-80,0.5
		c-25-0.3-50-2.1-75-2.5c-33.5-0.6-66.9-0.4-100.4-0.5c-23.9-0.1-47.9-0.1-71.8-0.3c-25.1-0.2-50.2-0.8-75.4-0.9
		c-12.6,0-25.2,1.4-37.7,0.9c-27.9-1.1-55.8-3.6-83.7-4.2c-32.8-0.7-65.7-0.2-98.5,0.1c-18.5,0.2-37.1,0-55.5,2
		c-6,0.6-14.1,6.7-16.2,12.2c-4.8,12.8-8.4,26.7-9.2,40.3c-1.5,27.5-0.4,55.1-1.1,82.7c-1.1,45.2-2.7,90.3-4,135.4
		c-1.2,43.8,1.1,87.6-3.6,131.6c-3.3,31.2,0.7,63.2,1,94.8c0.2,26-0.4,52.1-0.7,78.2c-0.5,35.3-1.1,70.6-1.4,105.9
		c-0.3,26.8,0.3,53.7-0.4,80.6c-0.7,28.4-3.2,56.8-3.6,85.3c-0.8,49.7-0.7,99.4-1,149.2c-0.2,34.9-0.6,69.7-0.9,104.6
		c-0.2,20.7-0.5,41.4-0.7,62.1c-0.4,30.1-0.7,60.3-1,90.4c-0.2,17.5,0,34.9-0.4,52.3c-0.1,8.7-1.5,17.4-1.6,26
		c-0.2,28-0.3,56,0.2,84c0.4,24.7-1.1,50,3.7,74c2.6,13.1,4.5,22.9-3,34c-2,3-1.4,8-1.4,12.1c-0.1,46.8-0.1,93.6-0.1,140.4
		c0.3,0,0.6,0,0.9,0c0,5.7-1.1,11.7,0.3,17c1.8,7.1,3.8,17.2,8.9,19.8c10.6,5.4,23.2,8.4,35.2,9.3c13.3,1,26.9-2.7,40.3-2.2
		c22.5,0.8,45,4.3,67.6,4.9c55.9,1.5,111.8,2.1,167.8,3c34.4,0.6,68.8,1.4,103.2,1.5c28.2,0.1,56.4-1.3,84.6-1
		c37.3,0.4,74.5,2.2,111.8,2.6c57.4,0.7,114.8,0.5,172.2,1.2c24.4,0.3,48.8,2.3,73.2,2.8c24.1,0.5,48.2-0.2,72.3,0.4
		c38.1,1,76.2,3.1,114.3,3.8c25.2,0.4,50.4-1.9,75.5-1.2c38.4,1,76.6,4.1,114.9,5.2c25.3,0.7,50.5-1,75.8-0.6
		c51.3,0.8,102.6,2.5,153.9,3.5c34.9,0.7,69.8,0.5,104.7,1.2c31.3,0.5,62.7,3.2,94,1.9c15.7-0.7,35.7,0.1,43.1-19.8
		c4.3-11.4,6.9-23.9,7.8-36.1c1.9-27.8,2.6-55.7,3.2-83.6c0.7-32.4,1.1-64.9,1-97.3c-0.1-55-1.3-110-0.9-165.1
		c0.3-44,2.8-88,3.3-132.1c0.5-44-0.6-88-0.4-132.1c0.1-32.6,1-65.2,1.7-97.9c0.4-20.9,1.8-41.8,1.7-62.6
		c-0.3-43.3-2.1-86.6-1.6-129.9c0.5-49.1,3.9-98.2,3.9-147.4c0.1-81.9-1.6-163.7-2.3-245.5c-0.2-26,0.1-51.9,0.7-77.9
		c0.8-32.3,2.4-64.6,3.1-96.9c1.3-58.5,2.5-117,3.1-175.5C1869.6,169,1869.2,162.3,1861.3,155.2z M1684.6,1748.6
		c4,0.2,8.4,1.6,11.7,0.2c5.6-2.3,11.2-5.7,15.4-10c20.5-20.8,40.4-42.1,60.8-63c4.3-4.4,9.1-8.7,14.5-11.4
		c13.3-6.7,23.7,0.6,23.3,15.5c-0.2,6.7,0,13.4,0,20.1c-1.2,0-2.4,0-3.7,0c0,34.4,0.4,68.9-0.2,103.3c-0.3,16.9-8.5,25.6-26.4,25.6
		c-38.9,0-77.7-1.9-116.5-2.1c-20-0.1-40,2.2-60,2.3c-21.4,0-42.8-0.8-64.1-2.6c-5.9-0.5-15.7-5.3-16.1-8.9
		c-0.6-6.7,2.5-15.8,7.3-20.5c42.8-41.3,86.9-81.2,129.4-122.8c35.4-34.7,69-71.3,103.9-106.6c7.8-7.9,17-14.7,26.3-20.8
		c9.3-6,19.5-0.7,19.6,10.2c0.3,16.3,2.4,33.4-1.9,48.7c-3.5,12.8-13.5,24.7-23,34.7c-25.6,26.4-52.4,51.6-78.8,77.3
		c-6.8,6.6-14.2,12.8-20.4,19.9C1683.8,1739.8,1684.9,1744.8,1684.6,1748.6z M1822.3,191.9c-1.4,29.5-0.1,59.2-3.8,88.4
		c-1.7,13.7-11.9,26.6-19.3,39.2c-6.1,10.4-13.8,19.9-21,29.6c-2.7,3.7-5.6,7.5-9.2,10.2c-15.1,10.9-30.5,21.4-45.6,32
		c11.4,17.9,11.8,17.3,23.5,2.4c6.1-7.8,15.9-12.5,23.1-19.6c9.1-9,16.8-19.4,26.1-28.2c3.6-3.4,9.9-5.6,14.9-5.4
		c2.5,0.1,6.8,6.5,6.9,10.2c0.7,16.4,1.4,33-0.3,49.3c-2.4,23.3-20.2,36.9-35.7,52.1c-30.5,29.8-59.7,61-90.1,90.9
		c-22.5,22.1-46.4,42.7-69,64.6c-13.7,13.3-25.8,28.2-39.2,41.9c-7.5,7.7-16.4,14-24.3,21.3c-2.2,2-4,5-4.7,7.9
		c-1.3,5.5-1.7,11.1-2.5,16.7c5.7-1.7,13-1.7,16.8-5.5c21.6-21,42.7-42.8,63.5-64.7c14-14.8,26.6-31,41.3-45.1
		c20.9-20.1,43.5-38.2,64.5-58.1c23.5-22.2,46-45.5,68.9-68.3c2.3,0.7,4.6,1.3,6.9,2c2.3,12.9,5.6,25.8,6.5,38.8
		c0.6,9-2.3,18.2-3.3,27.4c-2.9,27.9-26.9,39.8-43.4,57.2c-20.8,21.8-42.1,43-63.8,63.9c-20.5,19.7-41.8,38.7-62.7,58.1
		c-6.3,5.9-13.8,11.2-18.2,18.4c-17,27.5-46.7,41.9-66.7,66.3c-17.1,20.8-36.3,39.7-55.2,58.9c-8.1,8.2-18.6,14.2-26.9,22.3
		c-14.6,14.2-28.4,29.2-42.1,44.2c-2.1,2.3-2.3,6.3-3.4,9.6c0.9,1.5,1.7,2.9,2.6,4.4c7.1-3,15.9-4.3,21.2-9.3
		c24.5-23.4,47.8-48,71.9-71.7c13.1-12.8,29.2-23,40.1-37.4c25.9-34,62.2-56.7,90.9-87.4c10.5-11.3,19.5-24.1,29.9-35.5
		c9.4-10.3,19.7-19.7,29.7-29.2c24.2-22.9,48.3-45.9,72.8-68.4c4.1-3.7,12.6-8.6,15-6.9c4.6,3.2,8.8,10.5,8.9,16.2
		c0.4,18.5,1.7,37.7-2.8,55.3c-3.3,12.8-14.1,24.4-23.4,34.9c-16.7,18.8-34.6,36.6-52.4,54.5c-16.3,16.3-33.3,31.9-49.7,48
		c-29.4,28.9-58.9,57.8-87.6,87.4c-4.2,4.3-4.4,12.6-6.4,19.1c7-2.3,15.9-2.7,20.8-7.3c29.5-27.7,58-56.4,86.9-84.7
		c3-2.9,6.3-5.4,9.2-8.3c28.1-28.2,55.9-56.6,84.2-84.4c2.7-2.6,9.2-4,12.5-2.6c3.2,1.3,6.4,6.9,6.5,10.7c0.8,17.5,0.7,35,0.6,52.6
		c-0.4,57.1-0.8,114.3-1.4,171.4c-0.4,32.8-1.4,65.6-1.5,98.3c-0.2,46.1,0.7,92.3,0.3,138.4c-0.2,24.4-1.2,48.9-4.2,73
		c-1.2,9.2-8.1,18.3-14,26.2c-11.4,15.6-9.9,22.4,6.8,32.6c4.8,3,10,10.1,10,15.3c0.1,25.4,1,51.5-20.2,71.1
		c-9.6,8.9-18.9,18.1-28.2,27.3c-40.1,39.2-80,78.7-120.3,117.6c-25.7,24.8-52.6,48.3-77.8,73.4c-12.6,12.5-23,27.3-33.8,41.5
		c-2.1,2.7-0.9,7.8-1.2,11.7c4.7-0.1,11.1,1.8,13.8-0.6c21.2-18.8,41.7-38.3,62.2-57.8c25.1-24,50.1-48,74.8-72.5
		c14.7-14.6,28.3-30.2,42.7-45.1c19.9-20.5,39.8-41.2,60.7-60.7c4.4-4.1,13.7-5.7,19.8-4.2c3.2,0.7,5.5,10.5,5.9,16.3
		c1.1,13.3,4,27.8,0.2,39.8c-4.5,13.8-13.9,27.1-24,37.9c-20.6,22.1-43.1,42.6-65,63.5c-11.2,10.7-24.9,19.3-34.5,31.3
		c-37,46-87.9,77.2-126.7,121.4c-22.9,26-50.1,48.2-74.5,73c-11.3,11.6-24.1,14.4-39.2,14c-30.4-0.8-60.8-0.7-91.2-1.5
		c-39.9-1.1-79.7-2.8-119.6-3.9c-42.5-1.1-85-1.9-127.6-2.5c-16.3-0.3-32.6,1-48.8,0c-16.5-1-21.2-9.3-11.3-22.2
		c10.2-13.3,24.2-23.5,35.7-35.9c15.2-16.4,28.6-34.3,44.4-50c10.8-10.7,25.3-17.5,36.4-27.9c20.9-19.7,39.8-41.5,60.8-61.1
		c16.4-15.3,33.2-29.7,47.1-47.9c11.4-14.8,29-24.7,42.8-37.8c42-39.7,83.6-79.7,125-120c12.5-12.2,23.3-26,35.7-38.4
		c18.3-18.5,37.5-36.2,56-54.5c6.2-6.1,11.6-12.9,16.8-19.8c1.5-2.1,2.4-6.9,1.1-8.3c-2-2.2-6.8-4.3-9.1-3.3
		c-7.7,3.3-16.1,6.7-22,12.4c-19.7,18.6-38.5,38.1-57.4,57.5c-9.7,10-18.5,20.8-28.4,30.5c-24.9,24.5-50.4,48.2-75.1,72.9
		c-34,34-67.2,69-101.5,102.8c-26.5,26.1-54.2,51-81.2,76.7c-11.1,10.6-22.1,21.4-32.1,32.9c-3.3,3.8-3.4,10.3-5,15.5
		c-0.9-0.5-1.8-1.1-2.7-1.6c-9.2,7.2-18.9,13.9-27.5,21.7c-14.1,12.7-27.7,26-41.3,39.2c-18.8,18.3-37.4,36.7-56,55
		c-10.8,10.6-23.3,12.8-38.2,10.5c-12.8-1.9-26.2,0-39.2-0.7c-13.1-0.7-17.7-9.1-8.4-17.6c14.4-13.1,22.1-30.7,38-43.3
		c30.9-24.4,57.8-53.8,86.2-81.3c20.9-20.2,41.7-40.5,62.3-61c27.5-27.4,54.4-55.3,82.3-82.2c10.6-10.3,23.3-18.4,34.6-28.1
		c6.5-5.7,11.6-12.8,17.7-18.9c19.6-19.6,39.9-38.5,58.9-58.6c10-10.6,17.6-23.3,26.9-34.7c4.5-5.5,9.6-11.5,15.8-14.4
		c29.5-13.8,46.9-40.7,68.6-62.8c2.9-2.9-0.2-11.7-0.4-17.8c-2.3-0.8-4.5-1.7-6.8-2.5c-25.6,26.6-50.8,53.5-76.9,79.6
		c-22,22-44.9,43-67.2,64.7c-5.1,5-8.4,11.7-13.5,16.7c-4.6,4.5-10.5,7.6-15.5,11.6c-8.5,6.9-17.4,13.6-25.2,21.3
		c-22.4,22.2-44.3,44.9-66.4,67.5c-22.4,23-44.5,46.4-67.1,69.2c-10.4,10.5-21.8,19.9-32.4,30.2c-19.6,18.8-39,37.6-58.2,56.8
		c-3.5,3.4-5.1,8.7-8.5,12.3c-4,4.3-8.7,8.1-13.6,11.4c-4.9,3.4-11.5,5-15.4,9.2c-19.2,20.2-37.5,41.3-56.9,61.2
		c-5.1,5.2-13,10.4-19.9,10.8c-19.5,1.1-39.2,0.7-58.7-1c-14.5-1.2-15.3-5.5-8.3-18.9c7.8-15,15.8-29.2,32.1-37
		c3.6-1.7,4.9-7.3,8.1-10.3c7.6-7,15.6-13.6,23.5-20.1c6.3-5.2,13.4-9.6,19-15.3c26.3-27.2,51.6-55.2,78.3-81.9
		c13.7-13.7,29.6-25.1,44.4-37.7c3.5-3,8.7-5.9,9.6-9.7c1.3-5.6-0.4-12-0.9-18c-4.5,1.4-10.1,1.5-13.2,4.4
		c-18.4,17-37.4,33.6-54.1,52.3c-21.9,24.6-48.4,44-70.7,68.2c-21.3,23.1-45.8,43.2-67.9,65.5c-11.1,11.2-19.9,24.6-29.7,37
		c-10.7,13.5-24.8,20.7-41.9,20.7c-17.1,0-34.1-0.2-51.1-1.4c-4.3-0.3-10.7-3.5-12-7c-1.4-3.6,0.5-10.6,3.5-13.6
		c30.2-29.9,61.1-59.2,91.5-88.9c9.7-9.5,18.6-19.9,28.4-29.4c10.3-10,21.6-18.8,31.5-29.1c5.5-5.7,9-13.3,13.4-20
		c-1.5-1.7-3.1-3.4-4.6-5.2c-5,1.9-11.1,2.6-14.8,6c-21.1,19.6-41.5,39.9-62.5,59.8c-24.2,23-48.8,45.7-73.1,68.7
		c-13,12.3-27.5,23.7-38.3,37.8c-18.4,24-43.4,21.3-68.4,21.1c-40.5-0.4-80.9-0.6-121.4-0.9c-17.2-0.1-34.4-0.1-51.6-0.2
		c-48.9-0.5-97.8-0.7-146.6-1.7c-32.2-0.7-64.3-2.4-96.5-4c-13.5-0.7-18.5-9.6-18.4-22.1c0.8-74.8,1.9-149.5,2.6-224.2
		c0.2-12.9,0.6-26-1.5-38.6c-4.6-27.4,6.7-47.2,25.7-65.4c38.8-37,76.6-75.1,115-112.4c18.6-18.1,37.8-35.6,56.7-53.4
		c9.6-9.1,19.3-18.2,28.7-27.6c7.4-7.3,8-14.9-1.3-23.3c-35.9,35-71.2,69.7-106.8,104.1c-22.7,22-45.9,43.4-68.8,65.2
		c-8.5,8.1-16.2,17.3-25.2,24.8c-4.2,3.5-14.4,7.1-15.6,5.6c-4.6-5.8-8.7-13.5-9.3-20.7c-0.8-11.5,2.1-23.2,2.3-34.8
		c0.8-42.1,1-84.2,1.8-126.3c0.2-10.6,1.8-21.2,3.2-31.7c0.4-2.8,1.8-6.7,3.9-7.7c24.4-11.2,37.5-34.5,56.3-51.7
		c33.5-30.6,66.7-61.6,99.3-93.2c20.5-19.9,39.4-41.6,59.5-61.9c21.9-22.1,44.3-43.7,66.6-65.5c40.4-39.5,80.9-78.8,121.2-118.4
		c4-3.9,7.4-8.8,9.8-13.8c1.9-3.9,1.8-8.8,2.6-13.3c-4.6,1.1-10.7,0.6-13.7,3.4c-23.9,22-47.3,44.5-70.5,67.1
		c-12,11.7-23.4,24.2-35.5,35.9c-48.2,46.9-97,93.3-144.9,140.7c-37.2,36.8-73.2,74.9-109.9,112.1c-8.3,8.4-17.1,16.5-26.6,23.4
		c-3.8,2.9-11.8,5-14.8,2.9c-4.1-2.9-7.1-10-7.1-15.3c0-26.9,0.6-53.9,1.9-80.8c0.8-17.2,3.8-34.3,4.7-51.5
		c0.9-16.7,0-33.5,0.5-50.2c0.1-4.9,0.8-11.8,3.9-14.2c11.3-8.6,24.3-15,35.5-23.6c10.8-8.3,20.4-18.3,30.2-27.9
		c23.8-23.1,47.6-46.3,71.2-69.7c21.8-21.7,43.1-44,65-65.5c20.9-20.5,42.7-40.1,63.5-60.6c18.9-18.6,37.2-37.9,55.2-57.3
		c3.2-3.4,4.1-8.9,6.1-13.4c-1.1-1-2.3-2-3.4-3c-5.4,2.1-12.1,2.9-16.1,6.7c-29.5,28-58.7,56.2-87.3,85c-30.6,30.7-60.1,62.6-91,93
		c-23.5,23-49.1,43.8-72.7,66.7c-17.5,17-33.3,35.9-52.5,56.8c-3.3-8.4-6.4-12.7-6.4-17c0.3-35.7,1.6-71.5,1.6-107.3
		c0-32-1.8-64.1-1.7-96.1c0.1-21.4,2.9-42.8,3.2-64.2c0.3-19.3-1.5-38.6-1.5-57.8c0-10,2.4-20.1,2.6-30.1c0.8-37.3,0.6-74.7,1.7-112
		c1.4-48.7,4.2-97.4,5.4-146.1c0.8-32.8-0.6-65.7,0-98.6c0.4-21.3,2-42.6,4.1-63.8c1.2-12.6,9-18,22.3-18c26-0.1,52.2-3.9,78.1-2.1
		c42.6,3,85.2,1.3,127.8,3c5.2,0.2,12.9,4.3,14.7,8.6c1.8,4.2-0.8,12.6-4.4,16.2c-19.2,19.3-39.5,37.5-59.2,56.3
		c-32.2,30.9-65.7,60.6-95.9,93.4c-20.7,22.4-43.4,43.1-61.7,67.6c-2.3,3-2.5,7.5-3.6,11.3c4.1,0.4,8.7,2.3,12.1,0.9
		c6.1-2.5,12.1-6.1,16.7-10.6c30.2-29.3,60.1-58.7,89.8-88.5c26-26,51.3-52.8,77.5-78.7c23.2-23,47.1-45.2,70.8-67.7
		c1.7-1.6,4-3.6,6.2-3.8c15.8-1.1,31.8-2.8,47.6-2.2c5.4,0.2,13.8,5.6,15,10.1c1.3,5.4-2.1,13.8-6.1,18.4
		c-12.2,13.9-25.6,26.6-38.6,39.8c-18.8,19.1-37.3,38.4-56.4,57.1c-30.7,29.9-62.1,59.1-92.5,89.4c-7.5,7.6-12.1,18.1-18.1,27.3
		c1.3,1.4,2.7,2.9,4,4.3c8.1-5.1,17.3-9.2,24.1-15.6c28.9-27.6,57.1-56,85.8-83.8c31-29.9,62.4-59.3,93.5-89.1
		c6.3-6,12.4-12.3,17.7-19.2c25.7-33.2,61-39.9,99.8-36.3c3,0.3,6.9,4.5,8,7.8c1.1,3,0.4,8.5-1.7,10.6c-17.8,17.1-36.4,33.2-54,50.5
		c-20.2,20-39.5,41-59.4,61.3c-16,16.3-32.6,32.1-48.6,48.4c-7.1,7.3-13.1,15.7-20.4,22.8c-7.9,7.7-17,14.2-25.2,21.6
		c-12,11-23.5,22.6-35.4,33.7c-18.8,17.7-38.2,34.8-56.6,52.9c-16.7,16.5-32.1,34.2-48.5,51c-12.1,12.4-25.2,24-37.6,36.2
		c-4.4,4.3-9.1,8.9-11.4,14.3c-1.3,3,0.9,9.1,3.6,11.7c2,2,8.9,2.4,10.8,0.5c11.1-11,20.9-23.1,31.9-34.2c13-13.1,26.8-25.4,40-38.3
		c10.3-9.9,20.1-20.3,30.4-30.2c24.6-23.7,49.7-46.8,73.6-71.2c9.3-9.4,15.8-21.5,26.1-35.8c24.5-2.8,38.5-28.1,57.7-46.5
		c11.7-11.3,23.7-22.3,35.4-33.5c10.8-10.2,21.5-20.5,32.2-30.9c29.8-29.1,58.7-59.1,89.7-86.9c9-8.1,23.4-13.6,35.7-14.3
		c27.1-1.6,54.5,0.9,81.8,0.9c26,0,52-2.2,77.9-1.6c28.2,0.6,56.3,4.5,84.4,4.9c28.6,0.4,57.3-1.6,85.9-2.5
		c6.1-0.2,12.7-1.5,18.1,0.5c5.2,1.9,10.9,6.6,12.8,11.5c1.4,3.7-1.4,11.1-4.7,14.3c-22.2,21.2-45.2,41.6-67.6,62.6
		c-17.3,16.1-34.5,32.4-50.9,49.4c-6.7,7-15.7,14.7-6.3,30c6.4-4.2,13.3-7.6,18.6-12.5c15.3-14.2,30-28.9,44.8-43.6
		c16.6-16.6,32.8-33.7,49.7-50c18.3-17.7,36-36.6,56.6-51.2c9.7-6.9,25.5-5.5,38.6-7c7.1-0.9,14.5-0.6,21.7,0.1
		c5.2,0.5,10.4,2.4,15.6,3.7c-1.4,5.6-1.1,13-4.6,16.6c-16.2,16.2-26,37.8-49,48.9c-14,6.7-22,25.2-34,37.1
		c-29.2,28.8-59.2,56.6-88.8,85.1c-18.7,18-37.1,36.4-55.4,54.8c-11.5,11.6-22.6,23.5-33.4,35.6c-2,2.3-1.8,6.5-4,15
		c10.2-4.2,17.9-5.4,22.8-9.7c26.6-23.9,52.9-48.2,78.6-73.1c29.2-28.4,57.7-57.6,86.4-86.6c22.8-23,45-46.7,68.3-69.3
		c17.3-16.8,35.9-32.4,53.7-48.6c10.2-9.3,60.1-15.6,72.1-8.9c9.7,5.5,10.8,15.3,3.1,24.9c-11.4,14.2-21.9,29.2-34.2,42.6
		c-6,6.5-15.9,9.1-22.7,15c-12,10.2-23.3,21.4-34.5,32.5c-28.6,28.4-56.7,57.4-85.7,85.5c-21.3,20.6-44.2,39.5-65.4,60.1
		c-26.8,26-52.7,53.1-78.8,79.8c-2.8,2.9-5.6,6.6-6.5,10.3c-1,3.9,0.3,8.4,0.5,12.6c4-0.8,9.3-0.2,11.9-2.6
		c29.4-27,58.6-54.2,87.3-82c33.4-32.5,66.3-65.6,99.2-98.5c31.2-31.2,61.7-63,93.4-93.5c30.7-29.6,62.5-58,94-86.8
		c1.8-1.6,4.7-3.2,7-3.1c18.4,0.9,36.9,1.2,55.1,3.7c10.8,1.5,13.1,12.4,4.6,21.4c-14.9,15.7-30.6,30.6-46.2,45.6
		c-15.5,15-31.4,29.5-46.9,44.5c-26.1,25.3-52.1,50.7-77.9,76.3c-5.4,5.3-9.3,12-14.5,17.6c-5,5.4-10.8,10.1-16.3,15
		c-9.3,8.4-19.2,16.3-28,25.3c-19.2,19.5-37.4,40.1-56.9,59.3c-15.6,15.4-33.1,28.9-48.9,44.1c-24.3,23.5-47.6,48.2-72,71.8
		c-13.8,13.4-28.9,25.3-42.9,38.5c-9,8.6-16.6,18.8-25.5,27.7c-19.2,19.3-39.3,37.8-57.9,57.7c-3.7,4-2.6,12.6-3.6,19.1
		c5.6-1.7,12.8-1.7,16.5-5.4c13.1-12.8,24.6-27.3,37.6-40.1c10.4-10.3,22.8-18.5,33.2-28.7c27.1-26.3,53.5-53.5,80.7-79.7
		c22.8-21.9,46.5-42.9,69.6-64.6c5.6-5.2,9.9-11.9,15.4-17.3c8.2-8,16.8-15.6,25.3-23.3c1.9-1.7,4.1-3.1,5.9-4.9
		c38.9-38.5,77.9-76.8,116.6-115.5c22.3-22.2,43.8-45.2,66.1-67.4c24.1-23.9,48.8-47.1,73.2-70.8c9.2-8.9,19.4-17.2,26.8-27.5
		c15.1-21.1,35.9-20.7,58.2-19.7c24.8,1.2,49.8,2.4,74.5,0.6c33.1-2.3,66-1.2,99,0.1c28.5,1.1,57.1-1.3,85.6-1.2
		C1810.7,160.4,1823.6,164.9,1822.3,191.9z"/>
	<path d="M1709,1382.9c4.9-0.8,11.3,0,14.4-2.8c14.8-13.5,28.9-27.8,42.8-42.3c6.5-6.8,12.2-14.5,18.3-21.8c-0.8-2-1.6-3.9-2.4-5.9
		c-6.4,1.2-14.8,0.2-18.7,3.9c-18.6,17.5-36.3,36.1-53.6,55C1707.3,1371.8,1709.1,1378.2,1709,1382.9z"/>
	<path d="M1316,669.5c-2,1.2-3,4.1-4.8,5.8c-23.2,22.4-46.4,44.7-69.7,67c-11.3,10.8-20.6,23.2-30.4,35.2
		c-16.8,20.5-41.3,34.5-60.9,52.9c-31.8,29.9-62.3,61.1-93.3,91.8c-26.1,26-52,52.3-78.1,78.4c-28.9,28.8-57.9,57.7-87.2,86.1
		c-11.8,11.4-25.1,21.2-36.7,32.7c-37.4,37.1-74.5,74.7-111.6,112.2c-7.5,7.6-14.2,15.9-21.7,23.5c-17.5,17.7-35.2,35.1-52.8,52.8
		c-1.4,1.4-3.5,3.9-3.1,5.1c1.2,3.8,3.6,7.3,5.9,11.7c4.1-2.5,6.5-3.5,8.2-5.2c39.2-38.3,78.4-76.7,117.5-115.2
		c11.3-11.1,21.6-23.2,33.1-34c16.8-15.8,35-30.2,51.4-46.4c24.1-23.7,46.8-48.8,70.7-72.6c17.2-17.1,36.1-32.5,53.3-49.7
		c49.2-49.3,97.8-99.1,146.5-148.9c14-14.3,27.5-29.2,40.8-44.1c8.4-9.4,14.4-23.9,24.8-28.1c21.6-8.7,34.1-26.3,49.4-41
		c20.7-19.8,39.7-41.3,58.8-62.5c2-2.2,0.4-7.6,0.4-11.5C1323.1,666.8,1319.3,667.6,1316,669.5z"/>
</g>
</svg>
