<?xml version="1.0" encoding="utf-8"?>
<!-- Generator: Adobe Illustrator 18.1.1, SVG Export Plug-In . SVG Version: 6.00 Build 0)  -->
<svg version="1.1" id="Layer_1" xmlns="http://www.w3.org/2000/svg" xmlns:xlink="http://www.w3.org/1999/xlink" x="0px" y="0px"
	 viewBox="0 0 2000 2000" enable-background="new 0 0 2000 2000" xml:space="preserve">
<g>
	<path fill="#010101" d="M1000.8,308.9c-264.1,0-503.1,35.1-677.1,93.8c-87.8,29.8-159.6,64.1-210.7,104.5
		c-50.4,40.4-82.5,88.5-82.5,141.2l0.8,95.4c0,52.6,31.3,99.9,81.7,140.4c51.2,40.4,122.9,75.6,210.7,105.3
		c153.5,51.1,356.5,85.5,582.5,92.3v337.3c-58,5.3-110.7,15.3-154.2,29.8c-32.1,10.7-58.8,23.6-79.4,39.7
		c-19.8,16-34.4,37.4-34.4,61.8v87c0,24.4,14.5,45,34.4,61c20.6,16,47.3,29,79.4,39.7c64.9,22.1,152.7,35.1,248.9,35.1
		c96.2,0,182.5-13,247.3-35.1c32.8-10.7,59.6-23.6,80.2-39.7c19.8-16,34.4-36.7,34.4-61v-87c0-24.4-14.5-45.8-34.4-61.8
		c-20.6-16-47.3-29-80.2-39.7c-42.7-14.5-95.4-24.4-154.2-29.8v-337.3c226.7-6.9,429.8-41.2,583.2-92.3
		c87.8-29.8,158.8-64.8,210-105.3c50.3-40.4,82.4-87.7,82.4-140.4v-97.7c-0.8-51.9-32.8-99.2-82.4-138.9
		c-51.2-40.4-122.1-74.8-210-104.5C1502.3,344,1264.1,308.9,1000.8,308.9L1000.8,308.9z M1000.8,351.6
		c259.6,0,494.7,35.9,663.4,92.3c84,28.2,151.2,61.8,196.2,97.7c43.5,34.3,64.1,68.7,66.4,103c-0.7,1.5-0.7,3.1,0,3.8v6.9
		c-3,32.8-24.4,67.1-66.4,100.7c-45.1,35.1-112.3,68.7-196.2,96.9c-168.7,57.2-403.8,92.3-663.4,92.3s-495.5-35.1-664.2-92.3
		c-84-28.2-151.2-61.8-196.2-96.9C95.3,720.1,74,683.5,74,648.4c0-0.8,0-2.3,0-3.8c1.5-34.3,22.9-68.7,66.4-103
		c45.1-35.9,112.2-69.5,196.2-97.7C505.3,387.5,741.2,351.6,1000.8,351.6L1000.8,351.6z M1926,752.2c-3.1,32.8-24.4,65.6-65.7,98.4
		c-45.1,35.9-112.3,69.5-196.2,97.7c-168.7,56.5-403.8,92.3-663.4,92.3s-495.5-35.9-664.2-92.3c-84-28.2-151.2-61.8-196.2-97.7
		c-41.2-32.8-61.8-64.9-65.7-96.9c11.4,12.2,23.7,24.4,38.2,35.9c51.2,41.2,122.9,75.6,210.7,104.5c174.1,58.7,413,95.4,677.2,95.4
		c263.4,0,501.6-36.6,676.4-95.4c87.8-29,158.8-63.3,210-104.5C1901.6,778.2,1914.6,765.2,1926,752.2L1926,752.2z M949.6,1082.6
		c16.8,0.8,33.6,0.8,51.2,0.8c16.8,0,33.6,0,50.4-0.8v450.9c0,1.5-1.5,5.3-10.7,10.7c-9.2,5.3-23.6,9.1-40.4,9.1s-30.5-3.8-39.7-9.1
		c-9.2-5.3-10.7-9.2-10.7-10.7V1082.6z M906.1,1462.6v70.9c0,21.4,14.5,38.1,32.1,48.8c16.8,9.9,38.2,14.5,61.8,14.5
		c23.7,0,45.1-4.6,62.6-14.5c17.6-10.7,31.3-27.5,31.3-48.8v-70.9c54.2,5.3,103,14.5,141.2,27.5c29,9.9,51.9,21.4,66.4,32.8
		c14.5,11.4,18.4,20.6,18.4,27.5c0,6.9-3.9,16-18.4,27.5c-14.4,11.4-37.4,23.6-66.4,32.8c-58.8,19.8-142,32.8-234.4,32.8
		s-176.3-13-235.1-32.8c-29-9.2-52.7-21.4-66.4-32.8c-14.5-11.5-18.3-20.6-18.3-27.5c0-6.9,3.8-16,18.3-27.5
		c13.7-11.5,37.4-22.9,66.4-32.8C803.8,1477.1,851.9,1467.9,906.1,1462.6L906.1,1462.6z M680.9,1616.7c19.1,13.7,42.7,25.9,71,35.1
		c64.9,22.1,152.7,34.3,248.9,34.3c96.2,0,182.5-12.2,247.3-34.3c29-9.2,52.7-21.4,71.8-35.1v20.6c0,6.9-4.6,16-19.1,27.5
		c-13.7,11.4-36.7,22.9-65.7,32.8c-58.8,19.8-142,32.8-234.4,32.8s-176.3-13-235.1-32.8c-29-9.9-51.9-21.4-65.7-32.8
		c-14.5-11.5-19.1-20.6-19.1-27.5L680.9,1616.7L680.9,1616.7z"/>
</g>
</svg>
