<?xml version="1.0" encoding="utf-8"?>
<!-- Generator: Adobe Illustrator 18.1.1, SVG Export Plug-In . SVG Version: 6.00 Build 0)  -->
<svg version="1.1" id="Layer_1" xmlns="http://www.w3.org/2000/svg" xmlns:xlink="http://www.w3.org/1999/xlink" x="0px" y="0px"
	 viewBox="0 0 2000 2000" enable-background="new 0 0 2000 2000" xml:space="preserve">
<g>
	<circle fill="#010101" cx="1597.6" cy="1198.6" r="74.7"/>
	<path fill="#010101" d="M1896.4,974.5h-74.7V675.7c0-82.5-66.9-149.4-149.4-149.4h-149.4V278.9c0-84.9-69.5-149.5-149.1-149.5
		c-14.2,0-28.7,2.1-43.2,6.4L135.4,494.4c-63.2,19-106.5,77.1-106.5,143.1v1084.1c0,82.5,66.9,149.4,149.4,149.4h1494
		c82.5,0,149.4-66.9,149.4-149.4v-298.8h74.7c41.3,0,74.7-33.4,74.7-74.7v-298.8C1971.1,1008,1937.7,974.5,1896.4,974.5z
		 M1352,207.4c7.2-2.2,14.5-3.2,21.8-3.2c35.8,0,74.4,28.6,74.4,74.8v247.4H288.8L1352,207.4z M1747,1721.5
		c0,41.2-33.5,74.7-74.7,74.7h-1494c-41.2,0-74.7-33.5-74.7-74.7V675.7c0-41.2,33.5-74.7,74.7-74.7h1494c41.2,0,74.7,33.5,74.7,74.7
		v298.8h-298.8c-41.3,0-74.7,33.4-74.7,74.7V1348c0,41.3,33.4,74.7,74.7,74.7H1747V1721.5z M1896.4,1348h-448.2v-298.8h448.2V1348z"
		/>
</g>
</svg>
