<?xml version="1.0" encoding="utf-8"?>
<!-- Generator: Adobe Illustrator 18.1.1, SVG Export Plug-In . SVG Version: 6.00 Build 0)  -->
<svg version="1.1" id="Layer_1" xmlns="http://www.w3.org/2000/svg" xmlns:xlink="http://www.w3.org/1999/xlink" x="0px" y="0px"
	 viewBox="0 0 2000 2000" enable-background="new 0 0 2000 2000" xml:space="preserve">
<g>
	<path fill="#010101" d="M1923,1374.2l0.1-24.3l0-0.2l0.9-171.1c0-0.2,0.1-0.3-0.1-0.5l2.7-543c0.6-108-75.8-202.2-181.6-224.2
		c-14.8-3.1-29.8-4.7-45-4.8L305.9,399C180.4,398.4,77.6,500.1,77,625.6l-2.8,543.5l-1.1,195.8c-0.4,107.8,76,202.3,181.8,224.2
		c14.8,3.1,29.8,4.5,45,4.6l1394.2,7.1C1819.6,1601.4,1922.4,1499.8,1923,1374.2z M1878.4,1327.1l-116.2-0.7l85.3-125.8l31.6,0.2
		L1878.4,1327.1z M462.2,1193.6l0.2,0l119.2,0.5l-85.3,125.9l-119.1-0.7L462.2,1193.6z M323.2,1319.1l-119.3-0.6l85.5-125.9
		l119.2,0.6L323.2,1319.1z M635.6,1194.3l118.9,0.7l-85.1,125.8l-0.2,0l-119-0.5L635.6,1194.3z M808.7,1195.3l118.9,0.7l-85.1,125.8
		l-0.2,0l-119-0.5L808.7,1195.3z M981.6,1196.1l119.3,0.6l-85.3,125.9l-119.3-0.6L981.6,1196.1z M1154.8,1197.1l119.2,0.5
		l-85.3,125.9l-119-0.7L1154.8,1197.1z M1327.9,1198l0.2,0l119,0.5l-85.3,125.9l-119-0.7L1327.9,1198z M1501,1198.9l119.2,0.6
		l-85.1,125.8l-0.2,0l-119.2-0.5L1501,1198.9z M1674.1,1199.7l119.1,0.7l-85.3,125.8l-119.2-0.5L1674.1,1199.7z M121.8,625.9
		c0.4-100.9,82.9-182.5,184-182L1700,451c12.1,0.1,24.3,1.4,36,3.8c85,17.6,146.4,93.4,145.9,179.9l-2.6,521.2l-42.3-0.1
		c-1.1,0-2.2,0.1-3.3,0.1l-169.8-1c-1.1-0.1-2.2,0.1-3.3,0l-169.8-1c-1.1,0-2.2,0.1-3.3,0.1l-169.9-0.8c-1.1-0.1-2.2-0.1-3.3,0
		l-169.8-1c-1.1-0.1-2.2,0.1-3.3,0l-169.8-1c-1.1,0-2.2,0.1-3.3,0.1l-169.6-0.9c-1.3-0.1-2.4-0.1-3.5,0l-169.8-0.8
		c-1.1,0-2.2,0.1-3.3,0l-169.8-0.9c-1.1,0-2.2,0.1-3.3,0l-169.8-1c-1.1-0.1-2.2,0.1-3.3,0l-156.4-1L121.8,625.9z M118.9,1191.8
		l116.2,0.7L150,1318.2l-31.7-0.2L118.9,1191.8z M1694.3,1556l-1394.3-7.2c-12.1,0-24.3-1.2-36.1-3.6c-85-17.6-146.4-93.4-146-180.1
		l0.1-2.2l40.3,0.1c0.4,0.1,0.9,0,1.3,0.1c1.4,0.1,2.7,0.2,4,0.1l167.8,0.7c0.3,0.1,0.9,0,1.3,0.1l4,0.1c0.4-0.1,0.8-0.2,1.1-0.1
		l168.7,0.9c1.1,0,2.2-0.1,3.3,0l168,0.8c0.4,0.1,0.9,0,1.3,0.1c1.4,0.1,2.7,0.2,4,0.1l167.6,0.7c0.4,0.1,0.9,0,1.3,0.1
		c1.4,0.1,2.7,0.2,4,0.1l170,0.8c1.1,0,2.2-0.1,3.3,0l169.6,0.9c1.3,0.1,2.3,0.1,3.5,0l167.8,0.7c0.2,0,0.3,0.1,0.5-0.1
		c0.7,0.1,1.4,0.3,2.2,0.3c0.9,0,1.8,0,2.7,0l169.7,0.7c1.1,0.1,2.2-0.1,3.3,0l169.8,0.9c1.1,0.1,2.2-0.1,3.3,0l156.2,0.9l-0.1,2
		C1877.5,1474.9,1795.2,1556.6,1694.3,1556z"/>
	<path fill="#010101" d="M398.4,720.1c20.6-20.4,32.1-47.6,32.2-76.5c0.2-51.5-36.1-96.3-86.3-106.8c-7-1.5-14.4-2.1-21.6-2.1
		c-59.9-0.3-108.7,48-109,107.9c-0.2,51.3,36.1,96.2,86.3,106.6c7,1.5,14.2,2.2,21.5,2.3C350.6,751.6,377.9,740.4,398.4,720.1z
		 M366.8,688.3c-12.2,12-28.2,18.3-45,18.3c-34.8-0.3-63.5-29.5-63.3-63.9c0.1-35,28.9-63.4,63.8-63.2c4.4,0,8.8,0.4,12.8,1.2
		c29.5,6.1,50.6,32.5,50.5,62.7C385.5,660.3,378.8,676.3,366.8,688.3z"/>
</g>
</svg>
