<?xml version="1.0" encoding="utf-8"?>
<!-- Generator: Adobe Illustrator 21.1.0, SVG Export Plug-In . SVG Version: 6.00 Build 0)  -->
<svg version="1.1" id="Layer_1" xmlns="http://www.w3.org/2000/svg" xmlns:xlink="http://www.w3.org/1999/xlink" x="0px" y="0px"
	 viewBox="0 0 2000 2000" style="enable-background:new 0 0 2000 2000;" xml:space="preserve">
<path d="M1994.2,1211.8v-123.4h-74.1l-344.8-237.8l290.4-271.4l-47.7-51l-13.7,12.8c-0.2-0.3-0.4-0.5-0.6-0.8
	c-39.7-41.9-106.1-43.7-148-4l-472.4,447.5h-1033c-40.3,0-73.2,32.8-73.2,73.2v31.5H6.8v123.4h142.9h101.9l-95,209.4h67.8
	l133.9-209.4h42.8h63h915h54.8h70l104.3,88.5c-9.9,18.4-15.6,39.5-15.6,61.9c0,72.1,58.5,130.6,130.6,130.6
	c72.1,0,130.6-58.5,130.6-130.6c0-72.1-58.5-130.6-130.6-130.6c-13,0-25.5,2-37.4,5.5l-18.2-25.2h25.8H1994.2z M1320.8,1088.5
	l232.6-217.3l315.1,217.3H1320.8z"/>
</svg>
