<?xml version="1.0" encoding="utf-8"?>
<!-- Generator: Adobe Illustrator 21.1.0, SVG Export Plug-In . SVG Version: 6.00 Build 0)  -->
<svg version="1.1" id="Layer_1" xmlns="http://www.w3.org/2000/svg" xmlns:xlink="http://www.w3.org/1999/xlink" x="0px" y="0px"
	 viewBox="0 0 2000 2000" style="enable-background:new 0 0 2000 2000;" xml:space="preserve">
<g>
	<path d="M154.4,1523.9h50.5l18.3,87.8H326l18.3-87.8h680.3v-399.8H154.4V1523.9z M234,1598.2l-18.3-87.8h-47.9v-372.9h843.3v372.9
		H333.5l-18.3,87.8H234z"/>
	<path d="M14.6,1225.6v196.7c0,56,45.5,101.5,101.5,101.5h6.7V1124h-6.7C60.1,1124.1,14.6,1169.7,14.6,1225.6z M28,1422.4v-196.7
		c0-22.9,8.8-44.5,24.7-61c15.1-15.7,35.2-25.1,56.7-26.8v372.3c-21.5-1.6-41.6-11-56.7-26.7C36.8,1467,28,1445.3,28,1422.4z"/>
	<path d="M1884.9,1124.1h-6.7v399.8h6.7c56,0,101.5-45.5,101.5-101.5v-196.7C1986.4,1169.7,1940.9,1124.1,1884.9,1124.1z
		 M1973,1225.6v196.7c0,22.9-8.8,44.6-24.7,61.1c-15.1,15.7-35.2,25.1-56.7,26.7v-372.4c21.5,1.6,41.6,11,56.7,26.7
		C1964.2,1181,1973,1202.7,1973,1225.6z"/>
	<path d="M1056,1523.9h607.6l18.3,87.8h102.9l18.3-87.8h43.6v-399.8H1056V1523.9z M1692.8,1598.2l-18.3-87.8h-605v-372.9h763.8
		v372.9h-41l-18.3,87.8H1692.8z"/>
	<path d="M1440.1,433.5H561V961h879.1V433.5z M574.4,947.6V446.9h852.3v500.7H574.4z"/>
	<path d="M1486.6,386.9H514.4v620.6h972.2V386.9z M1473.2,400.4v593.8H527.8V400.4H1473.2z"/>
	<path d="M857.4,1011.8l-53.5,55.5h393.1l-53.5-55.5H857.4z M835.6,1053.9l27.6-28.6H1138l27.6,28.6H835.6z"/>
	<path d="M626.1,1117.1H1375v-45.6H626.1V1117.1z M1361.6,1084.9v18.7H639.5v-18.7H1361.6z"/>
</g>
</svg>
