<?xml version="1.0" encoding="utf-8"?>
<!-- Generator: Adobe Illustrator 18.1.1, SVG Export Plug-In . SVG Version: 6.00 Build 0)  -->
<svg version="1.1" id="Layer_1" xmlns="http://www.w3.org/2000/svg" xmlns:xlink="http://www.w3.org/1999/xlink" x="0px" y="0px"
	 viewBox="0 0 2000 2000" enable-background="new 0 0 2000 2000" xml:space="preserve">
<g>
	<path fill="#010101" d="M1241.2,402.7c-14.3,4.5-28.8,5.7-42.7,3.4c-50.8-8.3-85.4-56.4-77.2-107.1c2.4-13.9,8-27.2,16.9-39.5
		c1.7-2.3,1.7-5.5,0-7.8c-1.7-2.4-4.7-3.3-7.5-2.5c-39,12.2-67.3,44.5-73.7,84.4c-9.5,58.1,30.1,113.1,88.2,122.6
		c5.7,0.9,11.4,1.4,17.1,1.4c33.8,0,66.1-16.6,86.3-44.4c1.7-2.4,1.7-5.5,0-7.9C1247.1,402.8,1244,401.8,1241.2,402.7z"/>
	<path fill="#010101" d="M968.6,897.8H1612c11.2,0,20.2-9,20.2-20.2V162.3c0-11.2-9-20.2-20.2-20.2H968.6c-11.2,0-20.2,9-20.2,20.2
		v715.3C948.4,888.8,957.4,897.8,968.6,897.8z M1349.6,182.5h242.2v163h-242.2V182.5z M1349.6,385.9h242.2v471.5h-242.2V385.9z
		 M988.8,182.5h320.4v674.9H988.8V182.5z"/>
	<path fill="#010101" d="M1837.7,1111.8c-1.6,0-3.1,0.2-3.2,0.3H916c-27.6,0-52.3,12.7-68.5,32.5c-16.3-19.8-41-32.5-68.6-32.5H750
		c10.4-15,16.6-33.1,16.6-52.6c0.1-24.8-9.6-48.1-27.1-65.6c-17.5-17.5-40.8-27.2-65.6-27.2l-194.3-0.1L322.1,841
		c-16.3-13-36.9-20.2-57.7-20.2c-19.1,0-37.1,6.2-52.4,16.7V599.2c0-11.2-9.1-20.2-20.2-20.2H93.7c-11.2,0-20.2,9-20.2,20.2v1238.4
		c0,11.2,9,20.2,20.2,20.2h98.1c11.2,0,20.2-9,20.2-20.2v-379h1256.7l115.3,71.2c3.2,2,6.9,3,10.6,3c2.2,0,4.4-0.4,6.5-1.1
		c5.7-1.9,10.2-6.3,12.4-11.9l23.3-61.2H1788v379c0,11.2,9.1,20.2,20.2,20.2h98.1c11.2,0,20.2-9.1,20.2-20.2v-637.2
		C1926.5,1151.6,1886.7,1111.8,1837.7,1111.8z M171.6,1817.5h-57.7v-1198h57.7V1817.5z M223.4,880.9c10-12.5,24.9-19.7,41-19.7
		c11.9,0,23.2,3.9,32.6,11.4l163,129.9c3.6,2.9,8,4.4,12.6,4.4l201.4,0.1c14,0,27.1,5.5,37,15.4c9.9,9.9,15.3,23,15.2,37
		c0,28.8-23.5,52.3-52.3,52.3l-229.1-0.1c-20.2,0-38.4-15.9-39.3-16.7L231.7,954.4C209.2,936.4,205.4,903.5,223.4,880.9z M212,990.4
		l150.5,121.7H212V990.4z M212,1152.5h566.9c26.7,0,48.4,21.7,48.4,48.4c0,11.2,9,20.2,20.2,20.2c11.2,0,20.2-9.1,20.2-20.2
		c0-26.7,21.7-48.4,48.3-48.4h57l315,194.5H212V1152.5z M212,1418.2v-30.8h1141.4l49.9,30.8H212z M1584.5,1482.7l-534.6-330.2h660.3
		L1584.5,1482.7z M1886.1,1817.5h-57.7v-358.8h57.7V1817.5z M1886.1,1418.2h-233.9l11.7-30.8h222.1V1418.2z M1886.1,1347h-206.7
		l74.1-194.6h82.1c1.1-0.1,2.1-0.2,2.1-0.3c26.7,0,48.4,21.7,48.4,48.4V1347z"/>
	<path fill="#010101" d="M1285.2,1731c-58.8,0-106.7,47.9-106.7,106.7c0,11.2,9,20.2,20.2,20.2h173c11.2,0,20.2-9.1,20.2-20.2
		C1392,1778.8,1344.1,1731,1285.2,1731z M1222.1,1817.5c8.6-26.7,33.6-46.1,63.1-46.1c29.5,0,54.6,19.4,63.2,46.1H1222.1z"/>
	<path fill="#010101" d="M1533.7,1731c-58.8,0-106.7,47.9-106.7,106.7c0,11.2,9.1,20.2,20.2,20.2h173c11.2,0,20.2-9.1,20.2-20.2
		C1640.4,1778.8,1592.6,1731,1533.7,1731z M1470.6,1817.5c8.5-26.7,33.6-46.1,63.1-46.1c29.5,0,54.6,19.4,63.2,46.1H1470.6z"/>
</g>
</svg>
