<?xml version="1.0" encoding="utf-8"?>
<!-- Generator: Adobe Illustrator 21.1.0, SVG Export Plug-In . SVG Version: 6.00 Build 0)  -->
<svg version="1.1" id="Layer_1" xmlns="http://www.w3.org/2000/svg" xmlns:xlink="http://www.w3.org/1999/xlink" x="0px" y="0px"
	 viewBox="0 0 2000 2000" style="enable-background:new 0 0 2000 2000;" xml:space="preserve">
<g>
	<path d="M1579.9,1148.8v314.3h13.2l13.1,127.6h59.7l13.1-127.6h206.7l13.1,127.6h59.7l13.1-127.6h9.5v-314.3H1579.9z
		 M1780.5,1211.3c9.6,0,17.5,7.1,17.5,15.8c0,8.7-7.8,15.8-17.5,15.8s-17.5-7.1-17.5-15.8C1763,1218.4,1770.9,1211.3,1780.5,1211.3z
		 M1780.5,1406.9c-9.6,0-17.5-7.1-17.5-15.8c0-8.7,7.8-15.8,17.5-15.8s17.5,7.1,17.5,15.8C1798,1399.9,1790.1,1406.9,1780.5,1406.9z
		 M1981.1,1317.8h-401.3v-18.6h401.3V1317.8z"/>
	<rect x="380.8" y="1386.2" width="1010.3" height="31.4"/>
	<rect x="87.2" y="1218.9" width="213.5" height="44"/>
	<rect x="87.2" y="1386.2" width="213.5" height="31.4"/>
	<path d="M380.8,1213.7v49.1h1010.3v-41.6c-5.7-4.7-13-7.6-20.9-7.6H380.8z"/>
	<path d="M300.7,479.8h-201c-4.5,0-8.6,1.2-12.5,2.8v81.4h213.5V479.8z"/>
	<path d="M312.5,575.7H75.3V409.5H18.9v1181.1h56.5v-61.5h237.2v61.5H369v-61.5h1034v61.5h56.5V409.5H312.5V575.7z M312.5,1429.5
		H75.3v-55.1h237.2V1429.5z M312.5,1274.7H75.3V1207h237.2V1274.7z M312.5,1175.6H75.3V999.3h237.2V1175.6z M312.5,967.9H75.3V791.6
		h237.2V967.9z M312.5,760.1H75.3v-84.7h237.2V760.1z M369,509.3h1034v66.5H369V509.3z M369,675.5h1034v599.2H369V675.5z
		 M369,1374.4h1034v55.1H369V1374.4z"/>
	<rect x="380.8" y="521.1" width="1010.3" height="42.8"/>
</g>
</svg>
