<?xml version="1.0" encoding="utf-8"?>
<!-- Generator: Adobe Illustrator 21.0.0, SVG Export Plug-In . SVG Version: 6.00 Build 0)  -->
<svg version="1.1" id="Layer_1" xmlns="http://www.w3.org/2000/svg" xmlns:xlink="http://www.w3.org/1999/xlink" x="0px" y="0px"
	 viewBox="0 0 2000 2000" style="enable-background:new 0 0 2000 2000;" xml:space="preserve">
<style type="text/css">
	.st0{fill:#424242;}
</style>
<g>
	<path class="st0" d="M1554.9,486.5v-32.5c0-21.7-17.6-39.3-39.3-39.3s-39.3,17.6-39.3,39.3v32.5c0,21.7,17.6,39.3,39.3,39.3
		S1554.9,508.2,1554.9,486.5z"/>
	<path class="st0" d="M1930.2,1432.4c-20.5-7-42.9,3.8-49.9,24.3c-80.9,234.7-401.6,369.3-879.9,369.3
		c-477.8,0-806.6-137.7-879.5-368.3c-6.5-20.7-28.7-32.1-49.3-25.6c-20.7,6.5-32.1,28.6-25.6,49.3c85,268.9,432.9,423.1,954.4,423.1
		c513.8,0,861.6-153.9,954.1-422.2C1961.6,1461.8,1950.7,1439.4,1930.2,1432.4z"/>
	<path class="st0" d="M524.6,1672.8c21.7,0,39.3-17.6,39.3-39.3c0-226.1,179.5-384,436.6-384c257.1,0,436.6,157.9,436.6,384
		c0,21.7,17.6,39.3,39.3,39.3c21.7,0,39.3-17.6,39.3-39.3c0-272.3-211.8-462.5-515.1-462.5c-303.3,0-515.1,190.2-515.1,462.5
		C485.3,1655.2,502.9,1672.8,524.6,1672.8z"/>
	<path class="st0" d="M485.2,877.3c-21.3-4.5-42,9.2-46.5,30.4l-136,649.4c-4.4,21.2,9.2,42,30.4,46.5c2.7,0.6,5.4,0.8,8.1,0.8
		c18.2,0,34.5-12.7,38.4-31.2l136-649.4C520,902.6,506.4,881.8,485.2,877.3z"/>
	<path class="st0" d="M148.9,1197c4.4,0,8.8-0.7,13.2-2.3c7.1-2.6,174.8-65.4,208.5-343.8c9.4-77.8,76.3-136.5,155.5-136.5h102.1h45
		c9.4,312.8,133.1,338.7,293,338.7c160.8,0,266.1-26.3,266.1-378V426.5c0-129.6,95.3-237.4,219.6-256.8l-3.1,118.5
		c-0.5,17.9,11.3,33.9,28.6,38.8l320.2,90.7c26.4,8.6,43.9,28.8,43.9,99.6c0,54.8-55.1,104.8-115.6,104.8c-0.7,0-1.4,0-2.2,0.1
		l-247.5,13.7c-11.4,0.6-21.9,6.2-28.9,15.2c-7,9-9.7,20.6-7.4,31.8l181.4,890c3.8,18.6,20.2,31.4,38.4,31.4c2.6,0,5.2-0.2,7.9-0.8
		c21.3-4.3,35-25.1,30.6-46.3l-172.4-845.5l201.2-11.2c102.9-0.6,193-86,193-183.3c0-38.9,0-142.3-99.6-174.7l-292.4-82.8l3.4-131.4
		c0.3-10.6-3.7-20.8-11.1-28.4c-7.4-7.6-17.5-11.9-28.1-11.9c-186.6,0-338.5,151.8-338.5,338.5v209.3h-153.4H832.9H628.3H526.1
		c-118.9,0-219.3,88.4-233.5,205.6c-27.3,226.4-151.1,277.1-157.2,279.4c-20.2,7.4-30.7,29.7-23.4,50.1
		C117.7,1187,132.8,1197,148.9,1197z M832.9,714.4h167.5h152.9c-5.5,260-68,260.2-187.2,260.2c-123.6,0-207.1-0.2-214.5-260.2H832.9
		z"/>
</g>
</svg>
