<?xml version="1.0" encoding="utf-8"?>
<!-- Generator: Adobe Illustrator 21.1.0, SVG Export Plug-In . SVG Version: 6.00 Build 0)  -->
<svg version="1.1" id="Layer_1" xmlns="http://www.w3.org/2000/svg" xmlns:xlink="http://www.w3.org/1999/xlink" x="0px" y="0px"
	 viewBox="0 0 2000 2000" style="enable-background:new 0 0 2000 2000;" xml:space="preserve">
<style type="text/css">
	.st0{fill:#48B2E8;}
</style>
<g>
	<path class="st0" d="M1772.2,1246.2c12.8,0,23.1-9.6,23.1-21.5c0-11.8-10.4-21.5-23.1-21.5s-23.1,9.6-23.1,21.5
		C1749.1,1236.5,1759.5,1246.2,1772.2,1246.2z M1772.2,1214.9c6.3,0,11.4,4.4,11.4,9.8c0,5.4-5.1,9.7-11.4,9.7
		c-6.3,0-11.4-4.4-11.4-9.7C1760.8,1219.3,1766,1214.9,1772.2,1214.9z"/>
	<path class="st0" d="M1772.2,1408.5c12.8,0,23.1-9.6,23.1-21.5c0-11.8-10.4-21.5-23.1-21.5s-23.1,9.6-23.1,21.5
		C1749.1,1398.9,1759.5,1408.5,1772.2,1408.5z M1772.2,1377.3c6.3,0,11.4,4.4,11.4,9.7s-5.1,9.8-11.4,9.8c-6.3,0-11.4-4.4-11.4-9.8
		S1766,1377.3,1772.2,1377.3z"/>
	<path class="st0" d="M1567.9,1141.4V1464h13.6l13,126.3h69.7l13-126.3h194l13,126.3h69.7l13-126.3h10v-322.6H1567.9z
		 M1579.6,1301.9h385.3v6.7h-385.3V1301.9z M1964.9,1452.3h-8.9l-13,126.3h-48.5l-13-126.3h-215.1l-13,126.3H1605l-13-126.3h-12.4
		v-132h385.3V1452.3z M1964.9,1290.2h-385.3v-137.1h385.3V1290.2z"/>
	<path class="st0" d="M1404.6,673H369.8v604.6h1034.8V673z M393.2,1254.2v-36.9h973.1c5.3,0,10.4,1.6,14.8,4.6v32.3H393.2z
		 M1392.9,1216.1l-2.2-1.7c-7.1-5.8-15.5-8.8-24.4-8.8H381.5V684.8h1011.4V1216.1z"/>
	<path class="st0" d="M1404.6,508.6H369.8v77.5h1034.8V508.6z M1381.2,562.7H393.2V532h987.9V562.7z"/>
	<path class="st0" d="M79.3,768.5h246.4V673H79.3V768.5z M91,684.8h223v72.1H91V684.8z"/>
	<path class="st0" d="M314,479.4H109.2c-4.7,0-9.3,1-14.6,3.2l-3.6,1.5v-74.2H23.4v1180.3H91v-60.8h223v60.8h67.6v-60.8h1011.4v60.8
		h67.6V409.9H314V479.4z M102.7,492.1c2.3-0.7,4.4-1,6.5-1h193.1v71.5H102.7V492.1z M325.7,421.7h1123.1v1156.9h-44.1v-60.8H369.8
		v60.8h-44.1v-60.8H79.3v60.8H35.1V421.7h44.1v164.4h246.4V421.7z"/>
	<path class="st0" d="M79.3,974.1h246.4V787.9H79.3V974.1z M91,799.6h223v162.7H91V799.6z"/>
	<path class="st0" d="M79.3,1430.8h246.4v-66.2H79.3V1430.8z M102.7,1388h199.6v19.4H102.7V1388z"/>
	<path class="st0" d="M1404.6,1364.5H369.8v66.2h1034.8V1364.5z M1381.2,1407.3H393.2V1388h987.9V1407.3z"/>
	<path class="st0" d="M79.3,1179.6h246.4V993.5H79.3V1179.6z M91,1005.2h223v162.7H91V1005.2z"/>
	<path class="st0" d="M79.3,1277.6h246.4V1199H79.3V1277.6z M102.7,1222.4h199.6v31.8H102.7V1222.4z"/>
</g>
</svg>
