<?xml version="1.0" encoding="utf-8"?>
<!-- Generator: Adobe Illustrator 21.0.0, SVG Export Plug-In . SVG Version: 6.00 Build 0)  -->
<svg version="1.1" id="Layer_1" xmlns="http://www.w3.org/2000/svg" xmlns:xlink="http://www.w3.org/1999/xlink" x="0px" y="0px"
	 viewBox="0 0 2000 2000" style="enable-background:new 0 0 2000 2000;" xml:space="preserve">
<style type="text/css">
	.st0{fill:#424242;}
</style>
<g>
	<path class="st0" d="M745.9,1051.7H304.7c-117.2,0-212.5,95.3-212.5,212.5v441.2c0,117.2,95.3,212.5,212.5,212.5h441.2
		c117.2,0,212.5-95.3,212.5-212.5v-441.2C958.3,1147,863,1051.7,745.9,1051.7z M873.4,1705.4c0,70.3-57.2,127.5-127.5,127.5H304.7
		c-70.3,0-127.5-57.2-127.5-127.5v-441.2c0-70.3,57.2-127.5,127.5-127.5h441.2c70.3,0,127.5,57.2,127.5,127.5V1705.4z"/>
	<path class="st0" d="M1720,1051.7h-441.2c-117.2,0-212.5,95.3-212.5,212.5v441.2c0,117.2,95.3,212.5,212.5,212.5H1720
		c117.2,0,212.5-95.3,212.5-212.5v-441.2C1932.4,1147,1837.1,1051.7,1720,1051.7z M1847.5,1705.4c0,70.3-57.2,127.5-127.5,127.5
		h-441.2c-70.3,0-127.5-57.2-127.5-127.5v-441.2c0-70.3,57.2-127.5,127.5-127.5H1720c70.3,0,127.5,57.2,127.5,127.5V1705.4z"/>
	<path class="st0" d="M751.9,990.3h441.2c117.2,0,212.5-95.3,212.5-212.5V336.7c0-117.2-95.3-212.5-212.5-212.5H751.9
		c-117.2,0-212.5,95.3-212.5,212.5v441.2C539.4,895,634.8,990.3,751.9,990.3z M624.4,336.7c0-70.3,57.2-127.5,127.5-127.5h441.2
		c70.3,0,127.5,57.2,127.5,127.5v441.2c0,70.3-57.2,127.5-127.5,127.5H751.9c-70.3,0-127.5-57.2-127.5-127.5V336.7z"/>
	<path class="st0" d="M781.2,779.4c3.2,0.7,6.4,1.1,9.5,1.1c19.4,0,36.9-13.3,41.4-33c8.3-36.1,17.8-71.9,27.9-106.2h130.6
		c23.5,0,42.5-19,42.5-42.5c0-23.5-19-42.5-42.5-42.5h-103c32.3-90.4,66.5-157,88.5-165.3c35.5,14,100.2,182,136.6,355.8
		c4.8,23,27.3,37.8,50.3,32.9c23-4.8,37.7-27.3,32.9-50.3c-33.1-158.2-105.7-423.6-219.7-423.6c-113.4,0-190.9,264.9-227,422.8
		C744,751.4,758.3,774.2,781.2,779.4z"/>
	<path class="st0" d="M660,1466.5c15.7-22.6,24.9-49.9,24.9-79.4c0-77.2-62.8-140-140-140H372c-23.5,0-42.5,19-42.5,42.5v389.8
		c0,23.5,19,42.5,42.5,42.5h209c77.2,0,139.9-62.8,139.9-140C721,1534,696.8,1491.7,660,1466.5z M581.1,1636.9H414.5v-304.8h130.4
		c30.3,0,55,24.7,55,55c0,30.3-24.7,54.9-55,54.9h-37.7c-23.5,0-42.5,19-42.5,42.5c0,23.5,19,42.5,42.5,42.5h73.9
		c30.3,0,55,24.7,55,55S611.4,1636.9,581.1,1636.9z"/>
	<path class="st0" d="M1704.2,1542.2c-20.6-11.3-46.4-3.8-57.7,16.7c-13.2,24-32.8,44.1-56.6,58.2c-73.1,43.2-167.8,18.8-210.9-54.3
		c-20.9-35.4-26.8-76.9-16.5-116.7c10.3-39.8,35.4-73.3,70.9-94.2c73.2-43.2,167.8-18.8,211,54.3c11.9,20.2,38,26.9,58.2,15
		c20.2-11.9,26.9-38,15-58.2c-67-113.4-213.9-151.3-327.3-84.3c-113.5,67-151.3,213.9-84.3,327.4c44.5,75.4,124.4,117.4,206.2,117.4
		c41.3,0,83.1-10.7,121.1-33.1c36.9-21.8,67.3-53,87.8-90.4C1732.3,1579.4,1724.8,1553.5,1704.2,1542.2z"/>
</g>
</svg>
