<?xml version="1.0" encoding="utf-8"?>
<!-- Generator: Adobe Illustrator 18.1.1, SVG Export Plug-In . SVG Version: 6.00 Build 0)  -->
<svg version="1.1" id="Layer_1" xmlns="http://www.w3.org/2000/svg" xmlns:xlink="http://www.w3.org/1999/xlink" x="0px" y="0px"
	 viewBox="0 0 2000 2000" enable-background="new 0 0 2000 2000" xml:space="preserve">
<g>
	<path fill="#010101" d="M1637,341.7c-4.8,0-9.6,0-12.8,0l0,0c-9.6,1.6-19.2,3.2-28.8,4.8L675,592.5h-95.9l0,0
		c-32,0-63.9,12.8-89.5,36.8L82.2,1036.8c-49.6,49.5-49.6,129.4,0,177.4L218,1349.9v-8c0,6.4,3.2,11.2,6.4,16l51.1,49.5l214.1,214.1
		c25.6,25.6,57.5,36.8,89.5,36.8h506.5h73.5h659.9c79.9,0,143.8-63.9,143.8-142.2V736.3c0-78.3-63.9-143.8-143.8-143.8h-9.6
		l-39.9-145.4l0,0C1753.6,384.8,1697.7,343.2,1637,341.7L1637,341.7z M1625.8,384.8L1625.8,384.8c47.9-3.2,91.1,27.2,103.8,73.5
		l35.2,134.2H839.6l767-204.5C1613,386.4,1619.4,384.8,1625.8,384.8L1625.8,384.8z M579.2,635.7h94.3c1.6,0,1.6,0,3.2,0h1116.9
		c0,0,1.6,0,3.2,0h22.4c55.9,0,100.7,44.7,100.7,100.7v779.8c0,55.9-44.8,100.7-100.7,100.7h-660h-73.5H579.2
		c-22.4,0-43.2-8-59.1-25.6l-214.1-214.1l0,0l-44.8-43.2v8c0-6.4-1.6-11.2-6.4-16l-142.2-142.2c-33.5-32-33.5-84.7,0-116.7
		L520,659.6C536,643.7,556.8,635.7,579.2,635.7L579.2,635.7L579.2,635.7z M480.1,971.2c-84.7,0-155,70.3-155,155
		c0,84.7,70.3,153.4,155,153.4c84.7,0,155-68.7,155-153.4C635.1,1041.5,564.8,971.2,480.1,971.2L480.1,971.2z M480.1,1014.4
		c62.3,0,111.9,49.6,111.9,111.9c0,62.3-49.5,111.8-111.9,111.8s-111.9-49.5-111.9-111.8C368.2,1063.9,417.8,1014.4,480.1,1014.4
		L480.1,1014.4z"/>
</g>
</svg>
