<?xml version="1.0" encoding="utf-8"?>
<!-- Generator: Adobe Illustrator 18.1.1, SVG Export Plug-In . SVG Version: 6.00 Build 0)  -->
<svg version="1.1" id="Layer_1" xmlns="http://www.w3.org/2000/svg" xmlns:xlink="http://www.w3.org/1999/xlink" x="0px" y="0px"
	 viewBox="0 0 2000 2000" enable-background="new 0 0 2000 2000" xml:space="preserve">
<path fill="#010101" d="M1556.1,627.7h-129.4V231.4c0-114-93-207.1-207.1-207.1H784.4c-114,0-207.1,93-207.1,207.1v396.3H445.5
	c-41.3,0-74.4,33.2-74.4,74.4s33.2,74.4,74.4,74.4h55v406.9c0,42.9,34,78.5,76,80.9v0.8h350.2v387.4l-335.7,27.5
	c-43.7,2.4-77.6,39.6-75.2,84.1c1.6,27.5,17,51,38.8,63.9c-19.4,15.4-32.4,38.8-32.4,65.5c0,46.1,37.2,82.5,83.3,82.5h41.3
	c46.1,0,82.5-37.2,82.5-82.5c0-25.9-12.1-48.5-29.9-63.9l212.7-21c5.7,8.1,12.1,16.2,20.2,21.8c-17.8,15.4-29.1,38-29.1,63.1
	c0,46.1,37.2,82.5,82.5,82.5h41.3c46.1,0,82.5-37.2,82.5-82.5c0-27.5-12.9-51-33.2-66.3c5.7-4.9,11.3-11.3,15.4-17.8l219.2,21.8
	c-17,15.4-28.3,37.2-28.3,62.3c0,46.1,37.2,82.5,82.5,82.5h41.3c46.1,0,82.5-37.2,82.5-82.5c0-30.7-17-57.4-42.1-72
	c17-13.8,28.3-34,29.1-57.4c2.4-43.7-31.5-81.7-75.2-84.1l-326-26.7v-388.2h350.2v-0.8h0.8c44.5,0,80.9-36.4,80.9-80.9V776.6h47.7
	c41.3,0,74.4-33.2,74.4-74.4S1597.3,627.7,1556.1,627.7z M646.1,1927.6h-40.4c-18.6,0-34.8-15.4-34.8-34c0-18.6,15.4-34,34.8-34
	h41.3c18.6,0,34,15.4,34,34C680.9,1912.2,665.5,1927.6,646.1,1927.6z M898.5,1760.9l-300.9,29.9c-17,0.8-31.5-12.9-32.4-29.9
	c-0.8-17,12.1-32.4,30.7-33.2l332.4-27.5C910.6,1715.6,899.3,1736.7,898.5,1760.9z M1441.2,1892.8c0,18.6-15.4,34-34,34H1366
	c-18.6,0-34-15.4-34-34c0-18.6,15.4-34,34-34h41.3C1425.9,1858.8,1441.2,1874.2,1441.2,1892.8z M1399.2,1727.8
	c17,0.8,30.7,15.4,29.9,33.2c-0.8,17-15.4,30.7-32.4,29.9l-291.2-28.3c-0.8-24.3-11.3-45.3-28.3-59.9L1399.2,1727.8z M784.4,73.7
	h435.2c87.4,0,158.5,71.2,158.5,158.5v398c-33.2,7.3-57.4,37.2-57.4,72s24.3,64.7,57.4,72v33.2c0,17.8-14.6,32.4-32.4,32.4H658.3
	c-17.8,0-32.4-14.6-32.4-32.4v-33.2c31.5-8.1,55.8-37.2,55.8-72s-23.5-63.1-55.8-72V231.4C625.9,144.1,697.1,73.7,784.4,73.7z
	 M1078.1,888.2v72H924.4v-72H1078.1z M445.5,728c-13.8,0-25.9-11.3-25.9-25.9s11.3-25.9,25.9-25.9h161.8c13.8,0,25.9,11.3,25.9,25.9
	S621.9,728,607.3,728H445.5z M549.9,1182.6V775.8h27.5v30.7c0,44.5,36.4,80.9,80.9,80.9h217.6v72h-91.4c-114,0-207.1,93-207.1,207.1
	v47.7C562,1212.5,549.9,1198.8,549.9,1182.6z M981.8,1729.4h41.3c18.6,0,34,15.4,34,34c0,18.6-15.4,34-34,34h-41.3
	c-18.6,0-34-15.4-34-34C947.8,1744.8,962.4,1729.4,981.8,1729.4z M976.1,1680.9v-416.6h51v416.6c-1.6,0-3.2,0-4.9,0H981
	C979.4,1680.9,977.8,1680.9,976.1,1680.9z M1026.3,1927.6h-40.4c-18.6,0-34-15.4-34-34c0-18.6,15.4-34,34-34h41.3
	c18.6,0,34,15.4,34,34C1061.1,1912.2,1045.7,1927.6,1026.3,1927.6z M1378.1,1215.8H625.9v-48.5c0-87.4,71.2-158.5,158.5-158.5h435.2
	c87.4,0,158.5,71.2,158.5,158.5L1378.1,1215.8L1378.1,1215.8z M1459.8,1182.6c0,17.8-14.6,32.4-32.4,32.4h-0.8v-47.7
	c0-114-93-207.1-207.1-207.1h-93v-72h219.2c44.5,0,80.9-36.4,80.9-80.9l1.6-30.7h31.5L1459.8,1182.6L1459.8,1182.6z M1556.1,728
	h-161.8c-13.8,0-25.9-11.3-25.9-25.9s11.3-25.9,25.9-25.9h161.8c13.8,0,25.9,11.3,25.9,25.9S1570.6,728,1556.1,728z"/>
</svg>
