<?xml version="1.0" encoding="utf-8"?>
<!-- Generator: Adobe Illustrator 22.0.1, SVG Export Plug-In . SVG Version: 6.00 Build 0)  -->
<svg version="1.1" id="Layer_1" xmlns="http://www.w3.org/2000/svg" xmlns:xlink="http://www.w3.org/1999/xlink" x="0px" y="0px"
	 viewBox="0 0 2000 2000" style="enable-background:new 0 0 2000 2000;" xml:space="preserve">
<style type="text/css">
	.st0{fill:#020203;}
</style>
<path class="st0" d="M1955.2,1000c19.5,0,35.4-15.8,35.4-35.4V858.5c0-19.5-15.8-35.4-35.4-35.4h-212.3c0-39.1-31.7-70.8-70.8-70.8
	h-70.8c-39.1,0-70.8,31.7-70.8,70.8h-234.9l-19.8-70.8h77.8c39.1,0,70.8-31.7,70.8-70.8V292.5c0-39.1-31.7-70.8-70.8-70.8H646.2
	c-39.1,0-70.8,31.7-70.8,70.8v389.1c0,39.1,31.7,70.8,70.8,70.8h66.5l-17.7,70.8H434c0-58.6-47.5-106.1-106.1-106.1h-35.4V374.9
	c0,0,0,0,0-2.5c-1.8-19.4,1.4-38.9,9.6-56.6c3.4-6.8,8.5-12.5,14.9-16.6c8.7-4.9,18.7-7.3,28.7-6.7c14.6-1.2,29.1,3.6,40,13.4
	c7,8,11.2,18.1,12,28.7c-55.3,19.5-84.2,80.2-64.7,135.4s80.2,84.2,135.4,64.7s84.2-80.2,64.7-135.4c-10.7-30.2-34.5-54-64.7-64.7
	c-1-28.8-12.3-56.3-31.8-77.5c-24.1-23.8-57-36.6-90.9-35.4c-23.1-0.5-45.9,5.5-65.8,17.3c-17,10.7-30.8,25.7-40,43.5
	c-14.3,29-20.5,61.2-18,93.4v341h-35.4c-58.6,0-106.1,47.5-106.1,106.1H44.8c-19.5,0-35.4,15.8-35.4,35.4v106.1
	c0,19.5,15.8,35.4,35.4,35.4H151v707.5H44.8c-19.5,0-35.4,15.8-35.4,35.4s15.8,35.4,35.4,35.4h1910.3c19.5,0,35.4-15.8,35.4-35.4
	s-15.8-35.4-35.4-35.4H1849V1000H1955.2z M434,398.6c19.5,0,35.4,15.8,35.4,35.4s-15.8,35.4-35.4,35.4s-35.4-15.8-35.4-35.4
	S414.4,398.6,434,398.6z M1919.8,893.9v35.4h-594.7l-9.9-35.4H1919.8z M646.2,681.6V292.5h707.5v389.1h-97.3l-35.4-123.5
	c-5.8-22.3-22.4-40.3-44.2-47.8c-119.5-42.8-250.2-42.8-369.7,0c-22.9,7.5-40.3,26.2-46.3,49.5l-30.4,121.7H646.2z M829.1,578
	c52.5-17.6,107.4-27.2,162.7-28.7c55.3,1,110.1,10.7,162.4,28.7l150.4,540.9c-87.5,35.9-180.7,55.6-275.2,58H994
	c-102.4-4.1-203.5-24.8-299.3-61.2L829.1,578z M883.6,1340.7l-112.5,185.7l59.4-243.4L883.6,1340.7z M947.6,1371.5h118.5
	l191.7,336.1H744.2L947.6,1371.5z M1129.5,1339.7l41-50.2l52.7,215.1L1129.5,1339.7z M1113.6,1247.7l-42.8,52.7H943l-49.2-52.7h86
	c24.1,0,48.1,0,70.8,0h62.3H1113.6z M186.3,787.8h141.5c19.5,0,35.4,15.8,35.4,35.4H151C151,803.6,166.8,787.8,186.3,787.8z
	 M80.2,929.3v-35.4h597.2l-9.2,35.4c-1.6-0.1-3.3-0.1-5,0H80.2z M257.1,1000v707.5h-35.4V1000H257.1z M327.8,1000h323l-24.8,99.4
	c-8.9,34.1,9.4,69.4,42.5,81.7c35.4,13.1,70.8,24.1,106.1,33.6l-121,492.8H327.8V1000z M1346.3,1707.6L1226.4,1219
	c36-9.8,71.5-21.6,106.1-35.4c32-13.2,48.9-48.5,39.3-81.7l-26.9-101.9h327.2v707.5H1346.3z M1778.3,1707.6h-35.4V1000h35.4V1707.6z
	"/>
</svg>
