<?xml version="1.0" encoding="utf-8"?>
<!-- Generator: Adobe Illustrator 21.1.0, SVG Export Plug-In . SVG Version: 6.00 Build 0)  -->
<svg version="1.1" id="Layer_1" xmlns="http://www.w3.org/2000/svg" xmlns:xlink="http://www.w3.org/1999/xlink" x="0px" y="0px"
	 viewBox="0 0 2000 2000" style="enable-background:new 0 0 2000 2000;" xml:space="preserve">
<g>
	<path d="M1047.4,1129c-11.6,1.8-24.4,3.3-37.8,4.6c3.3,13.7,9.8,41.4,18.6,77.8c39.8,165.9,123.7,356.2,134.5,360.3
		c19.9,7.5,22.6-4.3,22.6-4.3l-121-365.7L1047.4,1129z"/>
	<path d="M754.8,1201.7l-121,365.7c0,0,2.7,11.9,22.6,4.3c10.9-4.1,94.7-194.4,134.5-360.3c9.4-39.2,16.3-68,19.2-80.4
		c-13.4-1.7-26.1-3.6-37.5-5.8L754.8,1201.7z"/>
	<path d="M651.2,826.7l35.5-122.3c0.5-1.9,8.1-29.5,20.5-56.2H602.2l13.6-39.2h18.4v-61.2h-27.4c15.9-5.4,30-16.3,39.2-30.6
		c1.3-2-1.6-3.9-3.2-2.4c-9.7,9.1-18,18.2-30,24.5c-10.2,5.4-20.7,6.4-31.6,6.6c7.5-3.8,14.4-9.9,21-14.7c8-5.7,15.6-10,24.1-12.9
		c0.3,0,0.5-0.1,0.7-0.2c4.2-1.4,8.6-2.5,13.5-3.2c2.5-0.4,2-3.8,0-4.4c-3.7-1.2-7.7-1.5-11.7-1c1.4-9.3,1.5-18.6-2.5-27.4
		c0-0.1-0.1,0-0.1,0.1c0.9,4.1,1.3,8,1.3,11.9c-0.5-4-1.6-7.8-3.5-11.5c0.5-0.5,1.1-1.1,1.6-1.5c1.9-1.7-0.7-4.8-2.7-3.4
		c-2.6,1.9-5.7,5-7.5,8.4c0.2-6.9-0.2-13.7-0.8-19.8c-0.2-2.1-2.5-3.7-4.5-2.5c-4.6,2.8-8.8,6.4-12.5,10.5c0.9-11.5-1.4-23.5-3-34.7
		c-0.3-1.8-2.8-2-3.9-1c-7,6.5-11.5,14.8-14,24c-0.2,0.8,0.7,1.3,1.4,0.9c0.2,0.2,0.5,0.4,0.9,0.3c4.1-0.7,5.5-5.3,5.7-8.9
		c0-0.5-0.2-0.8-0.5-1c2-3.1,4.1-6,6.5-8.8c1.7,11.7,2.3,23,2.3,34.8c-6.1,8.3-10.7,18.2-13.6,28.6c-0.4-3.4-0.9-6.8-1.5-10
		c0.6-0.1,1.2-0.4,1.4-1.1c3.9-18.6-6.4-39.2-11.4-56.7c-0.6-2.2-3.3-2.5-4.9-1.2c-3.2,2.5-5.5,5.6-7.4,9c-1.5-6.7-5-13.5-9.9-17
		c-2.7-1.9-6.1-1.4-8.5,0.9c-3.9,3.8-4.6,10.9-4,15.9c0.2,1.3,1.9,1.6,2.4,0.3c1.2-3.2,3.2-16.9,8.8-11.8c5.2,4.8,6.4,12.3,8.3,18.8
		c-1.6,5.3-2.3,10.9-2.5,16.4c-2.5-7.1-5.6-13.9-9.1-20.4c-1-1.8-4-1.4-4.5,0.6c-1.3,4.7-2.6,9.6-3.6,14.7
		c-0.9-14.9-6.5-28.2-14.1-40.9c-0.6-0.9-1.8-1-2.6-0.3c-8.5,7.2-14.8,16.6-18.7,27c-0.2,0.6,0.7,1,1.1,0.6
		c6.4-7.7,12.5-15.7,18.6-23.6c7.3,11.7,12.1,24.4,14.1,38.1c0.1,0.6,0.9,0.7,1.3,0.4c-1.6,9.1-2,18.5,1.4,27c0.3,0.8,1.3,1.1,2,0.9
		c-0.2,2.2-0.3,4.4-0.2,6.6c0,1.1,1.6,1,1.7,0c0.4-6,1-12.1,1.1-18.1c0-0.8-1-0.9-1.4-0.3c0.3-8.1,1.1-16.1,2.8-24.1
		c6.1,12.6,8.7,24.7,10.5,38.3c-13.3,12.3-18.3,29-16.9,47.3c0.2,2.4,4,2.5,4,0c0-15.9,4-29,13.8-40.3c0.1,1,0.2,1.9,0.3,2.9
		c0.1,1.3,1.1,1.9,2.1,1.9c1.9,13.3,5,26.3-5.1,37.4c-0.1,0.1,0,0.2-0.1,0.3h-17.6c-0.5-25.1-11.2-45.3-23.9-66.7
		c-1.1-1.9-4.5-1.2-4.5,1.2c0.1,6.4,1,12.9,2,19.3c-1.4,4-2.3,8.3-2.9,12.5c-1-21.3-8.7-45.5-14.2-55.4c0.4-1.9,0.8-3.8,1.2-5.7
		c0.1-0.7-0.8-1.1-1.2-0.5c-16,25-19.6,68.2-5,94.4c0.4,0.6,0.9,0.9,1.5,0.9h-19.6c18.2-21.8-0.7-57.8-6.8-80.9
		c-0.5-1.7-3-2.4-4.2-1.1c-4,4.3-7.3,9.8-9.8,16c-2.5-16.8-14.4-32.1-25.2-44.3c-1.1-1.3-3-0.6-3.9,0.5c-5.7,7.2-12,15.7-9.1,25.2
		c-3.2-5.1-7.5-9.7-12-14.3c-0.8-0.8-2.6-1-3.4,0c-10.7,12.9-11.2,30.8-7,46.5c-6.5-9.9-13.7-19.5-21.1-29c-1.3-1.7-4.3-1.3-4.4,1.1
		c-0.1,30.4-0.9,64,28.5,80.3h-28.2v61.2h20.5l15.9,39.2H275.3L27,775.3v65.1h108.5v637.2h303.1V840.4h208.9
		C649.8,832,651.2,826.7,651.2,826.7z M407.3,463.3c1.9-8.1,4.5-14,9.3-20.3c12.5,14,20,27.9,24.4,46.3c-2.2,8-3.3,16.6-2.9,25
		c-0.5-1.3-1.1-2.6-1.6-3.9c-0.1-0.2-0.2-0.3-0.3-0.4c0.3-0.8,0.7-1.6,1-2.5c0.3-1.1-1.1-2.2-2.1-1.5c-1.9,1.4-3.7,3.2-5.4,5.3
		c0.3-15.6-2.5-31.9-2.6-48.3c0-2.3-2.8-3.1-4.4-1.7c-5.2,4.5-9.2,9.9-12.2,15.8c-0.6-4.9-2.3-9.3-4.8-13.3
		C406.1,464.2,407.1,464.2,407.3,463.3z M390.5,547.9c0-0.5,0.2-1-0.3-1.3c-27.3-15.1-28.1-44.5-28-72.1
		c17.3,23.2,30.7,45.8,39.6,73.4H390.5z M406.7,547.9c-3.8-16.1-10.5-30.8-18.9-44.6c0.9-0.3,1.5-1.1,1.1-2.2
		c-5-14.5-6.4-33.6,2.8-46.8c8.7,9,14.1,17,14.9,30.4c0,0.2,0.1,0.3,0.1,0.5c-6.9,19.8-4.8,43.7,1.2,62.8H406.7z M413.6,547.9h-2.4
		c-2.8-27.3-9.4-57.4,10.9-79.1c1.1,18.6,4,35.8,1.3,52.7c-2.6,5.7-4.4,12-5.2,17.8C417,542.2,415.3,545,413.6,547.9z M419.8,547.9
		c0.2-0.6,0.5-1.1,0.7-1.7c4.5-7.3,6.9-14.9,8.1-22.8c1.9-3.4,4.1-6.6,5.9-10c-0.2,3.8,1.4,7.6,2.9,11c3.3,7.2,6,13.8,7.3,21.7
		c0.2,1.2,2.1,1.1,2.3,0c0.2-0.7,0.2-1.4,0.3-2.1c0.8,1.1,1.7,2.3,2.7,3.3c1.7,1.8,4.7-0.4,3.4-2.5c-12.7-22.2-13-50.1,0.8-71.8
		c8.8,23.8,19.3,52,5.6,75H419.8z M486.6,544.6c-15-26.7-5.8-56.3,0.3-84.2c7.9,22.6,17.1,66-0.1,85.7
		C486.9,545.6,486.9,545.1,486.6,544.6z M512.6,543.7c-1.1-2-1.8-4.2-2.6-6.3c-0.8-2.2-3.9-1.3-3.5,0.9c0.5,2.9,1.4,6.8,3.4,9.6
		h-18.5c7.6-6,10.5-17.4,10.3-30.6c0.7,0.5,2.1,0.4,2.3-0.7c0.5-2.3,1.2-4.5,1.9-6.7c0.3,2,0.7,3.9,1,5.9c1.1,6.5,2.4,13.1,3.5,19.6
		c0.4,2.1,2.7,6.7,2.9,9.3C513.1,544.4,512.8,544.1,512.6,543.7z M515.3,547.9c-0.3-0.6-0.6-1.2-1-1.8c0.1-0.1,0.1-0.1,0.2-0.2
		c2.6-7-0.2-15.3-1.3-22.3c-1.2-7.8-2.9-15.6-4.1-23.5c0.3-0.9,0.6-1.7,0.8-2.6c0.3-1.1-0.5-1.8-1.4-2c-0.1-0.9-0.3-1.8-0.4-2.7
		c9.7,17.6,16,34.2,17.7,55.1H515.3z M555.4,494.7c-0.6-6.1-2-12.1-3.8-18c0.5-0.1,0.9-0.3,1-0.8c2.1-10.7,6-19,11.4-27.6
		c2.2,7,4.5,13.9,6.6,20.9c0.5,1.6,0.9,3.2,1.2,4.8c-0.4,0.5-0.8,1.1-1.2,1.6c-0.2-0.3-0.3-0.7-0.5-1.1c-0.9-1.6-4.1-1-3.8,1
		c0.2,1.8,0.5,3.7,0.8,5.5c-6,10.6-8.6,23-8.4,35.4c-1-4.4-2.1-8.7-3-12.5c0-1.1,0.1-2.2,0.1-3.2c0.6-0.6,1.2-1.3,1.9-1.9
		C559.9,497,557.7,494.4,555.4,494.7z M555.8,547.9c3.7-3.7,5.1-8.8,5.2-14.5c1.2,4.9,2.9,9.7,5,14.2c0.1,0.1,0.2,0.2,0.3,0.3H555.8
		z M567.9,544.8c-7.3-18.5-5.7-38,0.5-56.3C571.9,507.5,576.1,526.8,567.9,544.8z M614.7,494.1c1,0.4,2.2,0.1,2.5-1.2
		c0.6-2.4,1.9-4.7,3.5-6.8c1.9,7.7,1.1,15.5,2,23.4c0.1,0.5,0.3,0.9,0.5,1.2c-4.5,1.2-9.1,3-13.6,5.5
		C612.6,509.4,614,501.8,614.7,494.1z M608.8,471.7c1.2,17.2,0.6,40-11.5,52.6c-2.2,1.6-4.3,3.3-6.3,5c-1.3,0.8-2.8,1.5-4.3,2
		c-2,0.8-2.5,2.3-2.2,3.7c-1.8,1.7-3.5,3.4-5.1,5C581.1,515.6,589,486.2,608.8,471.7z"/>
	<path d="M1159.3,773.7c-0.3-1.2-24.6-102.9-49.7-140.5c-23.6-35.3-61.7-37-89.6-38.3l-7.4-0.3c-26.5-1.5-82.7-1.9-91.7-2
		c-9,0.1-65.2,0.6-91.7,2L822,595c-27.8,1.3-65.9,3-89.5,38.3c-25.1,37.5-49.4,139.3-49.6,140.3l-49.3,173
		c-0.2,0.7-15.4,54.6-23.6,85.4c1.8-0.8,3.6-1.6,5.7-1.9c10.5-1.6,21.8,5.2,34.2,19.5c43.3,49.9,125.6,73.3,258.4,73.3
		c3.1,0,6.2,0,9.4-0.1v0l3.1,0c0.1,0,0.2,0,0.2,0c0.1,0,0.2,0,0.2,0l3.1,0v0c3.1,0,6.3,0.1,9.4,0.1c132.9,0,215.1-23.4,258.4-73.3
		c12.4-14.3,24-20.8,34.2-19.5c2.1,0.3,3.9,1.1,5.7,1.9c-8.2-30.8-23.4-84.7-23.6-85.4L1159.3,773.7z"/>
	<path d="M443.2,468.1c3.1-10.8,6.1-20.3,12-29.6c10,12.8,14.8,29.2,16.6,45c0.2,1.6,2.8,1.7,2.7,0c-0.5-8.7-2.4-16.9-5.3-24.7
		c1,1.2,3.8,0.6,3.8-1.4c-0.1-7.6,2.5-15,6.2-21.6c3.9,4.5,7.6,9.2,10.7,14.3c3.5,5.8,5.4,12,7.6,18.2c-1,3-1.5,6-1,8.8
		c0.3,1.3,2.4,1.5,3,0.4c3.5-6.7,6.2-13.3,10.5-19.4c11.3,22.1,16.5,43,20.4,67.7c0.3,2,3.1,1.3,3.3-0.4c2.9-25.5-9-51.9-20.7-73.9
		c-0.8-1.5-3.4-1.9-4.5-0.6c-2.6,2.9-5.7,6.9-8.2,11.1c-3.5-12.2-11.5-23.3-19.7-32.5c-1.1-1.2-3.3-0.8-4.1,0.5
		c-5.2,8.2-9.1,17.7-7.8,27.5c-3.1-8.2-7.2-16.1-11.9-23.9c-0.7-1.2-2.4-1.3-3.4-0.4c-9.4,8-12.4,22.7-13.9,34.3
		C439.3,469.6,442.6,469.9,443.2,468.1z"/>
	<rect x="1403" y="1076.1" width="451.7" height="190.2"/>
	<rect x="1403" y="1279.3" width="451.7" height="151.7"/>
	<rect x="1403" y="871.9" width="451.7" height="191.1"/>
	<path d="M1681.5,648.2h-546.7c12.4,26.8,20,54.3,20.5,56.3l35.5,122.2c0,0,1.5,5.3,3.8,13.7h166.1v637.2h540.3V840.4h66.7l6.4-65.1
		L1681.5,648.2z M1865,1444.1h-472.3V861.6H1865V1444.1z"/>
</g>
</svg>
