<?xml version="1.0" encoding="utf-8"?>
<!-- Generator: Adobe Illustrator 18.1.1, SVG Export Plug-In . SVG Version: 6.00 Build 0)  -->
<svg version="1.1" id="Layer_1" xmlns="http://www.w3.org/2000/svg" xmlns:xlink="http://www.w3.org/1999/xlink" x="0px" y="0px"
	 viewBox="0 0 2000 2000" enable-background="new 0 0 2000 2000" xml:space="preserve">
<g>
	<path fill="#010101" d="M1492.1,311.9H463.2c-11.1,0-20,9-20,20s8.9,20,20,20h1028.9c11.1,0,20-9,20-20S1503.2,311.9,1492.1,311.9z
		"/>
	<path fill="#010101" d="M1492.1,549.2H463.2c-11.1,0-20,9-20,20s8.9,20,20,20h1028.9c11.1,0,20-9,20-20S1503.2,549.2,1492.1,549.2z
		"/>
	<path fill="#010101" d="M1512.2,806.4c0-11.1-8.9-20-20-20H463.2c-11.1,0-20,9-20,20c0,11.1,8.9,20,20,20h1028.9
		C1503.2,826.5,1512.2,817.5,1512.2,806.4z"/>
	<path fill="#010101" d="M463.2,1023.7c-11.1,0-20,9-20,20c0,11.1,8.9,20,20,20h486.2c11.1,0,20-9,20-20c0-11.1-8.9-20-20-20H463.2z
		"/>
	<path fill="#010101" d="M1430.4,1152.1c-221.9,0-401.8,179.9-401.8,401.8s179.9,401.8,401.8,401.8c221.9,0,401.8-179.9,401.8-401.8
		S1652.3,1152.1,1430.4,1152.1z M1430.4,1915.6c-199.5,0-361.8-162.3-361.8-361.8s162.3-361.8,361.8-361.8s361.8,162.3,361.8,361.8
		S1629.9,1915.6,1430.4,1915.6z"/>
	<path fill="#010101" d="M281.3,1819.7c-40.5,0-73.5-33-73.5-73.5V156.8c0-40.5,33-73.5,73.5-73.5h1362.4c40.5,0,73.5,33,73.5,73.5
		v1050.1c14.1,11.7,27.4,24.3,40.1,37.6V156.8c0-62.7-50.8-113.5-113.5-113.5H281.3c-62.7,0-113.5,50.8-113.5,113.5v1589.4
		c0,62.7,50.8,113.5,113.5,113.5h819.1c-11.8-12.7-22.8-26.1-33.1-40.1H281.3z"/>
	<path fill="#010101" d="M1660.2,1459l-146.4-21.3l-65.4-132.6c-3.4-6.8-10.3-11.2-18-11.2c-7.6,0-14.6,4.3-18,11.2l-65.5,132.6
		l-146.3,21.3c-7.6,1.1-13.8,6.4-16.2,13.6c-2.3,7.2-0.4,15.2,5.1,20.5l105.9,103.2l-25,145.8c-1.3,7.5,1.8,15.1,8,19.6
		c6.2,4.5,14.4,5.1,21.1,1.5l130.9-68.8l130.9,68.8c2.9,1.5,6.1,2.3,9.3,2.3c0.1,0,0.3,0,0.5,0c9.5-0.5,20.4-8.8,20.4-20
		c0-3.1-0.7-6.1-2-8.8l-24.1-140.4l105.9-103.2c5.5-5.3,7.4-13.3,5.1-20.5C1674,1465.3,1667.7,1460,1660.2,1459z M1529.9,1575
		c-4.7,4.6-6.9,11.2-5.7,17.7l19.9,116.1l-104.3-54.8c-2.9-1.5-6.1-2.3-9.3-2.3c-3.2,0-6.4,0.8-9.3,2.3l-104.3,54.8l19.9-116.1
		c1.1-6.5-1-13.1-5.7-17.7l-84.4-82.3l116.6-16.9c6.5-0.9,12.2-5,15.1-10.9l52.1-105.6l52.1,105.6c2.9,5.9,8.5,10,15.1,10.9
		l116.6,16.9L1529.9,1575z"/>
</g>
</svg>
