<?xml version="1.0" encoding="utf-8"?>
<!-- Generator: Adobe Illustrator 21.1.0, SVG Export Plug-In . SVG Version: 6.00 Build 0)  -->
<svg version="1.1" id="Layer_1" xmlns="http://www.w3.org/2000/svg" xmlns:xlink="http://www.w3.org/1999/xlink" x="0px" y="0px"
	 viewBox="0 0 2000 2000" style="enable-background:new 0 0 2000 2000;" xml:space="preserve">
<style type="text/css">
	.st0{fill-rule:evenodd;clip-rule:evenodd;}
</style>
<g>
	<path class="st0" d="M1112.2,333h91.4c13.8,0,25.1,15.2,25.1,33.8c0,18.6-11.3,33.8-25.1,33.8h-91.4c-7.1,0-13.5-4.1-18.1-10.6
		l3.5,35.1h23.8c13.8,0,25.1,15.2,25.1,33.8s-11.3,33.8-25.1,33.8h-17.1l3.4,35c1.5-0.4,2.9-1.2,4.5-1.2h91.4
		c13.8,0,25.1,15.2,25.1,33.8c0,18.6-11.3,33.8-25.1,33.8h-89.4l2.4,24.6h4.8c13.8,0,25.1,15.2,25.1,33.8
		c0,17.7-10.4,31.9-23.3,33.3l9.9,101.1h630.6l9.9-100.6h-80.4c-13.8,0-25.1-15.2-25.1-33.8c0-18.6,11.3-33.8,25.1-33.8h87l2.4-24.6
		h-7.2c-13.8,0-25.1-15.2-25.1-33.8c0-18.6,11.3-33.8,25.1-33.8h13.8l3.5-36c-2.6,1.2-5.3,2.2-8.2,2.2h-91.4
		c-13.8,0-25.1-15.2-25.1-33.8s11.3-33.8,25.1-33.8h91.4c5.3,0,9.9,2.7,14,6.5l3.1-31.1h-26.2c-13.8,0-25.1-15.2-25.1-33.8
		c0-18.6,11.3-33.8,25.1-33.8h32.8l10.3-104.4h-740.2l12,122.5C1094.5,340.5,1102.6,333,1112.2,333z M1195.7,492.6
		c-13.8,0-25.1-15.2-25.1-33.8s11.3-33.8,25.1-33.8h91.4c13.8,0,25.1,15.2,25.1,33.8s-11.3,33.8-25.1,33.8H1195.7z M1535.2,526.4
		c13.8,0,25.1,15.2,25.1,33.8c0,18.6-11.3,33.8-25.1,33.8h-91.4c-13.8,0-25.1-15.2-25.1-33.8c0-18.6,11.3-33.8,25.1-33.8H1535.2z
		 M1502.2,458.9c0-18.6,11.3-33.8,25.1-33.8h91.4c13.8,0,25.1,15.2,25.1,33.8s-11.3,33.8-25.1,33.8h-91.4
		C1513.5,492.6,1502.2,477.4,1502.2,458.9z M1452.9,492.6h-91.4c-13.8,0-25.1-15.2-25.1-33.8s11.3-33.8,25.1-33.8h91.4
		c13.8,0,25.1,15.2,25.1,33.8S1466.7,492.6,1452.9,492.6z M1369.3,526.4c13.8,0,25.1,15.2,25.1,33.8c0,18.6-11.3,33.8-25.1,33.8
		H1278c-13.8,0-25.1-15.2-25.1-33.8c0-18.6,11.3-33.8,25.1-33.8H1369.3z M1287.1,686h-91.4c-13.8,0-25.1-15.2-25.1-33.8
		c0-18.6,11.3-33.8,25.1-33.8h91.4c13.8,0,25.1,15.2,25.1,33.8C1312.2,670.8,1300.9,686,1287.1,686z M1452.9,686h-91.4
		c-13.8,0-25.1-15.2-25.1-33.8c0-18.6,11.3-33.8,25.1-33.8h91.4c13.8,0,25.1,15.2,25.1,33.8C1478,670.8,1466.7,686,1452.9,686z
		 M1618.7,686h-91.4c-13.8,0-25.1-15.2-25.1-33.8c0-18.6,11.3-33.8,25.1-33.8h91.4c13.8,0,25.1,15.2,25.1,33.8
		C1643.8,670.8,1632.5,686,1618.7,686z M1701,526.4c13.8,0,25.1,15.2,25.1,33.8c0,18.6-11.3,33.8-25.1,33.8h-91.4
		c-13.8,0-25.1-15.2-25.1-33.8c0-18.6,11.3-33.8,25.1-33.8H1701z M1609.6,333h91.4c13.8,0,25.1,15.2,25.1,33.8
		c0,18.6-11.3,33.8-25.1,33.8h-91.4c-13.8,0-25.1-15.2-25.1-33.8C1584.4,348.2,1595.8,333,1609.6,333z M1443.8,333h91.4
		c13.8,0,25.1,15.2,25.1,33.8c0,18.6-11.3,33.8-25.1,33.8h-91.4c-13.8,0-25.1-15.2-25.1-33.8C1418.6,348.2,1429.9,333,1443.8,333z
		 M1278,333h91.4c13.8,0,25.1,15.2,25.1,33.8c0,18.6-11.3,33.8-25.1,33.8H1278c-13.8,0-25.1-15.2-25.1-33.8
		C1252.8,348.2,1264.1,333,1278,333z"/>
	<path class="st0" d="M11,794v19.7h0v841.6h0v33.8h72.7v82.4h204.5v-82.4h1423v82.4h204.5v-82.4h72.7v-33.8v-68.1V896v-82.2V794H11z
		 M724.3,1226.2c13.8,0,25.1,15.2,25.1,33.8c0,18.6-11.3,33.8-25.1,33.8h-91.4c-13.8,0-25.1-15.2-25.1-33.8
		c0-18.6,11.3-33.8,25.1-33.8H724.3z M690,1167.9c0-18.6,11.3-33.8,25.1-33.8h91.4c13.8,0,25.1,15.2,25.1,33.8
		c0,18.6-11.3,33.8-25.1,33.8h-91.4C701.3,1201.7,690,1186.5,690,1167.9z M549.3,1395c-13.8,0-25.1-15.2-25.1-33.8
		c0-18.6,11.3-33.8,25.1-33.8h91.4c13.8,0,25.1,15.2,25.1,33.8c0,18.6-11.3,33.8-25.1,33.8H549.3z M583.6,1453.3
		c0,18.6-11.3,33.8-25.1,33.8h-91.4c-13.8,0-25.1-15.2-25.1-33.8c0-18.6,11.3-33.8,25.1-33.8h91.4
		C572.3,1419.6,583.6,1434.8,583.6,1453.3z M632.9,1419.6h91.4c13.8,0,25.1,15.2,25.1,33.8c0,18.6-11.3,33.8-25.1,33.8h-91.4
		c-13.8,0-25.1-15.2-25.1-33.8C607.7,1434.8,619.1,1419.6,632.9,1419.6z M715.1,1395c-13.8,0-25.1-15.2-25.1-33.8
		c0-18.6,11.3-33.8,25.1-33.8h91.4c13.8,0,25.1,15.2,25.1,33.8c0,18.6-11.3,33.8-25.1,33.8H715.1z M640.7,1201.7h-91.4
		c-13.8,0-25.1-15.2-25.1-33.8c0-18.6,11.3-33.8,25.1-33.8h91.4c13.8,0,25.1,15.2,25.1,33.8C665.8,1186.5,654.5,1201.7,640.7,1201.7
		z M558.5,1226.2c13.8,0,25.1,15.2,25.1,33.8c0,18.6-11.3,33.8-25.1,33.8h-91.4c-13.8,0-25.1-15.2-25.1-33.8
		c0-18.6,11.3-33.8,25.1-33.8H558.5z M474.9,1201.7h-91.4c-13.8,0-25.1-15.2-25.1-33.8c0-18.6,11.3-33.8,25.1-33.8h91.4
		c13.8,0,25.1,15.2,25.1,33.8C500,1186.5,488.7,1201.7,474.9,1201.7z M392.7,1226.2c13.8,0,25.1,15.2,25.1,33.8
		c0,18.6-11.3,33.8-25.1,33.8h-91.4c-13.8,0-25.1-15.2-25.1-33.8c0-18.6,11.3-33.8,25.1-33.8H392.7z M383.5,1327.5h91.4
		c13.8,0,25.1,15.2,25.1,33.8c0,18.6-11.3,33.8-25.1,33.8h-91.4c-13.8,0-25.1-15.2-25.1-33.8
		C358.4,1342.7,369.7,1327.5,383.5,1327.5z M392.7,1419.6c13.8,0,25.1,15.2,25.1,33.8c0,18.6-11.3,33.8-25.1,33.8h-91.4
		c-13.8,0-25.1-15.2-25.1-33.8c0-18.6,11.3-33.8,25.1-33.8H392.7z M1618.7,1226.2c13.8,0,25.1,15.2,25.1,33.8
		c0,18.6-11.3,33.8-25.1,33.8h-91.4c-13.8,0-25.1-15.2-25.1-33.8c0-18.6,11.3-33.8,25.1-33.8H1618.7z M1584.4,1167.9
		c0-18.6,11.3-33.8,25.1-33.8h91.4c13.8,0,25.1,15.2,25.1,33.8c0,18.6-11.3,33.8-25.1,33.8h-91.4
		C1595.8,1201.7,1584.4,1186.5,1584.4,1167.9z M1443.8,1395c-13.8,0-25.1-15.2-25.1-33.8c0-18.6,11.3-33.8,25.1-33.8h91.4
		c13.8,0,25.1,15.2,25.1,33.8c0,18.6-11.3,33.8-25.1,33.8H1443.8z M1478,1453.3c0,18.6-11.3,33.8-25.1,33.8h-91.4
		c-13.8,0-25.1-15.2-25.1-33.8c0-18.6,11.3-33.8,25.1-33.8h91.4C1466.7,1419.6,1478,1434.8,1478,1453.3z M1527.3,1419.6h91.4
		c13.8,0,25.1,15.2,25.1,33.8c0,18.6-11.3,33.8-25.1,33.8h-91.4c-13.8,0-25.1-15.2-25.1-33.8
		C1502.2,1434.8,1513.5,1419.6,1527.3,1419.6z M1609.6,1395c-13.8,0-25.1-15.2-25.1-33.8c0-18.6,11.3-33.8,25.1-33.8h91.4
		c13.8,0,25.1,15.2,25.1,33.8c0,18.6-11.3,33.8-25.1,33.8H1609.6z M1535.2,1201.7h-91.4c-13.8,0-25.1-15.2-25.1-33.8
		c0-18.6,11.3-33.8,25.1-33.8h91.4c13.8,0,25.1,15.2,25.1,33.8C1560.3,1186.5,1549,1201.7,1535.2,1201.7z M1452.9,1226.2
		c13.8,0,25.1,15.2,25.1,33.8c0,18.6-11.3,33.8-25.1,33.8h-91.4c-13.8,0-25.1-15.2-25.1-33.8c0-18.6,11.3-33.8,25.1-33.8H1452.9z
		 M1369.3,1201.7H1278c-13.8,0-25.1-15.2-25.1-33.8c0-18.6,11.3-33.8,25.1-33.8h91.4c13.8,0,25.1,15.2,25.1,33.8
		C1394.5,1186.5,1383.2,1201.7,1369.3,1201.7z M1287.1,1226.2c13.8,0,25.1,15.2,25.1,33.8c0,18.6-11.3,33.8-25.1,33.8h-91.4
		c-13.8,0-25.1-15.2-25.1-33.8c0-18.6,11.3-33.8,25.1-33.8H1287.1z M1278,1327.5h91.4c13.8,0,25.1,15.2,25.1,33.8
		c0,18.6-11.3,33.8-25.1,33.8H1278c-13.8,0-25.1-15.2-25.1-33.8C1252.8,1342.7,1264.1,1327.5,1278,1327.5z M1287.1,1419.6
		c13.8,0,25.1,15.2,25.1,33.8c0,18.6-11.3,33.8-25.1,33.8h-91.4c-13.8,0-25.1-15.2-25.1-33.8c0-18.6,11.3-33.8,25.1-33.8H1287.1z
		 M1886.4,1587.2h-122.8l9.8-100.1h-80.4c-13.8,0-25.1-15.2-25.1-33.8c0-18.6,11.3-33.8,25.1-33.8h87l2.4-24.6h-7.2
		c-13.8,0-25.1-15.2-25.1-33.8c0-18.6,11.3-33.8,25.1-33.8h13.8l3.5-36c-2.6,1.2-5.3,2.2-8.2,2.2h-91.4c-13.8,0-25.1-15.2-25.1-33.8
		c0-18.6,11.3-33.8,25.1-33.8h91.4c5.3,0,9.9,2.7,14,6.5l3.1-31.1h-26.2c-13.8,0-25.1-15.2-25.1-33.8c0-18.6,11.3-33.8,25.1-33.8
		h32.8l10.3-104.4h-740.2l12,122.5c4.2-10.6,12.3-18.2,21.9-18.2h91.4c13.8,0,25.1,15.2,25.1,33.8c0,18.6-11.3,33.8-25.1,33.8h-91.4
		c-7.1,0-13.5-4.1-18.1-10.6l3.5,35.1h23.8c13.8,0,25.1,15.2,25.1,33.8c0,18.6-11.3,33.8-25.1,33.8h-17.1l3.4,35
		c1.5-0.4,2.9-1.2,4.5-1.2h91.4c13.8,0,25.1,15.2,25.1,33.8c0,18.6-11.3,33.8-25.1,33.8h-89.4l2.4,24.6h4.8
		c13.8,0,25.1,15.2,25.1,33.8c0,17.7-10.4,31.9-23.3,33.3l9.9,100.6H869.2l9.8-100.1h-80.4c-13.8,0-25.1-15.2-25.1-33.8
		c0-18.6,11.3-33.8,25.1-33.8h87l2.4-24.6h-7.2c-13.8,0-25.1-15.2-25.1-33.8c0-18.6,11.3-33.8,25.1-33.8h13.8l3.5-36
		c-2.6,1.2-5.3,2.2-8.2,2.2h-91.4c-13.8,0-25.1-15.2-25.1-33.8c0-18.6,11.3-33.8,25.1-33.8h91.4c5.3,0,9.9,2.7,14,6.5l3.1-31.1
		h-26.2c-13.8,0-25.1-15.2-25.1-33.8c0-18.6,11.3-33.8,25.1-33.8h32.8l10.3-104.4H183.8l12,122.5c4.2-10.6,12.3-18.2,21.9-18.2h91.4
		c13.8,0,25.1,15.2,25.1,33.8c0,18.6-11.3,33.8-25.1,33.8h-91.4c-7.1,0-13.5-4.1-18.1-10.6l3.5,35.1h23.8
		c13.8,0,25.1,15.2,25.1,33.8c0,18.6-11.3,33.8-25.1,33.8h-17.1l3.4,35c1.5-0.4,2.9-1.2,4.5-1.2h91.4c13.8,0,25.1,15.2,25.1,33.8
		c0,18.6-11.3,33.8-25.1,33.8h-89.4l2.4,24.6h4.8c13.8,0,25.1,15.2,25.1,33.8c0,17.7-10.4,31.9-23.3,33.3l9.9,100.6H113V896h1773.4
		V1587.2z"/>
</g>
</svg>
