<?xml version="1.0" encoding="utf-8"?>
<!-- Generator: Adobe Illustrator 21.1.0, SVG Export Plug-In . SVG Version: 6.00 Build 0)  -->
<svg version="1.1" id="Layer_1" xmlns="http://www.w3.org/2000/svg" xmlns:xlink="http://www.w3.org/1999/xlink" x="0px" y="0px"
	 viewBox="0 0 2000 2000" style="enable-background:new 0 0 2000 2000;" xml:space="preserve">
<style type="text/css">
	.st0{fill:#48B2E8;}
</style>
<g>
	<path class="st0" d="M569.2,1385.6h87.4c17.7,0,32.1-18.1,32.1-40.3c0-22.2-14.4-40.3-32.1-40.3h-87.4c-17.7,0-32.1,18.1-32.1,40.3
		C537.1,1367.6,551.5,1385.6,569.2,1385.6z M569.2,1321.1h87.4c8.7,0,16,11.1,16,24.3c0,12.9-7.5,24.2-16,24.2h-87.4
		c-8.5,0-16-11.3-16-24.2C553.2,1332.2,560.5,1321.1,569.2,1321.1z"/>
	<path class="st0" d="M695.6,1345.4c0,22.2,14.4,40.3,32.1,40.3H815c17.7,0,32.1-18.1,32.1-40.3c0-22.2-14.4-40.3-32.1-40.3h-87.4
		C710,1305,695.6,1323.1,695.6,1345.4z M831,1345.4c0,13.1-7.3,24.2-16,24.2h-87.4c-8.5,0-16-11.3-16-24.2c0-13.1,7.3-24.3,16-24.3
		H815C823.7,1321.1,831,1332.2,831,1345.4z"/>
	<path class="st0" d="M610,1248.5c0-22.2-14.4-40.3-32.1-40.3h-87.4c-17.7,0-32.1,18.1-32.1,40.3c0,22.2,14.4,40.3,32.1,40.3h87.4
		C595.6,1288.8,610,1270.7,610,1248.5z M474.6,1248.5c0-13.1,7.3-24.3,16-24.3h87.4c8.7,0,16,11.1,16,24.3c0,13.1-7.3,24.2-16,24.2
		h-87.4C481.9,1272.7,474.6,1261.6,474.6,1248.5z"/>
	<path class="st0" d="M410.7,1305c-17.7,0-32.1,18.1-32.1,40.3c0,22.2,14.4,40.3,32.1,40.3H498c17.7,0,32.1-18.1,32.1-40.3
		c0-22.2-14.4-40.3-32.1-40.3H410.7z M514,1345.4c0,12.9-7.5,24.2-16,24.2h-87.4c-8.5,0-16-11.3-16-24.2c0-13.1,7.3-24.3,16-24.3
		H498C506.7,1321.1,514,1332.2,514,1345.4z"/>
	<path class="st0" d="M451.5,1248.5c0-22.2-14.4-40.3-32.1-40.3h-87.4c-17.7,0-32.1,18.1-32.1,40.3c0,22.2,14.4,40.3,32.1,40.3h87.4
		C437.1,1288.8,451.5,1270.7,451.5,1248.5z M316.1,1248.5c0-13.1,7.3-24.3,16-24.3h87.4c8.7,0,16,11.1,16,24.3
		c0,13.1-7.3,24.2-16,24.2h-87.4C323.4,1272.7,316.1,1261.6,316.1,1248.5z"/>
	<path class="st0" d="M736.4,1393.1H649c-17.7,0-32.1,18.1-32.1,40.3c0,22.2,14.4,40.3,32.1,40.3h87.4c17.7,0,32.1-18.1,32.1-40.3
		C768.5,1411.1,754.1,1393.1,736.4,1393.1z M736.4,1457.6H649c-8.7,0-16-11.1-16-24.2c0-13.1,7.3-24.3,16-24.3h87.4
		c8.7,0,16,11.1,16,24.3C752.4,1446.5,745.1,1457.6,736.4,1457.6z"/>
	<path class="st0" d="M419.4,1393.1h-87.4c-17.7,0-32.1,18.1-32.1,40.3c0,22.2,14.4,40.3,32.1,40.3h87.4c17.7,0,32.1-18.1,32.1-40.3
		C451.5,1411.1,437.1,1393.1,419.4,1393.1z M419.4,1457.6h-87.4c-8.7,0-16-11.1-16-24.2c0-13.1,7.3-24.3,16-24.3h87.4
		c8.7,0,16,11.1,16,24.3C435.4,1446.5,428.1,1457.6,419.4,1457.6z"/>
	<path class="st0" d="M577.9,1393.1h-87.4c-17.7,0-32.1,18.1-32.1,40.3c0,22.2,14.4,40.3,32.1,40.3h87.4c17.7,0,32.1-18.1,32.1-40.3
		C610,1411.1,595.6,1393.1,577.9,1393.1z M577.9,1457.6h-87.4c-8.7,0-16-11.1-16-24.2c0-13.1,7.3-24.3,16-24.3h87.4
		c8.7,0,16,11.1,16,24.3C593.9,1446.5,586.6,1457.6,577.9,1457.6z"/>
	<path class="st0" d="M264.9,1569.8h617.3l0-0.4h237.6l0,0.4h617.3l0-0.4h118.1V892.6H144.1v676.8h120.8L264.9,1569.8z
		 M271.3,1471.2c12.8-5.4,21.6-20.2,21.6-37.8c0-21.1-12.9-38.4-29.3-40.2l-0.7-7.6h76.6c17.7,0,32.1-18.1,32.1-40.3
		c0-22.2-14.4-40.3-32.1-40.3H255l-1.6-16.2h7.5c17.7,0,32.1-18.1,32.1-40.3c0-22.2-14.4-40.3-32.1-40.3h-15.4l-0.8-8.5
		c2.4,0.8,5,1.1,7.5,1.1h87.4c17.7,0,32.1-18.1,32.1-40.3c0-22.2-14.4-40.3-32.1-40.3h-87.4c-5.3,0-10.4,1.7-14.9,4.7l-8.7-88.4
		h689.9l-8.2,83.7h-24.1c-17.7,0-32.1,18.1-32.1,40.3c0,22.2,14.4,40.3,32.1,40.3h16.2l-0.8,8.4c-2.2-0.7-4.4-1-6.6-1h-87.4
		c-17.7,0-32.1,18.1-32.1,40.3c0,22.2,14.4,40.3,32.1,40.3h86.1l-1.6,16.2h-5.9c-17.7,0-32.1,18.1-32.1,40.3
		c0,21.4,13.3,38.9,30.1,40.2l-0.7,7.5h-75.9c-17.7,0-32.1,18.1-32.1,40.3c0,22.2,14.4,40.3,32.1,40.3h67.9l-7.8,79.6H279.4
		L271.3,1471.2z M241.5,1178l-9.3-13.1l6.5-16.4c3-7.6,8.2-12.3,13.4-12.3h87.4c8.7,0,16,11.1,16,24.3c0,13.1-7.3,24.2-16,24.2
		h-87.4C247,1184.7,243.2,1180.5,241.5,1178z M1126.3,1471.2c12.8-5.4,21.6-20.2,21.6-37.8c0-21.1-12.9-38.4-29.3-40.2l-0.7-7.6
		h76.6c17.7,0,32.1-18.1,32.1-40.3c0-22.2-14.4-40.3-32.1-40.3H1110l-1.6-16.2h7.5c17.7,0,32.1-18.1,32.1-40.3
		c0-22.2-14.4-40.3-32.1-40.3h-15.4l-0.8-8.6c2.4,0.8,5,1.2,7.5,1.2h87.4c17.7,0,32.1-18.1,32.1-40.3c0-22.2-14.4-40.3-32.1-40.3
		h-87.4c-5.3,0-10.4,1.7-14.9,4.7l-8.7-88.4h689.9l-8.2,83.7h-24.1c-17.7,0-32,18.1-32,40.3c0,22.2,14.4,40.3,32,40.3h16.2l-0.8,8.4
		c-2.2-0.7-4.4-1-6.6-1h-87.4c-17.7,0-32.1,18.1-32.1,40.3c0,22.2,14.4,40.3,32.1,40.3h86.1l-1.6,16.2h-5.9c-17.7,0-32,18.1-32,40.3
		c0,21.4,13.3,38.9,30.1,40.2l-0.8,7.5h-75.9c-17.7,0-32.1,18.1-32.1,40.3c0,22.2,14.4,40.3,32.1,40.3h68l-7.8,79.6h-588.3
		L1126.3,1471.2z M1096.5,1178l-9.3-13.1l6.5-16.4c3-7.6,8.2-12.3,13.4-12.3h87.4c8.7,0,16,11.1,16,24.3c0,12.9-7.5,24.2-16,24.2
		h-87.4C1102,1184.7,1098.2,1180.5,1096.5,1178z M160.1,1553.3V908.6h1679.2v644.7h-100.5l9.4-95.7h-85.7c-8.7,0-16-11.1-16-24.2
		c0-13.1,7.3-24.3,16-24.3h90.4l3.9-39.5h-15.8c-8.7,0-16-11.1-16-24.2c0-13.1,7.3-24.3,16-24.3h20.5l5.5-55.8l-12.8,6.1
		c-2,0.9-3.3,1.3-4.4,1.3h-87.4c-8.7,0-16-11.1-16-24.2c0-13.1,7.3-24.3,16-24.3h87.4c2.4,0,5,1.3,7.9,4.1l11.9,11l5.4-54.6h-33.9
		c-8.7,0-16-11.1-16-24.2c0-13.1,7.3-24.3,16-24.3h38.7l11.4-115.8h-725.3l20,203.8h30c8.7,0,16,11.1,16,24.3
		c0,13.1-7.3,24.2-16,24.2h-25.2l5.1,51.6l9.1-2.4l89.7-0.9c8.7,0,16,11.1,16,24.3c0,12.9-7.5,24.2-16,24.2h-94.3l3.9,39.5h11.8
		c8.7,0,16,11.1,16,24.3c0,12.3-6.7,22.9-15,23.8l-8,0.8l9.4,95.3H883.8l9.4-95.7h-85.7c-8.7,0-16-11.1-16-24.2
		c0-13.1,7.3-24.3,16-24.3H898l3.9-39.5h-15.7c-8.5,0-16-11.3-16-24.2c0-13.1,7.3-24.3,16-24.3h20.5l5.5-55.9l-12.9,6.2
		c-1.9,0.9-3.3,1.3-4.4,1.3h-87.4c-8.7,0-16-11.1-16-24.2c0-13.1,7.3-24.3,16-24.3h87.4c2.4,0,5,1.3,7.9,4.1l11.9,11l5.4-54.6h-33.9
		c-8.5,0-16-11.3-16-24.2c0-13.1,7.3-24.3,16-24.3h38.6l11.4-115.8H210.9l13.1,132.9l0,0l7,71h30c8.7,0,16,11.1,16,24.3
		c0,13.1-7.3,24.2-16,24.2h-25.2l5.1,51.6l9.1-2.3l89.7-0.9c8.7,0,16,11.1,16,24.3c0,13.1-7.3,24.2-16,24.2h-94.3l3.9,39.5h11.8
		c8.7,0,16,11.1,16,24.3c0,12.3-6.7,22.9-15,23.8l-8,0.8l9.4,95.3H160.1z"/>
	<path class="st0" d="M768.5,1248.5c0-22.2-14.4-40.3-32.1-40.3H649c-17.7,0-32.1,18.1-32.1,40.3c0,22.2,14.4,40.3,32.1,40.3h87.4
		C754.1,1288.8,768.5,1270.7,768.5,1248.5z M633.1,1248.5c0-13.1,7.3-24.3,16-24.3h87.4c8.7,0,16,11.1,16,24.3
		c0,13.1-7.3,24.2-16,24.2H649C640.4,1272.7,633.1,1261.6,633.1,1248.5z"/>
	<path class="st0" d="M727.7,1200.8H815c17.7,0,32.1-18.1,32.1-40.3c0-22.2-14.4-40.3-32.1-40.3h-87.4c-17.7,0-32.1,18.1-32.1,40.3
		C695.6,1182.7,710,1200.8,727.7,1200.8z M727.7,1136.3H815c8.7,0,16,11.1,16,24.3c0,13.1-7.3,24.2-16,24.2h-87.4
		c-8.5,0-16-11.3-16-24.2C711.7,1147.4,719,1136.3,727.7,1136.3z"/>
	<path class="st0" d="M410.7,1200.8H498c17.7,0,32.1-18.1,32.1-40.3c0-22.2-14.4-40.3-32.1-40.3h-87.4c-17.7,0-32.1,18.1-32.1,40.3
		C378.6,1182.7,393,1200.8,410.7,1200.8z M410.7,1136.3H498c8.7,0,16,11.1,16,24.3c0,12.9-7.5,24.2-16,24.2h-87.4
		c-8.5,0-16-11.3-16-24.2C394.7,1147.4,402,1136.3,410.7,1136.3z"/>
	<path class="st0" d="M569.2,1200.8h87.4c17.7,0,32.1-18.1,32.1-40.3c0-22.2-14.4-40.3-32.1-40.3h-87.4c-17.7,0-32.1,18.1-32.1,40.3
		C537.1,1182.7,551.5,1200.8,569.2,1200.8z M569.2,1136.3h87.4c8.7,0,16,11.1,16,24.3c0,12.9-7.5,24.2-16,24.2h-87.4
		c-8.5,0-16-11.3-16-24.2C553.2,1147.4,560.5,1136.3,569.2,1136.3z"/>
	<path class="st0" d="M1265.7,1200.8h87.4c17.7,0,32.1-18.1,32.1-40.3c0-22.2-14.4-40.3-32.1-40.3h-87.4
		c-17.7,0-32.1,18.1-32.1,40.3C1233.6,1182.7,1248,1200.8,1265.7,1200.8z M1265.7,1136.3h87.4c8.7,0,16,11.1,16,24.3
		c0,12.9-7.5,24.2-16,24.2h-87.4c-8.7,0-16-11.1-16-24.2C1249.7,1147.4,1257,1136.3,1265.7,1136.3z"/>
	<path class="st0" d="M1424.2,1200.8h87.4c17.7,0,32.1-18.1,32.1-40.3c0-22.2-14.4-40.3-32.1-40.3h-87.4
		c-17.7,0-32.1,18.1-32.1,40.3C1392.1,1182.7,1406.5,1200.8,1424.2,1200.8z M1424.2,1136.3h87.4c8.7,0,16,11.1,16,24.3
		c0,12.9-7.5,24.2-16,24.2h-87.4c-8.5,0-16-11.3-16-24.2C1408.2,1147.4,1415.5,1136.3,1424.2,1136.3z"/>
	<path class="st0" d="M1306.5,1248.5c0-22.2-14.4-40.3-32.1-40.3h-87.4c-17.7,0-32.1,18.1-32.1,40.3c0,22.2,14.4,40.3,32.1,40.3
		h87.4C1292.1,1288.8,1306.5,1270.7,1306.5,1248.5z M1171.1,1248.5c0-13.1,7.3-24.3,16-24.3h87.4c8.7,0,16,11.1,16,24.3
		c0,13.1-7.3,24.2-16,24.2h-87.4C1178.4,1272.7,1171.1,1261.6,1171.1,1248.5z"/>
	<path class="st0" d="M1274.4,1393.1h-87.4c-17.7,0-32.1,18.1-32.1,40.3c0,22.2,14.4,40.3,32.1,40.3h87.4
		c17.7,0,32.1-18.1,32.1-40.3C1306.5,1411.1,1292.1,1393.1,1274.4,1393.1z M1274.4,1457.6h-87.4c-8.7,0-16-11.1-16-24.2
		c0-13.1,7.3-24.3,16-24.3h87.4c8.7,0,16,11.1,16,24.3C1290.4,1446.5,1283.1,1457.6,1274.4,1457.6z"/>
	<path class="st0" d="M1582.7,1200.8h87.4c17.7,0,32.1-18.1,32.1-40.3c0-22.2-14.4-40.3-32.1-40.3h-87.4
		c-17.7,0-32.1,18.1-32.1,40.3C1550.6,1182.7,1565,1200.8,1582.7,1200.8z M1582.7,1136.3h87.4c8.7,0,16,11.1,16,24.3
		c0,12.9-7.5,24.2-16,24.2h-87.4c-8.5,0-16-11.3-16-24.2C1566.7,1147.4,1574,1136.3,1582.7,1136.3z"/>
	<path class="st0" d="M1591.4,1393.1h-87.4c-17.7,0-32.1,18.1-32.1,40.3c0,22.2,14.4,40.3,32.1,40.3h87.4
		c17.7,0,32.1-18.1,32.1-40.3C1623.5,1411.1,1609.1,1393.1,1591.4,1393.1z M1591.4,1457.6h-87.4c-8.7,0-16-11.1-16-24.2
		c0-13.1,7.3-24.3,16-24.3h87.4c8.7,0,16,11.1,16,24.3C1607.4,1446.5,1600.1,1457.6,1591.4,1457.6z"/>
	<path class="st0" d="M1432.9,1393.1h-87.4c-17.7,0-32.1,18.1-32.1,40.3c0,22.2,14.4,40.3,32.1,40.3h87.4
		c17.7,0,32.1-18.1,32.1-40.3C1465,1411.1,1450.6,1393.1,1432.9,1393.1z M1432.9,1457.6h-87.4c-8.7,0-16-11.1-16-24.2
		c0-13.1,7.3-24.3,16-24.3h87.4c8.7,0,16,11.1,16,24.3C1448.9,1446.5,1441.6,1457.6,1432.9,1457.6z"/>
	<path class="st0" d="M1550.6,1345.4c0,22.2,14.4,40.3,32.1,40.3h87.4c17.7,0,32.1-18.1,32.1-40.3c0-22.2-14.4-40.3-32.1-40.3h-87.4
		C1565,1305,1550.6,1323.1,1550.6,1345.4z M1686,1345.4c0,12.9-7.5,24.2-16,24.2h-87.4c-8.5,0-16-11.3-16-24.2
		c0-13.1,7.3-24.3,16-24.3h87.4C1678.7,1321.1,1686,1332.2,1686,1345.4z"/>
	<path class="st0" d="M1265.7,1305c-17.7,0-32.1,18.1-32.1,40.3c0,22.2,14.4,40.3,32.1,40.3h87.4c17.7,0,32.1-18.1,32.1-40.3
		c0-22.2-14.4-40.3-32.1-40.3H1265.7z M1369,1345.4c0,12.9-7.5,24.2-16,24.2h-87.4c-8.7,0-16-11.1-16-24.2c0-13.1,7.3-24.3,16-24.3
		h87.4C1361.7,1321.1,1369,1332.2,1369,1345.4z"/>
	<path class="st0" d="M1465,1248.5c0-22.2-14.4-40.3-32.1-40.3h-87.4c-17.7,0-32.1,18.1-32.1,40.3c0,22.2,14.4,40.3,32.1,40.3h87.4
		C1450.6,1288.8,1465,1270.7,1465,1248.5z M1329.6,1248.5c0-13.1,7.3-24.3,16-24.3h87.4c8.7,0,16,11.1,16,24.3
		c0,13.1-7.3,24.2-16,24.2h-87.4C1336.9,1272.7,1329.6,1261.6,1329.6,1248.5z"/>
	<path class="st0" d="M1424.2,1385.6h87.4c17.7,0,32.1-18.1,32.1-40.3c0-22.2-14.4-40.3-32.1-40.3h-87.4
		c-17.7,0-32.1,18.1-32.1,40.3C1392.1,1367.6,1406.5,1385.6,1424.2,1385.6z M1424.2,1321.1h87.4c8.7,0,16,11.1,16,24.3
		c0,12.9-7.5,24.2-16,24.2h-87.4c-8.5,0-16-11.3-16-24.2C1408.2,1332.2,1415.5,1321.1,1424.2,1321.1z"/>
	<path class="st0" d="M1623.5,1248.5c0-22.2-14.4-40.3-32.1-40.3h-87.4c-17.7,0-32.1,18.1-32.1,40.3c0,22.2,14.4,40.3,32.1,40.3
		h87.4C1609.1,1288.8,1623.5,1270.7,1623.5,1248.5z M1488.1,1248.5c0-13.1,7.3-24.3,16-24.3h87.4c8.7,0,16,11.1,16,24.3
		c0,13.1-7.3,24.2-16,24.2h-87.4C1495.4,1272.7,1488.1,1261.6,1488.1,1248.5z"/>
	<path class="st0" d="M1591.4,523c17.7,0,32.1-18.1,32.1-40.3c0-22.2-14.4-40.3-32.1-40.3h-87.4c-17.7,0-32.1,18.1-32.1,40.3
		c0,22.2,14.4,40.3,32.1,40.3H1591.4z M1488.1,482.7c0-13.1,7.3-24.3,16-24.3h87.4c8.7,0,16,11.1,16,24.3c0,12.9-7.5,24.2-16,24.2
		h-87.4C1495.5,507,1488.1,495.6,1488.1,482.7z"/>
	<path class="st0" d="M1392.1,579.5c0,22.2,14.4,40.3,32.1,40.3h87.4c17.7,0,32.1-18.1,32.1-40.3c0-22.2-14.4-40.3-32.1-40.3h-87.4
		C1406.5,539.2,1392.1,557.3,1392.1,579.5z M1527.5,579.5c0,13.1-7.3,24.3-16,24.3h-87.4c-8.7,0-16-11.1-16-24.3
		c0-12.9,7.5-24.2,16-24.2h87.4C1520.1,555.3,1527.5,566.6,1527.5,579.5z"/>
	<path class="st0" d="M1306.5,482.7c0-22.2-14.4-40.3-32.1-40.3h-87.4c-17.7,0-32.1,18.1-32.1,40.3c0,22.2,14.4,40.3,32.1,40.3h87.4
		C1292.1,523,1306.5,505,1306.5,482.7z M1171.1,482.7c0-13.1,7.3-24.3,16-24.3h87.4c8.7,0,16,11.1,16,24.3c0,13.1-7.3,24.2-16,24.2
		h-87.4C1178.5,507,1171.1,495.6,1171.1,482.7z"/>
	<path class="st0" d="M1187.1,707.9h87.4c17.7,0,32.1-18.1,32.1-40.3c0-22.2-14.4-40.3-32.1-40.3h-87.4c-17.7,0-32.1,18.1-32.1,40.3
		C1155,689.8,1169.4,707.9,1187.1,707.9z M1187.1,643.3h87.4c8.7,0,16,11.1,16,24.3c0,13.1-7.3,24.2-16,24.2h-87.4
		c-8.5,0-16-11.3-16-24.2C1171.1,654.4,1178.4,643.3,1187.1,643.3z"/>
	<path class="st0" d="M1432.9,627.3h-87.4c-17.7,0-32.1,18.1-32.1,40.3c0,22.2,14.4,40.3,32.1,40.3h87.4c17.7,0,32.1-18.1,32.1-40.3
		C1465,645.3,1450.6,627.3,1432.9,627.3z M1432.9,691.8h-87.4c-8.5,0-16-11.3-16-24.2c0-13.1,7.3-24.3,16-24.3h87.4
		c8.7,0,16,11.1,16,24.3C1448.9,680.5,1441.4,691.8,1432.9,691.8z"/>
	<path class="st0" d="M1432.9,442.4h-87.4c-17.7,0-32.1,18.1-32.1,40.3c0,22.2,14.4,40.3,32.1,40.3h87.4c17.7,0,32.1-18.1,32.1-40.3
		C1465,460.5,1450.6,442.4,1432.9,442.4z M1432.9,507h-87.4c-8.5,0-16-11.3-16-24.2c0-13.1,7.3-24.3,16-24.3h87.4
		c8.7,0,16,11.1,16,24.3C1448.9,495.6,1441.4,507,1432.9,507z"/>
	<path class="st0" d="M1233.6,579.5c0,22.2,14.4,40.3,32.1,40.3h87.4c17.7,0,32.1-18.1,32.1-40.3c0-22.2-14.4-40.3-32.1-40.3h-87.4
		C1248,539.2,1233.6,557.3,1233.6,579.5z M1369,579.5c0,13.1-7.3,24.3-16,24.3h-87.4c-8.7,0-16-11.1-16-24.3
		c0-13.1,7.3-24.2,16-24.2h87.4C1361.6,555.3,1369,566.6,1369,579.5z"/>
	<path class="st0" d="M1582.7,435h87.4c17.7,0,32.1-18.1,32.1-40.3c0-22.2-14.4-40.3-32.1-40.3h-87.4c-17.7,0-32.1,18.1-32.1,40.3
		C1550.6,416.9,1565,435,1582.7,435z M1582.7,370.5h87.4c8.5,0,16,11.3,16,24.2c0,13.1-7.3,24.3-16,24.3h-87.4
		c-8.7,0-16-11.1-16-24.3C1566.7,381.8,1574.2,370.5,1582.7,370.5z"/>
	<path class="st0" d="M1591.4,627.3h-87.4c-17.7,0-32.1,18.1-32.1,40.3c0,22.2,14.4,40.3,32.1,40.3h87.4c17.7,0,32.1-18.1,32.1-40.3
		C1623.5,645.3,1609.1,627.3,1591.4,627.3z M1591.4,691.8h-87.4c-8.5,0-16-11.3-16-24.2c0-13.1,7.3-24.3,16-24.3h87.4
		c8.7,0,16,11.1,16,24.3C1607.4,680.5,1599.9,691.8,1591.4,691.8z"/>
	<path class="st0" d="M1265.7,435h87.4c17.7,0,32.1-18.1,32.1-40.3c0-22.2-14.4-40.3-32.1-40.3h-87.4c-17.7,0-32.1,18.1-32.1,40.3
		C1233.6,416.9,1248,435,1265.7,435z M1265.7,370.5h87.4c8.5,0,16,11.3,16,24.2c0,13.1-7.3,24.3-16,24.3h-87.4
		c-8.7,0-16-11.1-16-24.3C1249.7,381.6,1257,370.5,1265.7,370.5z"/>
	<path class="st0" d="M1424.2,435h87.4c17.7,0,32.1-18.1,32.1-40.3c0-22.2-14.4-40.3-32.1-40.3h-87.4c-17.7,0-32.1,18.1-32.1,40.3
		C1392.1,416.9,1406.5,435,1424.2,435z M1424.2,370.5h87.4c8.5,0,16,11.3,16,24.2c0,13.1-7.3,24.3-16,24.3h-87.4
		c-8.7,0-16-11.1-16-24.3C1408.2,381.8,1415.7,370.5,1424.2,370.5z"/>
	<path class="st0" d="M1550.6,579.5c0,22.2,14.4,40.3,32.1,40.3h87.4c17.7,0,32.1-18.1,32.1-40.3c0-22.2-14.4-40.3-32.1-40.3h-87.4
		C1565,539.2,1550.6,557.3,1550.6,579.5z M1686,579.5c0,13.1-7.3,24.3-16,24.3h-87.4c-8.7,0-16-11.1-16-24.3
		c0-12.9,7.5-24.2,16-24.2h87.4C1678.6,555.3,1686,566.6,1686,579.5z"/>
	<path class="st0" d="M1738.1,795.1l10.1-103.3h-85.7c-8.7,0-16-11.1-16-24.2c0-13.1,7.3-24.3,16-24.3h90.4l3.9-39.5h-15.8
		c-8.7,0-16-11.1-16-24.3c0-13.1,7.3-24.2,16-24.2h20.5l5.5-55.6l-12.7,5.9c-1.5,0.7-3.2,1.4-4.5,1.4h-87.4c-8.7,0-16-11.1-16-24.2
		c0-13.1,7.3-24.3,16-24.3h87.4c2.4,0,5,1.3,7.9,4.1l11.9,11l5.4-54.6h-33.9c-8.7,0-16-11.1-16-24.3c0-13.1,7.3-24.2,16-24.2h38.7
		l11.4-115.8h-725.3l20,203.8h30c8.7,0,16,11.1,16,24.3c0,12.9-7.5,24.2-16,24.2h-25.2l5.1,51.6l9.1-2.4l89.7-0.9
		c8.5,0,16,11.3,16,24.2c0,13.1-7.3,24.3-16,24.3h-94.3l3.9,39.5h11.8c8.7,0,16,11.1,16,24.3c0,12.3-6.8,22.9-15.1,23.8l-7.9,0.8
		l10.1,102.9H46.6v871.8h69.5v78.8h211.5v-78.8h1344.2v78.8h211.5v-78.8h69.5V795.1H1738.1z M1087.2,399.2l6.6-16.4
		c3-7.6,8.2-12.3,13.4-12.3h87.4c8.5,0,16,11.3,16,24.2c0,13.1-7.3,24.3-16,24.3h-87.4c-5.2,0-8.9-4.2-10.7-6.7L1087.2,399.2z
		 M1148,667.6c0-21.1-12.9-38.4-29.3-40.2l-0.7-7.6h76.6c17.7,0,32.1-18.1,32.1-40.3c0-22.2-14.4-40.3-32.1-40.3H1110l-1.6-16.2h7.5
		c17.7,0,32.1-18.1,32.1-40.3c0-22.2-14.4-40.3-32.1-40.3h-15.4l-0.8-8.6c2.4,0.8,5,1.2,7.5,1.2h87.4c17.7,0,32.1-18.1,32.1-40.3
		c0-22.2-14.4-40.3-32.1-40.3h-87.4c-5.3,0-10.4,1.7-14.9,4.7l-8.7-88.4h689.9l-8.2,83.7h-24.1c-17.7,0-32,18.1-32,40.3
		c0,22.2,14.4,40.3,32,40.3h16.2l-0.8,8.4c-2.2-0.7-4.4-1-6.6-1h-87.4c-17.7,0-32.1,18.1-32.1,40.3c0,22.2,14.4,40.3,32.1,40.3h86.1
		l-1.6,16.2h-5.9c-17.7,0-32,18.1-32,40.3c0,21.4,13.3,38.9,30.1,40.3l-0.8,7.5h-75.9c-17.7,0-32.1,18.1-32.1,40.3
		c0,22.2,14.4,40.3,32.1,40.3h68l-7.9,80.1h-588.2l-8.1-82.6C1139.1,700,1148,685.1,1148,667.6z M1936.8,1650.8h-69.5v78.8h-179.4
		v-78.8H311.6v78.8H132.2v-78.8H62.6V811.1h1874.1V1650.8z"/>
</g>
</svg>
