<?xml version="1.0" encoding="utf-8"?>
<!-- Generator: Adobe Illustrator 22.0.1, SVG Export Plug-In . SVG Version: 6.00 Build 0)  -->
<svg version="1.1" id="Layer_1" xmlns="http://www.w3.org/2000/svg" xmlns:xlink="http://www.w3.org/1999/xlink" x="0px" y="0px"
	 viewBox="0 0 2000 2000" style="enable-background:new 0 0 2000 2000;" xml:space="preserve">
<style type="text/css">
	.st0{fill:#020203;}
</style>
<g>
	<path class="st0" d="M1960.4,988.3l-351-326.6V157.1c0-40.4-32.7-73.1-73.1-73.1h-248.6c-40.4,0-73.1,32.7-73.1,73.1v141.4
		l-165.8-153.6c-28.1-26.3-71.8-26.3-99.9,0L39.6,988.3c-29.6,27.6-31.3,74-3.7,103.6c27.6,29.6,74,31.3,103.6,3.7L276,968.8v728.8
		c0,121.2,98.2,219.4,219.4,219.4h1009.1c121.2,0,219.4-98.2,219.4-219.4V968.8l136.5,126.8c29.6,27.6,76,26,103.6-3.7
		C1991.7,1062.3,1990,1015.9,1960.4,988.3z M1463.1,230.2v297.4l-99.9-95.1l-2.4-202.3H1463.1z M1577.7,1697.6
		c0,40.4-32.7,73.1-73.1,73.1H495.4c-40.4,0-73.1-32.7-73.1-73.1V832.3L1000,298.5l577.7,536.3V1697.6z"/>
	<path class="st0" d="M850.7,854.6c-54.7,0-105.8,21.9-143.8,61.6c-77.2,80.8-77.2,212.5,0,293.4l251.8,264.1
		c10.5,11,24.6,17.2,39.8,17.6c0.5,0,0.9,0,1.4,0c14.7,0,28.6-5.6,39.4-15.8l253.9-265.6c77.3-80.9,77.3-212.5,0-293.4
		c-38.1-39.8-89.1-61.8-143.8-61.8c-54.7,0-105.7,21.9-143.7,61.7l-5.5,5.7l-5.6-5.8C956.5,876.5,905.4,854.6,850.7,854.6z
		 M1149.1,967.7C1149.1,967.7,1149.1,967.7,1149.1,967.7c22.8,0,44.7,9.8,61.6,27.5c35.9,37.6,35.9,98.7,0,136.3L1000,1352
		l-210.8-220.7c-35.9-37.6-35.9-98.8,0-136.3c17-17.8,38.8-27.6,61.5-27.6c22.8,0,44.8,9.8,61.7,27.5l46.5,48.8
		c10.5,11,24.6,17.2,39.8,17.6c15.5,0,29.6-5.2,39.8-15l49-51.2C1104.5,977.5,1126.4,967.7,1149.1,967.7z"/>
</g>
</svg>
