<?xml version="1.0" encoding="utf-8"?>
<!-- Generator: Adobe Illustrator 22.0.1, SVG Export Plug-In . SVG Version: 6.00 Build 0)  -->
<svg version="1.1" id="Layer_1" xmlns="http://www.w3.org/2000/svg" xmlns:xlink="http://www.w3.org/1999/xlink" x="0px" y="0px"
	 viewBox="0 0 2000 2000" style="enable-background:new 0 0 2000 2000;" xml:space="preserve">
<style type="text/css">
	.st0{fill:#020203;}
</style>
<g>
	<path class="st0" d="M1957.4,988.3l-349.9-325.6v-503c0-40.3-32.6-72.9-72.9-72.9h-247.9c-40.3,0-72.9,32.6-72.9,72.9v140.9
		l-165.2-153.1c-28-26.2-71.6-26.2-99.6,0L42.6,988.3c-29.5,27.5-31.2,73.8-3.6,103.3c27.5,29.5,73.8,31.2,103.3,3.6l136.1-126.4
		v726.6c0,120.8,97.9,218.7,218.7,218.7h1006c120.8,0,218.7-97.9,218.7-218.7V968.9l136.1,126.4c29.5,27.5,75.8,25.9,103.3-3.6
		C1988.6,1062.1,1986.9,1015.9,1957.4,988.3z M1461.7,232.6v296.5l-99.6-94.8l-2.4-201.7H1461.7z M1503,1768.4H497
		c-40.3,0-72.9-32.6-72.9-72.9V832.8L1000,300.7l575.9,534.6l0,860.2C1575.9,1735.7,1543.3,1768.4,1503,1768.4z"/>
	<path class="st0" d="M1148.8,855.2c-54.5,0-105.4,21.9-143.2,61.5l-5.5,5.7l-5.6-5.8c-37.9-39.6-88.8-61.5-143.4-61.5
		c-54.6,0-105.5,21.8-143.4,61.5c-77,80.6-77,211.8,0,292.5l251,263.3c10.5,11,24.6,17.2,39.7,17.6c0.5,0,0.9,0,1.4,0
		c14.6,0,28.5-5.5,39.2-15.8l253.1-264.8c77.1-80.7,77.1-211.9,0-292.5C1254.2,877.1,1203.3,855.2,1148.8,855.2z M789.9,995
		c16.9-17.7,38.7-27.5,61.3-27.5c22.8,0,44.6,9.8,61.5,27.5l46.4,48.7c21.6,22.6,57.5,23.5,80.3,1.8l47.9-50.2
		c16.9-17.7,38.7-27.4,61.4-27.4c0,0,0,0,0,0c22.7,0,44.5,9.7,61.4,27.4c35.8,37.5,35.8,98.4,0,135.9L1000,1350.9l-210.1-220
		C754.1,1093.4,754.1,1032.4,789.9,995z"/>
</g>
</svg>
