<?xml version="1.0" encoding="utf-8"?>
<!-- Generator: Adobe Illustrator 21.1.0, SVG Export Plug-In . SVG Version: 6.00 Build 0)  -->
<svg version="1.1" id="Layer_1" xmlns="http://www.w3.org/2000/svg" xmlns:xlink="http://www.w3.org/1999/xlink" x="0px" y="0px"
	 viewBox="0 0 2000 2000" style="enable-background:new 0 0 2000 2000;" xml:space="preserve">
<style type="text/css">
	.st0{fill:#231F20;}
</style>
<g>
	<path class="st0" d="M1052.7,1123.7l-5.7,0.8c-10.5,1.6-22.9,3.2-38,4.7l-7.1,0.6l5.8,24.2c3.7,15.4,8.7,36.5,14.8,61.8
		c16.9,70.4,45.7,159.1,78.9,243.1c13.4,33.9,26.8,65.2,37.9,88.2c17.2,35.9,21.6,37.5,23.5,38.2c5.2,1.9,9.9,3,14,3
		c3.7,0,6.8-0.7,9.5-2.2c6-3.3,7.4-8.6,7.6-9.6l0.4-1.6l-123-372L1052.7,1123.7z M1017.3,1140.8c8.2-0.9,17.2-1.9,25.9-3.2l16,68.4
		v0.1l121.8,368.3c-0.2,0.2-0.5,0.4-0.9,0.7c-0.9,0.5-4.4,1.7-12.4-1.2c-4.5-4.2-26-46.7-54.9-119.5c-19.2-48.3-54.8-144-78.3-241.7
		c-5.7-23.9-11.4-47.5-16.8-70.5L1017.3,1140.8z"/>
	<path class="st0" d="M770.5,1120.8l-5.9-1.2l-19.4,83.1l-122.5,370.5l-0.6,1.6l0.4,1.7c0.2,0.9,1.6,6.3,7.6,9.6
		c2.9,1.4,5.9,2.1,9.5,2.1c4.2,0,8.8-0.9,14.1-3c1.8-0.7,6.2-2.3,23.4-38.2c11-23,24.5-54.3,37.9-88.2c33.2-84,62-172.7,78.9-243.1
		c9.1-37.5,16.1-67.4,19.5-81.5l1.6-6.8l-6.8-0.8C794.2,1124.9,781.8,1123,770.5,1120.8z M635.3,1574.7l121.8-368.3L774,1134
		c8,1.4,16.4,2.8,25.7,4c-1,4.3-2.2,9.6-3.8,15.7c-3.6,15-8.4,35.1-14.1,59.1c-23.4,97.5-59.1,193.3-78.3,241.7
		c-28.8,72.8-50.4,115.2-54.7,119.5c-8.1,3-11.5,1.9-12.6,1.3C635.8,1575.2,635.6,1575,635.3,1574.7z"/>
	<path class="st0" d="M688.3,701.9L688.3,701.9c0-0.1,0-0.2,0.1-0.3c2-7,9.4-31.8,20.4-55.8l4-8.8H605.3l9.5-27.3h20.5v-74.4h-9.1
		c7.8-5.9,14.7-13.3,20.1-21.4c1.6-2.4,1.7-5.6,0.4-8.1l4.7-0.9l-5.7-0.5c-0.3-0.3-0.6-0.6-0.9-0.9c-0.8-0.7-1.6-1.2-2.7-1.5
		c-1-1.8-2.8-3.3-4.8-4c-2.2-0.7-4.5-1.2-6.8-1.4c0.4-6.3,0.2-14.6-3.4-23c0.3-2.1-0.4-4.4-1.8-6.2c-2.3-3.1-6.3-4.1-9.6-2.8
		c-0.1-1.8-0.3-3.9-0.5-6.1c-0.3-3.3-2.3-6.2-5.1-7.5c-2.8-1.3-6.1-1.2-8.7,0.3c-1.1,0.6-2.2,1.4-3.5,2.2c-0.4-5.4-1.2-10.8-2-16
		l-0.9-6.4c-0.5-3-2.5-5.4-5.4-6.3c-3.2-1.1-6.6-0.4-9,1.7c-4,3.8-7.4,8.2-10.3,13.3c-0.9-2.9-1.8-5.6-2.7-8.3
		c-0.3-1.3-0.9-2.4-1.7-3.4l9.5-14.9l-12.7,12.2c-0.3-0.1-0.7-0.3-1-0.4c-3-0.9-6.4-0.3-8.9,1.6c-0.6,0.5-1.2,1-1.7,1.4
		c-2.2-4.1-5.2-7.5-8.4-9.9c-5.1-3.6-11.8-3-16.4,1.5c-1.4,1.3-2.5,3-3.6,4.8c-1.6-3.3-3.4-6.5-5.4-10c-1.1-2-3.2-3.4-5.5-3.7
		c-2.2-0.4-4.7,0.2-6.5,1.8c-6.3,5.3-11.6,11.7-15.8,19.4c-3.2-4.8-7-9.8-11.4-14.7c-1.7-2-4.6-3.2-7.2-2.8
		c-2.9,0.3-5.4,1.8-6.8,4.2c-2.2,3.6-4.1,7-5.5,10.5c-1.1-2-2.4-4.3-3.9-6.7c-1.3-2.1-3.4-3.6-5.8-3.9c-2.4-0.4-5,0.3-7,2
		c-5.9,5-10.3,12.4-13,22.6c-3.8-5.5-8.3-11.2-13.9-17.5c-1.6-1.9-4-3-6.5-2.9c-2.8,0-5.4,1.4-7,3.7l-0.3,0.4
		c-2.8,3.6-6.3,8.1-8.6,13.4c-1-1.1-2.1-2.1-3.3-3.3c-1.6-1.6-4-2.5-6.4-2.5h-0.2c-2.3,0.2-4.4,1.1-5.9,2.9l-0.1,0.1
		c-6.2,7.5-10,17.3-10.8,28.2c-2.7-3.6-5.3-7-7.8-10.4c-2.3-3-6.3-4.2-9.9-3c-3.5,1.1-5.7,4.3-5.7,7.8v2.2
		c-0.1,25.3-0.2,53.6,17.3,73h-16.9V610h22.8l11.1,27.3H264.5L7.3,768.5v75.9h109.9v645.9h319.7v-646h210.3L688.3,701.9z M386.4,492
		v-0.1c-3.4-9.8-5.3-23.2-1.6-34.4c4.2,5.5,6.9,11.2,7.4,19.6c-2.1,6.7-3.6,14.2-4.1,21.9c-0.5-0.9-1-1.8-1.5-2.7
		C386.9,495,386.8,493.5,386.4,492z M360,487.5c10.7,16.2,18.7,31.5,24.5,47.3C371.5,527.6,362.2,516.4,360,487.5z M604.3,527.5
		c-0.8,0.4-1.6,0.8-2.5,1.2c4.2-2.9,8-5.2,11.7-7.1C610.7,523.7,607.6,525.8,604.3,527.5L604.3,527.5z M587.7,512.9
		c-2,1.6-4.2,3.3-5.8,4.7h-0.1c2.2-12.5,6.7-27.5,15.7-38.9C597.1,494.8,593.8,506.3,587.7,512.9z M577.2,461.5
		c1.2-0.6,2.2-1.4,3.2-2.3c0.2,3.7,0.3,7.4,0.3,11.6c-0.4,0.6-0.8,1.2-1.2,1.8C579.1,469.3,578.4,465.6,577.2,461.5z M539.1,535.3
		h-1.8c0.4-8.2,2.1-15.4,5.3-21.9C543.7,521.9,543.8,528.9,539.1,535.3z M536.4,437.6c0-0.1,0-0.1,0.1-0.2c0,0.1,0.1,0.2,0.1,0.3
		C536.5,437.7,536.4,437.7,536.4,437.6z M554,469c0.2,1.2,0.3,2.4,0.5,3.7c-0.4,0.8-0.9,1.7-1.3,2.5c-0.3-1.4-0.7-3-1.1-4.5
		c0.1-0.4,0.2-0.8,0.3-1.1c0.9-4.7,2.1-9,4-13.3c0.5,1.6,1,3.2,1.5,4.8C555.2,462.8,553.6,465.8,554,469z M471.9,446.7
		c0.2-2.2,0.7-4.5,1.4-6.8c0.5,0.6,0.9,1.3,1.4,1.9C473.9,443.3,472.8,444.9,471.9,446.7z M480.5,525.4c-5-15.1-3.2-31.2-0.1-46.6
		C485.2,502.6,483,517.4,480.5,525.4z M445.8,481.6c6,17.6,10.2,35.6,4.1,51.1C441.7,516.7,440.3,497.9,445.8,481.6z M449.4,451.9
		c-0.7-0.2-1.4-0.3-2.2-0.3c-0.9,0-1.8,0.1-2.7,0.4c1.1-3.3,2.2-6.2,3.5-9.2c1.8,3.3,3.4,6.8,4.8,10.7
		C451.8,452.8,450.7,452.2,449.4,451.9z M409.2,480.6c1,12,1.5,22.3,0.1,32.4c-0.9,2.2-1.8,4.5-2.5,6.7
		C405.4,506.1,404.9,492.5,409.2,480.6z M421.8,535.4c1.6-3.7,2.9-7.4,3.9-11.5c1.6,3.8,3.1,7.5,4.1,11.5H421.8z M410.7,449
		c-1.5,1.3-3.1,2.8-4.6,4.4c0.8-3,1.8-5.4,3.1-7.7c0.7,0.9,1.4,1.9,2.1,2.9C411.1,448.7,410.9,448.8,410.7,449z M511.6,441
		c-1.1-1.9-3-3.5-5.1-4.1c1-1.3,2-2.7,3-3.9c2.7,5.2,4.8,10.6,6.3,16C514.4,446.4,513.1,443.7,511.6,441z M501,467.2l0.1-0.1
		c0.5-1.1,1-2.1,1.4-3.1c0.9,2.1,1.8,4.3,2.7,6.4C504.1,468.9,502.6,467.8,501,467.2z M495.5,445.7L495.5,445.7L495.5,445.7
		L495.5,445.7z M395,649.5l-21.1-52.1h-18.8v-49.5h92.8l3.5,4.4l-1.8-4.4H472l-2.3,13.2l11.3-13.2h24.7l9.8,13.7l-1.6-13.7H559
		l0.2,0.4l-0.8,0.8l1-0.5l2.2,5.1l2.9-5.8h58.3v49.5H606l-18.1,52.1h105.7c-8.5,19.9-14.3,38.6-17,48.4c0,0.2-0.1,0.3-0.1,0.4
		l-36.1,124.3l-2.5,9.3H424.5v646H129.6v-646h-110v-56l247-126.4L395,649.5L395,649.5z"/>
	<path class="st0" d="M1217.9,946.3l-51-178.7c-5-20.3-27.6-108.2-50.9-142.9c-25.6-38.3-66-40.2-95.5-41.5l-7.6-0.3
		c-28.8-1.5-92.8-2-93.4-2s-64.4,0.4-93.2,2l-7.7,0.3c-29.5,1.3-69.8,3.2-95.4,41.5c-26,38.8-50.2,140.2-51.1,144l-50,175.3
		c0,0.1-0.3,1.2-0.9,3.2c-10.5,37.5-18.3,65.5-23,83.5l-3.4,12.8l12.1-5.6c1.3-0.7,2.5-1.1,4-1.3h0.1c8-1.2,17.7,4.7,29.1,17.7
		c45.3,52.2,130,76.5,266.7,76.5l10.9-0.1l2.3,0.3l0.8-0.3l11.8,0.1c136.8,0,221.5-24.3,266.7-76.5c10.7-12.2,21.1-18.6,29.3-17.7
		c1.2,0.1,2.4,0.6,4,1.3l12,5.6l-3.5-12.7C1236.7,1013.9,1229.4,987.1,1217.9,946.3z M1106,631.7c24.7,36.8,49.1,139.2,49.4,140.2
		l50.6,177.8c7,25.3,14.1,50.3,20.7,74.4c-11.6,0.1-23.7,7.3-36.6,22c-42.7,49.2-124.5,72.2-257.3,72.2l-25.8,0.1
		c-132.8,0-214.7-22.9-257.3-72.2c-12.9-14.9-24.8-22.1-36.2-22.1c-0.1,0-0.2,0-0.3,0c8.5-31,20.2-73,21.2-76.3l0,0L684.6,772v-0.2
		c0.2-1,24.7-103.2,49.4-140.2c22.2-33.2,59-34.9,85.8-36.1l7.5-0.3c28.4-1.5,92.1-2,92.6-2c0.6,0,64.2,0.4,92.7,2l7.5,0.3
		C1047,596.8,1083.8,598.5,1106,631.7z"/>
	<path class="st0" d="M1693.3,637.6l-0.6-0.2l-565.9-0.3l4,8.9c7.3,15.8,14.1,34.3,20.1,54.7c0.2,0.7,0.3,1.2,0.4,1.4l36,123.8
		l5,18.5h167v646h560.3v-646h67l7.4-76L1693.3,637.6z M1975.4,831.9h-68.2v646h-535.4v-646h-169.8l-38.5-133.1l-0.1-0.3
		c-2.2-8-8.3-27.9-17.1-48.9h543.4L1980.9,776L1975.4,831.9z"/>
</g>
</svg>
