<?xml version="1.0" encoding="utf-8"?>
<!-- Generator: Adobe Illustrator 18.1.1, SVG Export Plug-In . SVG Version: 6.00 Build 0)  -->
<svg version="1.1" id="Layer_1" xmlns="http://www.w3.org/2000/svg" xmlns:xlink="http://www.w3.org/1999/xlink" x="0px" y="0px"
	 viewBox="0 0 2000 2000" enable-background="new 0 0 2000 2000" xml:space="preserve">
<g>
	<path fill="#010101" d="M1385.6,768.7c-52.9,0-104.2,6.8-153,19.6c67.1-255.8-40.6-527.9-268.3-667.7C875,65.8,776,36.7,676.6,32.1
		v0c-165.6-7.7-332,52.8-455.4,176.3C23.7,406-12.5,713.5,133.8,951.5c139.8,227.6,411.8,335.1,667.5,268.1
		c-12.8,48.9-19.6,100.2-19.6,153c0,333.3,270.6,603.9,603.9,603.9s603.9-270.6,603.9-603.9
		C1989.6,1039.3,1718.9,768.7,1385.6,768.7z M168.3,930.3C31.7,708.1,65.5,421.5,249.9,237C434.2,52.6,720.8,18.7,943.1,155.2
		c219.9,135,319.7,401.5,243.3,647.2c-173.2,60.6-310.5,197.9-371,371C569.8,1249.7,303.3,1150.1,168.3,930.3z M1385.6,1936
		c-311.4,0-563.4-252-563.4-563.4c0-311.4,252-563.4,563.4-563.4s563.4,252,563.4,563.4C1949,1684,1697,1936,1385.6,1936z"/>
	<path fill="#010101" d="M385,545.9v352.8h20.3h332.6l174-174V372H559L385,545.9z M709.2,858.2H425.5V574.6h283.7V858.2z M871.3,708
		L749.7,829.6V562.7l121.6-121.6V708z M842.6,412.5L721,534H454.2l121.6-121.6H842.6z"/>
	<polygon fill="#010101" points="1222.3,1157.7 1222.3,1198.2 1531.4,1198.2 1170.7,1558.9 1199.4,1587.5 1560,1226.9 1560,1535.9 
		1600.5,1535.9 1600.6,1198.2 1600.6,1198.2 1600.6,1157.7 1560.1,1157.7 	"/>
</g>
</svg>
