<?xml version="1.0" encoding="utf-8"?>
<!-- Generator: Adobe Illustrator 18.1.1, SVG Export Plug-In . SVG Version: 6.00 Build 0)  -->
<svg version="1.1" id="Layer_1" xmlns="http://www.w3.org/2000/svg" xmlns:xlink="http://www.w3.org/1999/xlink" x="0px" y="0px"
	 viewBox="0 0 2000 2000" enable-background="new 0 0 2000 2000" xml:space="preserve">
<path fill="#010101" d="M1513,1959.6C1513,1959.6,1513,1959.6,1513,1959.6c-368.3,0-786.1-377.2-948.6-539.3
	C386.7,1242.9-21.6,789,25.2,406.8c17.6-143.7,97.5-259.2,237.3-343.2c11.3-6.8,24.1-10.2,38.2-10.2c110,0,327,256.8,414.9,381.2
	c125.5,177.8,107.8,228,101.1,246.8c-21.3,60-60.9,95-95.8,125.8c-30.6,27-57,50.3-70.4,88.2c-1.9,9.2,10.3,59,90.1,157
	c125.3,154,290.4,278,343.6,278c39.2-13.4,62.6-39.8,89.6-70.4c30.9-34.9,65.8-74.5,125.8-95.8c8.4-3,17.8-4.5,27.8-4.5
	c126.5,0,492.4,300.1,578.3,451.7c9.1,16.1,36.8,65.1,11.7,106.9C1821.4,1878.5,1685.4,1959.6,1513,1959.6z M303.9,144.7
	C191,214.1,129.3,303.5,115.3,417.8C86.2,655.5,278.1,1006.2,628.6,1356c154.5,154.2,550,512.8,884.4,512.8c0,0,0,0,0,0
	c138.3,0,244.2-62.8,323.3-191.9c-15-89.7-413.3-424.9-508.5-426.4c-36.7,13.7-59.7,39.6-86.2,69.6c-30.9,34.9-65.9,74.5-125.9,95.8
	c-9.7,3.4-20.4,5.2-31.7,5.2c-120.2,0-349.7-216.2-454.8-365.1c-59.2-83.8-80.2-146.2-64.4-190.9c21.3-60,60.9-95,95.8-125.9
	c30-26.5,56-49.5,69.7-86.3c0.5-32.7-73.5-163.8-211.7-320.5C405.3,203.8,329.1,150.4,303.9,144.7z"/>
</svg>
