<?xml version="1.0" encoding="utf-8"?>
<!-- Generator: Adobe Illustrator 18.1.1, SVG Export Plug-In . SVG Version: 6.00 Build 0)  -->
<svg version="1.1" id="Layer_1" xmlns="http://www.w3.org/2000/svg" xmlns:xlink="http://www.w3.org/1999/xlink" x="0px" y="0px"
	 viewBox="0 0 2000 2000" enable-background="new 0 0 2000 2000" xml:space="preserve">
<g>
	<g>
		<path fill="#010101" d="M1029.1,1973L1029.1,1973c-12.8,0-31.9-6.4-38.3-19.2c-25.5-38.3-632.1-900.3-632.1-1257.8
			c0-370.3,300.1-670.4,670.4-670.4s670.4,300.1,670.4,670.4c0,357.6-606.6,1219.5-632.1,1251.5
			C1061,1960.2,1041.9,1973,1029.1,1973z M1029.1,121.3c-319.2,0-574.6,261.8-574.6,574.6c0,274.6,440.6,945,574.6,1142.9
			c134.1-197.9,574.6-868.4,574.6-1142.9C1603.7,376.7,1348.3,121.3,1029.1,121.3z"/>
	</g>
	<g>
		<path fill="#010101" d="M1029.1,957.8c-166,0-300.1-134.1-300.1-300.1s134.1-300.1,300.1-300.1s300.1,134.1,300.1,300.1
			S1195.1,957.8,1029.1,957.8z M1029.1,453.3c-114.9,0-204.3,89.4-204.3,204.3S914.2,862,1029.1,862s204.3-89.4,204.3-204.3
			S1137.6,453.3,1029.1,453.3z"/>
	</g>
</g>
</svg>
