<?xml version="1.0" encoding="utf-8"?>
<!-- Generator: Adobe Illustrator 18.1.1, SVG Export Plug-In . SVG Version: 6.00 Build 0)  -->
<svg version="1.1" id="Layer_1" xmlns="http://www.w3.org/2000/svg" xmlns:xlink="http://www.w3.org/1999/xlink" x="0px" y="0px"
	 viewBox="0 0 2000 2000" enable-background="new 0 0 2000 2000" xml:space="preserve">
<g>
	<path fill="#010101" d="M1503.7,882.9c-30.3,0-57.9,8.3-79.9,22c-24.8-52.4-77.1-88.2-137.8-88.2c-30.3,0-57.9,8.3-79.9,22
		c-24.8-52.4-77.2-88.2-137.8-88.2c-22,0-46.8,5.5-66.1,13.8V351.1c0-85.4-68.9-151.5-151.5-151.5s-151.5,68.9-151.5,151.5v691.6
		l-46.8-96.4c-22-57.9-79.9-99.2-143.3-99.2c-16.5,0-35.8,2.8-52.4,8.3c-79.9,27.6-121.2,115.7-90.9,195.6c0,0,0,2.8,2.8,2.8
		L685.4,1726c0,2.8,2.8,2.8,2.8,5.5c33.1,49.6,71.6,93.7,118.5,132.3c2.8,2.8,5.5,2.8,8.3,5.5c2.8,2.8,2.8,2.8,5.5,5.5
		c90.9,66.1,198.4,101.9,311.4,101.9c281,0,512.5-220.4,523.5-498.7c0,0,0-2.8,0-5.5c0-8.3,0-16.5,0-24.8c0-2.8,0-2.8,0-5.5v-5.5
		c0-5.5,0-8.3,0-13.8v-388.5C1658,951.8,1589.2,882.9,1503.7,882.9z M1578.1,1428.5v11c0,5.5,0,8.3,0,13.8c0,8.3,0,13.8,0,22
		c-22,231.4-212.2,416.1-446.4,416.1c-93.7,0-181.9-27.6-256.2-82.7l-5.5-5.5c-5.5-5.5-11-8.3-16.5-11
		c-35.8-30.3-66.1-63.4-90.9-101.9l-314.1-669.6c-5.5-16.5-5.5-33.1,2.8-49.6c8.3-16.5,19.3-27.6,35.8-33.1
		c33.1-11,71.6,5.5,82.7,38.6c0,0,0,2.8,2.8,2.8l129.5,275.5c8.3,19.3,30.3,27.6,49.6,24.8c19.3-5.5,33.1-22,33.1-41.3V351.1
		c0-35.8,30.3-66.1,66.1-66.1c35.8,0,66.1,30.3,66.1,66.1v551.1c0,24.8,19.3,44.1,44.1,44.1c24.8,0,44.1-19.3,44.1-44.1
		c0-35.8,30.3-66.1,66.1-66.1c35.8,0,66.1,30.3,66.1,66.1v66.1c0,24.8,19.3,44.1,44.1,44.1c24.8,0,44.1-19.3,44.1-44.1
		c0-35.8,30.3-66.1,66.1-66.1c35.8,0,66.1,30.3,66.1,66.1v66.1c0,24.8,19.3,44.1,44.1,44.1c24.8,0,44.1-19.3,44.1-44.1
		c0-35.8,30.3-66.1,66.1-66.1c35.8,0,66.1,30.3,66.1,66.1V1428.5z"/>
	<path fill="#010101" d="M569.7,265.7c22,11,46.8,2.8,57.9-19.3c41.3-82.7,124-135,214.9-135c93.7,0,176.3,52.4,214.9,135
		c8.3,16.5,22,24.8,38.6,24.8c5.5,0,13.8-2.8,19.3-5.5c22-11,30.3-35.8,19.3-57.9c-55.1-113-170.8-184.6-294.8-184.6
		c-118.5,0-234.2,71.6-289.3,184.6C539.4,229.9,547.6,254.7,569.7,265.7z"/>
</g>
</svg>
