<?xml version="1.0" encoding="utf-8"?>
<!-- Generator: Adobe Illustrator 21.1.0, SVG Export Plug-In . SVG Version: 6.00 Build 0)  -->
<svg version="1.1" id="Layer_1" xmlns="http://www.w3.org/2000/svg" xmlns:xlink="http://www.w3.org/1999/xlink" x="0px" y="0px"
	 viewBox="0 0 2000 2000" style="enable-background:new 0 0 2000 2000;" xml:space="preserve">
<g transform="translate(0,-952.36218)">
	<path d="M1774,1141.4l-716.2,12.7c-9.5,0.2-18.6,4.1-25.3,10.9l-833,833c-14.5,14.3-14.6,37.6-0.3,52.1c0.1,0.1,0.2,0.2,0.3,0.3
		l703,702.4c14.3,14.2,37.4,14.2,51.8,0l833-833c6.8-6.7,10.7-15.8,10.9-25.3l13.2-715.6c0.3-20.3-15.9-37.1-36.2-37.4
		C1774.8,1141.4,1774.4,1141.4,1774,1141.4L1774,1141.4z M1737.2,1215l-12.7,663.9l-796.2,796.2l-651.2-651.2l796.2-796.2
		L1737.2,1215z M1462.2,1343.3c-37.8,0-75.5,14.5-104.1,43.1c-57.2,57.2-57.2,151,0,208.3c57.2,57.2,151,57.2,208.3,0
		c57.2-57.2,57.2-151,0-208.3C1537.8,1357.8,1500,1343.3,1462.2,1343.3z M1462.2,1416.4c18.8,0,37.2,7.3,51.8,21.9
		c29.1,29.1,29.1,75.1,0,104.1c-29.1,29.1-75.1,29.1-104.1,0c-29.1-29.1-29.1-75.1,0-104.1
		C1424.4,1423.7,1443.5,1416.4,1462.2,1416.4z M1003.7,1641.3c-20.3,0-36.8,16.5-36.8,36.8v24.7c-63.6,14.8-113.3,70.9-113.3,143.2
		c0,46.2,22.6,82.2,50,102.4c27.4,20.2,56.8,29.2,81.1,40.8c43.5,18.1,88.3,37.7,88.6,77.7c0,49.2-28.3,73.6-73.1,73.6
		c-34.7,0-63.9-26.9-77.1-53.5c-7.3-19-32.5-28.7-50.6-19.6c-18.1,9.1-25.7,35-15,52.4c19.4,39.1,57.5,78.2,109.3,90.3v20.1
		c0,20.3,16.5,36.8,36.8,36.8c20.3,0,36.8-16.5,36.8-36.8v-21.9c60.1-17.2,105.9-71.9,105.9-141.5c0-46.2-22-82.8-49.5-103
		c-27.4-20.2-56.8-29.2-81.1-40.8c-43.2-18.1-88.3-37.6-88.6-77.1c0-49.2,28.3-73.6,73.1-73.6c34.7,0,63.9,26.3,77.1,52.9
		c7.3,19,32.5,28.7,50.6,19.6c18.1-9.1,25.1-35,14.4-52.3c-18.5-37.3-53.6-74.2-101.8-88v-26.5
		C1040.6,1657.8,1024.1,1641.3,1003.7,1641.3z"/>
</g>
</svg>
