<?xml version="1.0" encoding="utf-8"?>
<!-- Generator: Adobe Illustrator 21.1.0, SVG Export Plug-In . SVG Version: 6.00 Build 0)  -->
<svg version="1.1" id="Layer_1" xmlns="http://www.w3.org/2000/svg" xmlns:xlink="http://www.w3.org/1999/xlink" x="0px" y="0px"
	 viewBox="0 0 2000 2000" style="enable-background:new 0 0 2000 2000;" xml:space="preserve">
<g>
	<path d="M555.7,981.2c52.2-24.1,103.9-58.8,155.1-103.9c42.6-35.4,81-74.5,115.1-117.2c34.1-42.6,63.4-84.9,87.9-126.8
		c24.5-41.8,42.1-81.7,52.8-119.6c10.6-37.8,12.8-71.2,6.4-100.2c-4.3-22.5-19.2-39-44.8-49.5c-25.6-10.4-53.3-15.7-83.1-15.7
		c-10.7,0-21.3,0.8-32,2.4c-10.7,1.6-19.2,4.8-25.6,9.7c-12.8,6.5-17.1,14.5-12.8,24.2c6.4,32.2-1.6,73.3-24,123.2
		c-22.4,49.9-54.9,103.9-97.5,161.8c-123.7,151.4-226,227.1-307,227.1c-14.9,0-27.7-2.8-38.4-8.5c-10.7-5.6-18.1-21.3-22.4-47.1
		c-4.3-19.3-2.2-43.1,6.4-71.3c8.5-28.2,21.3-57.2,38.4-87c17-29.8,36.8-59.6,59.2-89.4c22.4-29.8,45.3-56.8,68.7-80.9
		c104.4-107.9,192.9-164.3,265.4-169.1c4.3,1.6,8.5,2.4,12.8,2.4c4.2,0,11.7-2.4,22.4-7.2c10.6-4.8,16-18.5,16-41.1
		c0-4.8-1.1-13.3-3.2-25.4c-2.1-12.1-8.5-24.5-19.2-37.4c-25.6-24.1-57.6-36.2-95.9-36.2c-25.6,0-57.6,8.1-95.9,24.2
		c-38.4,16.1-78.9,38.7-121.5,67.6c-42.7,29-84.8,63.2-126.3,102.7c-41.6,39.5-79.4,81.8-113.5,126.8
		c-40.5,53.1-68.7,104.3-84.8,153.4c-16,49.2-20.8,92.2-14.4,129.2c4.3,22.6,14.4,46.3,30.4,71.3c16,25,37.3,48.3,64,70.1
		c26.6,21.7,58.1,39.5,94.3,53.1c36.2,13.7,76.7,20.5,121.5,20.5S503.4,1005.4,555.7,981.2z"/>
	<path d="M1900.4,1278.3c-4.3-20.9-19.2-36.6-44.8-47.1c-25.6-10.5-53.3-15.7-83.2-15.7c-10.7,0-21.3,0.8-32,2.4
		c-10.7,1.6-19.2,6.4-25.6,14.5c-8.6,4.8-12.8,11.3-12.8,19.3c8.5,32.2,1,73.3-22.4,123.2c-23.5,49.9-57.6,103.9-102.3,161.8
		c-119.4,151.4-221.8,227.1-307,227.1c-10.7,0-21.3-3.2-32-9.7c-10.7-6.4-19.2-20.9-25.6-43.5c-4.3-20.9-2.2-45.1,6.4-72.5
		c8.5-27.4,21.3-56.4,38.4-87c17.1-30.6,36.8-60.8,59.2-90.6c22.4-29.8,45.3-57.6,68.8-83.3c98-106.3,187.6-161.8,268.6-166.7h9.6
		c4.3,0,11.7-2,22.4-6c10.6-4,16-16.5,16-37.4c0-4.8-1.1-13.7-3.2-26.6c-2.2-12.9-9.6-25-22.4-36.2c-21.3-27.4-53.3-41.1-95.9-41.1
		c-25.6,0-57.6,8.1-95.9,24.1c-38.4,16.1-78.4,38.7-120,67.6c-41.6,29-83.1,63.2-124.7,102.7c-41.6,39.5-79.4,82.5-113.5,129.2
		c-78.9,111.1-111.9,204.5-99.1,280.2c4.3,22.6,14.9,46.3,32,71.3c17,25,38.8,48.3,65.5,70.1c26.7,21.7,58.1,39.5,94.3,53.1
		c36.2,13.7,76.8,20.5,121.5,20.5c44.8,0,92.7-12.1,143.9-36.2c51.1-24.2,102.3-58,153.5-101.5c40.5-37,78.4-76.5,113.5-118.4
		c35.2-41.8,64.4-83.7,87.9-125.6c23.5-41.9,41-82.1,52.8-120.8C1904.1,1341.1,1906.8,1307.3,1900.4,1278.3z"/>
	<path d="M1376,807.3c57.5-70.8,111.9-135.7,163.1-194.5c51.2-58.8,96.5-111.1,135.9-157c39.4-45.9,70.9-84.5,94.3-116
		s35.2-54.4,35.2-68.8c0-33.8-9.1-64-27.2-90.6c-18.1-26.6-39.4-49.5-63.9-68.8c-24.5-19.3-50.1-34.6-76.8-45.9
		c-26.7-11.3-47.5-16.9-62.4-16.9c-2.1,24.2-22.4,65.2-60.7,123.2c-38.4,58-90.6,129.6-156.7,215c-66.1,85.4-143.9,184-233.4,295.9
		c-89.5,112-187.6,235.5-294.2,370.8c-59.7,75.7-118.3,148.6-175.9,218.6s-108.7,134.9-153.5,194.5
		c-44.8,59.6-81.1,112.7-108.7,159.4c-27.7,46.7-41.6,85.4-41.6,116c0,32.2,8.5,60.8,25.6,85.8c17,25,36.8,45.9,59.2,62.8
		c22.4,16.9,45.8,30.6,70.3,41.1c24.5,10.5,45.3,16.5,62.4,18.1c6.4-53.2,35.2-122,86.3-206.5c51.2-84.5,115.1-177.9,191.9-280.2
		c76.7-102.2,162-209.7,255.8-322.5C1194.7,1027.9,1286.4,916.8,1376,807.3z"/>
</g>
</svg>
