<?xml version="1.0" encoding="utf-8"?>
<!-- Generator: Adobe Illustrator 21.1.0, SVG Export Plug-In . SVG Version: 6.00 Build 0)  -->
<svg version="1.1" id="Layer_1" xmlns="http://www.w3.org/2000/svg" xmlns:xlink="http://www.w3.org/1999/xlink" x="0px" y="0px"
	 viewBox="0 0 2000 2000" style="enable-background:new 0 0 2000 2000;" xml:space="preserve">
<g>
	<path d="M1799.3,956c-12.2,0-22.2,9.3-22.2,20.6s10,20.6,22.2,20.6c12.2,0,22.2-9.3,22.2-20.6C1821.5,965.3,1811.5,956,1799.3,956z
		 M1799.3,985.6c-5.9,0-10.6-4-10.6-9c0-4.9,4.7-9,10.6-9c5.9,0,10.6,4,10.6,9C1809.9,981.5,1805.2,985.6,1799.3,985.6z"/>
	<path d="M1605.3,897.3v306.4h12.9l11.7,114.4l0.4,5.4h66.7l12.3-119.7h183.4l11.8,114.4l0.4,5.4h66.7l12.3-119.7h9.5V897.3H1605.3z
		 M1616.9,1038.4V908.9h364.9v129.5H1616.9z M1915.5,1311.8l-11.8-114.4l-0.4-5.4h-204.5l-12.3,119.7h-45.6l-11.7-114.4l-0.4-5.4
		h-11.9v-124.7h364.9v124.9h-8.4l-12.3,119.7L1915.5,1311.8L1915.5,1311.8z M1616.9,1055.9v-5.9h364.9v5.9H1616.9z"/>
	<path d="M1799.3,1109.9c-12.2,0-22.2,9.3-22.2,20.6c0,11.3,10,20.6,22.2,20.6c12.2,0,22.2-9.3,22.2-20.6
		S1811.5,1109.9,1799.3,1109.9z M1799.3,1139.5c-5.9,0-10.6-4-10.6-9c0-4.9,4.7-9,10.6-9c5.9,0,10.6,4,10.6,9
		C1809.9,1135.4,1805.2,1139.5,1799.3,1139.5z"/>
	<path d="M713.6,849.9H215.2c-37.1,0-55.1,16.5-55.1,50.4v6.6h608.6v-6.6C768.7,866.4,750.6,849.9,713.6,849.9z M171.8,895.3
		c1.5-23.9,14.2-33.7,43.4-33.7h498.2c29,0,41.8,9.8,43.4,33.7H171.8z"/>
	<path d="M1335.1,849.9H836.8c-37.1,0-55.1,16.5-55.1,50.4v6.6h608.6v-6.6C1390.3,866.4,1372.2,849.9,1335.1,849.9z M793.4,895.3
		c1.5-23.9,14.2-33.7,43.4-33.7H1335c29.1,0,41.9,9.8,43.4,33.7H793.4z"/>
	<path d="M1422,926H128.3C61.8,926,7.7,975.2,7.7,1035.6v196.8h63.2l10.9,145.7l0.4,5.4h91.4l11.3-151.2h1180.2l11.3,151.2h91.4
		l11.3-151.2h63.2v-196.8c0.1-27.2-10.9-53.2-31.1-73.4C1488.4,939.1,1455.9,926,1422,926z M1387.4,1372.1l-11.3-151.2H174.2
		L162.9,1372H93l-10.9-145.7l-0.4-5.4H19.3v-185.2c0-54,48.9-98,109-98H1422c60.1,0,109,43.9,109,98v185.2h-62.4l-11.3,151.2
		L1387.4,1372.1L1387.4,1372.1z"/>
	<path d="M215.2,839.3h498.2c26.6,0,45.8,7.7,57,22.7l4.6,6.4l4.6-6.4c11.2-15,30.4-22.7,57-22.7h498.2c26.6,0,45.8,7.7,57,22.7
		l10.5,14V733.3c0-38.6-11-68.2-32.6-87.8s-54-29.5-96.5-29.5H276.8c-42.4,0-74.8,9.9-96.5,29.5c-21.7,19.6-32.6,49.2-32.6,87.8
		v142.8l10.5-14.1C169.4,847,188.5,839.3,215.2,839.3z M188.7,654.2c19.5-17.6,49.2-26.6,88.2-26.6h996.6c39,0,68.7,8.9,88.2,26.6
		c19.4,17.5,29.3,44.1,29.3,79.1v111.1c-13.6-10.9-32.7-16.7-55.9-16.7H836.8c-26.8,0-48,7.6-61.6,21.9
		c-13.7-14.3-34.9-21.9-61.6-21.9H215.2c-23.1,0-42.3,5.8-55.9,16.6v-111C159.4,698.2,169.2,671.7,188.7,654.2z"/>
</g>
</svg>
