<?xml version="1.0" encoding="utf-8"?>
<!-- Generator: Adobe Illustrator 22.0.1, SVG Export Plug-In . SVG Version: 6.00 Build 0)  -->
<svg version="1.1" id="Layer_1" xmlns="http://www.w3.org/2000/svg" xmlns:xlink="http://www.w3.org/1999/xlink" x="0px" y="0px"
	 viewBox="0 0 2000 2000" style="enable-background:new 0 0 2000 2000;" xml:space="preserve">
<style type="text/css">
	.st0{fill:#020203;}
</style>
<path class="st0" d="M1918.6,1202.3v-59v-8.4V325.8c0-60.4-49.1-109.6-109.6-109.6c-57.6,0-104.9,44.6-109.2,101.1H300.2
	c-4.3-56.5-51.7-101.1-109.2-101.1c-60.4,0-109.6,49.1-109.6,109.6v809v8.4v59c-39.6,16.5-67.4,55.6-67.4,101.1v480.4h179.1
	l33.7-202.3h1546.5l33.7,202.3h179v-480.4C1986,1257.9,1958.1,1218.8,1918.6,1202.3z M165.7,1143.3L165.7,1143.3l0-8.4
	c0-75,42.9-140.2,105.4-172.4c1.8-0.9,3.6-1.8,5.4-2.6l3.9-1.8c24.2-10.9,51-16.9,79.2-16.9h615.2h50.6h615.2
	c28.3,0,55.2,6.1,79.4,17l3.7,1.7c0.9,0.4,1.8,0.9,2.8,1.3c63.9,31.7,108,97.7,108,173.7l-0.1,8.5h0.1v50.6H165.7V1143.3z
	 M1783.7,325.8c0-13.9,11.4-25.3,25.2-25.3c6.8,0.1,13.3,2.9,18.3,8.1c4.6,4.4,7.2,10.6,7.1,17.1V935c-2.3-2.2-4.6-4.4-7-6.5
	c-13.3-12-27.9-22.8-43.6-32.1V401.7V325.8z M1564.6,856.7h-455.1V659.9c0.2-30.7,25.3-55.8,56-56h343.1c30.7,0.2,55.8,25.3,56,56
	V856.7z M890.4,856.7H435.4V659.9c0.2-30.7,25.3-55.8,56-56h343.1c30.7,0.2,55.8,25.3,56,56V856.7z M1699.5,863
	c-16.6-3.6-33.6-5.7-50.6-6.2v-197c0-77.3-62.9-140.2-140.2-140.2h-343.2c-77.3,0-140.2,62.9-140.2,140.2v196.9h-50.6V659.9
	c0-77.3-62.9-140.2-140.2-140.2H491.3c-77.3,0-140.2,62.9-140.2,140.2v197.1c-17,0.6-34,2.7-50.6,6.3V401.7h1398.9V863z
	 M216.3,401.7v494.7C198,907.3,181,920.3,165.7,935V325.8c0-13.9,11.3-25.2,25.2-25.3c6.7,0.1,13.2,3,18.2,8.1
	c4.6,4.4,7.3,10.6,7.1,17.1V401.7z M121.5,1699.5H98.3v-396.1c0-13.9,11.3-25.3,25.3-25.3h1752.9c13.9,0,25.3,11.4,25.3,25.3v396.1
	h-23.2l-33.7-202.3H155.2L121.5,1699.5z"/>
</svg>
