<?xml version="1.0" encoding="utf-8"?>
<!-- Generator: Adobe Illustrator 21.1.0, SVG Export Plug-In . SVG Version: 6.00 Build 0)  -->
<svg version="1.1" id="Layer_1" xmlns="http://www.w3.org/2000/svg" xmlns:xlink="http://www.w3.org/1999/xlink" x="0px" y="0px"
	 viewBox="0 0 2000 2000" style="enable-background:new 0 0 2000 2000;" xml:space="preserve">
<g>
	<path d="M1846.8,872.8v200.3H154.2V872.8c0-37.4-112.1-36.3-112.1,0v200.3v167.8H178L138.6,1419h67.3l78.6-178.1h1432l78.6,178.1
		h67.3l-39.3-178.1H1959v-167.8V872.8C1959,835.4,1846.8,836.6,1846.8,872.8z"/>
	<path d="M1817.6,732.3c0-83.5-67.7-151.1-151.1-151.1H334.6c-83.5,0-151.1,67.7-151.1,151.1v311.5h1634.1V732.3z M381.1,853.7
		c-23.2,0-42.1-18.8-42.1-42.1c0-23.2,18.8-42.1,42.1-42.1c23.2,0,42,18.8,42,42.1C423.1,834.9,404.3,853.7,381.1,853.7z M782,853.7
		c-23.2,0-42.1-18.8-42.1-42.1c0-23.2,18.8-42.1,42.1-42.1c23.2,0,42.1,18.8,42.1,42.1C824,834.9,805.2,853.7,782,853.7z
		 M1219.1,853.7c-23.2,0-42-18.8-42-42.1c0-23.2,18.8-42.1,42-42.1c23.2,0,42.1,18.8,42.1,42.1
		C1261.1,834.9,1242.3,853.7,1219.1,853.7z M1620,853.7c-23.2,0-42.1-18.8-42.1-42.1c0-23.2,18.8-42.1,42.1-42.1
		s42.1,18.8,42.1,42.1C1662,834.9,1643.2,853.7,1620,853.7z"/>
</g>
</svg>
