<?xml version="1.0" encoding="utf-8"?>
<!-- Generator: Adobe Illustrator 21.1.0, SVG Export Plug-In . SVG Version: 6.00 Build 0)  -->
<svg version="1.1" id="Layer_1" xmlns="http://www.w3.org/2000/svg" xmlns:xlink="http://www.w3.org/1999/xlink" x="0px" y="0px"
	 viewBox="0 0 2000 2000" style="enable-background:new 0 0 2000 2000;" xml:space="preserve">
<style type="text/css">
	.st0{fill:#231F20;}
</style>
<g>
	<path class="st0" d="M1985.9,870.2c0-24-31.7-34.7-63.1-34.7c-31.1,0-64.5,10.9-64.5,34.7v198H142.8v-198c0-24-31.7-34.7-63.1-34.7
		c-31.1,0-64.5,10.9-64.5,34.7v382.4h137.2l-40.2,181.9h81.2l80.4-181.9h1453.9l78.6,178l1.7,3.9h81.1l-40.2-181.9h137V870.2z
		 M1816.4,1421.4l-78.6-178l-1.7-3.9H265l-80.4,181.9h-56.3l40.2-181.9H28.2V870.2c0-13.5,26.1-21.6,51.3-21.6
		c24.3,0,50,7.6,50,21.6v211.1h1741.7V870.2c0-13.5,26.1-21.6,51.4-21.6c14,0,27,2.3,36.3,6.4c9.1,4.1,13.7,9.2,13.7,15.3v369.3
		h-140.2l40.2,181.9L1816.4,1421.4L1816.4,1421.4z"/>
	<path class="st0" d="M367.8,857.2c27.3,0,49.5-22.2,49.5-49.5c0-27.3-22.2-49.5-49.5-49.5c-27.3,0-49.5,22.2-49.5,49.5
		C318.3,835,340.6,857.2,367.8,857.2z M331.5,807.7c0-20.1,16.3-36.4,36.4-36.4s36.4,16.3,36.4,36.4c0,9.6-3.7,18.8-10.6,25.6
		c-6.9,7-16.1,10.8-25.8,10.8C347.8,844.1,331.5,827.8,331.5,807.7z"/>
	<path class="st0" d="M1223.7,857.2c27.3,0,49.5-22.2,49.5-49.5c0-27.3-22.2-49.5-49.5-49.5c-27.3,0-49.5,22.2-49.5,49.5
		C1174.2,835,1196.5,857.2,1223.7,857.2z M1187.3,807.7c0-20.1,16.3-36.4,36.4-36.4c20.1,0,36.4,16.3,36.4,36.4
		c0,20.1-16.3,36.4-36.4,36.4C1203.6,844.1,1187.3,827.8,1187.3,807.7z"/>
	<path class="st0" d="M1841.4,726.7c0-88.8-72.2-160.9-160.9-160.9h-1360c-88.8,0-160.9,72.2-160.9,160.9v324.7h1681.8V726.7z
		 M320.5,578.9h1360.1c81.5,0,147.8,66.3,147.8,147.8v311.7H172.7V726.7C172.7,645.2,239,578.9,320.5,578.9z"/>
	<path class="st0" d="M1633.2,857.2c27.3,0,49.5-22.2,49.5-49.5c0-27.3-22.2-49.5-49.5-49.5s-49.5,22.2-49.5,49.5
		C1583.7,835,1605.9,857.2,1633.2,857.2z M1596.8,807.7c0-20.1,16.3-36.4,36.4-36.4s36.4,16.3,36.4,36.4c0,20.1-16.3,36.4-36.4,36.4
		S1596.8,827.8,1596.8,807.7z"/>
	<path class="st0" d="M777.3,857.2c27.3,0,49.5-22.2,49.5-49.5c0-27.3-22.2-49.5-49.5-49.5c-27.3,0-49.5,22.2-49.5,49.5
		C727.8,835,750,857.2,777.3,857.2z M740.9,807.7c0-20.1,16.3-36.4,36.4-36.4c20.1,0,36.4,16.3,36.4,36.4c0,9.6-3.7,18.8-10.6,25.6
		c-6.9,7-16.1,10.8-25.8,10.8C757.2,844.1,740.9,827.8,740.9,807.7z"/>
</g>
</svg>
