<?xml version="1.0" encoding="utf-8"?>
<!-- Generator: Adobe Illustrator 22.0.1, SVG Export Plug-In . SVG Version: 6.00 Build 0)  -->
<svg version="1.1" id="Layer_1" xmlns="http://www.w3.org/2000/svg" xmlns:xlink="http://www.w3.org/1999/xlink" x="0px" y="0px"
	 viewBox="0 0 2000 2000" style="enable-background:new 0 0 2000 2000;" xml:space="preserve">
<style type="text/css">
	.st0{fill:#020203;}
</style>
<g>
	<path class="st0" d="M1875.6,695.9c-25.1,0-48.3,7.7-67.6,20.9v-61.1c0-86.3-70.3-156.4-156.7-156.4h-593.8
		c-23.4,0-44.7,9-60.7,23.7c-16-14.7-37.3-23.7-60.6-23.7H342.3c-86.4,0-156.7,70.2-156.7,156.4v57.1c-18-10.7-39-16.9-61.5-16.9
		C57.9,695.9,4,749.8,4,816v408.9c0,62.3,47.6,113.6,108.3,119.6c1.9,0.4,3.9,0.6,5.9,0.6h170l23.5,131.7c2.5,14,14.7,24.3,29,24.3
		h92.5c14.3,0,26.5-10.2,29-24.2l23.6-131.7H1508l23.5,131.7c2.5,14,14.7,24.3,29,24.3h92.6c14.3,0,26.5-10.2,29-24.3l23.5-131.7
		h169.9c0,0,0,0,0.1,0c0,0,0.1,0,0.1,0c66.3,0,120.2-53.9,120.2-120.2V816C1995.8,749.8,1941.9,695.9,1875.6,695.9z M1680.9,1286.2
		h-148.2H461H312.8h-85.2c5.3-9,9.5-18.7,12.4-28.9c0-0.1,0.1-0.2,0.1-0.3c1.4-5,2.5-10.2,3.2-15.4c0-0.3,0.1-0.6,0.1-0.9
		c0.3-2.2,0.5-4.4,0.7-6.7c0-0.5,0.1-1,0.1-1.5c0.2-2.5,0.3-5.1,0.3-7.6v-0.2v-43.2h752.3h758.6v43.2v0.2c0,2.6,0.1,5.1,0.3,7.6
		c0,0.5,0.1,0.9,0.1,1.4c0.2,2.3,0.4,4.6,0.7,6.9c0,0.2,0.1,0.5,0.1,0.7c2.2,16.1,7.7,31.3,15.7,44.7H1680.9z M1749.1,1122.7h-722.9
		v-83.3h722.9V1122.7z M967.4,1122.7H244.5v-83.3h722.9V1122.7z M1057.5,558.1h593.8c53.9,0,97.8,43.8,97.8,97.6v324.9h-722.9V589.3
		C1026.2,572.1,1040.3,558.1,1057.5,558.1z M244.5,655.7c0-53.8,43.9-97.6,97.8-97.6h593.9c17.2,0,31.2,14,31.2,31.2v391.2H244.5
		V816.1V655.7z M62.9,1224.9V816.1c0-33.8,27.5-61.3,61.3-61.3c33.9,0,61.5,27.5,61.5,61.3V1010v142.1v72.6
		c0,27.1-17.6,50.1-41.9,58.2c-0.4,0.1-0.7,0.3-1.1,0.4c-1.3,0.4-2.5,0.7-3.8,1c-0.7,0.2-1.4,0.4-2.1,0.5c-1.1,0.2-2.2,0.4-3.3,0.5
		c-0.9,0.1-1.9,0.3-2.8,0.4c-1,0.1-2,0.1-3,0.2c-1.1,0.1-2.2,0.2-3.4,0.2l-0.5,0C90.2,1286,62.9,1258.6,62.9,1224.9z M408.5,1442.2
		h-43.2l-17.3-97.1h77.9L408.5,1442.2z M1628.4,1442.2h-43.3l-17.3-97.1h77.9L1628.4,1442.2z M1936.9,1224.9
		c0,33.8-27.5,61.3-61.3,61.3c-0.4,0-0.8-0.1-1.2-0.1c-33.3-0.7-60.2-28-60.2-61.4v-72.6V816.1c0-33.8,27.5-61.3,61.4-61.3
		c33.8,0,61.3,27.5,61.3,61.3L1936.9,1224.9L1936.9,1224.9z"/>
	<path class="st0" d="M1653.1,1505.3h-92.6c-16.3,0-30.2-11.7-33.1-27.7l-22.9-128.3H489.2l-22.9,128.3
		c-2.9,16.1-16.8,27.7-33.1,27.7h-92.5c-16.3,0-30.2-11.7-33.1-27.7l-22.9-128.3H118.2c-2.2,0-4.4-0.2-6.5-0.6
		c-63.8-6.4-111.9-59.6-111.9-123.8V816c0-68.6,55.8-124.4,124.4-124.4c20,0,39.6,4.8,57.3,14v-50c0-88.6,72.2-160.6,160.9-160.6
		h593.9c22.2,0,43.6,7.9,60.6,22.3c17.1-14.4,38.5-22.3,60.7-22.3h593.8c88.7,0,160.9,72.1,160.9,160.6v53.4
		c19.2-11.4,40.9-17.4,63.4-17.4c68.6,0,124.4,55.8,124.4,124.4v408.9c0,68.6-55.8,124.4-124.4,124.4h-166.6l-22.9,128.3
		C1683.3,1493.6,1669.4,1505.3,1653.1,1505.3z M482.2,1340.9h1029.4l24.1,135.2c2.2,12,12.6,20.8,24.8,20.8h92.6
		c12.2,0,22.7-8.7,24.8-20.8l24.1-135.2h173.4c64.1,0,116.1-52,116.1-116V816c0-63.9-52-116-116-116c-23.4,0-46,7-65.3,20.1
		l-6.6,4.5v-69c0-83.9-68.4-152.2-152.5-152.2h-593.8c-21.4,0-41.9,8-57.9,22.6l-2.8,2.6L994,526c-15.9-14.6-36.4-22.6-57.8-22.6
		H342.3c-84.1,0-152.5,68.3-152.5,152.2v64.5l-6.4-3.8c-17.9-10.7-38.4-16.3-59.3-16.3c-63.9,0-116,52-116,116v408.9
		c0,59.9,44.9,109.5,104.5,115.4l0.4,0.1c1.7,0.3,3.4,0.5,5.1,0.5h173.5l24.1,135.2c2.2,12,12.6,20.8,24.8,20.8h92.5
		c12.2,0,22.7-8.7,24.8-20.8L482.2,1340.9z M1631.9,1446.4h-50.3l-18.8-105.5h88L1631.9,1446.4z M1588.7,1438h36.2l15.8-88.7h-67.9
		L1588.7,1438z M412,1446.4h-50.2l-18.8-105.5h88L412,1446.4z M368.8,1438H405l15.9-88.7H353L368.8,1438z M1875.6,1290.4
		c-0.3,0-0.6,0-1,0c-35.8-0.8-64.6-30.2-64.6-65.6V816.1c0-36.1,29.4-65.5,65.6-65.5c36.1,0,65.5,29.4,65.5,65.5l0,408.8
		C1941.1,1261,1911.7,1290.4,1875.6,1290.4z M1875.6,758.9c-31.5,0-57.2,25.6-57.2,57.1v408.7c0,30.9,25.1,56.5,56,57.2l0.8,0
		c0,0,0,0,0,0c31.8,0,57.4-25.6,57.4-57.1l0-408.8C1932.7,784.6,1907.1,758.9,1875.6,758.9z M1779.7,1290.4H220.2l3.8-6.4
		c5.2-8.7,9.2-18.1,12-27.9c1.4-5.1,2.5-10.1,3.2-15.1l0.1-0.9c0.3-2.1,0.5-4.3,0.7-6.4l0.1-1.4c0.2-2.5,0.3-4.9,0.3-7.4v-47.6
		h1519.3v47.4c0,2.6,0.1,5.1,0.3,7.5l0.1,1.3c0.2,2.3,0.4,4.5,0.7,6.7l-4.1,1.2l4.2-0.6c2.1,15.3,7.2,29.8,15.2,43.1L1779.7,1290.4z
		 M234.8,1282h1530.4c-6.5-12.5-10.8-25.9-12.7-39.9l-0.1-0.5c-0.3-2.5-0.6-4.9-0.8-7.3l-0.1-1.5c-0.2-2.6-0.3-5.2-0.3-7.9v-39.2
		H248.7v39c0,2.8-0.1,5.4-0.3,8l-0.1,1.5c-0.2,2.3-0.4,4.6-0.7,6.9l-0.1,1c-0.8,5.4-1.9,10.7-3.3,16
		C241.8,1266.6,238.6,1274.5,234.8,1282z M124.3,1290.4l-0.6,0c-35.8-0.2-65-29.6-65-65.5V816.1c0-36.1,29.4-65.5,65.5-65.5
		c36.2,0,65.7,29.4,65.7,65.5v408.7c0,28.2-18,53.2-44.8,62.2c-0.6,0.2-0.9,0.3-1.1,0.4c-1.1,0.4-2.3,0.6-3.4,0.9l-1.4,0.4
		c-0.5,0.1-1,0.3-1.5,0.4c-0.9,0.2-1.8,0.3-2.7,0.4l-1.8,0.3c-0.7,0.1-1.4,0.2-2.1,0.3c-0.8,0.1-1.5,0.1-2.3,0.1l-1.8,0.1
		C126.1,1290.4,125.2,1290.4,124.3,1290.4z M124.2,758.9c-31.5,0-57.1,25.6-57.1,57.1v408.9c0,31.3,25.5,56.9,56.8,57.1l0.6,0
		c0.6,0,1.3,0,2-0.1l2.1-0.1c0.6,0,1.2,0,1.7-0.1c0.5-0.1,1-0.1,1.6-0.2l2-0.3c0.7-0.1,1.4-0.2,2.1-0.3c0.3-0.1,0.6-0.2,1-0.2
		l1.7-0.4c1-0.2,1.9-0.5,2.9-0.8l1-0.4c23.4-7.9,39.1-29.7,39.1-54.3V816.1C181.4,784.6,155.7,758.9,124.2,758.9z M1753.3,1126.9
		H1022v-91.7h731.3V1126.9z M1030.4,1118.5h714.5v-74.9h-714.5V1118.5z M971.6,1126.9H240.3v-91.7h731.3V1126.9z M248.7,1118.5
		h714.5v-74.9H248.7V1118.5z M1753.3,984.8H1022V589.3c0-19.5,15.9-35.4,35.5-35.4h593.8c56.3,0,102,45.7,102,101.8V984.8z
		 M1030.4,976.4h714.5V655.7c0-51.5-42-93.4-93.6-93.4h-593.8c-14.9,0-27.1,12.1-27.1,27V976.4z M971.6,984.8H240.3V655.7
		c0-56.1,45.8-101.8,102-101.8h593.9c19.5,0,35.4,15.9,35.4,35.4V984.8z M248.7,976.4h714.5v-387c0-14.9-12.1-27-27-27H342.3
		c-51.6,0-93.6,41.9-93.6,93.4V976.4z"/>
</g>
</svg>
