<?xml version="1.0" encoding="utf-8"?>
<!-- Generator: Adobe Illustrator 18.1.1, SVG Export Plug-In . SVG Version: 6.00 Build 0)  -->
<svg version="1.1" id="Layer_1" xmlns="http://www.w3.org/2000/svg" xmlns:xlink="http://www.w3.org/1999/xlink" x="0px" y="0px"
	 viewBox="0 0 2000 2000" enable-background="new 0 0 2000 2000" xml:space="preserve">
<g>
	<path fill="#010101" d="M650.6,641.6c79.4,0,144.2-64.8,144.2-144.2S730,353.2,650.6,353.2S506.4,418,506.4,497.4
		S571.2,641.6,650.6,641.6z M650.6,393.4c57.7,0,104.1,46.4,104.1,104.1s-46.4,104-104.1,104c-57.7,0-104-46.3-104-104
		C546.6,439.7,592.9,393.4,650.6,393.4z"/>
	<path fill="#010101" d="M917.9,641.7c-0.2-0.6-0.4-1.3-0.7-1.9c-0.3-0.6-0.6-1.3-0.9-1.9c-0.7-1.2-1.5-2.2-2.4-3.2
		c-0.9-1-1.8-1.9-2.9-2.8c-1.1-0.8-2.2-1.5-3.4-2c-0.6-0.3-1.2-0.6-1.9-0.8c-2.5-0.9-5.2-1.3-7.8-1.2c-2,0.1-4,0.5-5.9,1.2
		c-0.6,0.2-1.3,0.5-1.9,0.7c-0.6,0.3-1.2,0.6-1.7,1c-2.9,1.7-5.3,4.2-7,7.1c-0.3,0.6-0.6,1.2-0.9,1.8c-0.3,0.6-0.5,1.2-0.7,1.9
		c-0.4,1.3-0.8,2.6-0.9,3.9c-0.1,0.7-0.1,1.4-0.2,2c0,0.1,0,0.2,0,0.3v228.2H422.4V647.6c-0.2-11.1-9.3-19.9-20.4-19.8
		c-0.2,0-0.4,0-0.6,0l0,0c-10.6,0.5-19,9.1-19.2,19.8v248.2c0,6.1,2.8,11.9,7.6,15.7c0.5,0.4,1.1,0.8,1.7,1.2c0.6,0.4,1.1,0.7,1.7,1
		c0.6,0.3,1.2,0.6,1.8,0.8c0.6,0.2,1.2,0.4,1.9,0.6c1.8,0.5,3.6,0.7,5.4,0.7h496.5c1.4,0,2.7-0.1,4-0.4c0.7-0.1,1.3-0.3,1.9-0.5
		c1.9-0.6,3.7-1.5,5.4-2.6c0.6-0.4,1.1-0.8,1.6-1.2c1-0.9,1.9-1.8,2.8-2.9c0.4-0.5,0.8-1.1,1.2-1.7c1.1-1.7,1.9-3.5,2.5-5.4
		c0.4-1.3,0.6-2.6,0.7-4c0-0.5,0.1-0.9,0.1-1.4V647.6c0-0.6,0-1.3-0.1-1.9C918.7,644.3,918.4,643,917.9,641.7z"/>
	<path fill="#010101" d="M1642,1374c-0.2,0-0.5,0-0.7,0h-519.9c-11.1-0.2-20.2,8.6-20.5,19.7s8.6,20.2,19.7,20.4c0.2,0,0.5,0,0.7,0
		h519.9c11.1,0.2,20.2-8.6,20.5-19.7C1662,1383.4,1653.1,1374.2,1642,1374z"/>
	<path fill="#010101" d="M1381.3,766.8c-52.6,0-103.6,6.8-152.2,19.6c67.7-258-43.3-531.2-274.7-667.5
		c-89-52.4-187.2-79.5-285.3-82.5c-10.2-0.3-20.4-0.4-30.6-0.2l0,0c-153.1,3.2-303.6,64.9-416.3,180.4
		C29.8,413.8-3.1,717.2,142.5,951.1c139.3,223.7,407.7,328.4,659.9,262.1c-12.8,48.6-19.7,99.6-19.7,152.2
		c0,330.3,268.2,598.6,598.6,598.6s598.6-268.2,598.6-598.6C1979.9,1035,1711.7,766.8,1381.3,766.8z M176.6,929.8
		c-136-218.3-105.3-501.1,74.3-685.2c112.3-115.1,264.5-173,417-168.3l0,0c91.5,2.8,183.1,28.1,266.2,77.1
		c221.6,130.6,325.4,395.4,251.4,641.7c-0.5,1.6-0.7,3.3-0.8,4.9c-171.8,59.9-308,195.8-368.2,367.4
		C574.1,1242.9,311.1,1145.8,176.6,929.8z M1381.3,1923.8c-308.6,0-558.4-249.8-558.4-558.4c0-308.6,249.8-558.4,558.4-558.4v0
		c308.6,0,558.4,249.8,558.4,558.4S1690,1923.8,1381.3,1923.8z"/>
	<path fill="#010101" d="M1522.8,1478.8c-0.2,0-0.4,0-0.5,0h-281.9c-11.1-0.1-20.2,8.7-20.3,19.8c-0.1,11.1,8.7,20.2,19.8,20.3
		c0.2,0,0.4,0,0.5,0h281.9c11.1,0.1,20.2-8.7,20.3-19.8C1542.8,1488.1,1533.9,1479,1522.8,1478.8z"/>
	<path fill="#010101" d="M1735.3,1129.4h-333.9v-37.1c0.1-11.1-8.7-20.2-19.8-20.3c-0.2,0-0.4,0-0.6,0h0
		c-11.1,0.2-19.9,9.3-19.8,20.3v37.1h-333.9c-11.1,0-20.1,9-20.1,20.1v489.2c0,11.1,9,20.1,20.1,20.1h707.9c11.1,0,20.1-9,20.1-20.1
		v-489.2C1755.4,1138.4,1746.4,1129.4,1735.3,1129.4z M1715.2,1618.6h-667.7v-449h0h313.8v25.8c-0.2,11.1,8.7,20.2,19.8,20.4
		c11.1,0.2,20.2-8.7,20.4-19.8c0-0.2,0-0.4,0-0.6v-25.8h313.8V1618.6z"/>
	<path fill="#010101" d="M1102.1,1289c-0.1,11.1,8.7,20.2,19.8,20.3c0.2,0,0.4,0,0.5,0h517.9c11.1,0.1,20.2-8.7,20.3-19.8
		c0.1-11.1-8.7-20.2-19.8-20.3c-0.2,0-0.4,0-0.5,0h-517.9C1111.3,1269,1102.2,1277.9,1102.1,1289z"/>
</g>
</svg>
