<?xml version="1.0" encoding="utf-8"?>
<!-- Generator: Adobe Illustrator 18.1.1, SVG Export Plug-In . SVG Version: 6.00 Build 0)  -->
<svg version="1.1" id="Layer_1" xmlns="http://www.w3.org/2000/svg" xmlns:xlink="http://www.w3.org/1999/xlink" x="0px" y="0px"
	 viewBox="0 0 2000 2000" enable-background="new 0 0 2000 2000" xml:space="preserve">
<path fill="#010101" d="M1921.2,1882.8L1269,1230.5c227.9-269.5,215-674.5-39-928.5c-129.6-129.7-302.1-201.1-485.5-201.1
	S388.6,172.4,259,302C129.3,431.7,57.9,604.1,57.9,787.5S129.3,1143.3,259,1273s302.1,201.1,485.5,201.1
	c164.1,0,319.4-57.2,443.1-162.1l652.2,652.2c11.2,11.2,26,16.9,40.7,16.9s29.5-5.6,40.7-16.9
	C1943.7,1941.7,1943.7,1905.3,1921.2,1882.8z M340.4,1191.6c-107.9-108-167.3-251.5-167.3-404.1s59.4-296.1,167.3-404
	c107.9-108,251.4-167.4,404.1-167.4c152.7,0,296.1,59.4,404.1,167.4c222.8,222.8,222.8,585.3,0,808.1
	c-107.9,107.9-251.4,167.3-404.1,167.3S448.4,1299.5,340.4,1191.6z"/>
</svg>
