<?xml version="1.0" encoding="utf-8"?>
<!-- Generator: Adobe Illustrator 18.1.1, SVG Export Plug-In . SVG Version: 6.00 Build 0)  -->
<svg version="1.1" id="Layer_1" xmlns="http://www.w3.org/2000/svg" xmlns:xlink="http://www.w3.org/1999/xlink" x="0px" y="0px"
	 viewBox="0 0 2000 2000" enable-background="new 0 0 2000 2000" xml:space="preserve">
<g transform="translate(0,-952.36218)">
	<path fill="#010101" d="M999.3,1001.4c-65.3,0-130.4,6.2-194.7,19.6c-24.1,5.1-43.2,23.5-49.4,47.3l-34.5,129.1
		c-83.6,30.9-162.9,75.8-234.6,135.2l-129.8-34.5c-23.6-6.2-48.7,1.4-64.9,19.6c-44,49.2-82.2,102.3-114.9,158.9
		c-32.7,56.7-59.3,117-79.8,179.2c-7.5,23.1-1.5,48.3,15.6,65.6l94.7,95.3c-15.2,89.7-15.2,180.8,0,270.5l-94.7,95.3
		c-17.3,17.4-23.3,43-15.6,66.3c20.6,62.7,47.8,122.5,80.5,179.2c32.6,56.4,70.4,109.8,114.3,158.9c16.2,18.2,41.3,25.8,64.9,19.6
		l129.8-34.5c71.7,59.4,151,104.4,234.6,135.2l34.5,129.1c6.4,23.6,25.4,41.6,49.4,46.7c64.4,13.4,129.5,20.3,194.7,20.3
		c65.4,0,131.5-6.8,196.1-20.3c23.9-5,43-23.1,49.4-46.7l34.5-129.1c83.6-31.1,162.5-76.5,233.9-135.9l129.8,35.2
		c23.8,6.5,49.2-1.1,65.6-19.6c43.9-49.1,81.7-102.5,114.3-158.9c32.7-56.6,59.9-116.5,80.5-179.2c7.7-23.3,1.7-48.9-15.6-66.3
		l-95.3-96c15-89.2,15-179.9,0-269.1l95.3-96c17-17.2,23-42.5,15.6-65.6c-20.5-62.2-47-122.5-79.8-179.2
		c-32.7-56.6-71-109.7-114.9-158.9c-16.4-18.5-41.8-26.1-65.6-19.6l-129.8,35.2c-71.4-59.4-150.3-104.8-233.9-135.9l-34.5-129.1
		c-6.4-23.6-25.4-41.6-49.4-46.7C1130.8,1008.1,1064.7,1001.4,999.3,1001.4z M999.3,1131.2c43.9,0,87.9,6,131.2,12.8l31.8,116.3
		c5.6,21.4,21.6,38.4,42.6,45.3c90.7,28.8,177.4,78.2,252.2,146.7c16.5,14.8,39.5,20.2,60.9,14.2l116.3-31.8
		c27.8,34.2,55,68.6,77.1,106.8c21.8,37.8,37.9,78.8,53.4,119.7l-85.9,86.5c-15.6,15.6-22.2,38-17.6,59.5
		c20.7,95.2,20.7,194.9,0,290.1c-4.6,21.5,2,43.9,17.6,59.5l85.9,86.5c-15.7,41-32.1,81.6-54.1,119.7c-21.9,38-49,72.3-76.4,106.2
		l-116.3-31.8c-21.5-5.8-44.5-0.2-60.9,14.9c-74.8,68.5-161.4,117.9-252.2,146.7c-20.8,6.7-36.8,23.5-42.6,44.6l-31.8,116.3
		c-43.3,6.9-87.3,13.5-131.2,13.5c-43.7,0-86.8-6.7-129.8-13.5l-31.8-116.3c-5.6-21.4-21.6-38.4-42.6-45.3
		c-91.1-28.8-178.2-77.1-252.9-145.4c-16.2-14.8-38.9-20.4-60.2-14.9l-116.3,31.1c-27.5-33.9-54.5-68.1-76.4-106.2
		c-22-38-38.4-78.7-54.1-119.7l85.2-85.9c15.8-15.7,22.4-38.4,17.6-60.2c-20.8-95.5-20.8-195.2,0-290.7c4.6-21.5-2-43.9-17.6-59.5
		l-85.2-85.9c15.6-40.9,31.6-81.9,53.4-119.7c22.1-38.2,49.3-72.6,77.1-106.8l116.3,31.1c21.2,5.7,43.8,0.4,60.2-14.2
		c74.7-68.3,161.8-117.3,252.9-146c21-6.9,37-23.9,42.6-45.3l31.8-116.3C912.5,1137.2,955.7,1131.2,999.3,1131.2z M999.3,1490.9
		c-118.1,0-236.1,45.5-325.9,135.2c-179.7,179.7-179.7,472.7,0,652.5c179.7,179.7,473.4,179.7,653.2,0
		c179.7-179.7,179.7-472.7,0-652.5C1236.7,1536.2,1117.4,1490.9,999.3,1490.9z M999.3,1620.7c85,0,170.2,31.6,235.3,96.7
		c130.2,130.2,130.2,339,0,469.3c-130.2,130.2-339,130.2-469.3,0c-130.2-130.2-130.2-339,0-469.3
		C830.6,1652.2,914.3,1620.7,999.3,1620.7z"/>
</g>
</svg>
