<?xml version="1.0" encoding="utf-8"?>
<!-- Generator: Adobe Illustrator 21.1.0, SVG Export Plug-In . SVG Version: 6.00 Build 0)  -->
<svg version="1.1" id="Layer_1" xmlns="http://www.w3.org/2000/svg" xmlns:xlink="http://www.w3.org/1999/xlink" x="0px" y="0px"
	 viewBox="0 0 2000 2000" style="enable-background:new 0 0 2000 2000;" xml:space="preserve">
<path d="M1329.8,1023.5c74.2-10.5,139.8-24.4,189.9-40.2c52.3-16.5,86.7-34.6,101.9-53.4c20.5-25.3,27.4-46.9,20.8-65.9
	c-13.3-39.7-82.6-56.4-155.7-74.2c-29.1-7-55.2-13.4-79.5-21c-122.3-38.3-195.6-102-244.8-213.1l-15.9-36.2
	c-50.5-115.2-126.8-289.2-217.9-418.9C831.8-37.8,603.6,10.1,493.9,33c-7.5,1.6-14.6,3.1-20.9,4.3c-29,5.8-50.1,19.5-62.9,40.5
	c-21.5,36-10.3,81.6-8.4,88.5c0,2.8,0.2,10.3,0.4,22.2c1,61.8,4.1,250,7.2,474.9c1.3,96,26.5,173.6,74.8,230.7
	c40.9,48.4,89,69.9,114.2,78.5l0.4,0.2c8.6,3.6,39.1,16.2,78.2,28.6c-52.3,121.1-220.9,516-289.9,739.3l-1.9,6.3l5.4,3.5l0.2,0.1
	c5.3,3.2,33.4,18.4,60.4-0.3l2.1-1.4l0.9-2.4c2.3-5.6,236.1-585.7,283.3-728.2c23,5.2,44.3,9,63.3,11.1l0.8,0.1
	c40.7,6.1,86.4,10.4,136.3,12.7v29.1c-6.2,4.9-13.2,13.9-14.3,30c-0.2,3-0.8,11.3-2.1,28.7c-37.7,513.7-42.4,747.3-39.6,852.9
	l0.2,4.6l3.9,2.5c1.6,1,10.7,5.8,28,5.8c10,0,21-1.6,32.6-4.9l5.8-1.6l0.3-5.9c0.5-6.4,47.3-668.9,38.9-901.7l-0.2-2.6l-1.5-2.1
	c-0.5-0.8-2.3-2.9-4.9-5.2v-28.1c10,0.2,21,0.3,31.8,0.3c1.9,107.5,9.1,449.1,20.4,550l0.5,4.5l3.9,2.2l0,0
	c1.9,1,27.1,14.2,58.6,0.3l5.1-2.3v-5.6c0-4-1.1-403.5-18.6-549.9c59.3-1.5,118.9-5.5,177.2-11.8l291.7,774.4l0.5,1.2l3.5,1.4l0,0
	c1.9,0.8,29.8,11.7,61.1-5.1l6.5-3.4l-2.4-6.9C1621.4,1783,1418.3,1184,1329.8,1023.5z M1067.6,1026.7l1.3,9.4
	c16.2,120.1,19.2,449.6,19.7,551.2c-15.7,5.1-28.5,2.2-34.7,0c-11.6-112.6-18.6-479.2-19.9-551.9l-0.2-8.3h-8.3
	c-14.5,0-31.6-0.1-48.4-0.6l-8.8-0.2v54.1l3.9,2.6c1.2,0.8,2.2,1.5,2.8,2.2c7.2,213.3-30.5,775.1-38.5,890.6
	c-19.3,4.5-31.7,2.6-37.5,0.9c-2.4-108,2.8-342.1,39.7-845.6c1.1-16.2,1.8-25.5,2.1-28.8c0.5-9.2,3.9-15.7,9.9-19.2l4.3-2.5v-55
	l-8.2-0.3c-52.3-2.4-99.8-6.6-141-12.7l-2.1-0.3h-0.1c-20.9-2.4-44.4-6.6-69.7-12.6l-7.7-1.9l-2.5,7.6
	c-37.8,118.1-253.4,655.5-284.5,732c-12.7,7.6-25.9,4.6-33.9,1.4c71.3-227.3,240.6-623.1,290.9-739.3l3.9-8.8L691,988
	c-40.9-12.4-73.6-25.7-85.7-30.9c-0.5-0.2-0.8-0.3-1-0.4c-157.7-53.6-177-223.1-177.9-293.5c-3.7-270.3-7.5-495.6-7.6-498.3
	l-0.2-1.8l-0.1-0.5c-1.2-4.5-11.9-45.3,6.4-76c10-16.7,27.5-27.7,51.6-32.5c3.5-0.7,7.2-1.4,11-2.3c3.2-0.7,6.6-1.3,10-2.1
	c50.4-10.7,134.5-28.5,215.1-26.6c43.9,1,82.2,7.8,114.2,20.1c37.4,14.5,67,36.9,87.9,66.8c89.9,128,165.8,301,216.1,415.4
	l16.2,36.8c50.8,114.5,129.5,183.3,255.2,222.5c25.3,7.9,53,14.7,79.7,21.1l0.8,0.2c68.4,16.6,133.1,32.3,143.6,63
	c4.4,13.1-1.4,29.4-17.9,49.8c-28.3,35-138,68.3-293.5,89.1l-12.8,1.7l6.8,11.1c76.6,128.1,259.2,657.8,297.6,770.4
	c-16.5,6.5-31.1,4-37,2.5l-293.2-778.5l-0.8-2.3l-6.6,0.8c-62.2,6.9-126.8,11.2-191.8,12.6L1067.6,1026.7z"/>
</svg>
