<?xml version="1.0" encoding="utf-8"?>
<!-- Generator: Adobe Illustrator 22.0.1, SVG Export Plug-In . SVG Version: 6.00 Build 0)  -->
<svg version="1.1" id="Layer_1" xmlns="http://www.w3.org/2000/svg" xmlns:xlink="http://www.w3.org/1999/xlink" x="0px" y="0px"
	 viewBox="0 0 2000 2000" style="enable-background:new 0 0 2000 2000;" xml:space="preserve">
<style type="text/css">
	.st0{fill:#020203;}
</style>
<g>
	<path class="st0" d="M1648.3,1003c0-92-58.6-217.5-188.2-418.2c-46-66.9-75.3-146.4-104.6-221.7
		C1288.6,191.7,1221.7,11.8,1000,11.8S711.4,191.7,644.5,363.1c-29.3,75.3-58.6,158.9-104.6,221.7
		c-133.8,196.6-188.2,322-188.2,418.2c0,129.7,87.8,192.4,267.7,217.5l-204.9,706.8c-8.4,29.3,8.4,58.6,37.6,62.7
		c4.2,0,8.4,0,12.5,0c20.9,0,41.8-16.7,50.2-37.6l62.7-209.1l422.4-204.9l422.4,204.9l62.7,209.1c8.4,20.9,29.3,37.6,50.2,37.6
		c4.2,0,8.4,0,12.5,0c29.3-8.4,41.8-37.6,37.6-62.7l-209.1-706.8C1560.4,1195.4,1648.3,1132.7,1648.3,1003z M615.2,1609.5
		l66.9-225.8l200.8,96.2L615.2,1609.5z M1117.1,1479.8l200.8-96.2l66.9,225.8L1117.1,1479.8z M1288.6,1283.3L1000,1425.5
		l-292.8-142.2l12.5-50.2c79.5,8.4,171.5,8.4,276,8.4s192.4-4.2,271.9-8.4L1288.6,1283.3z M1000,1136.9
		c-501.9,0-543.7-62.7-543.7-133.8c0-92,100.4-246.8,171.5-359.7c50.2-75.3,83.6-163.1,117.1-242.6
		c66.9-179.8,117.1-284.4,259.3-284.4s188.2,100.4,259.3,284.4c33.5,83.6,62.7,167.3,117.1,242.6
		c66.9,108.7,163.1,267.7,163.1,359.7C1543.7,1074.1,1501.9,1136.9,1000,1136.9z"/>
	<path class="st0" d="M606.9,944.5c-29.3-4.2-54.4,12.5-62.7,41.8c-8.4,29.3,12.5,54.4,41.8,62.7c8.4,0,184,37.6,414.1,37.6
		s405.7-33.5,414.1-37.6c29.3-4.2,46-33.5,41.8-62.7c-4.2-29.3-33.5-46-62.7-41.8c0,0-175.7,33.5-393.1,33.5S611,944.5,606.9,944.5z
		"/>
</g>
</svg>
