<?xml version="1.0" encoding="utf-8"?>
<!-- Generator: Adobe Illustrator 18.1.1, SVG Export Plug-In . SVG Version: 6.00 Build 0)  -->
<svg version="1.1" id="Layer_1" xmlns="http://www.w3.org/2000/svg" xmlns:xlink="http://www.w3.org/1999/xlink" x="0px" y="0px"
	 viewBox="0 0 2000 2000" enable-background="new 0 0 2000 2000" xml:space="preserve">
<path fill="#010101" d="M184.2,1398.7l8.3-153.7c0-4.4-0.9-8.5-2.3-12.4h1619.2c-1.5,4.1-2.4,8.5-2.4,13.1l8.3,152.4
	c0,20.6,16.8,37.3,37.3,37.3h49.8c20.4,0,36.9-16.4,37.3-36.6l16.5-152.4l0.1-1.3c0-4.6-0.9-8.9-2.5-13
	c17.8-2.8,31.5-18.2,31.5-36.8v-124.6c0-9.5-3.7-18.2-9.6-24.8c5.9-6.6,9.6-15.2,9.6-24.7V782.6c0-20.6-16.7-37.3-37.3-37.3h-146.6
	c-4.4,0-8.5,0.9-12.4,2.3V602c0-20.6-16.8-37.3-37.3-37.3h-726.8c-9.6,0-18.3,3.7-24.9,9.7c-6.6-6-15.3-9.7-24.9-9.7H248.3
	c-20.6,0-37.3,16.7-37.3,37.3v145.3c-3.9-1.4-8.1-2.3-12.4-2.3H51.9c-20.6,0-37.3,16.7-37.3,37.3v238.4c0,9.6,3.7,18.3,9.7,24.9
	c-6,6.6-9.7,15.3-9.7,24.9v124.6c0,18.4,13.5,33.7,31,36.7c-1.5,4.1-2.5,8.5-2.5,13.1l16.6,153.8c0.4,20.3,17,36.6,37.3,36.6h49.8
	C167.5,1435.4,184.2,1418.6,184.2,1398.7z M1915,1396.7l-0.1,1.3c0,6.9-5.6,12.4-12.4,12.4h-49.8c-6.9,0-12.4-5.6-12.5-13.1
	l-8.3-152.4c0-6.9,5.6-12.4,12.5-12.4h74.7c6.7,0,12.2,5.3,12.4,11.9L1915,1396.7z M1801.5,770.2h146.6c6.9,0,12.4,5.6,12.4,12.4
	V1021c0,6.4-4.9,11.6-11.1,12.3c-0.4,0-0.9-0.1-1.3-0.1h-149.2c-5.6-1.2-9.9-6.2-9.9-12.2v-0.3v-94V782.6
	C1789,775.7,1794.6,770.2,1801.5,770.2z M235.9,1020.8v-94c0-6.9,5.6-12.4,12.4-12.4h726.8c6.9,0,12.4,5.6,12.4,12.4v94
	c0,6.9-5.6,12.5-12.4,12.5H248.3C241.5,1033.2,235.9,1027.6,235.9,1020.8z M1012.5,1020.8v-94c0-6.9,5.6-12.4,12.4-12.4h726.8
	c6.9,0,12.4,5.6,12.4,12.4v94c0,6.9-5.6,12.5-12.4,12.5h-726.8C1018.1,1033.2,1012.5,1027.6,1012.5,1020.8z M1024.9,589.5h726.8
	c6.9,0,12.4,5.6,12.4,12.5v180.6v109.1c-3.9-1.4-8.1-2.3-12.4-2.3h-726.8c-4.4,0-8.5,0.9-12.4,2.3V602
	C1012.5,595.1,1018.1,589.5,1024.9,589.5z M235.9,602c0-6.9,5.6-12.5,12.4-12.5h726.8c6.9,0,12.4,5.6,12.4,12.5v289.7
	c-3.9-1.4-8.1-2.3-12.4-2.3H248.3c-4.4,0-8.5,0.9-12.4,2.3V782.3L235.9,602L235.9,602z M39.5,782.3c0-6.9,5.6-12.5,12.4-12.5h146.6
	c6.9,0,12.4,5.6,12.4,12.5v144.4v94c0,6.9-5.6,12.5-12.4,12.5H51.9c-6.9,0-12.4-5.6-12.4-12.5V782.3z M39.5,1195.2v-124.6
	c0-6.9,5.6-12.4,12.4-12.4h146.6h49.8h726.8h49.8h726.8h47.1c0.9,0.1,1.7,0.3,2.6,0.3H1948c0.4,0,0.9-0.1,1.3-0.1
	c6.2,0.7,11.1,5.9,11.1,12.3v124.6c0,6.9-5.6,12.5-12.4,12.5H1919h-74.7H155.2H80.5H51.9C45.1,1207.6,39.5,1202,39.5,1195.2z
	 M84.7,1398l-16.6-153.6c0.3-6.6,5.8-11.9,12.4-11.9h74.7c6.9,0,12.5,5.6,12.5,11.8l-8.3,153.7c0,6.9-5.6,12.4-12.4,12.4H97.1
	C90.3,1410.4,84.7,1404.9,84.7,1398z"/>
</svg>
