<?xml version="1.0" encoding="utf-8"?>
<!-- Generator: Adobe Illustrator 21.1.0, SVG Export Plug-In . SVG Version: 6.00 Build 0)  -->
<svg version="1.1" id="Layer_1" xmlns="http://www.w3.org/2000/svg" xmlns:xlink="http://www.w3.org/1999/xlink" x="0px" y="0px"
	 viewBox="0 0 2000 2000" style="enable-background:new 0 0 2000 2000;" xml:space="preserve">
<style type="text/css">
	.st0{fill:#48B2E8;}
</style>
<g>
	<path class="st0" d="M999.7,836.3c-451.7,0-819.1,73.3-819.1,163.3s367.5,163.3,819.1,163.3s819.1-73.3,819.1-163.3
		S1451.4,836.3,999.7,836.3z M999.7,1153.1c-476.9,0-809.3-80.9-809.3-153.5c0-72.6,332.4-153.5,809.3-153.5S1809,927,1809,999.6
		C1809,1072.2,1476.7,1153.1,999.7,1153.1z"/>
	<path class="st0" d="M1580.5,864.9c-157.1-29.8-368.8-47-580.7-47S576.1,835,419,864.9c-123.8,23.5-271.5,66-271.5,134.7
		s147.6,111.2,271.5,134.7c157.1,29.8,368.8,47,580.7,47s423.6-17.1,580.7-47c123.8-23.5,271.4-66,271.4-134.7
		S1704.3,888.4,1580.5,864.9z M999.7,1171.4c-405.1,0-842.3-65.7-842.3-171.8s437.2-171.8,842.3-171.8
		c405.1,0,842.3,65.7,842.3,171.8S1404.8,1171.4,999.7,1171.4z"/>
	<path class="st0" d="M999.7,800.6c-542.3,0-967.1,87.4-967.1,198.9s424.8,198.9,967.1,198.9c542.3,0,967.1-87.4,967.1-198.9
		S1542,800.6,999.7,800.6z M999.7,1188.7c-518.9,0-957.2-86.6-957.2-189.1s438.4-189.1,957.2-189.1S1957,897.1,1957,999.6
		S1518.6,1188.7,999.7,1188.7z"/>
</g>
</svg>
