<?xml version="1.0" encoding="utf-8"?>
<!-- Generator: Adobe Illustrator 21.1.0, SVG Export Plug-In . SVG Version: 6.00 Build 0)  -->
<svg version="1.1" id="Layer_1" xmlns="http://www.w3.org/2000/svg" xmlns:xlink="http://www.w3.org/1999/xlink" x="0px" y="0px"
	 viewBox="0 0 2000 2000" style="enable-background:new 0 0 2000 2000;" xml:space="preserve">
<g>
	<path d="M999.7,840.1c-490.4,0-819.8,82.5-819.8,159.5s329.4,159.5,819.8,159.5c490.4,0,819.8-82.5,819.8-159.5
		S1490.1,840.1,999.7,840.1z"/>
	<path d="M999.7,804.2c-535.1,0-968.8,87.5-968.8,195.3s433.8,195.3,968.8,195.3c535.1,0,968.8-87.5,968.8-195.3
		S1534.8,804.2,999.7,804.2z M999.7,1177.5c-419.4,0-853.1-66.6-853.1-178s433.8-178,853.1-178s853.1,66.6,853.1,178
		S1419.1,1177.5,999.7,1177.5z"/>
</g>
</svg>
