<?xml version="1.0" encoding="utf-8"?>
<!-- Generator: Adobe Illustrator 18.1.1, SVG Export Plug-In . SVG Version: 6.00 Build 0)  -->
<svg version="1.1" id="Layer_1" xmlns="http://www.w3.org/2000/svg" xmlns:xlink="http://www.w3.org/1999/xlink" x="0px" y="0px"
	 viewBox="0 0 2000 2000" enable-background="new 0 0 2000 2000" xml:space="preserve">
<g>
	<path fill="#010101" d="M1278,206.6H702.2c-19.8,0-37.4,19.8-37.4,44v395.6c0,24.2,17.6,44,37.4,44H1278
		c19.8,0,37.4-17.6,37.4-41.8V250.6C1315.4,226.4,1297.8,206.6,1278,206.6z M1282.4,648.4c0,6.6-2.2,11-4.4,11H702.2
		c0,0-4.4-4.4-4.4-11V250.6c0-6.6,2.2-11,4.4-11H1278c0,0,4.4,4.4,4.4,11V648.4z"/>
	<path fill="#010101" d="M689,870.3h98.9c13.2,0,24.2-11,24.2-26.4V778c0-13.2-11-26.4-24.2-26.4H689c-13.2,0-24.2,11-24.2,26.4V844
		C664.8,857.1,675.8,870.3,689,870.3z M697.8,782.4h83.5v54.9h-83.5V782.4z"/>
	<path fill="#010101" d="M858.2,962.6c0-13.2-11-26.4-24.2-26.4H689c-13.2,0-24.2,11-24.2,26.4v76.9c0,13.2,11,26.4,24.2,26.4h145
		c13.2,0,26.4-11,24.2-26.4V962.6z M827.5,1033H697.8V967h129.7V1033z"/>
	<path fill="#010101" d="M1064.8,936.3h-145c-13.2,0-24.2,11-24.2,26.4v76.9c0,13.2,11,26.4,24.2,26.4h145c13.2,0,24.2-11,24.2-26.4
		v-76.9C1089,949.5,1078,936.3,1064.8,936.3z M1056,1033H928.6h-2.2V967H1056V1033z"/>
	<path fill="#010101" d="M1286.8,936.3h-131.9c-13.2,0-24.2,11-24.2,26.4v76.9c0,13.2,11,26.4,24.2,26.4h131.9
		c13.2,0,24.2-11,24.2-26.4v-76.9C1311,949.5,1300,936.3,1286.8,936.3z M1278,1033h-116.5V967H1278V1033z"/>
	<path fill="#010101" d="M858.2,1120.9c0-13.2-11-26.4-24.2-26.4H689c-13.2,0-24.2,11-24.2,26.4v76.9c0,13.2,11,26.4,24.2,26.4h145
		c13.2,0,26.4-11,24.2-26.4V1120.9z M827.5,1191.2H697.8v-65.9h129.7V1191.2z"/>
	<path fill="#010101" d="M1064.8,1094.5h-145c-13.2,0-24.2,11-24.2,26.4v76.9c0,13.2,11,26.4,24.2,26.4h145
		c13.2,0,24.2-11,24.2-26.4v-76.9C1089,1107.7,1078,1094.5,1064.8,1094.5z M1056,1191.2H928.6h-2.2v-65.9H1056V1191.2z"/>
	<path fill="#010101" d="M1286.8,1094.5h-131.9c-13.2,0-24.2,11-24.2,26.4v76.9c0,13.2,11,26.4,24.2,26.4h131.9
		c13.2,0,24.2-11,24.2-26.4v-76.9C1311,1107.7,1300,1094.5,1286.8,1094.5z M1278,1191.2h-116.5v-65.9H1278V1191.2z"/>
	<path fill="#010101" d="M858.2,1279.1c0-13.2-11-26.4-24.2-26.4H689c-13.2,0-24.2,11-24.2,26.4v76.9c0,13.2,11,26.4,24.2,26.4h145
		c13.2,0,26.4-13.2,24.2-26.4V1279.1z M827.5,1349.4H697.8v-65.9h129.7V1349.4z"/>
	<path fill="#010101" d="M1064.8,1252.7h-145c-13.2,0-24.2,11-24.2,26.4v76.9c0,13.2,11,26.4,24.2,26.4h145
		c13.2,0,24.2-13.2,24.2-26.4v-76.9C1089,1265.9,1078,1252.7,1064.8,1252.7z M1056,1349.4H928.6h-2.2v-65.9H1056V1349.4z"/>
	<path fill="#010101" d="M1286.8,1252.7h-131.9c-13.2,0-24.2,11-24.2,26.4v76.9c0,13.2,11,26.4,24.2,26.4h131.9
		c13.2,0,24.2-13.2,24.2-26.4v-76.9C1311,1265.9,1300,1252.7,1286.8,1252.7z M1278,1349.4h-116.5v-65.9H1278V1349.4z"/>
	<path fill="#010101" d="M858.2,1439.5c0-13.2-11-26.4-24.2-26.4H689c-13.2,0-24.2,11-24.2,26.4v76.9c0,13.2,11,26.4,24.2,26.4h145
		c13.2,0,26.4-13.2,24.2-26.4V1439.5z M827.5,1509.9H697.8v-65.9h129.7V1509.9z"/>
	<path fill="#010101" d="M1064.8,1413.2h-145c-13.2,0-24.2,11-24.2,26.4v76.9c0,13.2,11,26.4,24.2,26.4h145
		c13.2,0,24.2-13.2,24.2-26.4v-76.9C1089,1426.4,1078,1413.2,1064.8,1413.2z M1056,1509.9H928.6h-2.2v-65.9H1056V1509.9z"/>
	<path fill="#010101" d="M1286.8,1413.2h-131.9c-13.2,0-24.2,11-24.2,26.4v76.9c0,13.2,11,26.4,24.2,26.4h131.9
		c13.2,0,24.2-13.2,24.2-26.4v-76.9C1311,1426.4,1300,1413.2,1286.8,1413.2z M1278,1509.9h-116.5v-65.9H1278V1509.9z"/>
	<path fill="#010101" d="M856,870.3h98.9c13.2,0,24.2-11,24.2-26.4V778c0-13.2-11-26.4-24.2-26.4H856c-13.2,0-24.2,11-24.2,26.4V844
		C831.9,857.1,842.9,870.3,856,870.3z M862.6,782.4h83.5v54.9h-83.5V782.4z"/>
	<path fill="#010101" d="M1148.3,844V778c0-13.2-11-26.4-24.2-26.4h-98.9c-13.2,0-24.2,11-24.2,26.4V844c0,13.2,11,26.4,24.2,26.4
		h98.9C1137.4,870.3,1148.3,859.3,1148.3,844z M1117.6,837.4h-83.5v-54.9h83.5V837.4z"/>
	<path fill="#010101" d="M1291.2,751.7h-98.9c-13.2,0-24.2,11-24.2,26.4V844c0,13.2,11,26.4,24.2,26.4h98.9
		c13.2,0,24.2-11,24.2-26.4V778C1315.4,764.8,1304.4,751.7,1291.2,751.7z M1284.6,837.4h-83.5v-54.9h83.5V837.4z"/>
	<path fill="#010101" d="M1401.1,116.5c0-57.1-48.3-105.5-107.7-105.5H686.8c-59.3,0-107.7,46.2-107.7,105.5
		c-2.2,11-11,105.5-11,325.3c0,211,8.8,582.4,50.5,1158.2c6.1,68.9,60.8,124.8,129.7,133v203.2c0,28.6,22,52.7,50.5,52.7h382.4
		c28.6,0,52.7-24.2,52.7-52.7V1732c65.7-10.9,117.2-65.3,123.1-132.1C1440.6,523.1,1403.3,138.5,1401.1,116.5z M1205.5,1936.2
		c0,13.2-11,24.2-24.2,24.2H801.1c-13.2,0-24.2-11-24.2-24.2v-254.9h428.6V1936.2z M1326.4,1597.8c-3.8,51.8-42.9,91.9-92.3,101.2
		V1673c16.6-3.6,28.6-11.2,28.6-20.3h-28.6H748.4h-30.8c0,9.5,13.1,18.9,30.8,21.4v25.6c-51.4-8-92.7-50.5-96.7-101.9
		C568.1,503.3,609.9,125.3,612.1,120.9v-2.2c0-39.6,33-72.5,74.7-72.5h606.6c41.8,0,74.7,33,74.7,72.5v2.2c0,0,11,94.5,11,323.1
		C1379.1,655,1370.3,1024.2,1326.4,1597.8z"/>
</g>
</svg>
