<?xml version="1.0" encoding="utf-8"?>
<!-- Generator: Adobe Illustrator 21.1.0, SVG Export Plug-In . SVG Version: 6.00 Build 0)  -->
<svg version="1.1" id="Layer_1" xmlns="http://www.w3.org/2000/svg" xmlns:xlink="http://www.w3.org/1999/xlink" x="0px" y="0px"
	 viewBox="0 0 2000 2000" style="enable-background:new 0 0 2000 2000;" xml:space="preserve">
<path d="M1000,60C474,60,46,488,46,1014s428,954,954,954s954-428,954-954S1526,60,1000,60z M1000,1902.2
	c-489.8,0-888.2-398.4-888.2-888.2S510.2,125.8,1000,125.8s888.2,398.4,888.2,888.2S1489.8,1902.2,1000,1902.2z M1537.3,981.1
	h-504.4V330.5c0-18.2-14.7-32.9-32.9-32.9s-32.9,14.7-32.9,32.9V1014c0,18.2,14.7,32.9,32.9,32.9h537.3c18.2,0,32.9-14.7,32.9-32.9
	S1555.5,981.1,1537.3,981.1z"/>
</svg>
