<?xml version="1.0" encoding="utf-8"?>
<!-- Generator: Adobe Illustrator 18.1.1, SVG Export Plug-In . SVG Version: 6.00 Build 0)  -->
<svg version="1.1" id="Layer_1" xmlns="http://www.w3.org/2000/svg" xmlns:xlink="http://www.w3.org/1999/xlink" x="0px" y="0px"
	 viewBox="0 0 2000 2000" enable-background="new 0 0 2000 2000" xml:space="preserve">
<path fill="#010101" d="M1950.8,1130.1l-359.9-359.9c-28.3-28.1-73.5-28.1-101.8,0c-28.3,28.1-28.3,73.6,0,101.8l237,237H736.2
	c-39.8,0-72,32.2-72,72s32.2,72,72,72h989.9l-237,237c-28.3,28.1-28.3,73.6,0,101.8c13.9,14,32.5,21.1,50.9,21.1
	c18.4,0,37.1-7.1,50.9-21.1l359.9-359.9C1978.8,1203.7,1978.8,1158.2,1950.8,1130.1z M274.1,893h966c40,0,72-32.2,72-72
	c0-39.8-32-72-72-72h-966l237-237c28.4-28.1,28.4-73.6,0-101.8c-28.3-28.1-73.5-28.1-101.8,0L49.4,770.2
	c-28.3,28.1-28.3,73.6,0,101.8l359.9,359.9c13.9,14,32.5,21.1,50.9,21.1s37.1-7.1,50.9-21.1c28.4-28.1,28.4-73.6,0-101.8L274.1,893z
	"/>
</svg>
