<?xml version="1.0" encoding="utf-8"?>
<!-- Generator: Adobe Illustrator 21.0.0, SVG Export Plug-In . SVG Version: 6.00 Build 0)  -->
<svg version="1.1" id="Layer_1" xmlns="http://www.w3.org/2000/svg" xmlns:xlink="http://www.w3.org/1999/xlink" x="0px" y="0px"
	 viewBox="0 0 48 60" style="enable-background:new 0 0 48 60;" xml:space="preserve">
<g>
	<path d="M40.2,16.5c0.3,0,0.5-0.2,0.5-0.5v-4c0-0.3-0.2-0.5-0.5-0.5H28.8V9c0-0.3-0.2-0.5-0.5-0.5h-8c-0.3,0-0.5,0.2-0.5,0.5v2.5
		H8.2c-0.3,0-0.5,0.2-0.5,0.5v4c0,0.3,0.2,0.5,0.5,0.5h1.5l1,29.5c0,0.3,0.2,0.5,0.5,0.5h22.5c0.2,1.7,1.7,3,3.5,3
		c1.9,0,3.5-1.6,3.5-3.5c0-1.7-1.2-3.2-2.9-3.4l0.9-26.1C38.7,16.5,40.2,16.5,40.2,16.5z M20.8,9.5h7v2h-7V9.5z M11.7,45.5l-1-29h27
		l-0.9,26c-1.6,0.2-2.8,1.4-3.1,3H11.7z M39.8,46c0,1.4-1.1,2.5-2.5,2.5s-2.5-1.1-2.5-2.5s1.1-2.5,2.5-2.5S39.8,44.6,39.8,46z
		 M10.2,15.5H8.8v-3h11.5h8h11.5v3h-1.5H10.2z"/>
	<path d="M17.2,19.5h-2c-0.3,0-0.5,0.2-0.5,0.5v22c0,0.3,0.2,0.5,0.5,0.5h2c0.3,0,0.5-0.2,0.5-0.5V20C17.8,19.7,17.5,19.5,17.2,19.5
		z M16.8,41.5h-1v-21h1V41.5z"/>
	<path d="M25.2,19.5h-2c-0.3,0-0.5,0.2-0.5,0.5v22c0,0.3,0.2,0.5,0.5,0.5h2c0.3,0,0.5-0.2,0.5-0.5V20C25.8,19.7,25.5,19.5,25.2,19.5
		z M24.8,41.5h-1v-21h1V41.5z"/>
	<path d="M33.2,19.5h-2c-0.3,0-0.5,0.2-0.5,0.5v22c0,0.3,0.2,0.5,0.5,0.5h2c0.3,0,0.5-0.2,0.5-0.5V20C33.8,19.7,33.5,19.5,33.2,19.5
		z M32.8,41.5h-1v-21h1V41.5z"/>
	<circle cx="37.2" cy="46" r="1"/>
	<rect x="13.2" y="48.5" width="21" height="1"/>
	<rect x="7.2" y="48.5" width="4" height="1"/>
</g>
</svg>
