<?xml version="1.0" encoding="utf-8"?>
<!-- Generator: Adobe Illustrator 21.0.0, SVG Export Plug-In . SVG Version: 6.00 Build 0)  -->
<svg version="1.1" id="Layer_1" xmlns="http://www.w3.org/2000/svg" xmlns:xlink="http://www.w3.org/1999/xlink" x="0px" y="0px"
	 viewBox="0 0 100 125" style="enable-background:new 0 0 100 125;" xml:space="preserve">
<g>
	<path d="M63.1,32.8V21.5H35.8v11.3H11.4v4.1h7.2l5.2,67.7h51.4l5.2-67.7h8.3v-4.1C88.7,32.8,63.1,32.8,63.1,32.8z M59.1,25.5v7.2
		H39.9v-7.2C39.9,25.5,59.1,25.5,59.1,25.5z M76.3,36.7l-4.9,63.6H27.5l-4.8-63.6C22.7,36.7,76.3,36.7,76.3,36.7z"/>
	<rect x="47.4" y="47.6" width="4.1" height="42.3"/>
	
		<rect x="40.6" y="66.6" transform="matrix(5.410324e-02 -0.9985 0.9985 5.410324e-02 -10.0943 126.7396)" width="42.4" height="4.1"/>
	<rect x="35" y="47.5" transform="matrix(0.9985 -5.408747e-02 5.408747e-02 0.9985 -3.6626 2.102)" width="4.1" height="42.4"/>
</g>
</svg>
