<?xml version="1.0" encoding="utf-8"?>
<!-- Generator: Adobe Illustrator 21.1.0, SVG Export Plug-In . SVG Version: 6.00 Build 0)  -->
<svg version="1.1" id="Layer_1" xmlns="http://www.w3.org/2000/svg" xmlns:xlink="http://www.w3.org/1999/xlink" x="0px" y="0px"
	 viewBox="0 0 2000 2000" style="enable-background:new 0 0 2000 2000;" xml:space="preserve">
<g>
	<path d="M31.3,1223.2V1418c0,51.6,42.2,93.8,93.8,93.8v-382.4C73.5,1129.4,31.3,1171.6,31.3,1223.2z"/>
	<polygon points="169.6,1511.8 218.4,1511.8 236.5,1598.8 327.5,1598.8 345.6,1511.8 1017.6,1511.8 1017.6,1129.4 169.6,1129.4 	"/>
	<polygon points="1062.1,1511.8 1662.3,1511.8 1680.4,1598.8 1771.4,1598.8 1789.5,1511.8 1831.4,1511.8 1831.4,1129.4 
		1062.1,1129.4 	"/>
	<path d="M1875.9,1129.4v382.4c51.6,0,93.8-42.2,93.8-93.8v-194.7C1969.7,1171.6,1927.5,1129.4,1875.9,1129.4z"/>
	<path d="M1475,399.7H526v601h949V399.7z M1429,954.7H572.1V445.8H1429V954.7z"/>
	<rect x="636.5" y="1077.4" width="728" height="31.8"/>
	<polygon points="861.7,1018.2 821.6,1059.9 1179.5,1059.9 1139.4,1018.2 	"/>
</g>
</svg>
