<?xml version="1.0" encoding="utf-8"?>
<!-- Generator: Adobe Illustrator 22.0.1, SVG Export Plug-In . SVG Version: 6.00 Build 0)  -->
<svg version="1.1" id="Layer_1" xmlns="http://www.w3.org/2000/svg" xmlns:xlink="http://www.w3.org/1999/xlink" x="0px" y="0px"
	 viewBox="0 0 2000 2000" style="enable-background:new 0 0 2000 2000;" xml:space="preserve">
<style type="text/css">
	.st0{fill:#020203;}
</style>
<g>
	<path class="st0" d="M1014.7,441.8c0-11.8-4.6-22.9-12.9-31.2c-17.2-17.2-45.2-17.2-62.4,0l-88.3,88.3
		c-8.3,8.3-12.9,19.4-12.9,31.2c0,11.8,4.6,22.9,12.9,31.2c8.6,8.6,19.9,12.9,31.2,12.9s22.6-4.3,31.2-12.9l88.3-88.3
		C1010.1,464.7,1014.7,453.6,1014.7,441.8z"/>
	<path class="st0" d="M411.3,927.4h1177.3c24.3,0,44.1-19.8,44.1-44.1V235.8c0-24.3-19.8-44.1-44.1-44.1H411.3
		c-24.3,0-44.1,19.8-44.1,44.1v647.5C367.2,907.6,387,927.4,411.3,927.4z M455.5,839.1V279.9h1089v559.2H455.5z"/>
	<path class="st0" d="M1145.4,498.9L998.2,646c-8.3,8.3-12.9,19.4-12.9,31.2c0,11.8,4.6,22.9,12.9,31.2c8.6,8.6,19.9,12.9,31.2,12.9
		c11.3,0,22.6-4.3,31.2-12.9l147.2-147.2c8.3-8.3,12.9-19.4,12.9-31.2c0-11.8-4.6-22.9-12.9-31.2
		C1190.6,481.7,1162.6,481.7,1145.4,498.9z"/>
	<path class="st0" d="M1986,1354.2c0-154.2-125.4-279.6-279.6-279.6H293.6C139.4,1074.6,14,1200,14,1354.2s125.4,279.6,279.6,279.6
		h16.9l-56.4,112.7c-5.3,10.5-6.1,22.5-2.4,33.7c3.7,11.2,11.6,20.2,22.2,25.5c6.3,3.2,13,4.6,19.6,4.6c16.2,0,31.9-8.9,39.6-24.4
		l76.1-152.2h1181.6l76.1,152.2c10.9,21.8,37.5,30.6,59.2,19.7c10.5-5.3,18.4-14.3,22.1-25.5c3.7-11.2,2.9-23.2-2.4-33.7
		l-56.4-112.7h16.9C1860.6,1633.8,1986,1508.4,1986,1354.2z M1706.4,1545.5h-662.2v-382.6h662.2c105.5,0,191.3,85.8,191.3,191.3
		S1811.9,1545.5,1706.4,1545.5z M293.6,1162.9h662.2v382.6H293.6c-105.5,0-191.3-85.8-191.3-191.3S188.1,1162.9,293.6,1162.9z"/>
	<path class="st0" d="M1559.2,1310.1h-176.6c-24.3,0-44.1,19.8-44.1,44.1s19.8,44.1,44.1,44.1h176.6c24.3,0,44.1-19.8,44.1-44.1
		S1583.6,1310.1,1559.2,1310.1z"/>
	<path class="st0" d="M440.8,1398.4h176.6c24.3,0,44.1-19.8,44.1-44.1s-19.8-44.1-44.1-44.1H440.8c-24.3,0-44.1,19.8-44.1,44.1
		S416.4,1398.4,440.8,1398.4z"/>
</g>
</svg>
