<?xml version="1.0" encoding="utf-8"?>
<!-- Generator: Adobe Illustrator 18.1.1, SVG Export Plug-In . SVG Version: 6.00 Build 0)  -->
<svg version="1.1" id="Layer_1" xmlns="http://www.w3.org/2000/svg" xmlns:xlink="http://www.w3.org/1999/xlink" x="0px" y="0px"
	 viewBox="0 0 2000 2000" enable-background="new 0 0 2000 2000" xml:space="preserve">
<path fill="#010101" d="M1853.3,1862.9c-4.6-47.8-9.5-95.6-17-142.9c-8.4-52.2-39.4-88.2-86.2-113.3
	c-117.2-62.8-243.7-96.3-373.2-120.8c-26.3-4.9-49.8-14.6-70.2-31.6c-44.5-37-74-84.4-95.9-137.3c106.5-86,171.4-199.8,217.8-327.8
	c27.4,57.6,48.4,70.9,109.5,71.4c16.5,0.1,33.1,0.9,49.6-0.4c13.1-1,26.8-2.8,38.8-7.7c68.4-27.9,102.9-81,105.1-153
	c2.3-74.5,1-149.3,0.4-223.9c-0.6-70.3-40.8-128.4-106.6-153.9c-12-4.7-15.7-10.7-16.9-22.9c-7-73.1-31.1-140.6-71.7-201.7
	c-89-134-217-211.7-371.3-249.4c-36.8-9-74.7-13.2-112.1-19.5H946.4c-37.4,6.4-75.3,10.4-112,19.5C663.6,90.1,526.2,178.9,440.1,336
	c-28.3,51.6-44.1,107.4-49.4,165.9c-0.9,10-3.7,15-13.5,19c-72.6,29.6-109.7,85.6-109.6,163.2c0.1,70.8-0.3,141.6,0,212.4
	c0.3,72.8,40.9,133.5,109.4,157.4c22.6,7.9,48.4,6.8,74.2,9.9c3.2,16.4,6,35.1,10.6,53.3c21.1,83.2,75.9,125.2,162.4,125.2
	c26.6,0,55.9-6.8,79.3,2c22.8,8.6,39.4,33.1,59,50.4c8.5,7.5,17.5,14.5,26.4,21.8c-16.1,40-37.2,76.4-65.6,108.5
	c-29.4,33.2-63.8,55.4-109.3,63.2c-104.7,17.8-206.6,46.5-304.1,88.9c-16.2,7.1-31.7,16-48,23c-64.8,28-95.9,79.5-104.9,146.8
	c-3.9,29.3-7.6,58.7-11.5,88.1v117.7c10.7,15.7,25.7,19.3,44.2,19.3c502.2-0.4,1004.3-0.3,1506.5-0.3c39.4,0,78.8,0.1,118.2,0
	c29.5-0.1,39.7-10.3,39.7-40.2C1854.1,1908.4,1855.4,1885.5,1853.3,1862.9z M1568.9,574.5c53.7-7.1,100.5,43,101.5,97.7
	c1.4,76.4,1.8,153-0.2,229.4c-1.1,43-21.7,79.7-64.1,91.9c-29.8,8.6-63.9,6-95.6,3.4c-17.2-1.4-22.8-19.7-22.8-37.1
	c0.1-57.5,0-115.1,0-172.6c0,0,0,0-0.1,0c0-56.3,0-112.5,0-168.8c0-31.6,12.2-43.8,43.2-43.9
	C1543.5,574.6,1556.5,576.1,1568.9,574.5z M476,399.1c53-134.6,151.3-226.1,284.2-277c216.1-82.8,423.2-62.9,611.5,76.5
	c99.9,74,159.9,174.8,175.5,299.6c0.4,3.1,0.8,6.3,1,9.4c0.1,1.2-0.3,2.5-0.4,3.5c-25.7,3.5-49.9,6.7-75.2,10.1
	c-70.4-249.5-238.3-380.9-501.8-369C733.3,162.9,587.6,297,526.7,524.7c-12.2-3.5-23.9-8.1-36-9.8c-12.4-1.7-25.2-0.4-39.7-0.4
	C453.5,473.4,461.7,435.5,476,399.1z M511.8,788.7h-0.1v0c0,56.3,0.2,112.5,0,168.8c-0.1,30.5-12.3,42.6-42.6,42.3
	c-23.4-0.2-47.8,2.8-70-2.8c-40.9-10.3-69.2-49.3-69.9-94c-1.3-77.7-1.8-155.5,0.2-233.3c1.5-57.2,52.4-101.8,100.1-94.9
	c11.8,1.7,24.1,0.1,36.2,0.1c34.2,0,46.1,11.5,46.1,45C511.9,676.1,511.8,732.4,511.8,788.7z M515.3,1078.1
	c-2.6-15.4,1.2-23.5,14.3-33.7c17.3-13.5,29.5-33.3,40.9-46.8c27.9,57.4,58,119.7,87.8,181.1
	C568.1,1193.6,529.3,1160.7,515.3,1078.1z M210.2,1909.9L210.2,1909.9c0-28.1-1.6-56.3,0.4-84.3c2.2-30.8,7.1-61.5,11.8-92.1
	c4.9-31.1,21.6-53.7,49.8-69.7c66.1-37.6,137-63.2,210-82.8c51.4-13.8,103.6-25,155.8-35.6c43.9-8.9,80.6-29.7,112.2-60.5
	c48.1-46.9,80.4-103.8,105.4-165.3c6.7-16.6,1.7-29.2-12.5-39.5c-14.8-10.7-29.1-22.1-42.8-38h19.3c58.5,0.2,116.9,0.7,175.4,0.5
	c39-0.2,65.9-25.7,65.8-61.1c-0.1-35.2-27.5-60-66.5-60.3c-15.3-0.1-30.5-0.2-45.8-0.1c-42.8,0.4-62.1,15.9-72.3,60
	c-43.1,0-86.7,0.5-130.2-0.6c-5.2-0.1-11.8-7.2-15-12.7c-27.1-47-56.6-93-79.7-141.9c-61-128.9-84.8-265.6-74.7-407.6
	c10-141.7,63.6-260.9,186.8-341.2c162-105.7,432.4-94.4,573.4,92.6c46,61,72.3,130.5,81.6,205.7c14.9,120.7,6.2,240.2-33,355.8
	c-33.4,98.5-74.9,193.8-145.7,272.4c-24.8,27.6-54.1,51.3-82.4,75.6c-12.4,10.6-20.7,21.9-14.5,37.4c28.1,70,65.7,133.6,123.9,184
	c40.6,35.1,90.4,43.1,140.3,53.3c99.1,20.1,195.2,49.7,287.6,91.5c53.7,24.3,85.1,60.8,88.5,120.5c2.7,47.2,7.6,94.3,11.7,143.9
	H210.2z"/>
</svg>
