<?xml version="1.0" encoding="utf-8"?>
<!-- Generator: Adobe Illustrator 19.2.1, SVG Export Plug-In . SVG Version: 6.00 Build 0)  -->
<svg version="1.1" id="Capa_1" xmlns="http://www.w3.org/2000/svg" xmlns:xlink="http://www.w3.org/1999/xlink" x="0px" y="0px"
	 viewBox="0 0 140 36" style="enable-background:new 0 0 140 36;" xml:space="preserve">
<style type="text/css">
	.st0{fill:#B8BDC6;}
</style>
<g>
	<path class="st0" d="M28.3,7.3h-8.8c-0.5,0-0.8,0.4-0.8,0.8v19.7c0,0.5,0.4,0.8,0.8,0.8h3.2c0.5,0,0.8-0.4,0.8-0.8v-7.1l3.9,0
		c4.5,0,7.6-2.6,7.6-6.7C35.1,9.1,31.4,7.3,28.3,7.3z M30,13.9c0,2.2-1.9,2.6-3.1,2.6c-1.2,0-3.1,0-3.1,0v-5.4c0,0,1.9,0,3.1,0
		c1.2,0,3.1,0.5,3.1,2.6V13.9z"/>
	<path class="st0" d="M50.4,18.8c-0.3-0.3-0.9-0.5-1-0.5v-0.4c2.4-0.7,3.8-2.5,3.8-5.2c0-5.2-6.6-5.4-8.2-5.4h-7.2
		c-0.5,0-0.8,0.4-0.8,0.8v19.7c0,0.5,0.4,0.8,0.8,0.8h3.2c0.5,0,0.8-0.4,0.8-0.8v-7.6c0,0,0.5,0,2.1,0c1.6,0,2.2,0.6,2.9,1.8
		c0.5,1,2.3,4.8,2.9,6.2c0.1,0.3,0.4,0.5,0.7,0.5h3.6c0.6,0,1-0.6,0.7-1.2C53.7,25.1,51,19.5,50.4,18.8z M48.3,13.9
		c0,2.2-1.9,2.6-3.1,2.6s-3.1,0-3.1,0v-5.4c0,0,1.9,0,3.1,0s3.1,0.5,3.1,2.6V13.9z"/>
	<path class="st0" d="M94.8,16.4c-2.8-0.8-4.9-1.7-4.7-3.2c0.2-1.5,1.5-1.8,3-1.8c1.3-0.1,2.4,0.2,3.7,0.7c0.4,0.1,0.8,0,1-0.3
		l1-1.4c0.4-0.5,0.2-1.3-0.4-1.6c-1-0.5-2.6-1.1-5.3-1.1c-3.7,0-8.1,1.6-8.1,5.9s3.1,5.1,5.7,6.1c2.6,0.9,4.2,1.7,4.2,2.9
		c0,1.2-0.7,3-3.1,2.7c-2.1-0.2-3.7-0.7-5-1.3c-0.4-0.2-0.8-0.1-1,0.3l-1.1,1.4c-0.4,0.5-0.2,1.2,0.2,1.5c0.9,0.7,2.9,1.7,6.9,1.7
		c6.4,0,8.2-2.7,8.2-6.5S97.7,17.2,94.8,16.4z"/>
	<path class="st0" d="M121.2,27.6l-7.6-19.2c-0.1-0.3-0.4-0.5-0.8-0.5H109c-0.3,0-0.6,0.2-0.8,0.5l-7.6,19.2
		c-0.2,0.5,0.2,1.1,0.8,1.1h3.2c0.3,0,0.6-0.2,0.8-0.5l1.3-3.5h8.4l1.3,3.5c0.1,0.3,0.4,0.5,0.8,0.5h3.2
		C121,28.7,121.4,28.1,121.2,27.6z M113,20.7h-4.4c-0.2,0-0.3-0.2-0.3-0.4l2.3-6.3c0.1-0.2,0.4-0.2,0.5,0l2.1,6.3
		C113.3,20.5,113.2,20.7,113,20.7z"/>
	<path class="st0" d="M66.3,17.2c0-0.1,0-0.3,0.1-0.4c0-0.1,0-0.2,0-0.2c0-0.1,0-0.3,0.1-0.4c0-0.1,0-0.2,0.1-0.3
		c0-0.1,0.1-0.2,0.1-0.4c0-0.1,0.1-0.2,0.1-0.3c0-0.1,0.1-0.2,0.1-0.3c0-0.1,0.1-0.2,0.1-0.2c0-0.1,0.1-0.2,0.1-0.3
		c0-0.1,0.1-0.2,0.1-0.2c0.1-0.1,0.1-0.2,0.2-0.3c0-0.1,0.1-0.2,0.1-0.2c0.1-0.1,0.1-0.2,0.2-0.3c0.1-0.1,0.1-0.1,0.2-0.2
		c0.1-0.1,0.1-0.2,0.2-0.3c0.1-0.1,0.1-0.1,0.2-0.2c0.1-0.1,0.2-0.2,0.2-0.3c0.1-0.1,0.1-0.1,0.2-0.2c0.1-0.1,0.2-0.2,0.3-0.3
		c0.1-0.1,0.1-0.1,0.2-0.2c0.1-0.1,0.2-0.2,0.3-0.3c0.1,0,0.1-0.1,0.1-0.1c0.2-0.1,0.3-0.2,0.5-0.4c0,0,0.1,0,0.1,0
		c0.2-0.1,0.3-0.2,0.5-0.3c0.1,0,0.1-0.1,0.2-0.1c0.1-0.1,0.2-0.1,0.3-0.2c-0.7-0.2-1.4-0.3-2.1-0.3c-4.4,0-8.1,3.6-8.1,8
		s3.6,8,8.1,8c0.7,0,1.4-0.1,2.1-0.3c-0.1-0.1-0.2-0.1-0.3-0.2c-0.1,0-0.1-0.1-0.2-0.1c-0.2-0.1-0.3-0.2-0.5-0.3c0,0-0.1,0-0.1,0
		c-0.2-0.1-0.3-0.2-0.5-0.4c-0.1,0-0.1-0.1-0.2-0.1c-0.1-0.1-0.2-0.2-0.3-0.3c-0.1-0.1-0.1-0.1-0.2-0.2c-0.1-0.1-0.2-0.2-0.3-0.3
		c-0.1-0.1-0.1-0.1-0.2-0.2c-0.1-0.1-0.2-0.2-0.2-0.3c-0.1-0.1-0.1-0.1-0.2-0.2C68,23.1,68,23,67.9,23c-0.1-0.1-0.1-0.2-0.2-0.2
		c-0.1-0.1-0.1-0.2-0.2-0.3c0-0.1-0.1-0.2-0.1-0.2c-0.1-0.1-0.1-0.2-0.2-0.3c0-0.1-0.1-0.2-0.1-0.2c-0.1-0.1-0.1-0.2-0.1-0.3
		c0-0.1-0.1-0.2-0.1-0.3c0-0.1-0.1-0.2-0.1-0.3c0-0.1-0.1-0.2-0.1-0.3c0-0.1-0.1-0.2-0.1-0.3c0-0.1,0-0.2-0.1-0.3
		c0-0.1-0.1-0.2-0.1-0.4c0-0.1,0-0.2,0-0.2c0-0.1,0-0.3-0.1-0.4c0-0.1,0-0.1,0-0.2c0-0.2,0-0.4,0-0.6c0-0.2,0-0.4,0-0.6
		C66.3,17.3,66.3,17.2,66.3,17.2z"/>
	<path class="st0" d="M69.1,4.1c-7.8,0-14,6.2-14,13.9c0,7.7,6.3,13.9,14,13.9c7.8,0,14-6.2,14-13.9C83.2,10.3,76.9,4.1,69.1,4.1z
		 M72.8,25.7L72.8,25.7L72.1,26c0,0,0,0,0,0L72,26l0,0c-0.9,0.3-1.9,0.5-2.9,0.5c-4.7,0-8.6-3.8-8.6-8.5s3.9-8.5,8.6-8.5
		c1,0,1.9,0.2,2.9,0.5l0,0l0.1,0l0,0l0.7,0.3l0,0c3,1.4,5,4.4,5,7.7S75.8,24.3,72.8,25.7z"/>
</g>
</svg>
