<?xml version="1.0" encoding="utf-8"?>
<!-- Generator: Adobe Illustrator 19.2.1, SVG Export Plug-In . SVG Version: 6.00 Build 0)  -->
<svg version="1.1" id="Capa_1" xmlns="http://www.w3.org/2000/svg" xmlns:xlink="http://www.w3.org/1999/xlink" x="0px" y="0px"
	 viewBox="0 0 140 36" style="enable-background:new 0 0 140 36;" xml:space="preserve">
<style type="text/css">
	.st0{fill:#B8BDC6;}
</style>
<g>
	<g>
		<path class="st0" d="M55.6,3.3C55.4,3.2,47.5,1,39.4,1c-8.1,0-16.1,2.3-16.1,2.3C21.3,28.8,39.4,35,39.4,35S57.7,28.8,55.6,3.3z
			 M36.6,31.9c-0.1-0.1-0.3-0.2-0.4-0.2c-0.1-0.1-0.3-0.2-0.4-0.3c0,0,0,0-0.1,0c-1.5-1-3.2-2.4-4.9-4.4c-0.1-0.1-0.2-0.3-0.3-0.4
			c-0.1-0.1-0.1-0.2-0.2-0.2c-2.8-3.6-5.4-9.3-5.4-17.8c0-1.1,0.2-2.4,0.2-3.6c1.1-0.3,7.9-2.2,14.6-2.2c6.8,0,13.2,1.8,14.3,2.1
			C54,6,54,7.3,54,8.4c0,9.7-3.6,15.9-6.7,19.3c-3.5,3.9-7.3,5.4-7.9,5.6C39.2,33.3,38.1,32.9,36.6,31.9C36.6,32,36.6,32,36.6,31.9z
			"/>
		<path class="st0" d="M51.7,6.1c-0.2,0-6.1,0.5-12.3,0.5c-6.1,0-12.2-0.5-12.2-0.5c-1.6,19.3,12.2,24.4,12.2,24.4
			S53.3,25.4,51.7,6.1z M41.8,9.2h3.2L47,22.2h-3.1l-1.1-6.7l-1.1,5.3l-1.7-5.3L41.8,9.2z M36.1,15.5l-1,6.7h-3.1l2-12.9h3.3l4,12.9
			h-3.4L36.1,15.5z"/>
	</g>
	<g>
		<path class="st0" d="M67.5,15.5l-2.6,0l-2.4-6.2h0l-0.9,6.2h-2.7l1.8-11.6h2.7L67.5,15.5z M65.8,9.5l2.1-5.7h2.7l1.6,11.6h-2.8
			l-0.8-6.2h0L67,13L65.8,9.5z"/>
		<path class="st0" d="M82.7,13.5l-0.7,2h-2.8l3.9-11.6h2.9l3.8,11.6h-2.8l-0.7-2H82.7z M84.5,7.5L84.5,7.5l-1.1,3.7h2.2L84.5,7.5z"
			/>
		<path class="st0" d="M103.7,12h-5.4c0,1.1,0.5,1.8,1.6,1.8c0.5,0,0.9-0.2,1.2-0.7h2.5c-0.2,0.9-0.7,1.6-1.4,2
			c-0.7,0.4-1.5,0.7-2.3,0.7c-2.4,0-4.2-1.5-4.2-4.2c0-2.6,1.6-4.2,4-4.2c2.5,0,4,1.7,4,4.4V12z M101.3,10.4
			c-0.1-0.8-0.8-1.2-1.4-1.2c-0.7,0-1.4,0.4-1.5,1.2H101.3z"/>
		<path class="st0" d="M112.6,12h-5.4c0,1.1,0.5,1.8,1.6,1.8c0.5,0,0.9-0.2,1.2-0.7h2.5c-0.2,0.9-0.7,1.6-1.4,2
			c-0.7,0.4-1.5,0.7-2.3,0.7c-2.4,0-4.2-1.5-4.2-4.2c0-2.6,1.6-4.2,4-4.2c2.5,0,4,1.7,4,4.4V12z M110.2,10.4
			c-0.1-0.8-0.8-1.2-1.4-1.2c-0.7,0-1.4,0.4-1.5,1.2H110.2z"/>
		<path class="st0" d="M112.9,6c0-1.1,0.9-2,2-2c1.1,0,2,0.9,2,2s-0.9,2-2,2C113.8,8,112.9,7.1,112.9,6z M113.2,6
			c0,0.9,0.7,1.7,1.6,1.7c0.9,0,1.6-0.7,1.6-1.7c0-0.9-0.7-1.7-1.6-1.7C114,4.4,113.2,5.1,113.2,6z M115.8,7.2h-0.4l-0.6-1h-0.4v1
			h-0.3V4.9h0.9c0.4,0,0.8,0.1,0.8,0.6c0,0.4-0.3,0.6-0.6,0.6L115.8,7.2z M114.4,5.3v0.6h0.3c0.3,0,0.7,0.1,0.7-0.3
			c0-0.3-0.2-0.3-0.5-0.3H114.4z"/>
	</g>
	<g>
		<path class="st0" d="M90.7,9.5h-1.5V7.6h1.5V6.7c0-2.3,1-3.2,3.1-3.2c0.5,0,1,0.1,1.3,0.2L95,5.6c-0.2-0.1-0.4-0.1-0.8-0.1
			c-0.6,0-0.9,0.5-0.9,1.3v0.9h1.8v1.9h-1.8v6h-2.5V9.5z"/>
	</g>
	<g>
		<path class="st0" d="M64.7,21c-0.8-0.3-1.3-0.5-2.1-0.5c-0.9,0-2,0.3-2,1.5c0,2.1,4.8,1.6,4.8,5.2c0,2.3-1.8,3.3-4.1,3.3
			c-0.8,0-1.6-0.2-2.3-0.5l0.2-1.5c0.5,0.2,1.5,0.5,2.3,0.5c0.9,0,2.2-0.5,2.2-1.8c0-2.4-4.8-1.8-4.8-5.2c0-1.9,1.6-3,3.6-3
			c0.7,0,1.6,0.1,2.4,0.4L64.7,21z"/>
		<path class="st0" d="M67.7,19.4h6.3v1.4h-4.7v3.2h4.2v1.4h-4.2v3.6h4.7v1.4h-6.3V19.4z"/>
		<path class="st0" d="M83.5,21.2c-0.7-0.4-1.5-0.6-2.3-0.6c-2.6,0-4.3,1.8-4.3,4.3c0,2.6,1.9,4.3,4.2,4.3c0.8,0,1.9-0.2,2.4-0.5
			l0.1,1.5c-0.8,0.3-1.9,0.4-2.5,0.4c-3.5,0-5.9-2.2-5.9-5.7c0-3.4,2.5-5.6,5.9-5.6c0.9,0,1.7,0.1,2.5,0.5L83.5,21.2z"/>
		<path class="st0" d="M93.7,25.8c0,3.1-1.6,4.7-4.3,4.7c-2.8,0-4.3-1.6-4.3-4.7v-6.4h1.6v6.2c0,2.1,0.7,3.5,2.7,3.5
			s2.7-1.4,2.7-3.5v-6.2h1.6V25.8z"/>
		<path class="st0" d="M96.2,19.4h2.7c2.2,0,4.3,0.3,4.3,3c0,1.3-1,2.3-2.3,2.5v0c0.5,0.2,0.7,0.4,1.1,1.1l2.1,4.3h-1.8l-1.7-3.8
			c-0.5-1.1-1-1.1-1.9-1.1h-1v4.8h-1.6V19.4z M97.8,24.1h1.4c1.5,0,2.4-0.7,2.4-1.7c0-1-0.8-1.6-2.2-1.6h-1.5V24.1z"/>
		<path class="st0" d="M106,19.4h6.3v1.4h-4.7v3.2h4.2v1.4h-4.2v3.6h4.7v1.4H106V19.4z"/>
	</g>
	<path class="st0" d="M78.6,10.1c-0.5-0.3-0.9-0.4-1.5-0.4c-1.1,0-1.9,0.8-1.9,2.2c0,1.3,1,2.1,2.1,2.1c0.6,0,1.2-0.1,1.6-0.4l0.1,2
		c-0.6,0.2-1.4,0.3-2.1,0.3c-2.4,0-4.3-1.5-4.3-4.1c0-2.6,1.8-4.1,4.3-4.1c0.8,0,1.4,0.1,2,0.4L78.6,10.1z"/>
</g>
</svg>
