<?xml version="1.0" encoding="utf-8"?>
<!-- Generator: Adobe Illustrator 19.2.1, SVG Export Plug-In . SVG Version: 6.00 Build 0)  -->
<svg version="1.1" id="Capa_1" xmlns="http://www.w3.org/2000/svg" xmlns:xlink="http://www.w3.org/1999/xlink" x="0px" y="0px"
	 viewBox="0 0 140 36" style="enable-background:new 0 0 140 36;" xml:space="preserve">
<style type="text/css">
	.st0{fill:#B8BDC6;}
</style>
<g>
	<g>
		<g>
			<g>
				<path class="st0" d="M6,31.1h19.8c0,0,0.3-9.7-6.3-16.4C19.5,14.6,13.7,18,6,31.1z"/>
			</g>
			<g>
				<path class="st0" d="M1,26.2V6.2c0,0,9.7-0.3,16.3,6.3C17.3,12.5,13.9,18.4,1,26.2z"/>
			</g>
			<g>
				<path class="st0" d="M26.9,21.9v-17H9.1C17.4,7.5,23.9,13.8,26.9,21.9z"/>
			</g>
		</g>
		<g>
			<g>
				<g>
					<path class="st0" d="M30.7,5c0.1,0,0.3,0,0.4,0c4.1,0,8.3,0,12.4,0c0.1,0,0.3,0,0.5,0c0,0.6,0,1.2,0,1.8c-1.8,0-3.5,0-5.3,0
						c0,5.8,0,11.5,0,17.2c-0.9,0-1.7,0-2.6,0c0-5.7,0-11.4,0-17.2c-1.9,0-3.7,0-5.5,0C30.7,6.2,30.7,5.6,30.7,5z"/>
					<path class="st0" d="M50.5,10.5c0.8,0,1.5,0,2.3,0c0,0.2,0,0.4,0,0.6c0,2.5,0,5,0,7.5c0,0.6,0,1.2,0.1,1.8
						c0.2,1.5,1.1,2.2,2.7,2.2c1.7,0,3-0.9,3.3-2.2c0.1-0.3,0.1-0.7,0.1-1c0-2.8,0-5.6,0-8.3c0-0.2,0-0.4,0-0.6c0.8,0,1.5,0,2.3,0
						c0,4.5,0,8.9,0,13.4c-0.7,0-1.5,0-2.2,0c0-0.5,0-0.9,0-1.5c-0.2,0.2-0.4,0.3-0.5,0.4c-1.4,1.1-3,1.5-4.7,1.3
						c-1.7-0.2-3-1.6-3.2-3.4c-0.1-1.4-0.1-2.9-0.1-4.3C50.5,14.6,50.5,12.6,50.5,10.5z"/>
					<path class="st0" d="M62.4,19.9c0.8,0,1.5,0,2.2,0c0,0.1,0,0.2,0,0.3c0.1,1.7,1,2.6,2.6,2.6c0.4,0,0.8,0,1.2-0.1
						c0.9-0.2,1.5-0.8,1.6-1.6c0.2-1-0.2-1.8-1-2.2c-0.8-0.4-1.6-0.6-2.4-0.9c-0.6-0.2-1.3-0.4-1.9-0.7c-1.2-0.5-1.9-1.4-2-2.7
						c-0.1-1.5,0.3-2.8,1.7-3.6c1.9-1.1,3.9-1.1,5.9-0.1c1.3,0.7,1.8,1.9,1.8,3.4c-0.7,0-1.4,0-2.1,0c0-0.1,0-0.3,0-0.4
						c-0.1-1.3-0.7-2-2-2.2c-0.6-0.1-1.3,0-1.9,0.2c-0.7,0.2-1.1,0.8-1.2,1.6c-0.1,0.8,0.3,1.4,1,1.7c0.7,0.3,1.4,0.5,2.1,0.8
						c0.9,0.3,1.7,0.6,2.5,1c1.4,0.7,1.9,1.9,1.8,3.4c-0.1,1.5-0.7,2.6-2,3.2c-2,0.9-4.1,0.9-6.1,0C62.9,23,62.1,21.4,62.4,19.9z"/>
					<path class="st0" d="M79.4,10.5c0,0.5,0,0.9,0,1.4c-0.8,0-1.6,0-2.5,0c0,0.2,0,0.4,0,0.5c0,2.6,0,5.3,0,7.9
						c0,2.1,0.8,2.7,2.9,2.1c0.1,0,0.2,0,0.3-0.1c0,0.2,0,0.3,0,0.5c0,1.2,0,1.2-1.1,1.4c-0.5,0.1-1,0.1-1.4,0.1c-2,0-3-1-3-2.9
						c0-2.9,0-5.9,0-8.8c0-0.2,0-0.4,0-0.7c-0.7,0-1.3,0-2,0c0-0.5,0-0.9,0-1.4c0.6,0,1.3,0,2,0c0-0.9,0-1.7,0-2.5
						c0-0.4,0.1-0.5,0.5-0.6c0.6-0.1,1.2-0.2,1.8-0.3c0,1.1,0,2.2,0,3.3C77.8,10.5,78.6,10.5,79.4,10.5z"/>
					<path class="st0" d="M42,24c0-4.5,0-9,0-13.4c0.8,0,1.5,0,2.3,0c0,0.5,0,1,0,1.6c0.5-0.5,0.9-0.9,1.4-1.2c1-0.7,2-0.9,3.2-0.3
						c0.2,0.1,0.3,0.4,0.4,0.6c0.1,0.5,0,1,0,1.7c-0.2-0.1-0.3-0.2-0.5-0.2c-0.8-0.5-1.7-0.6-2.6-0.4c-1.1,0.2-1.8,1.2-1.8,2.6
						c0,2.9,0,5.7,0,8.6c0,0.2,0,0.4,0,0.6C43.5,24,42.8,24,42,24z"/>
					<path class="st0" d="M90.1,13.8c-1,3.1-1.5,5-2.4,8c-0.2,0.7-0.4,1.3-0.7,2c-0.1,0.2-0.1,0.3-1.1,0.3c-1.4,0-1.4,0.1-1.7-1.1
						c-1.2-4-2.4-7.9-3.5-11.9c0-0.2-0.1-0.3-0.1-0.5c0.6,0,1.8,0,2.5,0c1,3.7,1.9,7.2,2.9,11c0,0,2.2-7.2,3.4-10.9
						c0.5,0,1.5,0,2.1,0c1.1,3.8,2,7.2,3.1,11c0,0,2-7.2,3.1-11c0.5,0,1.5,0,2,0c-0.2,0.6-0.3,1.2-0.5,1.8
						c-1.1,3.7-2.3,7.4-3.4,11.1c-0.2,0.5-0.6,0.7-1.2,0.7c-1-0.1-1.4,0-1.6-1C92,19.9,90.2,14.2,90.1,13.8z"/>
					<path class="st0" d="M133.6,17.1c-3.2,0-5.9,0-9.1,0c0,1.9,0.1,3.8,1.7,5.1c1.2,0.6,2.2,0.9,3.5,0.2c1.3-0.7,1.1-1,1.5-2.4
						c0.6,0,1.7,0,2.3,0c-0.1,1.3-0.6,2.3-1.6,3.1c-1.9,1.5-4.1,1.5-6.3,0.8c-2.1-0.7-3-2.3-3.3-4.3c-0.4-2.2-0.3-4.5,0.8-6.6
						c1.4-2.6,5-3.7,7.7-2.3c1.6,0.8,2.3,2.3,2.6,3.9C133.5,15.5,133.5,16.3,133.6,17.1z M131.2,15.8c0.1-2.5-1.2-4.1-3.2-4
						c-2.1,0.1-3.4,1.9-3.3,4C126.9,15.8,129,15.8,131.2,15.8z"/>
					<path class="st0" d="M110.6,24c-3.2,0.2-2.8-0.2-2.9-1.3c-0.6,0.5-1.4,1.2-2.3,1.4c-0.8,0.2-2,0.3-2.9,0.2
						c-1.7-0.3-2.8-1.5-3-3.2c-0.2-1.9,0.8-3.6,2.4-4.2c1.2-0.5,2.3-0.6,3.7-0.8c0.7-0.1,1.3-0.1,2-0.2c0-0.9,0-1.4-0.1-2.2
						c-0.1-1-0.8-1.7-1.7-1.8c-0.7-0.1-0.9-0.1-1.6,0c-1.2,0.2-1.8,0.9-2,2.1c-0.1,0.3-0.1,0.6-0.1,0.9c-0.3,0-1.2,0-1.5,0
						c-0.2,0-0.4,0-0.6,0c0-1.7,0.4-3,1.8-3.8c1.7-0.9,4-1,5.8-0.4c1.2,0.4,2.2,1.4,2.2,2.7c0.1,2.3,0,4.5,0,6.8c0,0.8,0,1.7,0,2.5
						c0,0.4,0.1,0.9,0.6,1.1C110.7,23.7,110.6,23.8,110.6,24z M107.7,17.1c-0.4,0-0.5,0-0.9,0.1c-1.4,0.2-2.4,0.4-3.5,0.9
						c-0.8,0.3-1.2,0.8-1.3,2.2c0,1.1,0.5,2.4,1.8,2.5c0.4,0,1,0,1.4,0c1.5-0.2,2.4-1.2,2.5-2.5C107.7,19.2,107.7,18.2,107.7,17.1z"
						/>
					<polygon class="st0" points="110.6,10.5 113.1,10.5 116.5,21.5 120.3,10.5 122.3,10.5 117.5,24 115,24 					"/>
				</g>
				<g>
					<path class="st0" d="M37.5,27.2h-1.3v-0.5h3.2v0.5h-1.3V31h-0.6V27.2z"/>
					<path class="st0" d="M39.6,28.9c0-0.4,0-0.7,0-1H40l0,0.6h0c0.1-0.4,0.5-0.7,0.9-0.7c0.1,0,0.1,0,0.2,0v0.5c-0.1,0-0.1,0-0.2,0
						c-0.4,0-0.7,0.3-0.7,0.7c0,0.1,0,0.2,0,0.3V31h-0.6V28.9z"/>
					<path class="st0" d="M44.2,30.2c0,0.3,0,0.6,0,0.9h-0.5l0-0.5h0c-0.1,0.2-0.5,0.6-1,0.6c-0.5,0-1.1-0.3-1.1-1.4v-1.8h0.6v1.7
						c0,0.6,0.2,1,0.7,1c0.4,0,0.6-0.3,0.7-0.5c0-0.1,0.1-0.2,0.1-0.3v-1.9h0.6V30.2z"/>
					<path class="st0" d="M45.1,30.4c0.2,0.1,0.5,0.2,0.7,0.2c0.4,0,0.6-0.2,0.6-0.5c0-0.3-0.2-0.4-0.6-0.6
						c-0.6-0.2-0.8-0.5-0.8-0.9c0-0.5,0.4-0.9,1.1-0.9c0.3,0,0.6,0.1,0.7,0.2l-0.1,0.4c-0.1-0.1-0.3-0.2-0.6-0.2
						c-0.3,0-0.5,0.2-0.5,0.4c0,0.3,0.2,0.4,0.6,0.5c0.5,0.2,0.8,0.5,0.8,0.9c0,0.6-0.4,0.9-1.1,0.9c-0.3,0-0.6-0.1-0.9-0.2
						L45.1,30.4z"/>
					<path class="st0" d="M48.3,27.2v0.7h0.8v0.4h-0.8V30c0,0.4,0.1,0.6,0.4,0.6c0.2,0,0.2,0,0.3,0l0,0.4c-0.1,0-0.3,0.1-0.5,0.1
						c-0.3,0-0.5-0.1-0.6-0.2c-0.2-0.2-0.2-0.4-0.2-0.8v-1.7h-0.5v-0.4h0.5v-0.6L48.3,27.2z"/>
					<path class="st0" d="M50,29.6c0,0.8,0.5,1.1,1,1.1c0.4,0,0.6-0.1,0.9-0.2l0.1,0.4c-0.2,0.1-0.5,0.2-1,0.2
						c-0.9,0-1.5-0.6-1.5-1.6c0-0.9,0.6-1.7,1.4-1.7c1,0,1.3,0.9,1.3,1.5c0,0.1,0,0.2,0,0.3H50z M51.7,29.2c0-0.4-0.1-0.9-0.8-0.9
						c-0.6,0-0.8,0.5-0.9,0.9H51.7z"/>
					<path class="st0" d="M55.5,26.5v3.7c0,0.3,0,0.6,0,0.8h-0.5l0-0.5h0c-0.2,0.3-0.5,0.6-1,0.6c-0.7,0-1.3-0.6-1.3-1.6
						c0-1,0.6-1.7,1.4-1.7c0.5,0,0.8,0.2,0.9,0.5h0v-1.8H55.5z M55,29.2c0-0.1,0-0.2,0-0.2c-0.1-0.4-0.4-0.6-0.8-0.6
						c-0.6,0-0.9,0.5-0.9,1.2c0,0.6,0.3,1.2,0.9,1.2c0.4,0,0.7-0.3,0.8-0.7c0-0.1,0-0.1,0-0.2V29.2z"/>
					<path class="st0" d="M60.8,30.9c-0.2,0.1-0.6,0.2-1.1,0.2c-1.2,0-2.1-0.8-2.1-2.2c0-1.4,0.9-2.3,2.2-2.3c0.5,0,0.9,0.1,1,0.2
						l-0.1,0.5c-0.2-0.1-0.5-0.2-0.9-0.2c-1,0-1.7,0.6-1.7,1.8c0,1.1,0.6,1.7,1.6,1.7c0.3,0,0.7-0.1,0.9-0.2L60.8,30.9z"/>
					<path class="st0" d="M62.7,31.1c-0.8,0-1.5-0.6-1.5-1.6c0-1,0.7-1.6,1.5-1.6c0.9,0,1.5,0.6,1.5,1.6
						C64.2,30.6,63.4,31.1,62.7,31.1L62.7,31.1z M62.7,30.7c0.5,0,0.9-0.5,0.9-1.2c0-0.5-0.3-1.2-0.9-1.2c-0.7,0-0.9,0.6-0.9,1.2
						C61.8,30.1,62.2,30.7,62.7,30.7L62.7,30.7z"/>
					<path class="st0" d="M64.9,28.7c0-0.3,0-0.6,0-0.8h0.5l0,0.5h0c0.2-0.3,0.5-0.6,1-0.6c0.4,0,0.7,0.3,0.9,0.6h0
						c0.1-0.2,0.2-0.3,0.3-0.4c0.2-0.1,0.4-0.2,0.7-0.2c0.4,0,1,0.3,1,1.3V31h-0.5v-1.8c0-0.6-0.2-1-0.7-1c-0.3,0-0.6,0.2-0.7,0.5
						c0,0.1,0,0.2,0,0.3V31h-0.5v-1.9c0-0.5-0.2-0.8-0.6-0.8c-0.3,0-0.6,0.3-0.7,0.6c0,0.1,0,0.2,0,0.3V31h-0.5V28.7z"/>
					<path class="st0" d="M70.2,28.7c0-0.3,0-0.6,0-0.8h0.5l0,0.5h0c0.2-0.3,0.5-0.6,1-0.6c0.4,0,0.7,0.3,0.9,0.6h0
						c0.1-0.2,0.2-0.3,0.3-0.4c0.2-0.1,0.4-0.2,0.7-0.2c0.4,0,1,0.3,1,1.3V31h-0.5v-1.8c0-0.6-0.2-1-0.7-1c-0.3,0-0.6,0.2-0.7,0.5
						c0,0.1,0,0.2,0,0.3V31h-0.5v-1.9c0-0.5-0.2-0.8-0.6-0.8c-0.3,0-0.6,0.3-0.7,0.6c0,0.1,0,0.2,0,0.3V31h-0.5V28.7z"/>
					<path class="st0" d="M75.8,29.6c0,0.8,0.5,1.1,1,1.1c0.4,0,0.6-0.1,0.9-0.2l0.1,0.4c-0.2,0.1-0.5,0.2-1,0.2
						c-0.9,0-1.5-0.6-1.5-1.6c0-0.9,0.6-1.7,1.4-1.7c1,0,1.3,0.9,1.3,1.5c0,0.1,0,0.2,0,0.3H75.8z M77.5,29.2c0-0.4-0.1-0.9-0.8-0.9
						c-0.6,0-0.8,0.5-0.9,0.9H77.5z"/>
					<path class="st0" d="M78.7,28.9c0-0.4,0-0.7,0-1h0.5l0,0.6h0c0.1-0.4,0.5-0.7,0.9-0.7c0.1,0,0.1,0,0.2,0v0.5
						c-0.1,0-0.1,0-0.2,0c-0.4,0-0.7,0.3-0.7,0.7c0,0.1,0,0.2,0,0.3V31h-0.6V28.9z"/>
					<path class="st0" d="M82.9,30.9c-0.1,0.1-0.5,0.2-0.9,0.2c-0.9,0-1.5-0.6-1.5-1.6c0-1,0.6-1.7,1.7-1.7c0.3,0,0.6,0.1,0.8,0.2
						l-0.1,0.4c-0.1-0.1-0.3-0.1-0.6-0.1c-0.7,0-1.1,0.5-1.1,1.2c0,0.7,0.5,1.2,1.1,1.2c0.3,0,0.5-0.1,0.7-0.1L82.9,30.9z"/>
					<path class="st0" d="M83.8,29.6c0,0.8,0.5,1.1,1,1.1c0.4,0,0.6-0.1,0.9-0.2l0.1,0.4c-0.2,0.1-0.5,0.2-1,0.2
						c-0.9,0-1.5-0.6-1.5-1.6c0-0.9,0.6-1.7,1.4-1.7c1,0,1.3,0.9,1.3,1.5c0,0.1,0,0.2,0,0.3H83.8z M85.5,29.2c0-0.4-0.1-0.9-0.8-0.9
						c-0.6,0-0.8,0.5-0.9,0.9H85.5z"/>
					<path class="st0" d="M88.9,29.7c-0.2,0-0.4-0.2-0.4-0.4c0-0.2,0.2-0.4,0.4-0.4c0.2,0,0.4,0.2,0.4,0.4
						C89.3,29.6,89.1,29.7,88.9,29.7L88.9,29.7z"/>
					<path class="st0" d="M95,30.9c-0.2,0.1-0.6,0.2-1.1,0.2c-1.2,0-2.1-0.8-2.1-2.2c0-1.4,0.9-2.3,2.2-2.3c0.5,0,0.9,0.1,1,0.2
						l-0.1,0.5c-0.2-0.1-0.5-0.2-0.9-0.2c-1,0-1.7,0.6-1.7,1.8c0,1.1,0.6,1.7,1.6,1.7c0.3,0,0.7-0.1,0.9-0.2L95,30.9z"/>
					<path class="st0" d="M95.7,26.5h0.6V31h-0.6V26.5z"/>
					<path class="st0" d="M97.4,27.4c-0.2,0-0.3-0.2-0.3-0.3c0-0.2,0.1-0.4,0.3-0.4c0.2,0,0.3,0.2,0.3,0.4
						C97.8,27.2,97.6,27.4,97.4,27.4L97.4,27.4z M97.2,31v-3.1h0.6V31H97.2z"/>
					<path class="st0" d="M100.8,30.9c-0.1,0.1-0.5,0.2-0.9,0.2c-0.9,0-1.5-0.6-1.5-1.6c0-1,0.6-1.7,1.7-1.7c0.3,0,0.6,0.1,0.8,0.2
						l-0.1,0.4c-0.1-0.1-0.3-0.1-0.6-0.1c-0.7,0-1.1,0.5-1.1,1.2c0,0.7,0.5,1.2,1.1,1.2c0.3,0,0.5-0.1,0.7-0.1L100.8,30.9z"/>
					<path class="st0" d="M102,29.3L102,29.3c0.1-0.1,0.2-0.2,0.3-0.4l0.9-1.1h0.7l-1.2,1.3l1.4,1.8h-0.7l-1.1-1.5l-0.3,0.3V31h-0.6
						v-4.5h0.6V29.3z"/>
					<path class="st0" d="M106.5,27.2v0.7h0.8v0.4h-0.8V30c0,0.4,0.1,0.6,0.4,0.6c0.2,0,0.2,0,0.3,0l0,0.4c-0.1,0-0.3,0.1-0.5,0.1
						c-0.3,0-0.5-0.1-0.6-0.2c-0.2-0.2-0.2-0.4-0.2-0.8v-1.7h-0.5v-0.4h0.5v-0.6L106.5,27.2z"/>
					<path class="st0" d="M109.1,31.1c-0.8,0-1.5-0.6-1.5-1.6c0-1,0.7-1.6,1.5-1.6c0.9,0,1.5,0.6,1.5,1.6
						C110.7,30.6,109.9,31.1,109.1,31.1L109.1,31.1z M109.2,30.7c0.5,0,0.9-0.5,0.9-1.2c0-0.5-0.3-1.2-0.9-1.2
						c-0.7,0-0.9,0.6-0.9,1.2C108.2,30.1,108.6,30.7,109.2,30.7L109.2,30.7z"/>
					<path class="st0" d="M113.4,31l-1.4-4.3h0.6l0.7,2.1c0.2,0.6,0.3,1.1,0.5,1.6h0c0.1-0.5,0.3-1,0.5-1.6l0.7-2.1h0.6l-1.5,4.3
						H113.4z"/>
					<path class="st0" d="M118,30.3c0,0.3,0,0.5,0,0.7h-0.5l-0.1-0.4h0c-0.2,0.2-0.5,0.5-0.9,0.5c-0.6,0-0.9-0.4-0.9-0.9
						c0-0.7,0.7-1.2,1.8-1.2V29c0-0.3-0.1-0.7-0.7-0.7c-0.3,0-0.6,0.1-0.8,0.2l-0.1-0.4c0.3-0.2,0.6-0.3,1-0.3
						c0.9,0,1.2,0.6,1.2,1.3V30.3z M117.4,29.4c-0.6,0-1.3,0.1-1.3,0.7c0,0.4,0.2,0.5,0.5,0.5c0.4,0,0.7-0.3,0.8-0.5
						c0-0.1,0-0.1,0-0.2V29.4z"/>
					<path class="st0" d="M118.9,26.5h0.6V31h-0.6V26.5z"/>
					<path class="st0" d="M120.6,27.4c-0.2,0-0.3-0.2-0.3-0.3c0-0.2,0.1-0.4,0.3-0.4c0.2,0,0.3,0.2,0.3,0.4
						C121,27.2,120.9,27.4,120.6,27.4L120.6,27.4z M120.4,31v-3.1h0.6V31H120.4z"/>
					<path class="st0" d="M124.5,26.5v3.7c0,0.3,0,0.6,0,0.8H124l0-0.5h0c-0.2,0.3-0.5,0.6-1,0.6c-0.7,0-1.3-0.6-1.3-1.6
						c0-1,0.6-1.7,1.4-1.7c0.5,0,0.8,0.2,0.9,0.5h0v-1.8H124.5z M124,29.2c0-0.1,0-0.2,0-0.2c-0.1-0.4-0.4-0.6-0.8-0.6
						c-0.6,0-0.9,0.5-0.9,1.2c0,0.6,0.3,1.2,0.9,1.2c0.4,0,0.7-0.3,0.8-0.7c0-0.1,0-0.1,0-0.2V29.2z"/>
					<path class="st0" d="M127.6,30.3c0,0.3,0,0.5,0,0.7h-0.5l-0.1-0.4h0c-0.2,0.2-0.5,0.5-0.9,0.5c-0.6,0-0.9-0.4-0.9-0.9
						c0-0.7,0.7-1.2,1.8-1.2V29c0-0.3-0.1-0.7-0.7-0.7c-0.3,0-0.6,0.1-0.8,0.2l-0.1-0.4c0.3-0.2,0.6-0.3,1-0.3
						c0.9,0,1.2,0.6,1.2,1.3V30.3z M127.1,29.4c-0.6,0-1.3,0.1-1.3,0.7c0,0.4,0.2,0.5,0.5,0.5c0.4,0,0.7-0.3,0.8-0.5
						c0-0.1,0-0.1,0-0.2V29.4z"/>
					<path class="st0" d="M129.2,27.2v0.7h0.8v0.4h-0.8V30c0,0.4,0.1,0.6,0.4,0.6c0.2,0,0.2,0,0.3,0l0,0.4c-0.1,0-0.3,0.1-0.5,0.1
						c-0.3,0-0.5-0.1-0.6-0.2c-0.2-0.2-0.2-0.4-0.2-0.8v-1.7h-0.5v-0.4h0.5v-0.6L129.2,27.2z"/>
					<path class="st0" d="M130.9,29.6c0,0.8,0.5,1.1,1,1.1c0.4,0,0.6-0.1,0.9-0.2l0.1,0.4c-0.2,0.1-0.5,0.2-1,0.2
						c-0.9,0-1.5-0.6-1.5-1.6c0-0.9,0.6-1.7,1.4-1.7c1,0,1.3,0.9,1.3,1.5c0,0.1,0,0.2,0,0.3H130.9z M132.5,29.2
						c0-0.4-0.1-0.9-0.8-0.9c-0.6,0-0.8,0.5-0.9,0.9H132.5z"/>
				</g>
				<g>
					<g>
						<g>
							<path class="st0" d="M136.9,10.4L136.9,10.4c-1.2,0-2.1,0.9-2.1,2.1c0,1.2,0.9,2.1,2.1,2.1c1.2,0,2.1-0.9,2.1-2.1
								C139,11.3,138.1,10.4,136.9,10.4z M136.9,14.4c-1.1,0-1.9-0.8-1.9-1.9c0-1.1,0.9-1.9,1.9-1.9h0c1.1,0,1.9,0.8,1.9,1.9
								C138.8,13.5,138,14.4,136.9,14.4z"/>
						</g>
					</g>
					<g>
						<g>
							<path class="st0" d="M137.4,12.5L137.4,12.5c0.2-0.1,0.4-0.3,0.4-0.6c0-0.2-0.1-0.4-0.2-0.5c-0.1-0.1-0.3-0.2-0.7-0.2
								c-0.3,0-0.6,0-0.8,0.1v2.4h0.5v-1h0.2c0.3,0,0.4,0.1,0.4,0.4c0.1,0.3,0.1,0.5,0.2,0.6h0.5c0-0.1-0.1-0.2-0.2-0.6
								C137.7,12.8,137.6,12.6,137.4,12.5z M136.8,12.4h-0.2v-0.7c0.1,0,0.1,0,0.3,0c0.4,0,0.5,0.1,0.5,0.4
								C137.3,12.2,137.2,12.4,136.8,12.4z"/>
						</g>
					</g>
				</g>
			</g>
		</g>
	</g>
</g>
</svg>
