<?xml version="1.0" encoding="utf-8"?>
<!-- Generator: Adobe Illustrator 19.2.1, SVG Export Plug-In . SVG Version: 6.00 Build 0)  -->
<svg version="1.1" id="Capa_1" xmlns="http://www.w3.org/2000/svg" xmlns:xlink="http://www.w3.org/1999/xlink" x="0px" y="0px"
	 viewBox="0 0 140 36" style="enable-background:new 0 0 140 36;" xml:space="preserve">
<style type="text/css">
	.st0{fill:#B8BDC6;}
</style>
<g>
	<g>
		<path class="st0" d="M79.2,21.4c0,1.2,0.1,2.4,0,3.6c-0.4,2.7-2.2,4.4-5,4.6c-1.3,0.1-2.6,0-3.9-0.3c-2.2-0.5-3.6-2.1-3.8-4.4
			c-0.2-2.3-0.2-4.6-0.1-6.8c0.2-3.1,2.3-4.9,5.4-5c1.2-0.1,2.4,0,3.6,0.3c2.2,0.6,3.5,2.3,3.7,4.6C79.3,19.1,79.2,20.2,79.2,21.4
			C79.2,21.4,79.2,21.4,79.2,21.4z M76.6,21.3C76.6,21.3,76.5,21.3,76.6,21.3c-0.1-1-0.1-1.9-0.1-2.9c-0.1-1.5-1-2.6-2.5-2.9
			c-0.9-0.1-1.8-0.1-2.7,0.1c-1.3,0.2-2.1,1.2-2.2,2.5c-0.1,2.1-0.1,4.3,0,6.5c0,1.2,0.7,2.1,1.9,2.5c1.1,0.4,2.3,0.4,3.5,0
			c1-0.3,1.7-1,1.9-2.1C76.5,23.7,76.5,22.5,76.6,21.3z"/>
		<path class="st0" d="M97.7,13.3c0.7,0,1.4,0,2.2,0c0.1,0.4,0.2,0.8,0.3,1.2c1.5-0.5,3-0.9,4.4-1.3c0.6-0.2,1.3-0.2,1.9-0.2
			c2.1,0,3.4,1.1,3.5,3.3c0.1,4.3,0,8.6,0,13c-0.9,0-1.8,0-2.7,0c0-0.2,0-0.5,0-0.7c0-3.8,0-7.5,0-11.3c0-1.3-0.5-1.8-1.8-1.7
			c-1.7,0.2-3.3,0.7-4.8,1.5c-0.2,0.1-0.3,0.5-0.3,0.7c0,3.6,0,7.1,0,10.7c0,0.3,0,0.5,0,0.8c-0.9,0-1.8,0-2.7,0
			C97.7,24,97.7,18.7,97.7,13.3z"/>
		<path class="st0" d="M82.4,13.3c0.9,0,1.7,0,2.7,0c0,0.3,0,0.5,0,0.8c0,3.6,0,7.3,0,10.9c0,0.3,0,0.6,0,0.8
			c0.1,0.8,0.5,1.3,1.3,1.2c1.2-0.1,2.3-0.4,3.4-0.7c0.7-0.2,1.6-0.4,2-0.9c0.3-0.4,0.1-1.3,0.1-2c0-3.1,0-6.2,0-9.3
			c0-0.2,0-0.5,0-0.7c0.9,0,1.8,0,2.7,0c0,5.3,0,10.6,0,16c-0.7,0-1.4,0-2.2,0c-0.1-0.4-0.2-0.8-0.3-1.2c-1.4,0.4-2.8,0.9-4.3,1.3
			c-0.8,0.2-1.7,0.3-2.6,0.2c-1.6-0.1-2.6-1-2.9-2.6c-0.1-0.5-0.1-0.9-0.1-1.4c0-4,0-7.9,0-11.9C82.4,13.6,82.4,13.5,82.4,13.3z"/>
		<path class="st0" d="M121.1,27c0,0.8,0,1.5,0,2.2c-1.5,0.4-2.9,0.5-4.4,0.2c-1.2-0.3-1.9-1.2-2.1-2.4c-0.1-0.5-0.1-1-0.1-1.5
			c0-3.1,0-6.1,0-9.2c0-0.2,0-0.5,0-0.8c-0.9,0-1.8,0-2.8,0c0-0.8,0-1.5,0-2.3c0.9,0,1.8,0,2.7,0c0-1.3,0-2.6,0-3.9
			c0.9-0.1,1.8-0.3,2.8-0.4c0,1.5,0,2.8,0,4.3c1.3,0,2.6,0,3.9,0c0,0.8,0,1.5,0,2.3c-1.3,0-2.5,0-3.8,0c0,0.3,0,0.5,0,0.7
			c0,3,0,6,0,9.1c0,0.1,0,0.2,0,0.3c0,1.4,0.4,1.7,1.8,1.7c0.3,0,0.7,0,1-0.1C120.4,27.2,120.8,27.1,121.1,27z"/>
		<path class="st0" d="M66.7,28.8c-2.7-3.5-5.4-7-8.1-10.5c-0.3-0.4-0.3-0.7,0-1.1c2.5-3.3,4.9-6.6,7.4-10c0.1-0.2,0.3-0.4,0.4-0.6
			c-1,0-1.8,0-2.6,0c-0.6,0-0.9,0.1-1.3,0.6c-1.7,2.4-3.4,4.7-5.1,7c-0.6,0.9-1.2,1.7-1.9,2.6h-1.5c0-3.4,0-6.8,0-10.2
			c-0.9,0-1.9,0-2.8,0c0,7.6,0,15.2,0,22.7c1,0,1.9,0,2.8,0c0-3.4,0-6.8,0-10.2h1.8c2.5,3.3,5,6.6,7.5,9.9c0.1,0.1,0.3,0.3,0.5,0.3
			c1,0,2,0,3.2,0C66.9,29.1,66.8,28.9,66.7,28.8z"/>
	</g>
	<g>
		<path class="st0" d="M43,10c0,0-3.2-5.9-11.1-5.9s-13,7.4-13,13.6c0,7.4,4.8,14.3,13.8,14.3c9.2,0,11-6.5,11-6.5s-4,4.5-8.9,4.5
			s-11-4.4-11-12.3s6-11.5,10.5-11.5C37.9,6.1,41.1,7.7,43,10z"/>
		<path class="st0" d="M42.5,12c0,0-2.4-4.4-8.3-4.4s-9.7,5.5-9.7,10.1c0,5.5,3.5,10.7,10.3,10.7c6.9,0,8.2-4.9,8.2-4.9
			s-2.9,3.4-6.6,3.4c-3.7,0-8.2-3.3-8.2-9.2s4.5-8.6,7.8-8.6C38.7,9.2,41.1,10.3,42.5,12z"/>
		<path class="st0" d="M32.7,24.5c0,0-3.6-2-3.6-6.6s3.4-7.6,6.8-7.6c3.3,0,6.1,2,7.5,7.1c0,0-3.1-5.9-7.9-3.7
			C30.8,15.8,30.2,21.7,32.7,24.5z"/>
	</g>
</g>
</svg>
