<?xml version="1.0" encoding="utf-8"?>
<!-- Generator: Adobe Illustrator 19.2.1, SVG Export Plug-In . SVG Version: 6.00 Build 0)  -->
<svg version="1.1" id="Capa_1" xmlns="http://www.w3.org/2000/svg" xmlns:xlink="http://www.w3.org/1999/xlink" x="0px" y="0px"
	 viewBox="0 0 140 36" style="enable-background:new 0 0 140 36;" xml:space="preserve">
<style type="text/css">
	.st0{fill:#B8BDC6;}
</style>
<g>
	<path class="st0" d="M48.5,4.6v17.1c0,1.3,0,2.7,0.1,3.7h-2.4l-0.1-2.5H46c-0.8,1.6-2.6,2.8-5,2.8c-3.6,0-6.3-2.9-6.3-7.2
		c0-4.7,3-7.6,6.6-7.6c2.3,0,3.8,1,4.5,2.2h0.1V4.6H48.5z M45.8,16.9c0-0.3,0-0.8-0.1-1.1c-0.4-1.6-1.9-3-3.9-3
		c-2.8,0-4.4,2.3-4.4,5.5c0,2.9,1.5,5.2,4.4,5.2c1.8,0,3.5-1.1,3.9-3.1c0.1-0.4,0.1-0.7,0.1-1.1V16.9z"/>
	<path class="st0" d="M55.4,7.2c0,0.9-0.6,1.6-1.7,1.6c-0.9,0-1.6-0.7-1.6-1.6c0-0.9,0.7-1.6,1.7-1.6C54.7,5.6,55.4,6.3,55.4,7.2z
		 M52.4,25.3V11.2h2.7v14.1H52.4z"/>
	<path class="st0" d="M72,11.2c-0.1,1-0.1,2.2-0.1,3.9v8.2c0,3.2-0.7,5.2-2.1,6.5c-1.4,1.3-3.5,1.7-5.4,1.7c-1.8,0-3.7-0.4-4.9-1.2
		l0.7-2c1,0.6,2.5,1.1,4.3,1.1c2.8,0,4.8-1.4,4.8-4.9v-1.6h-0.1c-0.8,1.3-2.4,2.4-4.7,2.4c-3.7,0-6.3-3-6.3-6.9
		c0-4.8,3.3-7.5,6.7-7.5c2.6,0,4,1.3,4.6,2.5h0.1l0.1-2.1H72z M69.2,16.7c0-0.4,0-0.8-0.2-1.2c-0.5-1.5-1.8-2.7-3.8-2.7
		c-2.6,0-4.4,2.1-4.4,5.3c0,2.8,1.5,5.1,4.4,5.1c1.7,0,3.1-1,3.7-2.6c0.2-0.4,0.2-0.9,0.2-1.4V16.7z"/>
	<path class="st0" d="M78.5,7.2c0,0.9-0.6,1.6-1.7,1.6c-0.9,0-1.6-0.7-1.6-1.6c0-0.9,0.7-1.6,1.7-1.6C77.9,5.6,78.5,6.3,78.5,7.2z
		 M75.5,25.3V11.2h2.7v14.1H75.5z"/>
	<path class="st0" d="M93,24.9c-0.8,0.4-2.4,0.6-4.2,0.6c-4.8,0-7.9-2.8-7.9-7.3c0-4.2,3-7.6,8.6-7.6c1.2,0,2.6,0.2,3.5,0.6
		l-0.7,3.3c-0.6-0.2-1.4-0.4-2.6-0.4c-2.4,0-4,1.7-4,4c0,2.6,1.8,4,4.1,4c1.1,0,2-0.2,2.7-0.4L93,24.9z"/>
	<path class="st0" d="M98.5,19.6c0.2,1.8,2,2.7,4.2,2.7c1.6,0,2.9-0.2,4.1-0.6l0.6,3c-1.5,0.6-3.4,0.9-5.4,0.9c-5.1,0-8-2.8-8-7.3
		c0-3.6,2.4-7.6,7.6-7.6c4.8,0,6.7,3.6,6.7,7.1c0,0.8-0.1,1.4-0.2,1.8H98.5z M104,16.5c0-1.1-0.5-2.9-2.6-2.9c-2,0-2.8,1.7-2.9,2.9
		H104z"/>
	<path class="st0" d="M110.5,15.7c0-2.1-0.1-3.5-0.1-4.7h4l0.2,2.6h0.1c0.8-2.1,2.6-3,4-3c0.4,0,0.6,0,1,0.1v4.2
		c-0.3-0.1-0.7-0.1-1.3-0.1c-1.7,0-2.9,0.9-3.2,2.2c-0.1,0.3-0.1,0.6-0.1,1v7.2h-4.6V15.7z"/>
	<path class="st0" d="M127.1,6.9V11h3.3v3.3h-3.3v5.2c0,1.7,0.4,2.5,1.8,2.5c0.6,0,1-0.1,1.4-0.1l0,3.4c-0.6,0.2-1.7,0.4-3,0.4
		c-1.5,0-2.8-0.5-3.5-1.2c-0.9-0.8-1.3-2.2-1.3-4.2v-5.8h-2V11h2V7.9L127.1,6.9z"/>
	<g>
		<path class="st0" d="M133.5,6.9c0,1.2-0.9,2.1-2.1,2.1c-1.2,0-2.1-0.9-2.1-2.1c0-1.1,0.9-2.1,2.1-2.1
			C132.6,4.8,133.5,5.8,133.5,6.9z M129.8,6.9c0,0.9,0.7,1.7,1.6,1.7c0.9,0,1.6-0.7,1.6-1.6c0-0.9-0.7-1.7-1.6-1.7
			C130.5,5.3,129.8,6,129.8,6.9z M131.1,8h-0.5V5.9c0.2,0,0.4-0.1,0.8-0.1c0.4,0,0.6,0.1,0.7,0.2c0.1,0.1,0.2,0.3,0.2,0.5
			c0,0.2-0.2,0.4-0.4,0.5v0c0.2,0.1,0.3,0.2,0.4,0.5c0.1,0.3,0.1,0.4,0.2,0.5h-0.5c-0.1-0.1-0.1-0.3-0.2-0.5c0-0.2-0.2-0.3-0.4-0.3
			h-0.2V8z M131.1,6.8h0.2c0.3,0,0.5-0.1,0.5-0.3c0-0.2-0.1-0.3-0.4-0.3c-0.1,0-0.2,0-0.3,0V6.8z"/>
	</g>
	<g>
		<path class="st0" d="M32.4,22.2c0-6.2-3.4-9.5-6.4-13.2c-0.3-0.3,0.3-1.4,2.1-1.5c1-0.1,2.8,0.4,2.8,0.4s-3.8-2.6-7.7-2.6
			c-6.2,0-9.4,3.4-13.1,6.5c-0.3,0.3-1.3-0.3-1.5-2.1C8.6,8.6,9,6.8,9,6.8s-2.5,3.9-2.5,7.8c0,6.2,3.4,9.5,6.4,13.2
			c0.3,0.3-0.3,1.4-2.1,1.5c-1,0.1-2.8-0.4-2.8-0.4s3.8,2.6,7.7,2.6c6.2,0,9.4-3.4,13.1-6.5c0.3-0.3,1.3,0.3,1.5,2.1
			c0.1,1-0.4,2.9-0.4,2.9S32.4,26.1,32.4,22.2z M26.8,26.5c0,0,0.3-1.3,0.3-2c-0.1-1.3-0.8-1.7-1-1.5c-2.6,2.1-4.9,4.6-9.3,4.6
			c-2.7,0-5.4-1.8-5.4-1.8s1.3,0.3,2,0.3c1.3-0.1,1.7-0.8,1.5-1c-2.1-2.6-4.5-5-4.5-9.3c0-2.8,1.8-5.5,1.8-5.5s-0.3,1.3-0.3,2
			c0.1,1.3,0.8,1.7,1,1.5c2.6-2.1,4.9-4.6,9.3-4.6c2.7,0,5.4,1.8,5.4,1.8s-1.3-0.3-2-0.3c-1.3,0.1-1.7,0.8-1.5,1
			c2.1,2.6,4.5,5,4.5,9.3C28.6,23.8,26.8,26.5,26.8,26.5z"/>
	</g>
</g>
</svg>
