<?xml version="1.0" encoding="utf-8"?>
<!-- Generator: Adobe Illustrator 21.1.0, SVG Export Plug-In . SVG Version: 6.00 Build 0)  -->
<svg version="1.1" id="Layer_1" xmlns="http://www.w3.org/2000/svg" xmlns:xlink="http://www.w3.org/1999/xlink" x="0px" y="0px"
	 viewBox="0 0 2000 2000" style="enable-background:new 0 0 2000 2000;" xml:space="preserve">
<g>
	<path d="M1959,873.4c0-21.4-29.4-30.9-58.6-30.9c-28.9,0-59.9,9.7-59.9,30.9v196.2H160.6V873.4c0-21.4-29.4-30.9-58.6-30.9
		c-28.9,0-59.9,9.7-59.9,30.9v370.1h134.6L137.5,1421h73.5l78.4-177.5h1422.5l77.5,175.5l0.9,2h73.4l-39.2-177.5H1959V873.4z
		 M1952.2,1236.7H1816l39.2,177.5h-60.6l-77.5-175.5l-0.9-2H284.9l-78.4,177.5h-60.6l39.2-177.5H48.8V873.4
		c0-15.7,27.4-24.1,53.1-24.1c25.7,0,51.8,8.3,51.8,24.1v203h1693.4v-203c0-15.7,27.4-24.1,53.2-24.1c14.1,0,27.1,2.3,36.6,6.5
		c6.9,3.1,15.2,8.6,15.2,17.6V1236.7z"/>
	<path d="M383.2,767.1c-25,0-45.3,20.3-45.3,45.3s20.3,45.3,45.3,45.3c25,0,45.3-20.3,45.3-45.3S408.2,767.1,383.2,767.1z
		 M383.2,850.9c-21.2,0-38.5-17.3-38.5-38.5c0-21.2,17.3-38.5,38.5-38.5c21.2,0,38.5,17.3,38.5,38.5
		C421.8,833.7,404.5,850.9,383.2,850.9z"/>
	<path d="M1218.3,767.1c-25,0-45.3,20.3-45.3,45.3s20.3,45.3,45.3,45.3c25,0,45.3-20.3,45.3-45.3S1243.3,767.1,1218.3,767.1z
		 M1218.3,850.9c-21.2,0-38.5-17.3-38.5-38.5c0-21.2,17.3-38.5,38.5-38.5c21.2,0,38.5,17.3,38.5,38.5
		C1256.8,833.7,1239.5,850.9,1218.3,850.9z"/>
	<path d="M1818,733.3c0-84.9-69.1-154-154-154H337c-84.9,0-154,69.1-154,154v313.8H1818V733.3z M1811.3,1040.4H189.8V733.3
		c0-81.2,66-147.2,147.2-147.2h1327.1c81.2,0,147.2,66,147.2,147.2V1040.4z"/>
	<path d="M1617.8,767.1c-25,0-45.3,20.3-45.3,45.3s20.3,45.3,45.3,45.3c25,0,45.3-20.3,45.3-45.3S1642.8,767.1,1617.8,767.1z
		 M1617.8,850.9c-21.2,0-38.5-17.3-38.5-38.5c0-21.2,17.3-38.5,38.5-38.5c21.2,0,38.5,17.3,38.5,38.5
		C1656.3,833.7,1639,850.9,1617.8,850.9z"/>
	<path d="M782.7,767.1c-25,0-45.3,20.3-45.3,45.3s20.3,45.3,45.3,45.3s45.3-20.3,45.3-45.3S807.7,767.1,782.7,767.1z M782.7,850.9
		c-21.2,0-38.5-17.3-38.5-38.5c0-21.2,17.3-38.5,38.5-38.5s38.5,17.3,38.5,38.5C821.3,833.7,804,850.9,782.7,850.9z"/>
</g>
</svg>
