<?xml version="1.0" encoding="utf-8"?>
<!-- Generator: Adobe Illustrator 21.1.0, SVG Export Plug-In . SVG Version: 6.00 Build 0)  -->
<svg version="1.1" id="Layer_1" xmlns="http://www.w3.org/2000/svg" xmlns:xlink="http://www.w3.org/1999/xlink" x="0px" y="0px"
	 viewBox="0 0 2000 2000" style="enable-background:new 0 0 2000 2000;" xml:space="preserve">
<path d="M1584.8,925.5c79.5-98.1-87-107.3-205.3-144.3c-118.4-37-194.3-99.9-244.2-212.7c-49.9-112.8-129.5-303.4-227.5-443
	c-98-139.7-344.1-76.8-436.6-58.3c-92.5,18.5-62.9,116.5-62.9,116.5s3.7,212.7,7.4,486.5c2.8,210.3,123.5,275.4,179.4,294.3
	c0,0,35.9,15.7,84.9,30.6c-50.9,117.7-217.9,508.2-286.5,729.5c0,0,25.9,16.6,50,0c0,0,238.3-591,278.9-717.8
	c22.3,5.4,45.9,10,69.2,12.6c0,0,0.1,0,0.1,0c43.7,6.6,91.2,10.6,140.2,12.7v40.8c-6.6,3.8-13,11.1-13.9,25.5
	c-1.9,30.5-47.2,605.8-40.7,860.2c0,0,16.6,10.2,52.7,0c0,0,46.3-649.3,37.9-879.6c0,0-2.2-3-6.5-5.8v-39.8
	c15.7,0.4,31.6,0.5,47.5,0.6c1.6,87.3,8.7,443.3,20,544.5c0,0,22.2,12,49.9,0c0,0-0.8-408.7-19.2-545.1
	c63.9-1.4,127.6-5.7,188.1-12.4l286.2,760c0,0,25,10.2,52.7-4.6c0,0-209.8-620.6-293.8-760.9
	C1437.4,996.2,1554.1,963.4,1584.8,925.5z"/>
</svg>
