<?xml version="1.0" encoding="utf-8"?>
<!-- Generator: Adobe Illustrator 21.1.0, SVG Export Plug-In . SVG Version: 6.00 Build 0)  -->
<svg version="1.1" id="Layer_1" xmlns="http://www.w3.org/2000/svg" xmlns:xlink="http://www.w3.org/1999/xlink" x="0px" y="0px"
	 viewBox="0 0 2000 2000" style="enable-background:new 0 0 2000 2000;" xml:space="preserve">
<g>
	<path d="M1597,905.2v288.1h12.1l12,117h54.8l12-117h189.5l12,117h54.8l12-117h8.7V905.2H1597z M1780.9,962.6c8.8,0,16,6.5,16,14.5
		c0,8-7.2,14.5-16,14.5c-8.8,0-16-6.5-16-14.5C1764.9,969,1772.1,962.6,1780.9,962.6z M1780.9,1141.9c-8.8,0-16-6.5-16-14.5
		c0-8,7.2-14.5,16-14.5c8.8,0,16,6.5,16,14.5C1796.9,1135.4,1789.8,1141.9,1780.9,1141.9z M1964.9,1060.1H1597v-17h367.8V1060.1z"/>
	<path d="M233.3,858.9c-33.4,0-48.2,13.4-48.2,43.6v0.7h583.2v-0.7c0-30.1-14.9-43.6-48.2-43.6H233.3z"/>
	<path d="M840.5,858.9c-33.4,0-48.2,13.4-48.2,43.6v0.7h583.2v-0.7c0-30.1-14.9-43.6-48.2-43.6H840.5z"/>
	<path d="M1412.2,933.3H148.3c-61.9,0-112.1,45.4-112.1,101.4v186.7h61.4l11.1,147.7h78.8l11.1-147.7h1163.6l11.1,147.7h78.8
		l11.1-147.7h61.4v-186.7C1524.4,978.7,1474.2,933.3,1412.2,933.3z"/>
	<path d="M233.3,837.2h486.8c28.1,0,48.4,8.6,60.2,24.5c11.8-15.9,32.1-24.5,60.2-24.5h486.8c28.1,0,48.4,8.6,60.2,24.5V739.3
		c0-72.1-40.7-108.9-120.4-108.9H293.5c-79.8,0-120.4,36.8-120.4,108.9v122.4C184.9,845.8,205.2,837.2,233.3,837.2z"/>
</g>
</svg>
