<?xml version="1.0" encoding="utf-8"?>
<!-- Generator: Adobe Illustrator 21.1.0, SVG Export Plug-In . SVG Version: 6.00 Build 0)  -->
<svg version="1.1" id="Layer_1" xmlns="http://www.w3.org/2000/svg" xmlns:xlink="http://www.w3.org/1999/xlink" x="0px" y="0px"
	 viewBox="0 0 2000 2000" style="enable-background:new 0 0 2000 2000;" xml:space="preserve">
<g>
	<path d="M492.5,971.8c7.9-9.8,10.6-18.1,8.1-25.4c-5.2-15.3-32.3-21.9-61.1-28.9c-10.6-2.6-21.5-5.2-31.5-8.3
		c-48.6-15.2-77.7-40.5-97.3-84.7l-6.4-14.5c-20-45.5-50.1-114.3-86.1-165.4c-38.1-54.2-128-35.4-171.2-26.4c-3,0.6-5.8,1.2-8.3,1.7
		c-11.3,2.3-19.5,7.5-24.4,15.7c-8.4,14-4,31.7-3.2,34.5c0.1,6,1.5,89.9,3,196.7c1.2,87.5,52.5,114.2,74.2,121.6
		c0.1,0.1,13.5,5.9,31.9,11.6c-21.5,49.8-87.6,204.5-115,293l-0.6,1.9l1.7,1.1c0.5,0.3,12.1,7.6,23.2-0.1l0.7-0.5l0.3-0.7
		c1-2.4,94-233.2,112.3-288.6c9,2.1,17.4,3.6,25.4,4.5l0.5,0.1c15.9,2.4,34.2,4.1,54.5,5.1v12.7c-3.4,2.5-5.3,6.4-5.6,11.5
		c-0.1,1.4-0.4,5.4-0.8,11.6c-14.9,202.7-16.7,295.2-15.7,337.1l0,1.4l1.2,0.7c0.2,0.1,3.7,2.2,10.8,2.2c3.4,0,7.6-0.5,12.7-1.9
		l1.8-0.5l0.1-1.9c0.2-2.6,18.7-264.2,15.4-356.6l0-0.8l-0.5-0.7c-0.1-0.1-0.8-1.1-2.1-2.1v-12.1c4.6,0.1,9.3,0.1,14,0.2
		c0.8,44.5,3.7,178.7,8.1,218.2l0.1,1.4l1.2,0.6c0.4,0.2,10.3,5.4,22.5,0.1l1.6-0.7v-1.7c0-1.6-0.4-160.9-7.5-218.2
		c24-0.6,48.1-2.2,71.5-4.7l115.2,305.9l0.4,1.1l1.1,0.5c0.5,0.2,11.4,4.5,23.6-2l2-1.1l-0.7-2.1c-3.4-10.1-82.4-243.1-117.2-305.3
		C438.2,1000.1,480.4,986.7,492.5,971.8z M371.8,1004l-4,0.5l2.1,3.4c31.8,53.1,109.5,280.5,118,305.5c-7.3,3.1-13.6,1.8-16.1,1.1
		l-115.5-306.7l-0.7-1.9l-2,0.2c-24.9,2.7-50.4,4.4-76,5l-3,0.1l0.4,2.9c6.9,51.1,7.7,200.5,7.8,218.6c-7,2.5-12.7,0.9-15.1,0
		c-4.4-41.9-7.2-177.8-7.9-218.8l-0.1-2.6l-2.6,0c-6.4,0-12.8-0.1-19.2-0.2l-2.7-0.1v20.3l1.2,0.8c0.7,0.4,1.1,0.9,1.5,1.2
		c3,88.7-13.6,329.4-15.3,353.2c-8.7,2.1-14,1-16.2,0.3c-1-42.6,1-135.1,15.7-334.9c0.5-6.2,0.8-10.3,0.8-11.6
		c0.2-3.9,1.6-6.5,4.3-8.1l1.3-0.8v-20.7l-2.5-0.1c-20.8-0.9-39.5-2.6-55.7-5l-1-0.1c-8.4-0.9-17.8-2.6-27.7-5l-2.4-0.6l-0.8,2.3
		c-15.8,49.3-106.6,274.8-112.6,289.8c-5.9,3.7-12,1.8-14.9,0.4c28.3-90.3,95.3-246.9,115.3-293.1l1.2-2.7l-2.8-0.9
		c-19.5-5.9-34-12.2-34.3-12.4c-20.9-7.1-69.7-32.7-70.9-116.8c-1.5-110.9-3-197.1-3-197.1l-0.1-0.7c-0.1-0.2-5.2-17.7,2.6-30.7
		c4.1-6.8,11.1-11.2,20.9-13.2c2.5-0.5,5.3-1.1,8.4-1.7c42.1-8.8,129.8-27.1,165.8,24.3c35.6,50.8,65.7,119.2,85.6,164.5l6.4,14.5
		c20,45.1,51,72.1,100.5,87.6c10.1,3.2,21.2,5.9,31.8,8.4c26.1,6.3,53.1,12.9,57.3,25.4c1.8,5.5-0.5,12.1-7.2,20.4
		C477.2,982.3,432.5,995.9,371.8,1004z"/>
	<path d="M1995.7,1293.1c-27.2-87.9-93.4-243.1-115-293c18.3-5.7,31.7-11.5,31.6-11.5c22-7.5,73.3-34.2,74.4-121.7
		c1.4-106.8,2.9-190.7,3-196.7c0.8-2.8,5.2-20.5-3.2-34.5c-4.9-8.1-13.1-13.4-24.4-15.7c-2.5-0.5-5.3-1.1-8.3-1.7
		c-43.2-9-133.1-27.8-171.2,26.4c-35.9,51.2-66.1,119.9-86.1,165.4l-6.4,14.4c-19.5,44.2-48.6,69.5-97.3,84.7
		c-10,3.1-20.9,5.8-31.5,8.3c-28.8,7-55.9,13.5-61.1,28.9c-2.5,7.3,0.2,15.6,8.1,25.4c12.1,14.9,54.3,28.3,116.1,36.9
		c-34.9,62.2-113.8,295.2-117.3,305.3l-0.7,2.1l2,1.1c12.2,6.5,23.2,2.2,23.6,2l1.1-0.5l115.6-307c23.4,2.5,47.4,4.1,71.5,4.7
		c-7.1,57.3-7.5,216.6-7.5,218.2v1.7l1.6,0.7c12.2,5.3,22.1,0.1,22.5-0.1l1.2-0.6l0.1-1.4c4.5-40.7,7.4-183.4,8.1-218.2
		c4.7,0,9.4-0.1,14-0.2v12.1c-1.3,1.1-2,2-2.1,2.1l-0.5,0.7l0,0.8c-3.3,92.4,15.2,354,15.4,356.6l0.1,1.9l1.8,0.5
		c5.1,1.4,9.3,1.9,12.7,1.9c7,0,10.5-2.1,10.8-2.2l1.2-0.7l0-1.4c1.1-42-0.8-134.7-15.7-337.6c-0.5-5.9-0.7-9.8-0.8-11.1
		c-0.3-5.1-2.2-8.9-5.6-11.5v-12.7c20.3-1,38.6-2.7,54.5-5.1l0.1,0c7.9-0.9,16.6-2.4,25.8-4.6c18.3,55.4,111.3,286.3,112.3,288.6
		l0.3,0.7l0.6,0.5c11.1,7.7,22.7,0.4,23.2,0.1l1.7-1.1L1995.7,1293.1z M1975.1,1292.1c-6-15-96.8-240.5-112.6-289.8l-0.7-2.3
		l-2.4,0.6c-9.9,2.4-19.3,4.1-27.7,5l-0.5,0.1c-16.3,2.4-35.1,4.1-56.1,5.1l-2.5,0.1v20.7l1.3,0.8c2.7,1.5,4.1,4.2,4.3,8.1
		c0.1,1.3,0.4,5.2,0.8,11.2c14.7,199.9,16.7,292.6,15.7,335.4c-2.2,0.7-7.6,1.8-16.3-0.3c-1.7-23.8-18.3-264.5-15.3-353.2
		c0.4-0.3,0.8-0.8,1.5-1.2l1.2-0.8v-20.3l-2.7,0.1c-6.3,0.2-12.7,0.2-19.2,0.2l-2.6,0l0,2.6c-0.5,29.1-3.4,175.3-7.9,218.8
		c-2.4,0.9-8.1,2.5-15.1,0c0.1-18.1,0.8-167.4,7.8-218.6l0.4-2.9l-3-0.1c-25.6-0.6-51.1-2.3-76-5l-2-0.2l-116.2,308.6
		c-2.4,0.7-8.8,2-16.1-1.1c8.5-25,86.2-252.4,118-305.5l2.1-3.4l-4-0.5c-60.7-8.2-105.4-21.8-116.6-35.5c-6.7-8.3-9.1-14.9-7.2-20.4
		c4.2-12.5,31.2-19.1,57.3-25.4c10.7-2.6,21.7-5.3,31.8-8.4c49.6-15.5,80.6-42.5,100.5-87.6l6.4-14.5
		c19.9-45.3,49.9-113.8,85.6-164.5c36.1-51.4,123.7-33,165.8-24.3c3,0.6,5.8,1.2,8.4,1.7c9.8,2,16.8,6.4,20.9,13.2
		c7.8,13,2.7,30.5,2.6,30.7l-0.1,0.7c0,0-1.5,86.2-3,197.1c-1.1,84.1-49.9,109.7-71.1,116.8c-0.1,0.1-14.7,6.4-34.1,12.3l-2.8,0.9
		l1.2,2.7c20,46.3,87.2,203.4,115.3,293.1C1987.1,1293.9,1981,1295.8,1975.1,1292.1z"/>
	<path d="M1656.4,813l-198-64.7l-942.9-0.1l-169,64.8v48h197.7l10.5,508.4H608l10.5-508.4h764.2l10.4,505.8l0.1,2.6h53.4l10.5-508.4
		h194.7L1656.4,813z M1646.9,855.8h-195.1l-10.5,508.4h-43.1l-10.4-505.8l-0.1-2.6H613.3l-10.5,508.4h-43l-10.4-505.8l-0.1-2.6
		H351.7v-39.1l164.2-63.2h941.2l193.6,63.2L1646.9,855.8z"/>
</g>
</svg>
