<?xml version="1.0" encoding="utf-8"?>
<!-- Generator: Adobe Illustrator 21.1.0, SVG Export Plug-In . SVG Version: 6.00 Build 0)  -->
<svg version="1.1" id="Layer_1" xmlns="http://www.w3.org/2000/svg" xmlns:xlink="http://www.w3.org/1999/xlink" x="0px" y="0px"
	 viewBox="0 0 2000 2000" style="enable-background:new 0 0 2000 2000;" xml:space="preserve">
<path d="M1301.5,1026.9c150.7-20.9,257.8-54.7,287-90.8c19.3-23.8,25.8-43.9,19.8-61.5c-12.5-37.1-79.2-53.3-149.7-70.4
	c-26.1-6.3-53.1-12.9-77.7-20.6c-120.2-37.6-192.2-100.3-240.6-209.5l-15.5-35.3c-49.2-112.2-123.6-281.8-212.2-408
	C819.3-2.3,598.1,44,491.7,66.3c-7.4,1.6-14.2,3-20.4,4.2c-27.5,5.5-47.4,18.3-59.3,38.1c-20.6,34.4-9.6,77.9-7.8,84.3
	c0.2,13.8,3.8,222.7,7.4,485.1c2.9,214.8,128.8,280.6,182.3,298.7c0.3,0.1,33.9,14.7,79.7,29c-52.6,121.6-216.5,505.8-283.9,723.6
	l-1.2,3.9l3.4,2.2c1.2,0.7,29.1,18.4,55.8-0.1l1.3-0.9l0.6-1.5c2.4-5.9,232.9-577.8,277.1-712.5c22.7,5.3,44.1,9.2,64,11.4l0.9,0.1
	c39.4,5.9,84.9,10.2,135.5,12.5v32.8c-6.3,4.5-12.9,12.9-13.9,28c-0.2,3.3-0.9,13-2,28c-36.7,499.8-41.3,728-38.6,831.4l0.1,2.9
	l2.4,1.5c0.5,0.3,8.9,5.3,25.8,5.3c8.3,0,18.6-1.2,31-4.7l3.6-1l0.2-3.7c0.5-6.5,46.1-651.3,37.9-878.9l-0.1-1.6l-1-1.3
	c-0.2-0.3-2.1-2.8-5.4-5.4V1046c12.2,0.2,24.6,0.4,36.9,0.4c2,108.5,9,441.3,19.9,539l0.3,2.8l2.4,1.3c1,0.6,24.8,13.2,54.5,0.2
	l3.2-1.4v-3.5c0-4-1-398.7-18.5-539.1c60-1.5,119.9-5.5,178.2-11.8l285.2,757.3l2.2,0.9c1.1,0.5,27.6,10.9,57.1-4.9l4-2.1l-1.5-4.3
	C1589.2,1774.7,1387.2,1178.3,1301.5,1026.9z M1537.7,1783l-286.4-760.5l-4.1,0.5c-61.2,6.8-124.3,10.9-187.3,12.3l-5.9,0.1l0.8,5.9
	c17.2,127.4,19,499.3,19.2,540c-18.7,6.8-33.9,2.3-39.6,0c-10.9-102.6-17.8-438.8-19.6-540.3l-0.1-5.2l-5.2,0
	c-15.9,0-31.7-0.1-47.3-0.6l-5.5-0.1v48.1l2.4,1.6c1.9,1.2,3.3,2.5,4.1,3.4c7.6,219.5-33.9,818.7-37.6,872.2
	c-23.2,5.9-37.1,2.6-42.4,0.7c-2.4-104.7,2.4-332.9,38.7-827c1.1-15.1,1.8-24.8,2-28.1c0.6-10.1,4.4-17.2,11.2-21.1l2.7-1.5v-49
	l-5.1-0.2c-51.5-2.3-97.8-6.5-137.8-12.4l-2-0.3c-20.8-2.3-43.8-6.5-68.4-12.4l-4.8-1.2l-1.5,4.7c-39,121.9-264.2,681.4-277.8,714.9
	c-15.8,10-32.1,4.3-39.2,1c69.1-221.4,235.1-609.5,284.6-723.8l2.4-5.5l-5.7-1.7c-48-14.6-83.9-30.2-84.7-30.5
	c-51.8-17.6-172.7-80.9-175.5-289c-3.7-270.3-7.3-483.7-7.4-485.8l-0.2-1.5c-0.1-0.4-12.9-44,6.5-76.5
	c10.3-17.1,27.8-28.2,52.3-33.1c6.2-1.2,13-2.7,20.5-4.2C598,54.9,814.7,9.6,904,136.9c88,125.3,162.1,294.3,211.2,406.2l15.5,35.3
	c49.1,110.8,125.3,177.3,247.1,215.4c24.9,7.8,52.1,14.4,78.4,20.8c67.6,16.4,131.4,31.9,142.1,63.4c4.7,13.9-1.2,30.7-18,51.4
	c-28.1,34.7-135.8,67.6-288.1,88l-8,1.1l4.2,6.9c78.9,131.9,272.3,698.4,291.4,754.4C1560.6,1788.3,1543.5,1784.7,1537.7,1783z"/>
</svg>
