<?xml version="1.0" encoding="utf-8"?>
<!-- Generator: Adobe Illustrator 21.1.0, SVG Export Plug-In . SVG Version: 6.00 Build 0)  -->
<svg version="1.1" id="Layer_1" xmlns="http://www.w3.org/2000/svg" xmlns:xlink="http://www.w3.org/1999/xlink" x="0px" y="0px"
	 viewBox="0 0 2000 2000" style="enable-background:new 0 0 2000 2000;" xml:space="preserve">
<g>
	<path d="M1791.4,994.2c10.5,0,19-7.8,19-17.4c0-9.6-8.5-17.4-19-17.4s-19,7.8-19,17.4C1772.4,986.4,1781,994.2,1791.4,994.2z
		 M1791.4,964.9c7.4,0,13.5,5.3,13.5,11.9c0,6.6-6,11.9-13.5,11.9s-13.5-5.3-13.5-11.9C1777.9,970.2,1784,964.9,1791.4,964.9z"/>
	<path d="M1602.3,901.3v297.4h12.5l11.9,116.1l0.2,2.5h60.5l12.2-118.5h187l12,116.1l0.2,2.5h60.5l12.2-118.5h9.1V901.3H1602.3z
		 M1975.1,1193.2h-8.6l-12.2,118.5h-50.5l-12-116.1l-0.2-2.5h-197l-12.2,118.5h-50.5l-11.9-116.1l-0.2-2.5h-12v-129.5h367.3V1193.2z
		 M1975.1,1058.3h-367.3v-11.8h367.3V1058.3z M1975.1,1041h-367.3V906.8h367.3V1041z"/>
	<path d="M1791.4,1146.6c10.5,0,19-7.8,19-17.4c0-9.6-8.5-17.4-19-17.4s-19,7.8-19,17.4C1772.4,1138.8,1781,1146.6,1791.4,1146.6z
		 M1791.4,1117.3c7.4,0,13.5,5.3,13.5,11.9c0,6.6-6,11.9-13.5,11.9s-13.5-5.3-13.5-11.9C1777.9,1122.6,1784,1117.3,1791.4,1117.3z"
		/>
	<path d="M223,854.4c-35.2,0-51.6,14.9-51.6,46.9v3.5h596.6v-3.5c0-32-16.4-46.9-51.6-46.9H223z M762.4,899.3H176.9
		c0.6-27.6,14.5-39.4,46.1-39.4h493.3C747.9,859.9,761.7,871.7,762.4,899.3z"/>
	<path d="M838.4,854.4c-35.2,0-51.6,14.9-51.6,46.9v3.5h596.6v-3.5c0-32-16.4-46.9-51.6-46.9H838.4z M1377.8,899.3H792.3
		c0.6-27.6,14.5-39.4,46.1-39.4h493.3C1363.3,859.9,1377.2,871.7,1377.8,899.3z"/>
	<path d="M1417.8,929.7H136.9c-64.2,0-116.4,47.3-116.4,105.5v191.9h62.4l11,147.1l0.2,2.5h84.9l11.2-149.7h1174.1l11.2,149.7h84.9
		l11.2-149.7h62.4v-191.9C1534.2,977.1,1481.9,929.7,1417.8,929.7z M1528.7,1221.7h-62l-11.2,149.7h-74.7l-11.2-149.7H185.2
		L174,1371.3H99.2l-11-147.1l-0.2-2.5H26v-186.4c0-55.1,49.7-100,110.9-100h1280.9c61.1,0,110.9,44.9,110.9,100V1221.7z"/>
	<path d="M223,837.9h493.3c27.3,0,47.1,8,58.8,23.7l2.2,3l2.2-3c11.7-15.7,31.5-23.7,58.8-23.7h493.3c27.3,0,47.1,8,58.8,23.7l5,6.7
		V735.9c0-75.1-42-113.1-124.8-113.1H284c-82.8,0-124.8,38-124.8,113.1v132.4l5-6.7C175.8,845.8,195.6,837.9,223,837.9z
		 M164.7,735.9c0-71.4,40.1-107.6,119.3-107.6h986.7c79.2,0,119.3,36.2,119.3,107.6v116.7c-13-13.2-33-20.2-58.3-20.2H838.4
		c-27.2,0-48.2,8-61,23.2c-12.9-15.2-33.9-23.2-61-23.2H223c-25.3,0-45.3,6.9-58.3,20.2V735.9z"/>
</g>
</svg>
