<?xml version="1.0" encoding="utf-8"?>
<!-- Generator: Adobe Illustrator 21.1.0, SVG Export Plug-In . SVG Version: 6.00 Build 0)  -->
<svg version="1.1" id="Layer_1" xmlns="http://www.w3.org/2000/svg" xmlns:xlink="http://www.w3.org/1999/xlink" x="0px" y="0px"
	 viewBox="0 0 2000 2000" style="enable-background:new 0 0 2000 2000;" xml:space="preserve">
<g>
	<path d="M1979.3,1083.7h-75l-334.4-230.6L1852,589.4l2.4-2.2l-51.2-54.8l-13.4,12.5c-40.3-40.8-106.4-42.2-148.3-2.5L1178.7,981
		H165.9c-41.4,0-75,33.7-75,75v27.8H21.8v127.5h238.6l-93.3,205.6h73.2l131.5-205.6h1121.6l99.6,84.5c-9.5,18.4-14.5,39.1-14.5,59.9
		c0,72.5,59,131.5,131.4,131.5c72.5,0,131.5-59,131.5-131.5c0-72.5-59-131.4-131.5-131.4c-11.9,0-23.8,1.7-35.4,4.9l-12.9-17.9
		h317.6V1083.7z M1972.8,1204.8h-323.7l22.9,31.7l2.2-0.7c11.7-3.5,23.8-5.3,35.8-5.3c69,0,125,56.1,125,125c0,69-56.1,125-125,125
		c-68.9,0-125-56.1-125-125c0-20.7,5.2-41.1,14.9-59.2l1.2-2.3l-104.4-88.6l-0.9-0.8H368.3l-131.5,205.6H177l93.3-205.6H28.2v-114.7
		h69.1V1056c0-37.8,30.8-68.6,68.6-68.6h1015.4l464.7-440.2c19.3-18.3,44.6-27.8,71.2-27.2c26.6,0.7,51.3,11.7,70,31.6l2.2,2.7
		l13.6-12.7l42.4,45.4l-282.8,264.3l-2.9,2.7l341.8,235.7l0.8,0.6h70.6V1204.8z"/>
	<path d="M1306.8,1090.1h556.1l-320-220.7L1306.8,1090.1z M1842.3,1083.7H1323l220.5-206L1842.3,1083.7z"/>
</g>
</svg>
