<?xml version="1.0" encoding="utf-8"?>
<!-- Generator: Adobe Illustrator 21.1.0, SVG Export Plug-In . SVG Version: 6.00 Build 0)  -->
<svg version="1.1" id="Layer_1" xmlns="http://www.w3.org/2000/svg" xmlns:xlink="http://www.w3.org/1999/xlink" x="0px" y="0px"
	 viewBox="0 0 2000 2000" style="enable-background:new 0 0 2000 2000;" xml:space="preserve">
<g>
	<path d="M157.4,1520.9h49.9l18.3,87.8h98l18.3-87.8h679.7v-393.8H157.4V1520.9z M164.8,1134.5h849.3v378.9H335.9l-18.3,87.8h-86
		l-18.3-87.8h-48.5V1134.5z"/>
	<path d="M17.6,1225.6v196.7c0,54.3,44.2,98.5,98.5,98.5h3.7v-393.8h-3.7C61.8,1127.1,17.6,1171.3,17.6,1225.6z M112.4,1513.4
		c-48.5-1.9-87.4-42-87.4-91v-196.7c0-49,38.9-89,87.4-91V1513.4z"/>
	<path d="M1884.9,1127.1h-3.7v393.8h3.7c54.3,0,98.5-44.2,98.5-98.5v-196.7C1983.4,1171.3,1939.2,1127.1,1884.9,1127.1z
		 M1976,1422.3c0,49-38.9,89.1-87.4,91v-378.7c48.5,1.9,87.4,42,87.4,91V1422.3z"/>
	<path d="M1059,1520.9h607l18.3,87.8h98l18.3-87.8h43v-393.8H1059V1520.9z M1066.5,1134.5h769.8v378.9h-41.6l-18.3,87.8h-86
		l-18.3-87.8h-605.6V1134.5z"/>
	<path d="M1437.1,436.5H564V958h873.1V436.5z M1429.7,950.6H571.4V443.9h858.3V950.6z"/>
	<path d="M1483.6,389.9H517.4v614.6h966.2V389.9z M1476.2,997.2H524.8V397.4h951.4V997.2z"/>
	<path d="M858.7,1014.8l-47.7,49.5h379l-47.7-49.5H858.7z M828.5,1056.9l33.4-34.6h277.4l33.4,34.6H828.5z"/>
	<path d="M629.1,1114.1H1372v-39.6H629.1V1114.1z M636.5,1081.9h728.1v24.7H636.5V1081.9z"/>
</g>
</svg>
