<?xml version="1.0" encoding="utf-8"?>
<!-- Generator: Adobe Illustrator 21.1.0, SVG Export Plug-In . SVG Version: 6.00 Build 0)  -->
<svg version="1.1" id="Layer_1" xmlns="http://www.w3.org/2000/svg" xmlns:xlink="http://www.w3.org/1999/xlink" x="0px" y="0px"
	 viewBox="0 0 2000 2000" style="enable-background:new 0 0 2000 2000;" xml:space="preserve">
<g>
	<path d="M1049.4,1124.7l-2.8,0.4c-11.1,1.7-23.7,3.2-37.5,4.6l-3.5,0.3l2.8,11.7c3.6,15.1,9.3,39.2,16.6,69.2
		c38.2,159.3,122.5,355.5,135.7,360.5c4.8,1.8,9,2.7,12.6,2.7c3,0,5.7-0.6,7.9-1.8c4.8-2.6,5.9-6.9,6-7.4l0.2-0.8l-120.5-364.2
		L1049.4,1124.7z M1178.3,1566.9c-2.3,1.3-6.9,2-15.2-1.1c-10.3-6.9-91.9-188.7-132.1-356.3c-7.2-30-12.9-54-16.5-69.2l-1.2-4.8
		c11.4-1.2,21.9-2.4,31.4-3.8l16.3,69.8l120,362.7C1180.6,1564.9,1179.8,1566,1178.3,1566.9z"/>
	<path d="M774.3,1121.4l-2.9-0.6l-18.4,78.8l-120.3,363.6l-0.3,0.8l0.2,0.8c0.1,0.5,1.2,4.8,6,7.4c2.3,1.2,4.9,1.8,7.9,1.8
		c3.7,0,7.9-0.9,12.7-2.7c13.2-5,97.5-201.2,135.7-360.5c9.4-39,16.2-67.6,19.1-79.9l0.8-3.4l-3.4-0.4
		C797.1,1125.4,785,1123.5,774.3,1121.4z M789,1209.5c-40.3,167.6-121.9,349.3-131.9,356.2c-8.5,3.2-13,2.5-15.3,1.3
		c-1.6-0.8-2.4-2-2.8-2.8l120-362.7l17.1-73.5c9.2,1.7,19.5,3.3,31.2,4.8C804,1146.6,797.6,1173.6,789,1209.5z"/>
	<path d="M691.4,706.8c0.1-0.3,7.8-28.4,20.2-55.4l2-4.4h-105l11.4-32.8h19.2v-67h-15.9c10.9-6.2,20.3-15,27.2-25.7
		c1.4-2.1,0.9-4.8-1-6.4c-0.8-0.7-1.8-1.1-2.7-1.2c-0.6-1.7-1.8-3-3.5-3.6c-2.8-0.9-5.8-1.4-9-1.4c0.8-7.4,0.8-16.2-3.2-25.1
		c0.4-1.5,0.1-3.2-1-4.6c-1.8-2.3-4.9-2.8-7.1-1.2c-0.9,0.7-1.8,1.4-2.7,2.2c-0.1-3.7-0.4-7.4-0.8-11.3c-0.2-2.1-1.5-4.1-3.4-5
		c-1.8-0.9-4-0.8-5.7,0.2c-2.6,1.5-5.1,3.4-7.6,5.5c-0.2-7.6-1.4-15.2-2.5-22.6l-0.7-4.8c-0.3-1.8-1.5-3.3-3.3-3.9
		c-2-0.7-4.3-0.3-5.8,1.1c-5.4,5-9.6,11.3-12.6,18.7c-0.3-0.8-0.6-1.6-0.8-2.4c-1.5-4.4-3-8.7-4.2-12.9c-0.5-1.9-1.9-3.3-3.8-3.9
		c-1.9-0.6-4.3-0.2-5.9,1.1c-1.6,1.3-3.1,2.7-4.4,4.3c-2.2-5.3-5.4-9.7-9.1-12.4c-3.8-2.7-8.8-2.2-12.3,1.2c-3,2.8-4.4,7-4.9,11.2
		c-2.2-5.5-5-11.1-8.5-17c-0.7-1.2-1.9-2-3.3-2.2c-1.4-0.3-2.9,0.2-4,1.1c-7.3,6.1-13,13.8-17.2,22.8c-3.5-6-8.1-12.2-13.8-18.6
		c-1.1-1.3-2.9-1.9-4.5-1.7c-1.8,0.2-3.5,1.1-4.5,2.7c-3.6,5.7-6,11.1-7.3,16.3c-2-4-4.3-8.1-7-12.6c-0.8-1.3-2.1-2.2-3.6-2.4
		c-1.6-0.3-3.2,0.2-4.5,1.3c-8,6.8-11.6,17.7-13.5,27.5c-4.9-8.3-11.1-16-17.2-22.9c-1-1.2-2.4-1.8-4-1.7c-1.7,0-3.5,0.9-4.6,2.4
		c-3.5,4.5-8.3,10.5-9.9,17.5c-2.1-2.4-4.2-4.7-6.5-6.9c-1-1-2.6-1.6-4.2-1.6c-1.5,0.1-2.8,0.7-3.8,1.8c-7.5,9-10.9,21.3-9.9,34.9
		c-4-5.5-8.3-11.2-13.1-17.5c-1.5-1.9-4.1-2.7-6.4-1.9c-2.1,0.7-3.5,2.6-3.5,4.9l0,2.2c-0.1,26.7-0.2,56.7,21.5,74.6h-21.1v67h21.4
		l13.3,32.8H279.2l-250,127.6v69.7H137V1478h307.6V844.3h207L691.4,706.8z M613.3,539.1c-5.8,3.1-11.8,4.7-18.2,5.5
		c1.7-1.2,3.3-2.5,4.9-3.7c2-1.6,4-3.1,6-4.5c8.3-5.9,15.4-9.7,22.9-12.3l1-0.1l0.4-0.3c1.6-0.5,3.3-1,4.9-1.4
		C628.5,528.7,621.8,534.7,613.3,539.1z M628.2,497.2c0.5,4.8,0.1,9.5-0.5,13.6c-0.2-2.6-0.3-5.2-0.4-7.8c-0.1-1.9-0.1-3.8-0.3-5.7
		L628.2,497.2z M619.6,499.6c0.1,0,0.2-0.1,0.3-0.2c0.4-0.2,0.7-0.5,1-0.7c0.1,1.5,0.1,3,0.2,4.6c0.1,2.6,0.2,5.3,0.4,8
		c-1.5,0.5-3,1-4.5,1.6C618.2,508.8,619,504.4,619.6,499.6z M613.2,521.5c4.4-2.4,8.7-4.1,12.8-5.2l4.8-0.8l-0.1-0.1l0.2,0
		c2.5-0.2,4.8-0.2,6.9,0c-3.4,0.7-6.7,1.5-10,2.6l-0.7,0.2c-8.2,2.8-15.8,6.9-24.7,13.2c-2,1.4-4.1,3-6.2,4.6
		c-4,3.1-8.2,6.3-12.5,8.7l0.1-0.1c1.6-1.6,3.2-3.2,5-4.9l1.6-1.3l-0.5-1.8c1.7-0.6,3.3-1.4,5.2-2.6c2-1.7,4-3.3,6.5-5.2
		c2.4-2.5,4.4-5.4,6.1-8.7l-2.4,5.5L613.2,521.5z M608.1,480.9c0.7,21.1-2.8,35.4-10.5,43.5c-2.2,1.7-4.4,3.4-6,4.8
		c-1.2,0.7-2.4,1.3-3.8,1.8c-0.7,0.3-1.4,0.7-1.9,1C588,516.8,593.6,494.7,608.1,480.9z M589.7,458.1c0-0.3,0-0.6-0.1-0.9
		c0.3-0.4,0.5-0.8,0.8-1.2c0.9,8.1,1.3,16.5,1.4,25.8c-2.4,3.4-4.6,7.1-6.6,11.1c0.2-7.7-1.4-15.5-3.5-23.1
		C586.3,469.1,589.4,464.6,589.7,458.1z M574.3,493.8l-1.7-9.3l0-0.1l0-0.3l4.8-6.5c1.6,7.1,2.4,14.1,1.2,20.8l-2.2,0.3l0.6,3.2
		c0.6,3.2,1.1,6.4,1.4,9.7l1.6,16l1.1-3.7c-1.4,7.4-2.1,13.9-2.4,18.4l-0.4,5.3l-4.9,2.5l-0.8-0.6l0.5-1
		C581.1,530.7,577.6,511.9,574.3,493.8z M570.3,537.4c-2.4-10-2.5-20.8-0.2-32.2C571.9,516.4,572.8,527.1,570.3,537.4z M569.9,472.9
		c0,0.2,0.1,0.3,0.1,0.5c-0.4,0-0.7,0.1-1.1,0.2c-2.3,0.7-3.7,2.8-3.4,5.1c0.2,1.5,0.4,3,0.7,4.5c-2,3.7-3.7,7.7-5,11.9
		c-0.2-0.1-0.4-0.2-0.7-0.3c-0.6-4.6-1.6-9.3-3-14.2c0.3-0.4,0.4-0.9,0.5-1.4c1.4-7.2,3.7-13.6,7.4-20.5l0.2,0.7
		C567.1,463.9,568.5,468.4,569.9,472.9z M560.4,519.5l0,1.8c-0.1-0.6-0.2-1.2-0.2-1.8L560.4,519.5z M559.3,542.1
		c-0.4,1.5-1,2.8-1.7,3.9C558.3,544.8,558.9,543.5,559.3,542.1z M557.9,459.5l0.3-0.9l-0.2-0.7l2.6-4.9c1.6-3,3.5-5.4,5.7-7.6
		l-2.6,4.1c-2.5,3.9-4.5,7.7-6.2,11.3C557.6,460.4,557.7,459.9,557.9,459.5z M556.5,500.7c-0.2,0.2-0.4,0.4-0.6,0.6l-0.1,0.1
		l-0.1-0.5l0,0l0-0.1L556.5,500.7z M552.4,514.6c0.2,0.2,0.5,0.4,0.8,0.6l0.2,1.5c1.8,11.7,3.3,21.7-4.1,30.4H543
		C543.1,534.2,546.2,523.7,552.4,514.6z M519.7,530.3c-0.3-1.6-0.6-3.1-0.9-4.6c-0.5-3-1-6.1-1.6-9.1c4,10.3,6.5,20.1,7.6,30.6h-4.2
		C522,541.6,520.8,535.7,519.7,530.3z M512.2,482.4c-1.2-2.1-3.8-3.1-6.3-2.4c-0.1,0-0.1,0-0.2,0.1l0,0c0.7-1.4,1.4-2.8,2.1-4.2
		c1.4-3,2.8-5.8,4.4-8.5c6.6,13.9,10.7,27.4,13.6,40.3C521.9,499,517.1,490.7,512.2,482.4z M506.1,541.3c0.3,1.7,0.7,3.9,1.5,6H501
		c3.8-5.6,5.9-13.4,6.3-23.1c0.4,2.4,0.9,4.8,1.3,7.1l0.8,4.4C507.1,536.5,505.7,538.8,506.1,541.3z M503.3,470.9l-0.1-0.3l1.7-2.9
		C504.4,468.8,503.9,469.8,503.3,470.9z M490.1,475.3c5.8,21,9.9,50.3,0.2,66.9C480.2,521.1,485,497.9,490.1,475.3z M502.1,483.9
		c-0.1,0.4-0.1,0.8-0.1,1.2c-0.1-0.4-0.2-0.7-0.3-1.1C501.9,484,502,484,502.1,483.9z M533.2,512.4c-2.4-12.1-5.7-24.6-11-37.7
		C527.6,486.9,531.9,499.6,533.2,512.4z M539.5,513.3c-0.1-1.3-0.3-2.7-0.4-4c2.1,0,3.8-1.6,3.9-3.7l0.3-4.5
		c0.3-4.6,0.7-9.1,0.7-13.7c0-1.1-0.5-2.2-1.3-2.9c0.2-3.5,0.5-6.9,0.9-10.3c3.2,9,4.7,17.6,5.8,25.7
		C545.4,503.9,542.1,508.4,539.5,513.3z M541.7,449.6c0.5-1.9,1.9-7.1,2.8-7.5c3.6,3.3,5,8.4,6.4,13.8c0.2,0.9,0.5,1.8,0.7,2.7
		c-0.3,1.3-0.7,2.6-1,3.9c-1.4-3.1-2.9-6.2-4.6-9.3c-0.9-1.7-2.7-2.8-4.6-2.8C541.6,450.1,541.6,449.9,541.7,449.6z M517.1,441.1
		l2.2-2.8c5.9,10.4,9.7,21.5,11.3,32.9l0.6,2.2l0.3,0.1c-0.3,2.1-0.5,4.1-0.6,6.1c-3.7-9.2-8.1-18.2-12.6-26.5
		c-0.9-1.6-2.6-2.7-4.5-2.9c-1.9-0.2-3.8,0.4-5,1.8c-0.3,0.3-0.6,0.7-1,1.1C511,449,514.1,445,517.1,441.1z M505.1,456.3
		c-0.4,0.5-0.8,1.1-1.3,1.7c0,0,0-0.1,0-0.1C504.2,457.4,504.7,456.8,505.1,456.3z M478.9,460.3c-0.1-5,1.2-10.4,3.7-15.9
		c2,2.5,4.1,5.3,6.1,8.3c-0.5,0.3-0.9,0.7-1.3,1.2c-3.6,5.7-6.6,12.2-8.9,19.1c-0.6-2.7-1.3-5.5-2.2-8.3
		C477.9,463.7,478.9,462.1,478.9,460.3z M476.8,537.3c1,3.5,2.3,6.8,3.7,9.9H473C474.8,544.1,476,540.8,476.8,537.3z M479.9,494.3
		c0.6-4.4,1.4-8.7,2.5-13C481.5,485.6,480.6,489.9,479.9,494.3z M449.1,471.8c2.7-9.2,5.1-17,9.2-24.6c6.9,10.4,11.4,23.9,13.2,39.5
		c0.2,1.7,1.3,3,2.8,3.6c-0.5,3.3-0.9,6.6-1.2,9.9c-1.6-5.3-3.3-10.5-5-15.5c-1.9-5.6-3.7-10.9-4.9-15.6c-0.5-1.9-2-3.4-4-3.9
		c-2-0.5-4.1,0.1-5.4,1.5c-2.4,2.6-4.6,5.5-6.5,8.9c-0.1-0.4-0.2-0.7-0.4-1C448,473.9,448.8,473,449.1,471.8z M461,547.2h-1.3
		c-0.1-0.6-0.3-1.1-0.6-1.6c-11.1-19.6-11.9-43.4-2.5-62.5C464.4,504.5,471.5,527.9,461,547.2z M444.4,547.2h-16.4
		c3.3-6.2,5.5-12.8,6.7-20.2c0.5-0.8,1-1.7,1.5-2.5c0.5,1.3,1,2.5,1.6,3.7C440.7,534.8,443.1,540.7,444.4,547.2z M444.2,517.6
		c0.7,8,2.6,16,5.8,23.5l-1.1-1.4c-1.1-3.7-2.5-7.3-4.2-11L444.2,517.6z M440.7,492c-1.2,4.4-2,8.9-2.4,13.4c-0.7,0.1-1.4,0.3-2,0.8
		c-0.2,0.2-0.4,0.3-0.6,0.5c-0.2-5.9-0.7-11.9-1.2-17.7c-0.5-5.9-1-11.9-1.2-17.9C436.5,477.5,438.9,484.4,440.7,492z M429.9,522.3
		l1.5-1.8c-0.5,0.9-1.1,1.7-1.6,2.6C429.8,522.8,429.9,522.5,429.9,522.3z M424.9,539.2c0.7-3.7,1.8-7.4,3.2-11
		C427.4,532,426.3,535.6,424.9,539.2z M413.5,466.9c1.5-6.5,3.4-11.3,6.5-15.9c2.7,3.1,5,6.3,7.2,9.4c-1.3,0.1-2.5,0.6-3.4,1.4
		c-3.4,2.9-6.3,6.2-9,10c-0.5-1.3-1-2.6-1.7-3.8C413.2,467.7,413.4,467.3,413.5,466.9z M423.5,523.2c-2.5,5.7-4.4,11.9-5.2,17.7
		c-0.5,1-1,2.1-1.6,3.1c-0.1-1.3-0.3-2.6-0.4-3.9c-2.5-21.3-5.1-43.2,6.3-60.4c0.2,2,0.3,4,0.5,6
		C424.3,498.8,425.3,511.2,423.5,523.2z M395.6,462.2c6.6,7.4,10.6,14.4,11.2,25.3v0c-3.3,9.9-4.7,21.3-4.1,33.2
		c-2.3-4.8-4.8-9.6-7.7-14.4c0.5-1.1,0.6-2.4,0.2-3.7C391.1,490.8,389.3,474.4,395.6,462.2z M368.7,486.9c14.9,21,25,40,32,60.4H396
		c-0.4-0.4-0.8-0.7-1.1-0.9C373.1,534.3,369.2,512.5,368.7,486.9z M647,838.1H438.5v633.7H143.2V838.1H35.3v-59.7l244.6-125.2H402
		l-18.3-45.1h-19.4v-54.6h121.2l-1,5.6l4.8-5.6h27.1l3.7,5.2l-0.6-5.2h49.6l0.7,1.6l0.8-1.6h6.8l-2.2-1.7l8.1-0.2
		c5.3-0.1,10.8-0.4,16.3-1.4l-9.7,3.3h43.1v54.6h-17.4l-15.7,45.1H704c-11.7,26.4-18.5,51.8-18.6,52l-35.3,121.6L647,838.1z"/>
	<path d="M1210.9,948.1l-49.6-174l-3,0.8l2.9-1c-2.6-10.6-25.8-104.6-49.8-140.4c-24.3-36.4-63.1-38.1-91.5-39.4l-7.3-0.3
		c-28.2-1.5-90.7-2-91.4-2c-0.6,0-63.1,0.4-91.3,2l-7.4,0.3c-28.3,1.3-67.1,3-91.4,39.4c-25,37.4-48.8,136.3-49.7,140.4l-49,172
		c-0.1,0.4-15.3,54.2-23.5,85l-1.7,6.4l6-2.8c1.6-0.8,3.1-1.4,4.9-1.6c9-1.4,19.5,4.9,31.2,18.4c43.8,50.5,126.2,74,259.3,74
		l10.9-0.1l1.8,0.2l0.6-0.2l12.1,0.1c133.2,0,215.6-23.5,259.3-74c11.5-13.2,22.3-19.3,31.3-18.4c1.6,0.2,3.1,0.8,4.8,1.6l6,2.8
		l-1.7-6.3C1229,1013.1,1221.1,984.5,1210.9,948.1z M1225.5,1026.8c-11.4-1.4-23.6,5.4-36.8,20.4c-42.5,49-123.4,71.8-254.7,71.8
		l-6.2,0v0l-19.1,0.1c-131.2,0-212.2-22.8-254.7-71.8c-13.4-15.4-25.5-22.1-36.7-20.4c-0.3,0-0.5,0.1-0.8,0.1
		c8.5-31.4,21.8-78.9,22-79.3l49.1-172.2c0.2-1,24.5-102,48.9-138.5c22.6-33.8,59.6-35.5,86.6-36.7l7.4-0.3c28.1-1.5,90.4-2,91-2
		c0.6,0,62.9,0.4,91,2l7.4,0.3c27,1.2,64,2.9,86.6,36.7c23.4,35,46.4,128,48.9,138.5l49.6,174.3c9.2,32.8,16.5,59.3,21.4,77.2
		C1226,1026.9,1225.7,1026.9,1225.5,1026.8z"/>
	<path d="M1678.9,647.3l-549.8-0.3l2,4.4c12,26,19.4,52.6,20.3,55.5l35.3,121.5l4.3,15.9h164.5V1478h543.5V844.3h66l6.8-69.7
		L1678.9,647.3z M1959.5,838.1h-66.6v633.7h-531.2V838.1h-165.9l-38.4-132.8c-0.8-2.8-7.6-27.1-18.6-52.1H1677l288.4,125.2
		L1959.5,838.1z"/>
</g>
</svg>
