<?xml version="1.0" encoding="utf-8"?>
<!-- Generator: Adobe Illustrator 21.1.0, SVG Export Plug-In . SVG Version: 6.00 Build 0)  -->
<svg version="1.1" id="Layer_1" xmlns="http://www.w3.org/2000/svg" xmlns:xlink="http://www.w3.org/1999/xlink" x="0px" y="0px"
	 viewBox="0 0 2000 2000" style="enable-background:new 0 0 2000 2000;" xml:space="preserve">
<g>
	<path d="M1824.8,1786.9H191.2l-0.1-4.4l-9.9-557.2L72,1283.5l-49.6-30.3v-79.8l1.2-1.3l915.7-958.7h119.8l1.4,1.5l269.3,310.9
		V213.5h278.4v594.6l370.3,365.3v77.1l-41.6,33.3l-2.5-1.3l-109.5-54.7V1786.9z M199.9,1778h1616v-564.6l119.8,59.8l33.9-27.1v-69
		l-370.3-365.3V222.3h-260.7v327.4l-283.6-327.4h-112L31.2,1176.9v71.3l41.1,25.1l117.5-62.7l0.1,7.2L199.9,1778z M1000.9,1506.3
		c-4,0-6.9-0.5-9.5-1l-4.1-0.5c-5.4-0.5-10.9-1-16.7-2.5c-9.1-2.2-18.2-6-25-9c-2-0.7-3.3-1.2-4.7-1.9c-8.9-4.1-18.3-9.5-28.7-16.4
		c-10-6.5-19.4-13.6-30.7-23l-3.8-3.1c-7.7-6.6-16-14.2-24.7-22.7l-2.8-2.7c-3.3-3.1-6.5-6.2-9.9-9.6c-3.6-3.6-7.3-7.5-11-11.5
		c-33.3-35.1-66.2-74.1-103.5-122.8C620.2,1144.4,573,1038.6,573,936.6c0-110.3,91.9-200,205-200c93.9,0,148.1,39.9,207,152.5
		l15.4,29.3l15.3-29.3c59-112.6,113.2-152.5,207-152.5c113.1,0,205.1,89.7,205.1,200c0,101.9-47.1,207.7-152.8,343.1
		c-37.2,48.4-70.4,87.9-101.6,120.7c-4.1,4.5-8.6,9.3-12.8,13.5c-2.9,3-5.9,5.9-8.9,8.7l-3.8,3.7c-8.6,8.3-16.8,15.9-24.6,22.5
		l-3.3,2.8c-10.8,9.1-20.6,16.4-29.7,22.5c-11.8,7.7-21.5,13.3-30.5,17.5l-3.7,1.5c-7.7,3.3-16.7,7-26,9.3c-5.6,1.5-11.1,2-16.7,2.5
		l-4.1,0.6C1007.1,1505.8,1004,1506.3,1000.9,1506.3z M778,745.5c-108.1,0-196.1,85.8-196.1,191.1c0,99.8,46.5,204,150.9,337.6
		c37.1,48.5,69.9,87.3,103,122.2c3.6,3.9,7.3,7.8,10.8,11.3c3.3,3.4,6.5,6.4,9.7,9.5l2.8,2.7c8.6,8.4,16.8,15.9,24.3,22.3l3.8,3.1
		c11,9.2,20.2,16.1,29.9,22.4c10.1,6.7,19.1,11.9,27.6,15.8c1.2,0.6,2.3,1,4.2,1.6c6.8,3,15.4,6.6,23.9,8.7
		c5.2,1.3,10.3,1.8,15.5,2.2l4.5,0.6c4.4,0.8,9.5,1.1,14.9,0.1l4.6-0.6c5.4-0.5,10.5-1,15.5-2.3c8.7-2.1,17.3-5.7,24.7-8.9l3.6-1.4
		c8.4-3.9,17.7-9.3,29.1-16.7c8.8-5.9,18.3-13.1,28.9-21.9l3.3-2.7c7.6-6.4,15.7-13.9,24.1-22.1l3.8-3.7c2.9-2.8,5.9-5.5,8.7-8.5
		c4.2-4.2,8.6-8.9,12.7-13.4c31-32.6,64-71.8,101-120l0,0c104.4-133.8,151-237.9,151-337.7c0-105.4-88-191.1-196.2-191.1
		c-89.8,0-142,38.7-199.1,147.8l-23.2,44.3l-23.2-44.3C920,784.2,867.9,745.5,778,745.5z"/>
</g>
</svg>
