<?xml version="1.0" encoding="utf-8"?>
<!-- Generator: Adobe Illustrator 21.1.0, SVG Export Plug-In . SVG Version: 6.00 Build 0)  -->
<svg version="1.1" id="Layer_1" xmlns="http://www.w3.org/2000/svg" xmlns:xlink="http://www.w3.org/1999/xlink" x="0px" y="0px"
	 viewBox="0 0 2000 2000" style="enable-background:new 0 0 2000 2000;" xml:space="preserve">
<g>
	<path d="M1381.4,810.7c56.9-70.1,111.9-135.6,163.5-194.9c51.3-58.9,96.7-111.5,136.3-157.5c39.6-46,71.4-85.2,94.9-116.6
		c24.5-32.8,36.4-56.5,36.4-72.4c0-34.9-9.5-66.5-28.2-94c-18.4-27-40.3-50.6-65.3-70.3c-24.9-19.6-51.2-35.4-78.2-46.8
		c-27.8-11.7-49-17.4-64.7-17.4h-5.1l-0.5,5.1c-2,23.2-22.2,63.9-60,121c-38.1,57.6-90.9,130.1-156.9,215.3
		c-66.2,85.5-145,185.4-234.1,296.7c-90.6,113.3-189.9,238.4-295.1,371.9c-58.9,74.7-118.2,148.4-176.3,219.2
		c-57.4,69.8-109.2,135.5-154.1,195.2c-45.1,60-81.9,114-109.4,160.4c-28.2,47.5-42.5,87.6-42.5,119.1c0,33.4,9,63.4,26.6,89.1
		c17.3,25.4,37.6,47,60.6,64.3c22.6,17.1,46.7,31.2,71.7,41.9c25,10.7,46.6,16.9,64.2,18.6l5.4,0.5l0.6-5.4
		c6.3-52.2,35.2-121.2,85.8-205c51-84.2,115.6-178.6,192.1-280.6c76.9-102.5,163.2-211.2,256.4-323.2
		C1200.5,1031,1293.3,918.5,1381.4,810.7z M840.2,1461.7c-76.7,102.3-141.6,197-192.7,281.5c-49.8,82.2-78.9,150.8-86.6,203.9
		c-15.5-2.3-34.2-8-55.6-17.2c-24.2-10.3-47.5-24-69.4-40.5c-22-16.5-41.5-37.3-58.1-61.7c-16.4-23.9-24.7-51.8-24.7-82.9
		c0-29.5,13.8-67.7,40.9-113.5c27.3-46.1,63.9-99.7,108.7-159.4c44.8-59.6,96.5-125.1,153.8-194.9
		c58.1-70.7,117.5-144.6,176.5-219.3c105.2-133.5,204.4-258.6,295.1-371.8c89.1-111.4,167.9-211.3,234.2-296.9
		c66.2-85.4,119.1-158.1,157.4-216c36.7-55.5,56.8-95.2,61.1-120.9c13.7,1.1,32.4,6.6,55.5,16.3c26.1,11,51.6,26.3,75.7,45.3
		c24,19,45.2,41.8,62.9,67.8c17.5,25.6,26.3,55.2,26.3,87.7c0,9.1-5.9,27.9-34.2,65.7c-23.2,31.1-55,70.2-94.4,116
		c-39.6,46-85,98.5-136.3,157.5c-51.6,59.4-106.7,125-163.6,195.2C1284.7,911.5,1191.9,1024,1097,1138
		C1003.6,1250.1,917.3,1359,840.2,1461.7z"/>
	<path d="M1908.5,1278.5c-4.7-22.8-20.9-40-48.3-51.2c-35.4-14.6-76.5-20-118.4-13.7c-11.7,1.8-21.3,7.1-28.5,15.7
		c-12.1,7.3-14.7,16.9-14.7,23.7l0.2,1.4c8.1,30.9,0.7,71.2-22.1,119.7c-23.3,49.5-57.6,103.8-101.9,161.3
		c-118.2,149.7-220.3,225.6-303.6,225.6c-9.7,0-19.3-2.9-29.2-8.9c-9.4-5.6-17.2-19.2-23.1-40c-4.1-19.9-2-43.4,6.3-69.9
		c8.4-26.9,21.2-55.9,38-86.2c16.8-30.1,36.6-60.4,58.9-90.2c22.4-29.8,45.5-57.8,68.6-83.1c96.8-105,186.2-160.7,265.3-165.4h9.6
		c5.1,0,12.9-2,24.4-6.4c13-4.9,19.6-19.3,19.6-42.8c0-4.9-1-13.4-3.3-27.6c-2.4-14.2-10.5-27.5-23.6-38.8
		c-22.4-28.7-56.2-43.3-100.6-43.3c-26.2,0-59.3,8.3-98.4,24.7c-38.6,16.2-79.4,39.2-121.3,68.4c-41.7,29.1-84,63.9-125.7,103.5
		c-42,39.9-80.5,83.7-114.5,130.4c-79.6,112.2-113.4,208.1-100.4,285.3c4.4,23.3,15.5,48,33,73.6c17.3,25.4,39.8,49.4,66.8,71.4
		c27.2,22.2,59.6,40.4,96.2,54.2c36.7,13.9,78.4,21,123.8,21c45.5,0,94.8-12.4,146.7-36.9c51.6-24.3,103.8-58.9,155.3-102.7
		c40.9-37.3,79.3-77.4,114.4-119.2c35.2-41.8,65.1-84.5,88.8-126.8c23.6-42.1,41.5-83.2,53.4-122.3
		C1912.3,1343.4,1915,1308.3,1908.5,1278.5z M1889.8,1379.8c-11.7,38.3-29.3,78.6-52.5,120c-23.4,41.8-52.9,83.9-87.6,125.2
		c-34.7,41.4-72.9,81.1-113.2,118c-50.6,43.1-102,77.1-152.7,101c-50.4,23.8-98.1,35.8-142,35.8c-44.1,0-84.4-6.8-119.9-20.3
		c-35.5-13.3-66.8-31-93.1-52.4c-26.2-21.4-48-44.6-64.6-69.1c-16.6-24.3-27.2-47.6-31.2-69.3c-12.5-74.1,20.6-167.3,98.4-276.9
		c33.7-46.1,71.7-89.4,113.2-128.8c41.3-39.2,83.2-73.7,124.4-102.5c41.2-28.7,81.4-51.4,119.3-67.3c37.7-15.8,69.4-23.8,94.1-23.8
		c40.8,0,71.7,13.1,92.5,39.8c11.7,10.4,18.7,21.5,20.7,33c2.1,13.3,3.1,21.5,3.1,25.8c0,18.4-4.2,29.3-12.4,32.4
		c-13.1,5-18.5,5.7-20.5,5.7h-10c-82.4,4.9-174.3,61.8-273.2,169c-23.4,25.7-46.7,53.9-69.3,84c-22.7,30.2-42.8,61-59.8,91.5
		c-17.2,30.9-30.3,60.6-38.9,88.2c-8.8,28.3-11,53.7-6.5,75.9c6.8,24.3,16.1,39.6,28.1,46.9c11.6,6.9,23.3,10.5,35,10.5
		c86.8,0,191.9-77.3,312.3-229.9c44.9-58.2,79.7-113.2,103.3-163.4c23.7-50.6,31.5-93.1,23-126.5c0.1-3.8,1.6-9.1,10-14l1.6-1.3
		c5.6-7,12.8-11.1,22.1-12.5c39.8-6.2,78.9-0.8,112.5,12.9c24,9.9,37.6,24,41.6,43.3v0.1C1903.8,1308.7,1901.2,1342.1,1889.8,1379.8
		z"/>
	<path d="M556.7,986.7c52.6-24.3,105.4-59.6,156.8-105c42.8-35.5,81.9-75.3,116.2-118.3c34.2-42.8,64.1-85.9,88.7-127.9
		c24.7-42.1,42.7-82.9,53.5-121.2c10.9-38.7,13.1-73.4,6.5-103.1c-4.7-24.5-20.9-42.5-48.2-53.8c-35.6-14.5-76.5-20-118.4-13.6
		c-11.8,1.8-21,5.3-27.3,10.2c-20.9,10.5-18.6,24.2-15.8,30.3c6.2,31-1.8,71.5-23.7,120.2c-22.1,49.4-54.8,103.7-97,161.1
		C525.6,815.4,423.4,891.3,344.3,891.3c-14.1,0-26.1-2.6-35.9-7.9c-8.9-4.7-15.7-19.6-19.6-43.5c-4.1-18.3-1.9-41.4,6.3-68.7
		c8.4-27.7,21.1-56.7,38-86.1c16.8-29.4,36.7-59.4,59-89.1c22.3-29.7,45.3-56.8,68.5-80.6C563.3,409.4,651.2,352.9,722,347.7
		c4.5,1.6,9.1,2.4,13.6,2.4c5.1,0,13-2.5,24.7-7.8c13-5.9,19.3-21,19.3-46.2c0-5.1-1-13.5-3.3-26.4c-2.3-13-9.2-26.5-20.9-40.6
		c-26.6-25.1-60.3-37.9-100-37.9c-26.2,0-59.3,8.3-98.4,24.7c-38.8,16.3-80.1,39.3-122.8,68.4c-42.6,28.9-85.5,63.7-127.4,103.5
		c-41.8,39.7-80.3,82.7-114.5,127.9C151.6,569,122.7,621.3,106.5,671C90.3,721,85.4,765.5,91.9,803.4c4.4,23.2,14.9,47.9,31.3,73.5
		c16.3,25.4,38.3,49.5,65.3,71.5c27.1,22.1,59.5,40.4,96.2,54.2c36.8,13.9,78.4,20.9,123.8,20.9
		C454,1023.5,503.8,1011.1,556.7,986.7z M195.5,939.8c-26.2-21.3-47.4-44.5-63-68.9c-15.6-24.3-25.6-47.7-29.7-69.4
		c-6.2-36-1.4-78.8,14.2-127c15.8-48.5,44.1-99.7,84.2-152.2c33.8-44.6,71.9-87.2,113.2-126.5c41.5-39.4,83.9-73.8,126-102.4
		c42.1-28.7,82.8-51.3,120.9-67.3c37.7-15.8,69.3-23.8,94.1-23.8c36.8,0,67.9,11.7,92,34.3c10,12.1,16.1,23.9,18,35
		c2.1,12.1,3.1,20.1,3.1,24.5c0,20.1-4.3,32.3-12.8,36.2c-13.1,5.9-18.2,6.8-20.2,6.8c-3.7,0-7.2-0.7-10.9-2.1l-1.1-0.4l-1.2,0.1
		c-73.8,4.9-164.6,62.5-269.8,171.3c-23.5,24.2-46.9,51.7-69.4,81.7c-22.6,30.1-42.7,60.4-59.7,90.2c-17.3,30.1-30.4,59.8-39,88.4
		c-8.8,29-11,54-6.6,74c4.6,27.9,12.9,44.7,25.3,51.2c11.4,6.1,25.2,9.1,41.1,9.1c82.6,0,187.7-77.3,312.4-230
		c42.8-58.3,75.9-113.2,98.4-163.4c22.8-50.9,31-93.6,24-128.1c-1.4-3.1-4.3-9.7,11.1-17.5c5.6-4.2,13.4-7.1,23.1-8.6
		c40-5.9,78.8-0.8,112.5,13c24,9.9,37.6,24.8,41.6,45.7c6.2,28,4.1,61-6.3,97.8c-10.6,37.4-28.2,77.3-52.4,118.6
		c-24.3,41.5-53.9,84.1-87.8,126.5c-33.9,42.4-72.4,81.6-114.7,116.7l-0.1,0.1c-50.7,44.6-102.6,79.4-154.2,103.3
		c-51.4,23.8-99.8,35.8-143.6,35.8c-44.1,0-84.4-6.8-119.9-20.2C253,978.8,221.7,961.2,195.5,939.8z"/>
</g>
</svg>
